
<svg width="332" height="392" viewBox="0 0 332 392" fill="none" xmlns="http://www.w3.org/2000/svg">
<circle cx="41.5" cy="40.5" r="40.5" fill="#2CBF29"/>
<path d="M26.155 24.0685C26.2137 23.1897 26.6042 22.3661 27.2475 21.7645C27.8908 21.1629 28.7387 20.8283 29.6194 20.8285H32.2323C33.113 20.8283 33.9609 21.1629 34.6042 21.7645C35.2475 22.3661 35.638 23.1897 35.6968 24.0685L37.7009 54.1542C37.7326 54.6284 37.6666 55.104 37.507 55.5516C37.3473 55.9993 37.0975 56.4093 36.7729 56.7565C36.4483 57.1036 36.0559 57.3804 35.62 57.5697C35.1841 57.759 34.714 57.8568 34.2388 57.857H27.613C27.1377 57.8568 26.6676 57.759 26.2317 57.5697C25.7958 57.3804 25.4034 57.1036 25.0788 56.7565C24.7542 56.4093 24.5044 55.9993 24.3448 55.5516C24.1851 55.104 24.1191 54.6284 24.1508 54.1542L26.155 24.0685V24.0685ZM38.8673 57.857C39.6681 56.7925 40.1078 55.4432 40.0106 54.0014L38.8048 35.9037L47.5089 28.0676C47.6751 27.9175 47.8814 27.8189 48.1026 27.7838C48.3238 27.7486 48.5504 27.7784 48.755 27.8696C48.9596 27.9607 49.1334 28.1093 49.2552 28.2973C49.377 28.4852 49.4417 28.7045 49.4413 28.9285V36.7438L59.0803 28.0676C59.2466 27.9175 59.4528 27.8189 59.674 27.7838C59.8952 27.7486 60.1219 27.7784 60.3265 27.8696C60.5311 27.9607 60.7048 28.1093 60.8266 28.2973C60.9484 28.4852 61.0131 28.7045 61.0127 28.9285V54.3856C61.0127 55.3063 60.647 56.1893 59.9959 56.8403C59.3449 57.4913 58.462 57.857 57.5413 57.857H38.865H38.8673ZM56.3841 55.5427V45.8228C56.3841 45.3317 56.1891 44.8608 55.8419 44.5136C55.4947 44.1664 55.0237 43.9713 54.5327 43.9713H46.6641C46.1731 43.9713 45.7022 44.1664 45.355 44.5136C45.0078 44.8608 44.8127 45.3317 44.8127 45.8228V55.5427H56.3841V55.5427Z" fill="white"/>
<path d="M110.68 47V35.8H115.048C116.029 35.8 116.867 35.9547 117.56 36.264C118.253 36.5733 118.787 37.0213 119.16 37.608C119.533 38.1947 119.72 38.8933 119.72 39.704C119.72 40.5147 119.533 41.2133 119.16 41.8C118.787 42.376 118.253 42.824 117.56 43.144C116.867 43.4533 116.029 43.608 115.048 43.608H111.56L112.28 42.856V47H110.68ZM112.28 43.016L111.56 42.216H115C116.024 42.216 116.797 41.9973 117.32 41.56C117.853 41.1227 118.12 40.504 118.12 39.704C118.12 38.904 117.853 38.2853 117.32 37.848C116.797 37.4107 116.024 37.192 115 37.192H111.56L112.28 36.392V43.016ZM125.591 47.096C124.685 47.096 123.885 46.9093 123.191 46.536C122.509 46.1627 121.975 45.6507 121.591 45C121.218 44.3493 121.031 43.6027 121.031 42.76C121.031 41.9173 121.213 41.1707 121.575 40.52C121.949 39.8693 122.455 39.3627 123.095 39C123.746 38.6267 124.477 38.44 125.287 38.44C126.109 38.44 126.834 38.6213 127.463 38.984C128.093 39.3467 128.583 39.8587 128.935 40.52C129.298 41.1707 129.479 41.9333 129.479 42.808C129.479 42.872 129.474 42.9467 129.463 43.032C129.463 43.1173 129.458 43.1973 129.447 43.272H122.231V42.168H128.647L128.023 42.552C128.034 42.008 127.922 41.5227 127.687 41.096C127.453 40.6693 127.127 40.3387 126.711 40.104C126.306 39.8587 125.831 39.736 125.287 39.736C124.754 39.736 124.279 39.8587 123.863 40.104C123.447 40.3387 123.122 40.6747 122.887 41.112C122.653 41.5387 122.535 42.0293 122.535 42.584V42.84C122.535 43.4053 122.663 43.912 122.919 44.36C123.186 44.7973 123.554 45.1387 124.023 45.384C124.493 45.6293 125.031 45.752 125.639 45.752C126.141 45.752 126.594 45.6667 126.999 45.496C127.415 45.3253 127.778 45.0693 128.087 44.728L128.935 45.72C128.551 46.168 128.071 46.5093 127.495 46.744C126.93 46.9787 126.295 47.096 125.591 47.096ZM134.044 47.096C133.34 47.096 132.668 47 132.028 46.808C131.399 46.616 130.903 46.3813 130.54 46.104L131.18 44.888C131.543 45.1333 131.991 45.3413 132.524 45.512C133.058 45.6827 133.602 45.768 134.156 45.768C134.871 45.768 135.383 45.6667 135.692 45.464C136.012 45.2613 136.172 44.9787 136.172 44.616C136.172 44.3493 136.076 44.1413 135.884 43.992C135.692 43.8427 135.436 43.7307 135.116 43.656C134.807 43.5813 134.46 43.5173 134.076 43.464C133.692 43.4 133.308 43.3253 132.924 43.24C132.54 43.144 132.188 43.016 131.868 42.856C131.548 42.6853 131.292 42.456 131.1 42.168C130.908 41.8693 130.812 41.4747 130.812 40.984C130.812 40.472 130.956 40.024 131.244 39.64C131.532 39.256 131.938 38.9627 132.46 38.76C132.994 38.5467 133.623 38.44 134.348 38.44C134.903 38.44 135.463 38.5093 136.028 38.648C136.604 38.776 137.074 38.9627 137.436 39.208L136.78 40.424C136.396 40.168 135.996 39.992 135.58 39.896C135.164 39.8 134.748 39.752 134.332 39.752C133.66 39.752 133.159 39.864 132.828 40.088C132.498 40.3013 132.332 40.5787 132.332 40.92C132.332 41.208 132.428 41.432 132.62 41.592C132.823 41.7413 133.079 41.8587 133.388 41.944C133.708 42.0293 134.06 42.104 134.444 42.168C134.828 42.2213 135.212 42.296 135.596 42.392C135.98 42.4773 136.327 42.6 136.636 42.76C136.956 42.92 137.212 43.144 137.404 43.432C137.607 43.72 137.708 44.104 137.708 44.584C137.708 45.096 137.559 45.5387 137.26 45.912C136.962 46.2853 136.54 46.5787 135.996 46.792C135.452 46.9947 134.802 47.096 134.044 47.096ZM144.892 47V45.208L144.812 44.872V41.816C144.812 41.1653 144.62 40.664 144.236 40.312C143.863 39.9493 143.297 39.768 142.54 39.768C142.039 39.768 141.548 39.8533 141.068 40.024C140.588 40.184 140.183 40.4027 139.852 40.68L139.212 39.528C139.649 39.176 140.172 38.9093 140.78 38.728C141.399 38.536 142.044 38.44 142.716 38.44C143.879 38.44 144.775 38.7227 145.404 39.288C146.033 39.8533 146.348 40.7173 146.348 41.88V47H144.892ZM142.108 47.096C141.479 47.096 140.924 46.9893 140.444 46.776C139.975 46.5627 139.612 46.2693 139.356 45.896C139.1 45.512 138.972 45.08 138.972 44.6C138.972 44.1413 139.079 43.7253 139.292 43.352C139.516 42.9787 139.873 42.68 140.364 42.456C140.865 42.232 141.537 42.12 142.38 42.12H145.068V43.224H142.444C141.676 43.224 141.159 43.352 140.892 43.608C140.625 43.864 140.492 44.1733 140.492 44.536C140.492 44.952 140.657 45.288 140.988 45.544C141.319 45.7893 141.777 45.912 142.364 45.912C142.94 45.912 143.441 45.784 143.868 45.528C144.305 45.272 144.62 44.8987 144.812 44.408L145.116 45.464C144.913 45.9653 144.556 46.3653 144.044 46.664C143.532 46.952 142.887 47.096 142.108 47.096ZM153.718 38.44C154.412 38.44 155.02 38.5733 155.542 38.84C156.076 39.1067 156.492 39.512 156.79 40.056C157.089 40.6 157.238 41.288 157.238 42.12V47H155.702V42.296C155.702 41.4747 155.5 40.856 155.094 40.44C154.7 40.024 154.14 39.816 153.414 39.816C152.87 39.816 152.396 39.9227 151.99 40.136C151.585 40.3493 151.27 40.664 151.046 41.08C150.833 41.496 150.726 42.0133 150.726 42.632V47H149.19V38.52H150.662V40.808L150.422 40.2C150.7 39.6453 151.126 39.2133 151.702 38.904C152.278 38.5947 152.95 38.44 153.718 38.44ZM165.345 47V45.208L165.265 44.872V41.816C165.265 41.1653 165.073 40.664 164.689 40.312C164.316 39.9493 163.75 39.768 162.993 39.768C162.492 39.768 162.001 39.8533 161.521 40.024C161.041 40.184 160.636 40.4027 160.305 40.68L159.665 39.528C160.102 39.176 160.625 38.9093 161.233 38.728C161.852 38.536 162.497 38.44 163.169 38.44C164.332 38.44 165.228 38.7227 165.857 39.288C166.486 39.8533 166.801 40.7173 166.801 41.88V47H165.345ZM162.561 47.096C161.932 47.096 161.377 46.9893 160.897 46.776C160.428 46.5627 160.065 46.2693 159.809 45.896C159.553 45.512 159.425 45.08 159.425 44.6C159.425 44.1413 159.532 43.7253 159.745 43.352C159.969 42.9787 160.326 42.68 160.817 42.456C161.318 42.232 161.99 42.12 162.833 42.12H165.521V43.224H162.897C162.129 43.224 161.612 43.352 161.345 43.608C161.078 43.864 160.945 44.1733 160.945 44.536C160.945 44.952 161.11 45.288 161.441 45.544C161.772 45.7893 162.23 45.912 162.817 45.912C163.393 45.912 163.894 45.784 164.321 45.528C164.758 45.272 165.073 44.8987 165.265 44.408L165.569 45.464C165.366 45.9653 165.009 46.3653 164.497 46.664C163.985 46.952 163.34 47.096 162.561 47.096ZM174.172 38.44C174.865 38.44 175.473 38.5733 175.996 38.84C176.529 39.1067 176.945 39.512 177.244 40.056C177.542 40.6 177.692 41.288 177.692 42.12V47H176.156V42.296C176.156 41.4747 175.953 40.856 175.548 40.44C175.153 40.024 174.593 39.816 173.868 39.816C173.324 39.816 172.849 39.9227 172.444 40.136C172.038 40.3493 171.724 40.664 171.5 41.08C171.286 41.496 171.18 42.0133 171.18 42.632V47H169.644V38.52H171.116V40.808L170.876 40.2C171.153 39.6453 171.58 39.2133 172.156 38.904C172.732 38.5947 173.404 38.44 174.172 38.44ZM187.263 47.096C186.559 47.096 185.887 47 185.247 46.808C184.618 46.616 184.122 46.3813 183.759 46.104L184.399 44.888C184.762 45.1333 185.21 45.3413 185.743 45.512C186.276 45.6827 186.82 45.768 187.375 45.768C188.09 45.768 188.602 45.6667 188.911 45.464C189.231 45.2613 189.391 44.9787 189.391 44.616C189.391 44.3493 189.295 44.1413 189.103 43.992C188.911 43.8427 188.655 43.7307 188.335 43.656C188.026 43.5813 187.679 43.5173 187.295 43.464C186.911 43.4 186.527 43.3253 186.143 43.24C185.759 43.144 185.407 43.016 185.087 42.856C184.767 42.6853 184.511 42.456 184.319 42.168C184.127 41.8693 184.031 41.4747 184.031 40.984C184.031 40.472 184.175 40.024 184.463 39.64C184.751 39.256 185.156 38.9627 185.679 38.76C186.212 38.5467 186.842 38.44 187.567 38.44C188.122 38.44 188.682 38.5093 189.247 38.648C189.823 38.776 190.292 38.9627 190.655 39.208L189.999 40.424C189.615 40.168 189.215 39.992 188.799 39.896C188.383 39.8 187.967 39.752 187.551 39.752C186.879 39.752 186.378 39.864 186.047 40.088C185.716 40.3013 185.551 40.5787 185.551 40.92C185.551 41.208 185.647 41.432 185.839 41.592C186.042 41.7413 186.298 41.8587 186.607 41.944C186.927 42.0293 187.279 42.104 187.663 42.168C188.047 42.2213 188.431 42.296 188.815 42.392C189.199 42.4773 189.546 42.6 189.855 42.76C190.175 42.92 190.431 43.144 190.623 43.432C190.826 43.72 190.927 44.104 190.927 44.584C190.927 45.096 190.778 45.5387 190.479 45.912C190.18 46.2853 189.759 46.5787 189.215 46.792C188.671 46.9947 188.02 47.096 187.263 47.096ZM196.623 47.096C195.716 47.096 194.916 46.9093 194.223 46.536C193.54 46.1627 193.007 45.6507 192.623 45C192.249 44.3493 192.063 43.6027 192.063 42.76C192.063 41.9173 192.244 41.1707 192.607 40.52C192.98 39.8693 193.487 39.3627 194.127 39C194.777 38.6267 195.508 38.44 196.319 38.44C197.14 38.44 197.865 38.6213 198.495 38.984C199.124 39.3467 199.615 39.8587 199.967 40.52C200.329 41.1707 200.511 41.9333 200.511 42.808C200.511 42.872 200.505 42.9467 200.495 43.032C200.495 43.1173 200.489 43.1973 200.479 43.272H193.263V42.168H199.679L199.055 42.552C199.065 42.008 198.953 41.5227 198.719 41.096C198.484 40.6693 198.159 40.3387 197.743 40.104C197.337 39.8587 196.863 39.736 196.319 39.736C195.785 39.736 195.311 39.8587 194.895 40.104C194.479 40.3387 194.153 40.6747 193.919 41.112C193.684 41.5387 193.567 42.0293 193.567 42.584V42.84C193.567 43.4053 193.695 43.912 193.951 44.36C194.217 44.7973 194.585 45.1387 195.055 45.384C195.524 45.6293 196.063 45.752 196.671 45.752C197.172 45.752 197.625 45.6667 198.031 45.496C198.447 45.3253 198.809 45.0693 199.119 44.728L199.967 45.72C199.583 46.168 199.103 46.5093 198.527 46.744C197.961 46.9787 197.327 47.096 196.623 47.096ZM206.148 47.096C205.326 47.096 204.59 46.9147 203.94 46.552C203.3 46.1893 202.793 45.6827 202.42 45.032C202.046 44.3813 201.86 43.624 201.86 42.76C201.86 41.896 202.046 41.144 202.42 40.504C202.793 39.8533 203.3 39.3467 203.94 38.984C204.59 38.6213 205.326 38.44 206.148 38.44C206.862 38.44 207.508 38.6 208.084 38.92C208.66 39.24 209.118 39.72 209.46 40.36C209.812 41 209.988 41.8 209.988 42.76C209.988 43.72 209.817 44.52 209.476 45.16C209.145 45.8 208.692 46.2853 208.116 46.616C207.54 46.936 206.884 47.096 206.148 47.096ZM206.276 45.752C206.809 45.752 207.289 45.6293 207.716 45.384C208.153 45.1387 208.494 44.792 208.74 44.344C208.996 43.8853 209.124 43.3573 209.124 42.76C209.124 42.152 208.996 41.6293 208.74 41.192C208.494 40.744 208.153 40.3973 207.716 40.152C207.289 39.9067 206.809 39.784 206.276 39.784C205.732 39.784 205.246 39.9067 204.82 40.152C204.393 40.3973 204.052 40.744 203.796 41.192C203.54 41.6293 203.412 42.152 203.412 42.76C203.412 43.3573 203.54 43.8853 203.796 44.344C204.052 44.792 204.393 45.1387 204.82 45.384C205.246 45.6293 205.732 45.752 206.276 45.752ZM209.172 47V44.712L209.267 42.744L209.108 40.776V35.128H210.644V47H209.172ZM218.814 47V45.208L218.734 44.872V41.816C218.734 41.1653 218.542 40.664 218.158 40.312C217.784 39.9493 217.219 39.768 216.462 39.768C215.96 39.768 215.47 39.8533 214.99 40.024C214.51 40.184 214.104 40.4027 213.774 40.68L213.134 39.528C213.571 39.176 214.094 38.9093 214.702 38.728C215.32 38.536 215.966 38.44 216.638 38.44C217.8 38.44 218.696 38.7227 219.326 39.288C219.955 39.8533 220.27 40.7173 220.27 41.88V47H218.814ZM216.03 47.096C215.4 47.096 214.846 46.9893 214.366 46.776C213.896 46.5627 213.534 46.2693 213.278 45.896C213.022 45.512 212.894 45.08 212.894 44.6C212.894 44.1413 213 43.7253 213.214 43.352C213.438 42.9787 213.795 42.68 214.286 42.456C214.787 42.232 215.459 42.12 216.302 42.12H218.99V43.224H216.366C215.598 43.224 215.08 43.352 214.814 43.608C214.547 43.864 214.414 44.1733 214.414 44.536C214.414 44.952 214.579 45.288 214.91 45.544C215.24 45.7893 215.699 45.912 216.286 45.912C216.862 45.912 217.363 45.784 217.79 45.528C218.227 45.272 218.542 44.8987 218.734 44.408L219.038 45.464C218.835 45.9653 218.478 46.3653 217.966 46.664C217.454 46.952 216.808 47.096 216.03 47.096ZM227.64 38.44C228.334 38.44 228.942 38.5733 229.464 38.84C229.998 39.1067 230.414 39.512 230.712 40.056C231.011 40.6 231.16 41.288 231.16 42.12V47H229.624V42.296C229.624 41.4747 229.422 40.856 229.016 40.44C228.622 40.024 228.062 39.816 227.336 39.816C226.792 39.816 226.318 39.9227 225.912 40.136C225.507 40.3493 225.192 40.664 224.968 41.08C224.755 41.496 224.648 42.0133 224.648 42.632V47H223.112V38.52H224.584V40.808L224.344 40.2C224.622 39.6453 225.048 39.2133 225.624 38.904C226.2 38.5947 226.872 38.44 227.64 38.44ZM237.715 50.2C236.936 50.2 236.179 50.088 235.443 49.864C234.718 49.6507 234.126 49.3413 233.667 48.936L234.403 47.752C234.798 48.0933 235.283 48.36 235.859 48.552C236.435 48.7547 237.038 48.856 237.667 48.856C238.67 48.856 239.406 48.6213 239.875 48.152C240.344 47.6827 240.579 46.968 240.579 46.008V44.216L240.739 42.536L240.659 40.84V38.52H242.115V45.848C242.115 47.3413 241.742 48.44 240.995 49.144C240.248 49.848 239.155 50.2 237.715 50.2ZM237.523 46.648C236.702 46.648 235.966 46.4773 235.315 46.136C234.675 45.784 234.163 45.2987 233.779 44.68C233.406 44.0613 233.219 43.3467 233.219 42.536C233.219 41.7147 233.406 41 233.779 40.392C234.163 39.7733 234.675 39.2933 235.315 38.952C235.966 38.6107 236.702 38.44 237.523 38.44C238.248 38.44 238.91 38.5893 239.507 38.888C240.104 39.176 240.579 39.624 240.931 40.232C241.294 40.84 241.475 41.608 241.475 42.536C241.475 43.4533 241.294 44.216 240.931 44.824C240.579 45.432 240.104 45.8907 239.507 46.2C238.91 46.4987 238.248 46.648 237.523 46.648ZM237.699 45.304C238.264 45.304 238.766 45.1867 239.203 44.952C239.64 44.7173 239.982 44.392 240.227 43.976C240.483 43.56 240.611 43.08 240.611 42.536C240.611 41.992 240.483 41.512 240.227 41.096C239.982 40.68 239.64 40.36 239.203 40.136C238.766 39.9013 238.264 39.784 237.699 39.784C237.134 39.784 236.627 39.9013 236.179 40.136C235.742 40.36 235.395 40.68 235.139 41.096C234.894 41.512 234.771 41.992 234.771 42.536C234.771 43.08 234.894 43.56 235.139 43.976C235.395 44.392 235.742 44.7173 236.179 44.952C236.627 45.1867 237.134 45.304 237.699 45.304ZM252.851 47.096C252.029 47.096 251.293 46.9147 250.643 46.552C250.003 46.1893 249.496 45.6827 249.123 45.032C248.749 44.3813 248.563 43.624 248.563 42.76C248.563 41.896 248.749 41.144 249.123 40.504C249.496 39.8533 250.003 39.3467 250.643 38.984C251.293 38.6213 252.029 38.44 252.851 38.44C253.565 38.44 254.211 38.6 254.787 38.92C255.363 39.24 255.821 39.72 256.163 40.36C256.515 41 256.691 41.8 256.691 42.76C256.691 43.72 256.52 44.52 256.179 45.16C255.848 45.8 255.395 46.2853 254.819 46.616C254.243 46.936 253.587 47.096 252.851 47.096ZM252.979 45.752C253.512 45.752 253.992 45.6293 254.419 45.384C254.856 45.1387 255.197 44.792 255.443 44.344C255.699 43.8853 255.827 43.3573 255.827 42.76C255.827 42.152 255.699 41.6293 255.443 41.192C255.197 40.744 254.856 40.3973 254.419 40.152C253.992 39.9067 253.512 39.784 252.979 39.784C252.435 39.784 251.949 39.9067 251.523 40.152C251.096 40.3973 250.755 40.744 250.499 41.192C250.243 41.6293 250.115 42.152 250.115 42.76C250.115 43.3573 250.243 43.8853 250.499 44.344C250.755 44.792 251.096 45.1387 251.523 45.384C251.949 45.6293 252.435 45.752 252.979 45.752ZM255.875 47V44.712L255.971 42.744L255.811 40.776V35.128H257.347V47H255.875ZM260.253 47V38.52H261.789V47H260.253ZM261.021 36.888C260.722 36.888 260.472 36.792 260.269 36.6C260.077 36.408 259.981 36.1733 259.981 35.896C259.981 35.608 260.077 35.368 260.269 35.176C260.472 34.984 260.722 34.888 261.021 34.888C261.32 34.888 261.565 34.984 261.757 35.176C261.96 35.3573 262.061 35.5867 262.061 35.864C262.061 36.152 261.965 36.3973 261.773 36.6C261.581 36.792 261.33 36.888 261.021 36.888ZM114.952 67.096C114.248 67.096 113.603 66.936 113.016 66.616C112.44 66.2853 111.976 65.8 111.624 65.16C111.283 64.52 111.112 63.72 111.112 62.76C111.112 61.8 111.277 61 111.608 60.36C111.949 59.72 112.408 59.24 112.984 58.92C113.571 58.6 114.227 58.44 114.952 58.44C115.784 58.44 116.52 58.6213 117.16 58.984C117.8 59.3467 118.307 59.8533 118.68 60.504C119.053 61.144 119.24 61.896 119.24 62.76C119.24 63.624 119.053 64.3813 118.68 65.032C118.307 65.6827 117.8 66.1893 117.16 66.552C116.52 66.9147 115.784 67.096 114.952 67.096ZM110.456 70.104V58.52H111.928V60.808L111.832 62.776L111.992 64.744V70.104H110.456ZM114.824 65.752C115.368 65.752 115.853 65.6293 116.28 65.384C116.717 65.1387 117.059 64.792 117.304 64.344C117.56 63.8853 117.688 63.3573 117.688 62.76C117.688 62.152 117.56 61.6293 117.304 61.192C117.059 60.744 116.717 60.3973 116.28 60.152C115.853 59.9067 115.368 59.784 114.824 59.784C114.291 59.784 113.805 59.9067 113.368 60.152C112.941 60.3973 112.6 60.744 112.344 61.192C112.099 61.6293 111.976 62.152 111.976 62.76C111.976 63.3573 112.099 63.8853 112.344 64.344C112.6 64.792 112.941 65.1387 113.368 65.384C113.805 65.6293 114.291 65.752 114.824 65.752ZM121.362 67V58.52H122.834V60.824L122.69 60.248C122.925 59.6613 123.32 59.2133 123.874 58.904C124.429 58.5947 125.112 58.44 125.922 58.44V59.928C125.858 59.9173 125.794 59.912 125.73 59.912C125.677 59.912 125.624 59.912 125.57 59.912C124.749 59.912 124.098 60.1573 123.618 60.648C123.138 61.1387 122.898 61.848 122.898 62.776V67H121.362ZM131.369 67.096C130.516 67.096 129.759 66.9093 129.097 66.536C128.436 66.1627 127.913 65.6507 127.529 65C127.145 64.3387 126.953 63.592 126.953 62.76C126.953 61.9173 127.145 61.1707 127.529 60.52C127.913 59.8693 128.436 59.3627 129.097 59C129.759 58.6267 130.516 58.44 131.369 58.44C132.212 58.44 132.964 58.6267 133.625 59C134.297 59.3627 134.82 59.8693 135.193 60.52C135.577 61.16 135.769 61.9067 135.769 62.76C135.769 63.6027 135.577 64.3493 135.193 65C134.82 65.6507 134.297 66.1627 133.625 66.536C132.964 66.9093 132.212 67.096 131.369 67.096ZM131.369 65.752C131.913 65.752 132.399 65.6293 132.825 65.384C133.263 65.1387 133.604 64.792 133.849 64.344C134.095 63.8853 134.217 63.3573 134.217 62.76C134.217 62.152 134.095 61.6293 133.849 61.192C133.604 60.744 133.263 60.3973 132.825 60.152C132.399 59.9067 131.913 59.784 131.369 59.784C130.825 59.784 130.34 59.9067 129.913 60.152C129.487 60.3973 129.145 60.744 128.889 61.192C128.633 61.6293 128.505 62.152 128.505 62.76C128.505 63.3573 128.633 63.8853 128.889 64.344C129.145 64.792 129.487 65.1387 129.913 65.384C130.34 65.6293 130.825 65.752 131.369 65.752ZM141.398 67.096C140.576 67.096 139.84 66.9147 139.19 66.552C138.55 66.1893 138.043 65.6827 137.67 65.032C137.296 64.3813 137.11 63.624 137.11 62.76C137.11 61.896 137.296 61.144 137.67 60.504C138.043 59.8533 138.55 59.3467 139.19 58.984C139.84 58.6213 140.576 58.44 141.398 58.44C142.112 58.44 142.758 58.6 143.334 58.92C143.91 59.24 144.368 59.72 144.71 60.36C145.062 61 145.238 61.8 145.238 62.76C145.238 63.72 145.067 64.52 144.726 65.16C144.395 65.8 143.942 66.2853 143.366 66.616C142.79 66.936 142.134 67.096 141.398 67.096ZM141.526 65.752C142.059 65.752 142.539 65.6293 142.966 65.384C143.403 65.1387 143.744 64.792 143.99 64.344C144.246 63.8853 144.374 63.3573 144.374 62.76C144.374 62.152 144.246 61.6293 143.99 61.192C143.744 60.744 143.403 60.3973 142.966 60.152C142.539 59.9067 142.059 59.784 141.526 59.784C140.982 59.784 140.496 59.9067 140.07 60.152C139.643 60.3973 139.302 60.744 139.046 61.192C138.79 61.6293 138.662 62.152 138.662 62.76C138.662 63.3573 138.79 63.8853 139.046 64.344C139.302 64.792 139.643 65.1387 140.07 65.384C140.496 65.6293 140.982 65.752 141.526 65.752ZM144.422 67V64.712L144.517 62.744L144.358 60.776V55.128H145.894V67H144.422ZM152.368 67.096C151.642 67.096 151.002 66.9627 150.448 66.696C149.904 66.4293 149.477 66.024 149.168 65.48C148.869 64.9253 148.72 64.232 148.72 63.4V58.52H150.256V63.224C150.256 64.056 150.453 64.68 150.848 65.096C151.253 65.512 151.818 65.72 152.544 65.72C153.077 65.72 153.541 65.6133 153.936 65.4C154.33 65.176 154.634 64.856 154.848 64.44C155.061 64.0133 155.168 63.5013 155.168 62.904V58.52H156.704V67H155.248V64.712L155.488 65.32C155.21 65.8853 154.794 66.3227 154.24 66.632C153.685 66.9413 153.061 67.096 152.368 67.096ZM160.876 64.952L160.908 62.984L165.788 58.52H167.644L163.9 62.2L163.068 62.904L160.876 64.952ZM159.628 67V55.128H161.164V67H159.628ZM166.108 67L162.78 62.872L163.772 61.64L167.996 67H166.108ZM171.654 67.096C170.95 67.096 170.278 67 169.638 66.808C169.008 66.616 168.512 66.3813 168.15 66.104L168.79 64.888C169.152 65.1333 169.6 65.3413 170.134 65.512C170.667 65.6827 171.211 65.768 171.766 65.768C172.48 65.768 172.992 65.6667 173.302 65.464C173.622 65.2613 173.782 64.9787 173.782 64.616C173.782 64.3493 173.686 64.1413 173.494 63.992C173.302 63.8427 173.046 63.7307 172.726 63.656C172.416 63.5813 172.07 63.5173 171.686 63.464C171.302 63.4 170.918 63.3253 170.534 63.24C170.15 63.144 169.798 63.016 169.478 62.856C169.158 62.6853 168.902 62.456 168.71 62.168C168.518 61.8693 168.422 61.4747 168.422 60.984C168.422 60.472 168.566 60.024 168.854 59.64C169.142 59.256 169.547 58.9627 170.07 58.76C170.603 58.5467 171.232 58.44 171.958 58.44C172.512 58.44 173.072 58.5093 173.638 58.648C174.214 58.776 174.683 58.9627 175.046 59.208L174.39 60.424C174.006 60.168 173.606 59.992 173.19 59.896C172.774 59.8 172.358 59.752 171.942 59.752C171.27 59.752 170.768 59.864 170.438 60.088C170.107 60.3013 169.942 60.5787 169.942 60.92C169.942 61.208 170.038 61.432 170.23 61.592C170.432 61.7413 170.688 61.8587 170.998 61.944C171.318 62.0293 171.67 62.104 172.054 62.168C172.438 62.2213 172.822 62.296 173.206 62.392C173.59 62.4773 173.936 62.6 174.246 62.76C174.566 62.92 174.822 63.144 175.014 63.432C175.216 63.72 175.318 64.104 175.318 64.584C175.318 65.096 175.168 65.5387 174.87 65.912C174.571 66.2853 174.15 66.5787 173.606 66.792C173.062 66.9947 172.411 67.096 171.654 67.096ZM177.237 67V58.52H178.773V67H177.237ZM178.005 56.888C177.707 56.888 177.456 56.792 177.253 56.6C177.061 56.408 176.965 56.1733 176.965 55.896C176.965 55.608 177.061 55.368 177.253 55.176C177.456 54.984 177.707 54.888 178.005 54.888C178.304 54.888 178.549 54.984 178.741 55.176C178.944 55.3573 179.045 55.5867 179.045 55.864C179.045 56.152 178.949 56.3973 178.757 56.6C178.565 56.792 178.315 56.888 178.005 56.888Z" fill="#171A23"/>
<path d="M110.68 196V184.8H115.048C116.029 184.8 116.867 184.955 117.56 185.264C118.253 185.573 118.787 186.021 119.16 186.608C119.533 187.195 119.72 187.893 119.72 188.704C119.72 189.515 119.533 190.213 119.16 190.8C118.787 191.376 118.253 191.824 117.56 192.144C116.867 192.453 116.029 192.608 115.048 192.608H111.56L112.28 191.856V196H110.68ZM112.28 192.016L111.56 191.216H115C116.024 191.216 116.797 190.997 117.32 190.56C117.853 190.123 118.12 189.504 118.12 188.704C118.12 187.904 117.853 187.285 117.32 186.848C116.797 186.411 116.024 186.192 115 186.192H111.56L112.28 185.392V192.016ZM125.591 196.096C124.685 196.096 123.885 195.909 123.191 195.536C122.509 195.163 121.975 194.651 121.591 194C121.218 193.349 121.031 192.603 121.031 191.76C121.031 190.917 121.213 190.171 121.575 189.52C121.949 188.869 122.455 188.363 123.095 188C123.746 187.627 124.477 187.44 125.287 187.44C126.109 187.44 126.834 187.621 127.463 187.984C128.093 188.347 128.583 188.859 128.935 189.52C129.298 190.171 129.479 190.933 129.479 191.808C129.479 191.872 129.474 191.947 129.463 192.032C129.463 192.117 129.458 192.197 129.447 192.272H122.231V191.168H128.647L128.023 191.552C128.034 191.008 127.922 190.523 127.687 190.096C127.453 189.669 127.127 189.339 126.711 189.104C126.306 188.859 125.831 188.736 125.287 188.736C124.754 188.736 124.279 188.859 123.863 189.104C123.447 189.339 123.122 189.675 122.887 190.112C122.653 190.539 122.535 191.029 122.535 191.584V191.84C122.535 192.405 122.663 192.912 122.919 193.36C123.186 193.797 123.554 194.139 124.023 194.384C124.493 194.629 125.031 194.752 125.639 194.752C126.141 194.752 126.594 194.667 126.999 194.496C127.415 194.325 127.778 194.069 128.087 193.728L128.935 194.72C128.551 195.168 128.071 195.509 127.495 195.744C126.93 195.979 126.295 196.096 125.591 196.096ZM134.044 196.096C133.34 196.096 132.668 196 132.028 195.808C131.399 195.616 130.903 195.381 130.54 195.104L131.18 193.888C131.543 194.133 131.991 194.341 132.524 194.512C133.058 194.683 133.602 194.768 134.156 194.768C134.871 194.768 135.383 194.667 135.692 194.464C136.012 194.261 136.172 193.979 136.172 193.616C136.172 193.349 136.076 193.141 135.884 192.992C135.692 192.843 135.436 192.731 135.116 192.656C134.807 192.581 134.46 192.517 134.076 192.464C133.692 192.4 133.308 192.325 132.924 192.24C132.54 192.144 132.188 192.016 131.868 191.856C131.548 191.685 131.292 191.456 131.1 191.168C130.908 190.869 130.812 190.475 130.812 189.984C130.812 189.472 130.956 189.024 131.244 188.64C131.532 188.256 131.938 187.963 132.46 187.76C132.994 187.547 133.623 187.44 134.348 187.44C134.903 187.44 135.463 187.509 136.028 187.648C136.604 187.776 137.074 187.963 137.436 188.208L136.78 189.424C136.396 189.168 135.996 188.992 135.58 188.896C135.164 188.8 134.748 188.752 134.332 188.752C133.66 188.752 133.159 188.864 132.828 189.088C132.498 189.301 132.332 189.579 132.332 189.92C132.332 190.208 132.428 190.432 132.62 190.592C132.823 190.741 133.079 190.859 133.388 190.944C133.708 191.029 134.06 191.104 134.444 191.168C134.828 191.221 135.212 191.296 135.596 191.392C135.98 191.477 136.327 191.6 136.636 191.76C136.956 191.92 137.212 192.144 137.404 192.432C137.607 192.72 137.708 193.104 137.708 193.584C137.708 194.096 137.559 194.539 137.26 194.912C136.962 195.285 136.54 195.579 135.996 195.792C135.452 195.995 134.802 196.096 134.044 196.096ZM144.892 196V194.208L144.812 193.872V190.816C144.812 190.165 144.62 189.664 144.236 189.312C143.863 188.949 143.297 188.768 142.54 188.768C142.039 188.768 141.548 188.853 141.068 189.024C140.588 189.184 140.183 189.403 139.852 189.68L139.212 188.528C139.649 188.176 140.172 187.909 140.78 187.728C141.399 187.536 142.044 187.44 142.716 187.44C143.879 187.44 144.775 187.723 145.404 188.288C146.033 188.853 146.348 189.717 146.348 190.88V196H144.892ZM142.108 196.096C141.479 196.096 140.924 195.989 140.444 195.776C139.975 195.563 139.612 195.269 139.356 194.896C139.1 194.512 138.972 194.08 138.972 193.6C138.972 193.141 139.079 192.725 139.292 192.352C139.516 191.979 139.873 191.68 140.364 191.456C140.865 191.232 141.537 191.12 142.38 191.12H145.068V192.224H142.444C141.676 192.224 141.159 192.352 140.892 192.608C140.625 192.864 140.492 193.173 140.492 193.536C140.492 193.952 140.657 194.288 140.988 194.544C141.319 194.789 141.777 194.912 142.364 194.912C142.94 194.912 143.441 194.784 143.868 194.528C144.305 194.272 144.62 193.899 144.812 193.408L145.116 194.464C144.913 194.965 144.556 195.365 144.044 195.664C143.532 195.952 142.887 196.096 142.108 196.096ZM153.718 187.44C154.412 187.44 155.02 187.573 155.542 187.84C156.076 188.107 156.492 188.512 156.79 189.056C157.089 189.6 157.238 190.288 157.238 191.12V196H155.702V191.296C155.702 190.475 155.5 189.856 155.094 189.44C154.7 189.024 154.14 188.816 153.414 188.816C152.87 188.816 152.396 188.923 151.99 189.136C151.585 189.349 151.27 189.664 151.046 190.08C150.833 190.496 150.726 191.013 150.726 191.632V196H149.19V187.52H150.662V189.808L150.422 189.2C150.7 188.645 151.126 188.213 151.702 187.904C152.278 187.595 152.95 187.44 153.718 187.44ZM165.345 196V194.208L165.265 193.872V190.816C165.265 190.165 165.073 189.664 164.689 189.312C164.316 188.949 163.75 188.768 162.993 188.768C162.492 188.768 162.001 188.853 161.521 189.024C161.041 189.184 160.636 189.403 160.305 189.68L159.665 188.528C160.102 188.176 160.625 187.909 161.233 187.728C161.852 187.536 162.497 187.44 163.169 187.44C164.332 187.44 165.228 187.723 165.857 188.288C166.486 188.853 166.801 189.717 166.801 190.88V196H165.345ZM162.561 196.096C161.932 196.096 161.377 195.989 160.897 195.776C160.428 195.563 160.065 195.269 159.809 194.896C159.553 194.512 159.425 194.08 159.425 193.6C159.425 193.141 159.532 192.725 159.745 192.352C159.969 191.979 160.326 191.68 160.817 191.456C161.318 191.232 161.99 191.12 162.833 191.12H165.521V192.224H162.897C162.129 192.224 161.612 192.352 161.345 192.608C161.078 192.864 160.945 193.173 160.945 193.536C160.945 193.952 161.11 194.288 161.441 194.544C161.772 194.789 162.23 194.912 162.817 194.912C163.393 194.912 163.894 194.784 164.321 194.528C164.758 194.272 165.073 193.899 165.265 193.408L165.569 194.464C165.366 194.965 165.009 195.365 164.497 195.664C163.985 195.952 163.34 196.096 162.561 196.096ZM174.172 187.44C174.865 187.44 175.473 187.573 175.996 187.84C176.529 188.107 176.945 188.512 177.244 189.056C177.542 189.6 177.692 190.288 177.692 191.12V196H176.156V191.296C176.156 190.475 175.953 189.856 175.548 189.44C175.153 189.024 174.593 188.816 173.868 188.816C173.324 188.816 172.849 188.923 172.444 189.136C172.038 189.349 171.724 189.664 171.5 190.08C171.286 190.496 171.18 191.013 171.18 191.632V196H169.644V187.52H171.116V189.808L170.876 189.2C171.153 188.645 171.58 188.213 172.156 187.904C172.732 187.595 173.404 187.44 174.172 187.44ZM187.263 196.096C186.559 196.096 185.887 196 185.247 195.808C184.618 195.616 184.122 195.381 183.759 195.104L184.399 193.888C184.762 194.133 185.21 194.341 185.743 194.512C186.276 194.683 186.82 194.768 187.375 194.768C188.09 194.768 188.602 194.667 188.911 194.464C189.231 194.261 189.391 193.979 189.391 193.616C189.391 193.349 189.295 193.141 189.103 192.992C188.911 192.843 188.655 192.731 188.335 192.656C188.026 192.581 187.679 192.517 187.295 192.464C186.911 192.4 186.527 192.325 186.143 192.24C185.759 192.144 185.407 192.016 185.087 191.856C184.767 191.685 184.511 191.456 184.319 191.168C184.127 190.869 184.031 190.475 184.031 189.984C184.031 189.472 184.175 189.024 184.463 188.64C184.751 188.256 185.156 187.963 185.679 187.76C186.212 187.547 186.842 187.44 187.567 187.44C188.122 187.44 188.682 187.509 189.247 187.648C189.823 187.776 190.292 187.963 190.655 188.208L189.999 189.424C189.615 189.168 189.215 188.992 188.799 188.896C188.383 188.8 187.967 188.752 187.551 188.752C186.879 188.752 186.378 188.864 186.047 189.088C185.716 189.301 185.551 189.579 185.551 189.92C185.551 190.208 185.647 190.432 185.839 190.592C186.042 190.741 186.298 190.859 186.607 190.944C186.927 191.029 187.279 191.104 187.663 191.168C188.047 191.221 188.431 191.296 188.815 191.392C189.199 191.477 189.546 191.6 189.855 191.76C190.175 191.92 190.431 192.144 190.623 192.432C190.826 192.72 190.927 193.104 190.927 193.584C190.927 194.096 190.778 194.539 190.479 194.912C190.18 195.285 189.759 195.579 189.215 195.792C188.671 195.995 188.02 196.096 187.263 196.096ZM196.623 196.096C195.716 196.096 194.916 195.909 194.223 195.536C193.54 195.163 193.007 194.651 192.623 194C192.249 193.349 192.063 192.603 192.063 191.76C192.063 190.917 192.244 190.171 192.607 189.52C192.98 188.869 193.487 188.363 194.127 188C194.777 187.627 195.508 187.44 196.319 187.44C197.14 187.44 197.865 187.621 198.495 187.984C199.124 188.347 199.615 188.859 199.967 189.52C200.329 190.171 200.511 190.933 200.511 191.808C200.511 191.872 200.505 191.947 200.495 192.032C200.495 192.117 200.489 192.197 200.479 192.272H193.263V191.168H199.679L199.055 191.552C199.065 191.008 198.953 190.523 198.719 190.096C198.484 189.669 198.159 189.339 197.743 189.104C197.337 188.859 196.863 188.736 196.319 188.736C195.785 188.736 195.311 188.859 194.895 189.104C194.479 189.339 194.153 189.675 193.919 190.112C193.684 190.539 193.567 191.029 193.567 191.584V191.84C193.567 192.405 193.695 192.912 193.951 193.36C194.217 193.797 194.585 194.139 195.055 194.384C195.524 194.629 196.063 194.752 196.671 194.752C197.172 194.752 197.625 194.667 198.031 194.496C198.447 194.325 198.809 194.069 199.119 193.728L199.967 194.72C199.583 195.168 199.103 195.509 198.527 195.744C197.961 195.979 197.327 196.096 196.623 196.096ZM206.148 196.096C205.326 196.096 204.59 195.915 203.94 195.552C203.3 195.189 202.793 194.683 202.42 194.032C202.046 193.381 201.86 192.624 201.86 191.76C201.86 190.896 202.046 190.144 202.42 189.504C202.793 188.853 203.3 188.347 203.94 187.984C204.59 187.621 205.326 187.44 206.148 187.44C206.862 187.44 207.508 187.6 208.084 187.92C208.66 188.24 209.118 188.72 209.46 189.36C209.812 190 209.988 190.8 209.988 191.76C209.988 192.72 209.817 193.52 209.476 194.16C209.145 194.8 208.692 195.285 208.116 195.616C207.54 195.936 206.884 196.096 206.148 196.096ZM206.276 194.752C206.809 194.752 207.289 194.629 207.716 194.384C208.153 194.139 208.494 193.792 208.74 193.344C208.996 192.885 209.124 192.357 209.124 191.76C209.124 191.152 208.996 190.629 208.74 190.192C208.494 189.744 208.153 189.397 207.716 189.152C207.289 188.907 206.809 188.784 206.276 188.784C205.732 188.784 205.246 188.907 204.82 189.152C204.393 189.397 204.052 189.744 203.796 190.192C203.54 190.629 203.412 191.152 203.412 191.76C203.412 192.357 203.54 192.885 203.796 193.344C204.052 193.792 204.393 194.139 204.82 194.384C205.246 194.629 205.732 194.752 206.276 194.752ZM209.172 196V193.712L209.267 191.744L209.108 189.776V184.128H210.644V196H209.172ZM218.814 196V194.208L218.734 193.872V190.816C218.734 190.165 218.542 189.664 218.158 189.312C217.784 188.949 217.219 188.768 216.462 188.768C215.96 188.768 215.47 188.853 214.99 189.024C214.51 189.184 214.104 189.403 213.774 189.68L213.134 188.528C213.571 188.176 214.094 187.909 214.702 187.728C215.32 187.536 215.966 187.44 216.638 187.44C217.8 187.44 218.696 187.723 219.326 188.288C219.955 188.853 220.27 189.717 220.27 190.88V196H218.814ZM216.03 196.096C215.4 196.096 214.846 195.989 214.366 195.776C213.896 195.563 213.534 195.269 213.278 194.896C213.022 194.512 212.894 194.08 212.894 193.6C212.894 193.141 213 192.725 213.214 192.352C213.438 191.979 213.795 191.68 214.286 191.456C214.787 191.232 215.459 191.12 216.302 191.12H218.99V192.224H216.366C215.598 192.224 215.08 192.352 214.814 192.608C214.547 192.864 214.414 193.173 214.414 193.536C214.414 193.952 214.579 194.288 214.91 194.544C215.24 194.789 215.699 194.912 216.286 194.912C216.862 194.912 217.363 194.784 217.79 194.528C218.227 194.272 218.542 193.899 218.734 193.408L219.038 194.464C218.835 194.965 218.478 195.365 217.966 195.664C217.454 195.952 216.808 196.096 216.03 196.096ZM227.64 187.44C228.334 187.44 228.942 187.573 229.464 187.84C229.998 188.107 230.414 188.512 230.712 189.056C231.011 189.6 231.16 190.288 231.16 191.12V196H229.624V191.296C229.624 190.475 229.422 189.856 229.016 189.44C228.622 189.024 228.062 188.816 227.336 188.816C226.792 188.816 226.318 188.923 225.912 189.136C225.507 189.349 225.192 189.664 224.968 190.08C224.755 190.496 224.648 191.013 224.648 191.632V196H223.112V187.52H224.584V189.808L224.344 189.2C224.622 188.645 225.048 188.213 225.624 187.904C226.2 187.595 226.872 187.44 227.64 187.44ZM237.715 199.2C236.936 199.2 236.179 199.088 235.443 198.864C234.718 198.651 234.126 198.341 233.667 197.936L234.403 196.752C234.798 197.093 235.283 197.36 235.859 197.552C236.435 197.755 237.038 197.856 237.667 197.856C238.67 197.856 239.406 197.621 239.875 197.152C240.344 196.683 240.579 195.968 240.579 195.008V193.216L240.739 191.536L240.659 189.84V187.52H242.115V194.848C242.115 196.341 241.742 197.44 240.995 198.144C240.248 198.848 239.155 199.2 237.715 199.2ZM237.523 195.648C236.702 195.648 235.966 195.477 235.315 195.136C234.675 194.784 234.163 194.299 233.779 193.68C233.406 193.061 233.219 192.347 233.219 191.536C233.219 190.715 233.406 190 233.779 189.392C234.163 188.773 234.675 188.293 235.315 187.952C235.966 187.611 236.702 187.44 237.523 187.44C238.248 187.44 238.91 187.589 239.507 187.888C240.104 188.176 240.579 188.624 240.931 189.232C241.294 189.84 241.475 190.608 241.475 191.536C241.475 192.453 241.294 193.216 240.931 193.824C240.579 194.432 240.104 194.891 239.507 195.2C238.91 195.499 238.248 195.648 237.523 195.648ZM237.699 194.304C238.264 194.304 238.766 194.187 239.203 193.952C239.64 193.717 239.982 193.392 240.227 192.976C240.483 192.56 240.611 192.08 240.611 191.536C240.611 190.992 240.483 190.512 240.227 190.096C239.982 189.68 239.64 189.36 239.203 189.136C238.766 188.901 238.264 188.784 237.699 188.784C237.134 188.784 236.627 188.901 236.179 189.136C235.742 189.36 235.395 189.68 235.139 190.096C234.894 190.512 234.771 190.992 234.771 191.536C234.771 192.08 234.894 192.56 235.139 192.976C235.395 193.392 235.742 193.717 236.179 193.952C236.627 194.187 237.134 194.304 237.699 194.304ZM113.96 216.096C113.139 216.096 112.403 215.915 111.752 215.552C111.112 215.189 110.605 214.683 110.232 214.032C109.859 213.381 109.672 212.624 109.672 211.76C109.672 210.896 109.859 210.144 110.232 209.504C110.605 208.853 111.112 208.347 111.752 207.984C112.403 207.621 113.139 207.44 113.96 207.44C114.675 207.44 115.32 207.6 115.896 207.92C116.472 208.24 116.931 208.72 117.272 209.36C117.624 210 117.8 210.8 117.8 211.76C117.8 212.72 117.629 213.52 117.288 214.16C116.957 214.8 116.504 215.285 115.928 215.616C115.352 215.936 114.696 216.096 113.96 216.096ZM114.088 214.752C114.621 214.752 115.101 214.629 115.528 214.384C115.965 214.139 116.307 213.792 116.552 213.344C116.808 212.885 116.936 212.357 116.936 211.76C116.936 211.152 116.808 210.629 116.552 210.192C116.307 209.744 115.965 209.397 115.528 209.152C115.101 208.907 114.621 208.784 114.088 208.784C113.544 208.784 113.059 208.907 112.632 209.152C112.205 209.397 111.864 209.744 111.608 210.192C111.352 210.629 111.224 211.152 111.224 211.76C111.224 212.357 111.352 212.885 111.608 213.344C111.864 213.792 112.205 214.139 112.632 214.384C113.059 214.629 113.544 214.752 114.088 214.752ZM116.984 216V213.712L117.08 211.744L116.92 209.776V204.128H118.456V216H116.984ZM121.362 216V207.52H122.898V216H121.362ZM122.13 205.888C121.832 205.888 121.581 205.792 121.378 205.6C121.186 205.408 121.09 205.173 121.09 204.896C121.09 204.608 121.186 204.368 121.378 204.176C121.581 203.984 121.832 203.888 122.13 203.888C122.429 203.888 122.674 203.984 122.866 204.176C123.069 204.357 123.17 204.587 123.17 204.864C123.17 205.152 123.074 205.397 122.882 205.6C122.69 205.792 122.44 205.888 122.13 205.888ZM127.079 213.952L127.111 211.984L131.991 207.52H133.847L130.103 211.2L129.271 211.904L127.079 213.952ZM125.831 216V204.128H127.367V216H125.831ZM132.311 216L128.983 211.872L129.975 210.64L134.199 216H132.311ZM135.69 216V207.52H137.226V216H135.69ZM136.458 205.888C136.16 205.888 135.909 205.792 135.706 205.6C135.514 205.408 135.418 205.173 135.418 204.896C135.418 204.608 135.514 204.368 135.706 204.176C135.909 203.984 136.16 203.888 136.458 203.888C136.757 203.888 137.002 203.984 137.194 204.176C137.397 204.357 137.498 204.587 137.498 204.864C137.498 205.152 137.402 205.397 137.21 205.6C137.018 205.792 136.768 205.888 136.458 205.888ZM140.159 216V207.52H141.631V209.824L141.487 209.248C141.722 208.661 142.116 208.213 142.671 207.904C143.226 207.595 143.908 207.44 144.719 207.44V208.928C144.655 208.917 144.591 208.912 144.527 208.912C144.474 208.912 144.42 208.912 144.367 208.912C143.546 208.912 142.895 209.157 142.415 209.648C141.935 210.139 141.695 210.848 141.695 211.776V216H140.159ZM146.612 216V207.52H148.148V216H146.612ZM147.38 205.888C147.082 205.888 146.831 205.792 146.628 205.6C146.436 205.408 146.34 205.173 146.34 204.896C146.34 204.608 146.436 204.368 146.628 204.176C146.831 203.984 147.082 203.888 147.38 203.888C147.679 203.888 147.924 203.984 148.116 204.176C148.319 204.357 148.42 204.587 148.42 204.864C148.42 205.152 148.324 205.397 148.132 205.6C147.94 205.792 147.69 205.888 147.38 205.888ZM161.689 207.44C162.372 207.44 162.974 207.573 163.497 207.84C164.02 208.107 164.425 208.512 164.713 209.056C165.012 209.6 165.161 210.288 165.161 211.12V216H163.625V211.296C163.625 210.475 163.433 209.856 163.049 209.44C162.665 209.024 162.126 208.816 161.433 208.816C160.921 208.816 160.473 208.923 160.089 209.136C159.705 209.349 159.406 209.664 159.193 210.08C158.99 210.496 158.889 211.013 158.889 211.632V216H157.353V211.296C157.353 210.475 157.161 209.856 156.777 209.44C156.404 209.024 155.865 208.816 155.161 208.816C154.66 208.816 154.217 208.923 153.833 209.136C153.449 209.349 153.15 209.664 152.937 210.08C152.724 210.496 152.617 211.013 152.617 211.632V216H151.081V207.52H152.553V209.776L152.313 209.2C152.58 208.645 152.99 208.213 153.545 207.904C154.1 207.595 154.745 207.44 155.481 207.44C156.292 207.44 156.99 207.643 157.577 208.048C158.164 208.443 158.548 209.045 158.729 209.856L158.105 209.6C158.361 208.949 158.809 208.427 159.449 208.032C160.089 207.637 160.836 207.44 161.689 207.44ZM173.532 213.952L173.564 211.984L178.444 207.52H180.3L176.556 211.2L175.724 211.904L173.532 213.952ZM172.284 216V204.128H173.82V216H172.284ZM178.764 216L175.436 211.872L176.428 210.64L180.652 216H178.764ZM185.576 216.096C184.669 216.096 183.869 215.909 183.176 215.536C182.493 215.163 181.96 214.651 181.576 214C181.202 213.349 181.016 212.603 181.016 211.76C181.016 210.917 181.197 210.171 181.56 209.52C181.933 208.869 182.44 208.363 183.08 208C183.73 207.627 184.461 207.44 185.272 207.44C186.093 207.44 186.818 207.621 187.448 207.984C188.077 208.347 188.568 208.859 188.92 209.52C189.282 210.171 189.464 210.933 189.464 211.808C189.464 211.872 189.458 211.947 189.448 212.032C189.448 212.117 189.442 212.197 189.432 212.272H182.216V211.168H188.632L188.008 211.552C188.018 211.008 187.906 210.523 187.672 210.096C187.437 209.669 187.112 209.339 186.696 209.104C186.29 208.859 185.816 208.736 185.272 208.736C184.738 208.736 184.264 208.859 183.848 209.104C183.432 209.339 183.106 209.675 182.872 210.112C182.637 210.539 182.52 211.029 182.52 211.584V211.84C182.52 212.405 182.648 212.912 182.904 213.36C183.17 213.797 183.538 214.139 184.008 214.384C184.477 214.629 185.016 214.752 185.624 214.752C186.125 214.752 186.578 214.667 186.984 214.496C187.4 214.325 187.762 214.069 188.072 213.728L188.92 214.72C188.536 215.168 188.056 215.509 187.48 215.744C186.914 215.979 186.28 216.096 185.576 216.096ZM198.806 216.096C197.952 216.096 197.291 215.867 196.822 215.408C196.352 214.949 196.118 214.293 196.118 213.44V205.664H197.654V213.376C197.654 213.835 197.766 214.187 197.99 214.432C198.224 214.677 198.555 214.8 198.982 214.8C199.462 214.8 199.862 214.667 200.182 214.4L200.662 215.504C200.427 215.707 200.144 215.856 199.814 215.952C199.494 216.048 199.158 216.096 198.806 216.096ZM194.678 208.784V207.52H200.086V208.784H194.678ZM206.087 216.096C205.361 216.096 204.721 215.963 204.167 215.696C203.623 215.429 203.196 215.024 202.887 214.48C202.588 213.925 202.439 213.232 202.439 212.4V207.52H203.975V212.224C203.975 213.056 204.172 213.68 204.567 214.096C204.972 214.512 205.537 214.72 206.263 214.72C206.796 214.72 207.26 214.613 207.655 214.4C208.049 214.176 208.353 213.856 208.567 213.44C208.78 213.013 208.887 212.501 208.887 211.904V207.52H210.423V216H208.967V213.712L209.207 214.32C208.929 214.885 208.513 215.323 207.959 215.632C207.404 215.941 206.78 216.096 206.087 216.096ZM212.259 219.2C211.907 219.2 211.571 219.157 211.251 219.072C210.92 218.987 210.643 218.859 210.419 218.688L210.915 217.504C211.235 217.771 211.651 217.904 212.163 217.904C212.568 217.904 212.877 217.776 213.091 217.52C213.315 217.275 213.427 216.907 213.427 216.416V207.52H214.963V216.384C214.963 217.248 214.728 217.931 214.259 218.432C213.8 218.944 213.133 219.2 212.259 219.2ZM214.195 205.888C213.896 205.888 213.645 205.792 213.443 205.6C213.251 205.408 213.155 205.173 213.155 204.896C213.155 204.608 213.251 204.368 213.443 204.176C213.645 203.984 213.896 203.888 214.195 203.888C214.493 203.888 214.739 203.984 214.931 204.176C215.133 204.357 215.235 204.587 215.235 204.864C215.235 205.152 215.139 205.397 214.947 205.6C214.755 205.792 214.504 205.888 214.195 205.888ZM221.462 216.096C220.736 216.096 220.096 215.963 219.542 215.696C218.998 215.429 218.571 215.024 218.262 214.48C217.963 213.925 217.814 213.232 217.814 212.4V207.52H219.35V212.224C219.35 213.056 219.547 213.68 219.942 214.096C220.347 214.512 220.912 214.72 221.638 214.72C222.171 214.72 222.635 214.613 223.03 214.4C223.424 214.176 223.728 213.856 223.942 213.44C224.155 213.013 224.262 212.501 224.262 211.904V207.52H225.798V216H224.342V213.712L224.582 214.32C224.304 214.885 223.888 215.323 223.334 215.632C222.779 215.941 222.155 216.096 221.462 216.096ZM233.986 216V214.208L233.906 213.872V210.816C233.906 210.165 233.714 209.664 233.33 209.312C232.956 208.949 232.391 208.768 231.634 208.768C231.132 208.768 230.642 208.853 230.162 209.024C229.682 209.184 229.276 209.403 228.946 209.68L228.306 208.528C228.743 208.176 229.266 207.909 229.874 207.728C230.492 207.536 231.138 207.44 231.81 207.44C232.972 207.44 233.868 207.723 234.498 208.288C235.127 208.853 235.442 209.717 235.442 210.88V216H233.986ZM231.202 216.096C230.572 216.096 230.018 215.989 229.538 215.776C229.068 215.563 228.706 215.269 228.45 214.896C228.194 214.512 228.066 214.08 228.066 213.6C228.066 213.141 228.172 212.725 228.386 212.352C228.61 211.979 228.967 211.68 229.458 211.456C229.959 211.232 230.631 211.12 231.474 211.12H234.162V212.224H231.538C230.77 212.224 230.252 212.352 229.986 212.608C229.719 212.864 229.586 213.173 229.586 213.536C229.586 213.952 229.751 214.288 230.082 214.544C230.412 214.789 230.871 214.912 231.458 214.912C232.034 214.912 232.535 214.784 232.962 214.528C233.399 214.272 233.714 213.899 233.906 213.408L234.21 214.464C234.007 214.965 233.65 215.365 233.138 215.664C232.626 215.952 231.98 216.096 231.202 216.096ZM242.812 207.44C243.505 207.44 244.113 207.573 244.636 207.84C245.169 208.107 245.585 208.512 245.884 209.056C246.183 209.6 246.332 210.288 246.332 211.12V216H244.796V211.296C244.796 210.475 244.593 209.856 244.188 209.44C243.793 209.024 243.233 208.816 242.508 208.816C241.964 208.816 241.489 208.923 241.084 209.136C240.679 209.349 240.364 209.664 240.14 210.08C239.927 210.496 239.82 211.013 239.82 211.632V216H238.284V207.52H239.756V209.808L239.516 209.2C239.793 208.645 240.22 208.213 240.796 207.904C241.372 207.595 242.044 207.44 242.812 207.44Z" fill="#171A23"/>
<path d="M110.68 352V340.8H115.048C116.029 340.8 116.867 340.955 117.56 341.264C118.253 341.573 118.787 342.021 119.16 342.608C119.533 343.195 119.72 343.893 119.72 344.704C119.72 345.515 119.533 346.213 119.16 346.8C118.787 347.376 118.253 347.824 117.56 348.144C116.867 348.453 116.029 348.608 115.048 348.608H111.56L112.28 347.856V352H110.68ZM112.28 348.016L111.56 347.216H115C116.024 347.216 116.797 346.997 117.32 346.56C117.853 346.123 118.12 345.504 118.12 344.704C118.12 343.904 117.853 343.285 117.32 342.848C116.797 342.411 116.024 342.192 115 342.192H111.56L112.28 341.392V348.016ZM125.591 352.096C124.685 352.096 123.885 351.909 123.191 351.536C122.509 351.163 121.975 350.651 121.591 350C121.218 349.349 121.031 348.603 121.031 347.76C121.031 346.917 121.213 346.171 121.575 345.52C121.949 344.869 122.455 344.363 123.095 344C123.746 343.627 124.477 343.44 125.287 343.44C126.109 343.44 126.834 343.621 127.463 343.984C128.093 344.347 128.583 344.859 128.935 345.52C129.298 346.171 129.479 346.933 129.479 347.808C129.479 347.872 129.474 347.947 129.463 348.032C129.463 348.117 129.458 348.197 129.447 348.272H122.231V347.168H128.647L128.023 347.552C128.034 347.008 127.922 346.523 127.687 346.096C127.453 345.669 127.127 345.339 126.711 345.104C126.306 344.859 125.831 344.736 125.287 344.736C124.754 344.736 124.279 344.859 123.863 345.104C123.447 345.339 123.122 345.675 122.887 346.112C122.653 346.539 122.535 347.029 122.535 347.584V347.84C122.535 348.405 122.663 348.912 122.919 349.36C123.186 349.797 123.554 350.139 124.023 350.384C124.493 350.629 125.031 350.752 125.639 350.752C126.141 350.752 126.594 350.667 126.999 350.496C127.415 350.325 127.778 350.069 128.087 349.728L128.935 350.72C128.551 351.168 128.071 351.509 127.495 351.744C126.93 351.979 126.295 352.096 125.591 352.096ZM134.044 352.096C133.34 352.096 132.668 352 132.028 351.808C131.399 351.616 130.903 351.381 130.54 351.104L131.18 349.888C131.543 350.133 131.991 350.341 132.524 350.512C133.058 350.683 133.602 350.768 134.156 350.768C134.871 350.768 135.383 350.667 135.692 350.464C136.012 350.261 136.172 349.979 136.172 349.616C136.172 349.349 136.076 349.141 135.884 348.992C135.692 348.843 135.436 348.731 135.116 348.656C134.807 348.581 134.46 348.517 134.076 348.464C133.692 348.4 133.308 348.325 132.924 348.24C132.54 348.144 132.188 348.016 131.868 347.856C131.548 347.685 131.292 347.456 131.1 347.168C130.908 346.869 130.812 346.475 130.812 345.984C130.812 345.472 130.956 345.024 131.244 344.64C131.532 344.256 131.938 343.963 132.46 343.76C132.994 343.547 133.623 343.44 134.348 343.44C134.903 343.44 135.463 343.509 136.028 343.648C136.604 343.776 137.074 343.963 137.436 344.208L136.78 345.424C136.396 345.168 135.996 344.992 135.58 344.896C135.164 344.8 134.748 344.752 134.332 344.752C133.66 344.752 133.159 344.864 132.828 345.088C132.498 345.301 132.332 345.579 132.332 345.92C132.332 346.208 132.428 346.432 132.62 346.592C132.823 346.741 133.079 346.859 133.388 346.944C133.708 347.029 134.06 347.104 134.444 347.168C134.828 347.221 135.212 347.296 135.596 347.392C135.98 347.477 136.327 347.6 136.636 347.76C136.956 347.92 137.212 348.144 137.404 348.432C137.607 348.72 137.708 349.104 137.708 349.584C137.708 350.096 137.559 350.539 137.26 350.912C136.962 351.285 136.54 351.579 135.996 351.792C135.452 351.995 134.802 352.096 134.044 352.096ZM144.892 352V350.208L144.812 349.872V346.816C144.812 346.165 144.62 345.664 144.236 345.312C143.863 344.949 143.297 344.768 142.54 344.768C142.039 344.768 141.548 344.853 141.068 345.024C140.588 345.184 140.183 345.403 139.852 345.68L139.212 344.528C139.649 344.176 140.172 343.909 140.78 343.728C141.399 343.536 142.044 343.44 142.716 343.44C143.879 343.44 144.775 343.723 145.404 344.288C146.033 344.853 146.348 345.717 146.348 346.88V352H144.892ZM142.108 352.096C141.479 352.096 140.924 351.989 140.444 351.776C139.975 351.563 139.612 351.269 139.356 350.896C139.1 350.512 138.972 350.08 138.972 349.6C138.972 349.141 139.079 348.725 139.292 348.352C139.516 347.979 139.873 347.68 140.364 347.456C140.865 347.232 141.537 347.12 142.38 347.12H145.068V348.224H142.444C141.676 348.224 141.159 348.352 140.892 348.608C140.625 348.864 140.492 349.173 140.492 349.536C140.492 349.952 140.657 350.288 140.988 350.544C141.319 350.789 141.777 350.912 142.364 350.912C142.94 350.912 143.441 350.784 143.868 350.528C144.305 350.272 144.62 349.899 144.812 349.408L145.116 350.464C144.913 350.965 144.556 351.365 144.044 351.664C143.532 351.952 142.887 352.096 142.108 352.096ZM153.718 343.44C154.412 343.44 155.02 343.573 155.542 343.84C156.076 344.107 156.492 344.512 156.79 345.056C157.089 345.6 157.238 346.288 157.238 347.12V352H155.702V347.296C155.702 346.475 155.5 345.856 155.094 345.44C154.7 345.024 154.14 344.816 153.414 344.816C152.87 344.816 152.396 344.923 151.99 345.136C151.585 345.349 151.27 345.664 151.046 346.08C150.833 346.496 150.726 347.013 150.726 347.632V352H149.19V343.52H150.662V345.808L150.422 345.2C150.7 344.645 151.126 344.213 151.702 343.904C152.278 343.595 152.95 343.44 153.718 343.44ZM165.345 352V350.208L165.265 349.872V346.816C165.265 346.165 165.073 345.664 164.689 345.312C164.316 344.949 163.75 344.768 162.993 344.768C162.492 344.768 162.001 344.853 161.521 345.024C161.041 345.184 160.636 345.403 160.305 345.68L159.665 344.528C160.102 344.176 160.625 343.909 161.233 343.728C161.852 343.536 162.497 343.44 163.169 343.44C164.332 343.44 165.228 343.723 165.857 344.288C166.486 344.853 166.801 345.717 166.801 346.88V352H165.345ZM162.561 352.096C161.932 352.096 161.377 351.989 160.897 351.776C160.428 351.563 160.065 351.269 159.809 350.896C159.553 350.512 159.425 350.08 159.425 349.6C159.425 349.141 159.532 348.725 159.745 348.352C159.969 347.979 160.326 347.68 160.817 347.456C161.318 347.232 161.99 347.12 162.833 347.12H165.521V348.224H162.897C162.129 348.224 161.612 348.352 161.345 348.608C161.078 348.864 160.945 349.173 160.945 349.536C160.945 349.952 161.11 350.288 161.441 350.544C161.772 350.789 162.23 350.912 162.817 350.912C163.393 350.912 163.894 350.784 164.321 350.528C164.758 350.272 165.073 349.899 165.265 349.408L165.569 350.464C165.366 350.965 165.009 351.365 164.497 351.664C163.985 351.952 163.34 352.096 162.561 352.096ZM174.172 343.44C174.865 343.44 175.473 343.573 175.996 343.84C176.529 344.107 176.945 344.512 177.244 345.056C177.542 345.6 177.692 346.288 177.692 347.12V352H176.156V347.296C176.156 346.475 175.953 345.856 175.548 345.44C175.153 345.024 174.593 344.816 173.868 344.816C173.324 344.816 172.849 344.923 172.444 345.136C172.038 345.349 171.724 345.664 171.5 346.08C171.286 346.496 171.18 347.013 171.18 347.632V352H169.644V343.52H171.116V345.808L170.876 345.2C171.153 344.645 171.58 344.213 172.156 343.904C172.732 343.595 173.404 343.44 174.172 343.44ZM187.743 352.096C186.89 352.096 186.228 351.867 185.759 351.408C185.29 350.949 185.055 350.293 185.055 349.44V341.664H186.591V349.376C186.591 349.835 186.703 350.187 186.927 350.432C187.162 350.677 187.492 350.8 187.919 350.8C188.399 350.8 188.799 350.667 189.119 350.4L189.599 351.504C189.364 351.707 189.082 351.856 188.751 351.952C188.431 352.048 188.095 352.096 187.743 352.096ZM183.615 344.784V343.52H189.023V344.784H183.615ZM194.951 352.096C194.044 352.096 193.244 351.909 192.551 351.536C191.868 351.163 191.335 350.651 190.951 350C190.577 349.349 190.391 348.603 190.391 347.76C190.391 346.917 190.572 346.171 190.935 345.52C191.308 344.869 191.815 344.363 192.455 344C193.105 343.627 193.836 343.44 194.647 343.44C195.468 343.44 196.193 343.621 196.823 343.984C197.452 344.347 197.943 344.859 198.295 345.52C198.657 346.171 198.839 346.933 198.839 347.808C198.839 347.872 198.833 347.947 198.823 348.032C198.823 348.117 198.817 348.197 198.807 348.272H191.591V347.168H198.007L197.383 347.552C197.393 347.008 197.281 346.523 197.047 346.096C196.812 345.669 196.487 345.339 196.071 345.104C195.665 344.859 195.191 344.736 194.647 344.736C194.113 344.736 193.639 344.859 193.223 345.104C192.807 345.339 192.481 345.675 192.247 346.112C192.012 346.539 191.895 347.029 191.895 347.584V347.84C191.895 348.405 192.023 348.912 192.279 349.36C192.545 349.797 192.913 350.139 193.383 350.384C193.852 350.629 194.391 350.752 194.999 350.752C195.5 350.752 195.953 350.667 196.359 350.496C196.775 350.325 197.137 350.069 197.447 349.728L198.295 350.72C197.911 351.168 197.431 351.509 196.855 351.744C196.289 351.979 195.655 352.096 194.951 352.096ZM200.972 352V340.128H202.508V352H200.972ZM210.704 352V350.208L210.624 349.872V346.816C210.624 346.165 210.432 345.664 210.048 345.312C209.675 344.949 209.11 344.768 208.352 344.768C207.851 344.768 207.36 344.853 206.88 345.024C206.4 345.184 205.995 345.403 205.664 345.68L205.024 344.528C205.462 344.176 205.984 343.909 206.592 343.728C207.211 343.536 207.856 343.44 208.528 343.44C209.691 343.44 210.587 343.723 211.216 344.288C211.846 344.853 212.16 345.717 212.16 346.88V352H210.704ZM207.92 352.096C207.291 352.096 206.736 351.989 206.256 351.776C205.787 351.563 205.424 351.269 205.168 350.896C204.912 350.512 204.784 350.08 204.784 349.6C204.784 349.141 204.891 348.725 205.104 348.352C205.328 347.979 205.686 347.68 206.176 347.456C206.678 347.232 207.35 347.12 208.192 347.12H210.88V348.224H208.256C207.488 348.224 206.971 348.352 206.704 348.608C206.438 348.864 206.304 349.173 206.304 349.536C206.304 349.952 206.47 350.288 206.8 350.544C207.131 350.789 207.59 350.912 208.176 350.912C208.752 350.912 209.254 350.784 209.68 350.528C210.118 350.272 210.432 349.899 210.624 349.408L210.928 350.464C210.726 350.965 210.368 351.365 209.856 351.664C209.344 351.952 208.699 352.096 207.92 352.096ZM219.531 343.44C220.224 343.44 220.832 343.573 221.355 343.84C221.888 344.107 222.304 344.512 222.603 345.056C222.902 345.6 223.051 346.288 223.051 347.12V352H221.515V347.296C221.515 346.475 221.312 345.856 220.907 345.44C220.512 345.024 219.952 344.816 219.227 344.816C218.683 344.816 218.208 344.923 217.803 345.136C217.398 345.349 217.083 345.664 216.859 346.08C216.646 346.496 216.539 347.013 216.539 347.632V352H215.003V340.128H216.539V345.808L216.235 345.2C216.512 344.645 216.939 344.213 217.515 343.904C218.091 343.595 218.763 343.44 219.531 343.44ZM233.694 352.096C232.873 352.096 232.137 351.915 231.486 351.552C230.846 351.189 230.34 350.683 229.966 350.032C229.593 349.381 229.406 348.624 229.406 347.76C229.406 346.896 229.593 346.144 229.966 345.504C230.34 344.853 230.846 344.347 231.486 343.984C232.137 343.621 232.873 343.44 233.694 343.44C234.409 343.44 235.054 343.6 235.63 343.92C236.206 344.24 236.665 344.72 237.006 345.36C237.358 346 237.534 346.8 237.534 347.76C237.534 348.72 237.364 349.52 237.022 350.16C236.692 350.8 236.238 351.285 235.662 351.616C235.086 351.936 234.43 352.096 233.694 352.096ZM233.822 350.752C234.356 350.752 234.836 350.629 235.262 350.384C235.7 350.139 236.041 349.792 236.286 349.344C236.542 348.885 236.67 348.357 236.67 347.76C236.67 347.152 236.542 346.629 236.286 346.192C236.041 345.744 235.7 345.397 235.262 345.152C234.836 344.907 234.356 344.784 233.822 344.784C233.278 344.784 232.793 344.907 232.366 345.152C231.94 345.397 231.598 345.744 231.342 346.192C231.086 346.629 230.958 347.152 230.958 347.76C230.958 348.357 231.086 348.885 231.342 349.344C231.598 349.792 231.94 350.139 232.366 350.384C232.793 350.629 233.278 350.752 233.822 350.752ZM236.718 352V349.712L236.814 347.744L236.654 345.776V340.128H238.19V352H236.718ZM241.097 352V343.52H242.633V352H241.097ZM241.865 341.888C241.566 341.888 241.315 341.792 241.113 341.6C240.921 341.408 240.825 341.173 240.825 340.896C240.825 340.608 240.921 340.368 241.113 340.176C241.315 339.984 241.566 339.888 241.865 339.888C242.163 339.888 242.409 339.984 242.601 340.176C242.803 340.357 242.905 340.587 242.905 340.864C242.905 341.152 242.809 341.397 242.617 341.6C242.425 341.792 242.174 341.888 241.865 341.888ZM248.477 352.096C247.624 352.096 246.963 351.867 246.493 351.408C246.024 350.949 245.789 350.293 245.789 349.44V341.664H247.325V349.376C247.325 349.835 247.437 350.187 247.661 350.432C247.896 350.677 248.227 350.8 248.653 350.8C249.133 350.8 249.533 350.667 249.853 350.4L250.333 351.504C250.099 351.707 249.816 351.856 249.485 351.952C249.165 352.048 248.829 352.096 248.477 352.096ZM244.349 344.784V343.52H249.757V344.784H244.349ZM255.685 352.096C254.778 352.096 253.978 351.909 253.285 351.536C252.602 351.163 252.069 350.651 251.685 350C251.312 349.349 251.125 348.603 251.125 347.76C251.125 346.917 251.306 346.171 251.669 345.52C252.042 344.869 252.549 344.363 253.189 344C253.84 343.627 254.57 343.44 255.381 343.44C256.202 343.44 256.928 343.621 257.557 343.984C258.186 344.347 258.677 344.859 259.029 345.52C259.392 346.171 259.573 346.933 259.573 347.808C259.573 347.872 259.568 347.947 259.557 348.032C259.557 348.117 259.552 348.197 259.541 348.272H252.325V347.168H258.741L258.117 347.552C258.128 347.008 258.016 346.523 257.781 346.096C257.546 345.669 257.221 345.339 256.805 345.104C256.4 344.859 255.925 344.736 255.381 344.736C254.848 344.736 254.373 344.859 253.957 345.104C253.541 345.339 253.216 345.675 252.981 346.112C252.746 346.539 252.629 347.029 252.629 347.584V347.84C252.629 348.405 252.757 348.912 253.013 349.36C253.28 349.797 253.648 350.139 254.117 350.384C254.586 350.629 255.125 350.752 255.733 350.752C256.234 350.752 256.688 350.667 257.093 350.496C257.509 350.325 257.872 350.069 258.181 349.728L259.029 350.72C258.645 351.168 258.165 351.509 257.589 351.744C257.024 351.979 256.389 352.096 255.685 352.096ZM261.706 352V343.52H263.178V345.824L263.034 345.248C263.269 344.661 263.663 344.213 264.218 343.904C264.773 343.595 265.455 343.44 266.266 343.44V344.928C266.202 344.917 266.138 344.912 266.074 344.912C266.021 344.912 265.967 344.912 265.914 344.912C265.093 344.912 264.442 345.157 263.962 345.648C263.482 346.139 263.242 346.848 263.242 347.776V352H261.706ZM268.159 352V343.52H269.695V352H268.159ZM268.927 341.888C268.628 341.888 268.378 341.792 268.175 341.6C267.983 341.408 267.887 341.173 267.887 340.896C267.887 340.608 267.983 340.368 268.175 340.176C268.378 339.984 268.628 339.888 268.927 339.888C269.226 339.888 269.471 339.984 269.663 340.176C269.866 340.357 269.967 340.587 269.967 340.864C269.967 341.152 269.871 341.397 269.679 341.6C269.487 341.792 269.236 341.888 268.927 341.888ZM283.236 343.44C283.919 343.44 284.521 343.573 285.044 343.84C285.567 344.107 285.972 344.512 286.26 345.056C286.559 345.6 286.708 346.288 286.708 347.12V352H285.172V347.296C285.172 346.475 284.98 345.856 284.596 345.44C284.212 345.024 283.673 344.816 282.98 344.816C282.468 344.816 282.02 344.923 281.636 345.136C281.252 345.349 280.953 345.664 280.74 346.08C280.537 346.496 280.436 347.013 280.436 347.632V352H278.9V347.296C278.9 346.475 278.708 345.856 278.324 345.44C277.951 345.024 277.412 344.816 276.708 344.816C276.207 344.816 275.764 344.923 275.38 345.136C274.996 345.349 274.697 345.664 274.484 346.08C274.271 346.496 274.164 347.013 274.164 347.632V352H272.628V343.52H274.1V345.776L273.86 345.2C274.127 344.645 274.537 344.213 275.092 343.904C275.647 343.595 276.292 343.44 277.028 343.44C277.839 343.44 278.537 343.643 279.124 344.048C279.711 344.443 280.095 345.045 280.276 345.856L279.652 345.6C279.908 344.949 280.356 344.427 280.996 344.032C281.636 343.637 282.383 343.44 283.236 343.44ZM294.798 352V350.208L294.718 349.872V346.816C294.718 346.165 294.526 345.664 294.142 345.312C293.769 344.949 293.203 344.768 292.446 344.768C291.945 344.768 291.454 344.853 290.974 345.024C290.494 345.184 290.089 345.403 289.758 345.68L289.118 344.528C289.555 344.176 290.078 343.909 290.686 343.728C291.305 343.536 291.95 343.44 292.622 343.44C293.785 343.44 294.681 343.723 295.31 344.288C295.939 344.853 296.254 345.717 296.254 346.88V352H294.798ZM292.014 352.096C291.385 352.096 290.83 351.989 290.35 351.776C289.881 351.563 289.518 351.269 289.262 350.896C289.006 350.512 288.878 350.08 288.878 349.6C288.878 349.141 288.985 348.725 289.198 348.352C289.422 347.979 289.779 347.68 290.27 347.456C290.771 347.232 291.443 347.12 292.286 347.12H294.974V348.224H292.35C291.582 348.224 291.065 348.352 290.798 348.608C290.531 348.864 290.398 349.173 290.398 349.536C290.398 349.952 290.563 350.288 290.894 350.544C291.225 350.789 291.683 350.912 292.27 350.912C292.846 350.912 293.347 350.784 293.774 350.528C294.211 350.272 294.526 349.899 294.718 349.408L295.022 350.464C294.819 350.965 294.462 351.365 293.95 351.664C293.438 351.952 292.793 352.096 292.014 352.096ZM114.088 372.096C113.235 372.096 112.477 371.909 111.816 371.536C111.155 371.163 110.632 370.651 110.248 370C109.864 369.339 109.672 368.592 109.672 367.76C109.672 366.917 109.864 366.171 110.248 365.52C110.632 364.869 111.155 364.363 111.816 364C112.477 363.627 113.235 363.44 114.088 363.44C114.931 363.44 115.683 363.627 116.344 364C117.016 364.363 117.539 364.869 117.912 365.52C118.296 366.16 118.488 366.907 118.488 367.76C118.488 368.603 118.296 369.349 117.912 370C117.539 370.651 117.016 371.163 116.344 371.536C115.683 371.909 114.931 372.096 114.088 372.096ZM114.088 370.752C114.632 370.752 115.117 370.629 115.544 370.384C115.981 370.139 116.323 369.792 116.568 369.344C116.813 368.885 116.936 368.357 116.936 367.76C116.936 367.152 116.813 366.629 116.568 366.192C116.323 365.744 115.981 365.397 115.544 365.152C115.117 364.907 114.632 364.784 114.088 364.784C113.544 364.784 113.059 364.907 112.632 365.152C112.205 365.397 111.864 365.744 111.608 366.192C111.352 366.629 111.224 367.152 111.224 367.76C111.224 368.357 111.352 368.885 111.608 369.344C111.864 369.792 112.205 370.139 112.632 370.384C113.059 370.629 113.544 370.752 114.088 370.752ZM120.612 372V360.128H122.148V372H120.612ZM128.857 372.096C127.95 372.096 127.15 371.909 126.457 371.536C125.774 371.163 125.241 370.651 124.857 370C124.484 369.349 124.297 368.603 124.297 367.76C124.297 366.917 124.478 366.171 124.841 365.52C125.214 364.869 125.721 364.363 126.361 364C127.012 363.627 127.742 363.44 128.553 363.44C129.374 363.44 130.1 363.621 130.729 363.984C131.358 364.347 131.849 364.859 132.201 365.52C132.564 366.171 132.745 366.933 132.745 367.808C132.745 367.872 132.74 367.947 132.729 368.032C132.729 368.117 132.724 368.197 132.713 368.272H125.497V367.168H131.913L131.289 367.552C131.3 367.008 131.188 366.523 130.953 366.096C130.718 365.669 130.393 365.339 129.977 365.104C129.572 364.859 129.097 364.736 128.553 364.736C128.02 364.736 127.545 364.859 127.129 365.104C126.713 365.339 126.388 365.675 126.153 366.112C125.918 366.539 125.801 367.029 125.801 367.584V367.84C125.801 368.405 125.929 368.912 126.185 369.36C126.452 369.797 126.82 370.139 127.289 370.384C127.758 370.629 128.297 370.752 128.905 370.752C129.406 370.752 129.86 370.667 130.265 370.496C130.681 370.325 131.044 370.069 131.353 369.728L132.201 370.72C131.817 371.168 131.337 371.509 130.761 371.744C130.196 371.979 129.561 372.096 128.857 372.096ZM139.406 363.44C140.099 363.44 140.707 363.573 141.23 363.84C141.763 364.107 142.179 364.512 142.478 365.056C142.777 365.6 142.926 366.288 142.926 367.12V372H141.39V367.296C141.39 366.475 141.187 365.856 140.782 365.44C140.387 365.024 139.827 364.816 139.102 364.816C138.558 364.816 138.083 364.923 137.678 365.136C137.273 365.349 136.958 365.664 136.734 366.08C136.521 366.496 136.414 367.013 136.414 367.632V372H134.878V360.128H136.414V365.808L136.11 365.2C136.387 364.645 136.814 364.213 137.39 363.904C137.966 363.595 138.638 363.44 139.406 363.44ZM153.761 372.096C152.897 372.096 152.124 371.909 151.441 371.536C150.769 371.163 150.241 370.651 149.857 370C149.473 369.349 149.281 368.603 149.281 367.76C149.281 366.917 149.473 366.171 149.857 365.52C150.241 364.869 150.769 364.363 151.441 364C152.124 363.627 152.897 363.44 153.761 363.44C154.529 363.44 155.212 363.595 155.809 363.904C156.417 364.203 156.887 364.651 157.217 365.248L156.049 366C155.772 365.584 155.431 365.28 155.025 365.088C154.631 364.885 154.204 364.784 153.745 364.784C153.191 364.784 152.695 364.907 152.257 365.152C151.82 365.397 151.473 365.744 151.217 366.192C150.961 366.629 150.833 367.152 150.833 367.76C150.833 368.368 150.961 368.896 151.217 369.344C151.473 369.792 151.82 370.139 152.257 370.384C152.695 370.629 153.191 370.752 153.745 370.752C154.204 370.752 154.631 370.656 155.025 370.464C155.431 370.261 155.772 369.952 156.049 369.536L157.217 370.272C156.887 370.859 156.417 371.312 155.809 371.632C155.212 371.941 154.529 372.096 153.761 372.096ZM162.774 372.096C162.049 372.096 161.409 371.963 160.854 371.696C160.31 371.429 159.883 371.024 159.574 370.48C159.275 369.925 159.126 369.232 159.126 368.4V363.52H160.662V368.224C160.662 369.056 160.859 369.68 161.254 370.096C161.659 370.512 162.225 370.72 162.95 370.72C163.483 370.72 163.947 370.613 164.342 370.4C164.737 370.176 165.041 369.856 165.254 369.44C165.467 369.013 165.574 368.501 165.574 367.904V363.52H167.11V372H165.654V369.712L165.894 370.32C165.617 370.885 165.201 371.323 164.646 371.632C164.091 371.941 163.467 372.096 162.774 372.096ZM172.466 372.096C171.762 372.096 171.09 372 170.45 371.808C169.821 371.616 169.325 371.381 168.962 371.104L169.602 369.888C169.965 370.133 170.413 370.341 170.946 370.512C171.479 370.683 172.023 370.768 172.578 370.768C173.293 370.768 173.805 370.667 174.114 370.464C174.434 370.261 174.594 369.979 174.594 369.616C174.594 369.349 174.498 369.141 174.306 368.992C174.114 368.843 173.858 368.731 173.538 368.656C173.229 368.581 172.882 368.517 172.498 368.464C172.114 368.4 171.73 368.325 171.346 368.24C170.962 368.144 170.61 368.016 170.29 367.856C169.97 367.685 169.714 367.456 169.522 367.168C169.33 366.869 169.234 366.475 169.234 365.984C169.234 365.472 169.378 365.024 169.666 364.64C169.954 364.256 170.359 363.963 170.882 363.76C171.415 363.547 172.045 363.44 172.77 363.44C173.325 363.44 173.885 363.509 174.45 363.648C175.026 363.776 175.495 363.963 175.858 364.208L175.202 365.424C174.818 365.168 174.418 364.992 174.002 364.896C173.586 364.8 173.17 364.752 172.754 364.752C172.082 364.752 171.581 364.864 171.25 365.088C170.919 365.301 170.754 365.579 170.754 365.92C170.754 366.208 170.85 366.432 171.042 366.592C171.245 366.741 171.501 366.859 171.81 366.944C172.13 367.029 172.482 367.104 172.866 367.168C173.25 367.221 173.634 367.296 174.018 367.392C174.402 367.477 174.749 367.6 175.058 367.76C175.378 367.92 175.634 368.144 175.826 368.432C176.029 368.72 176.13 369.104 176.13 369.584C176.13 370.096 175.981 370.539 175.682 370.912C175.383 371.285 174.962 371.579 174.418 371.792C173.874 371.995 173.223 372.096 172.466 372.096ZM180.962 372.096C180.108 372.096 179.447 371.867 178.978 371.408C178.508 370.949 178.274 370.293 178.274 369.44V361.664H179.81V369.376C179.81 369.835 179.922 370.187 180.146 370.432C180.38 370.677 180.711 370.8 181.138 370.8C181.618 370.8 182.018 370.667 182.338 370.4L182.818 371.504C182.583 371.707 182.3 371.856 181.97 371.952C181.65 372.048 181.314 372.096 180.962 372.096ZM176.834 364.784V363.52H182.242V364.784H176.834ZM188.026 372.096C187.172 372.096 186.415 371.909 185.754 371.536C185.092 371.163 184.57 370.651 184.186 370C183.802 369.339 183.61 368.592 183.61 367.76C183.61 366.917 183.802 366.171 184.186 365.52C184.57 364.869 185.092 364.363 185.754 364C186.415 363.627 187.172 363.44 188.026 363.44C188.868 363.44 189.62 363.627 190.282 364C190.954 364.363 191.476 364.869 191.85 365.52C192.234 366.16 192.426 366.907 192.426 367.76C192.426 368.603 192.234 369.349 191.85 370C191.476 370.651 190.954 371.163 190.282 371.536C189.62 371.909 188.868 372.096 188.026 372.096ZM188.026 370.752C188.57 370.752 189.055 370.629 189.482 370.384C189.919 370.139 190.26 369.792 190.506 369.344C190.751 368.885 190.874 368.357 190.874 367.76C190.874 367.152 190.751 366.629 190.506 366.192C190.26 365.744 189.919 365.397 189.482 365.152C189.055 364.907 188.57 364.784 188.026 364.784C187.482 364.784 186.996 364.907 186.57 365.152C186.143 365.397 185.802 365.744 185.546 366.192C185.29 366.629 185.162 367.152 185.162 367.76C185.162 368.357 185.29 368.885 185.546 369.344C185.802 369.792 186.143 370.139 186.57 370.384C186.996 370.629 187.482 370.752 188.026 370.752ZM205.158 363.44C205.84 363.44 206.443 363.573 206.966 363.84C207.488 364.107 207.894 364.512 208.182 365.056C208.48 365.6 208.63 366.288 208.63 367.12V372H207.094V367.296C207.094 366.475 206.902 365.856 206.518 365.44C206.134 365.024 205.595 364.816 204.902 364.816C204.39 364.816 203.942 364.923 203.558 365.136C203.174 365.349 202.875 365.664 202.662 366.08C202.459 366.496 202.358 367.013 202.358 367.632V372H200.822V367.296C200.822 366.475 200.63 365.856 200.246 365.44C199.872 365.024 199.334 364.816 198.63 364.816C198.128 364.816 197.686 364.923 197.302 365.136C196.918 365.349 196.619 365.664 196.406 366.08C196.192 366.496 196.086 367.013 196.086 367.632V372H194.55V363.52H196.022V365.776L195.782 365.2C196.048 364.645 196.459 364.213 197.014 363.904C197.568 363.595 198.214 363.44 198.95 363.44C199.76 363.44 200.459 363.643 201.046 364.048C201.632 364.443 202.016 365.045 202.198 365.856L201.574 365.6C201.83 364.949 202.278 364.427 202.918 364.032C203.558 363.637 204.304 363.44 205.158 363.44ZM215.232 372.096C214.325 372.096 213.525 371.909 212.832 371.536C212.149 371.163 211.616 370.651 211.232 370C210.859 369.349 210.672 368.603 210.672 367.76C210.672 366.917 210.853 366.171 211.216 365.52C211.589 364.869 212.096 364.363 212.736 364C213.387 363.627 214.117 363.44 214.928 363.44C215.749 363.44 216.475 363.621 217.104 363.984C217.733 364.347 218.224 364.859 218.576 365.52C218.939 366.171 219.12 366.933 219.12 367.808C219.12 367.872 219.115 367.947 219.104 368.032C219.104 368.117 219.099 368.197 219.088 368.272H211.872V367.168H218.288L217.664 367.552C217.675 367.008 217.563 366.523 217.328 366.096C217.093 365.669 216.768 365.339 216.352 365.104C215.947 364.859 215.472 364.736 214.928 364.736C214.395 364.736 213.92 364.859 213.504 365.104C213.088 365.339 212.763 365.675 212.528 366.112C212.293 366.539 212.176 367.029 212.176 367.584V367.84C212.176 368.405 212.304 368.912 212.56 369.36C212.827 369.797 213.195 370.139 213.664 370.384C214.133 370.629 214.672 370.752 215.28 370.752C215.781 370.752 216.235 370.667 216.64 370.496C217.056 370.325 217.419 370.069 217.728 369.728L218.576 370.72C218.192 371.168 217.712 371.509 217.136 371.744C216.571 371.979 215.936 372.096 215.232 372.096ZM221.253 372V363.52H222.725V365.824L222.581 365.248C222.816 364.661 223.21 364.213 223.765 363.904C224.32 363.595 225.002 363.44 225.813 363.44V364.928C225.749 364.917 225.685 364.912 225.621 364.912C225.568 364.912 225.514 364.912 225.461 364.912C224.64 364.912 223.989 365.157 223.509 365.648C223.029 366.139 222.789 366.848 222.789 367.776V372H221.253Z" fill="#171A23"/>
<path d="M110.328 176V164.8H115.416C116.632 164.8 117.704 165.035 118.632 165.504C119.56 165.963 120.285 166.608 120.808 167.44C121.331 168.272 121.592 169.259 121.592 170.4C121.592 171.531 121.331 172.517 120.808 173.36C120.285 174.192 119.56 174.843 118.632 175.312C117.704 175.771 116.632 176 115.416 176H110.328ZM112.92 173.872H115.288C116.035 173.872 116.68 173.733 117.224 173.456C117.779 173.168 118.205 172.763 118.504 172.24C118.813 171.717 118.968 171.104 118.968 170.4C118.968 169.685 118.813 169.072 118.504 168.56C118.205 168.037 117.779 167.637 117.224 167.36C116.68 167.072 116.035 166.928 115.288 166.928H112.92V173.872ZM123.371 176V167.392H125.867V176H123.371ZM124.619 166.192C124.16 166.192 123.787 166.059 123.499 165.792C123.211 165.525 123.067 165.195 123.067 164.8C123.067 164.405 123.211 164.075 123.499 163.808C123.787 163.541 124.16 163.408 124.619 163.408C125.077 163.408 125.451 163.536 125.739 163.792C126.027 164.037 126.171 164.357 126.171 164.752C126.171 165.168 126.027 165.515 125.739 165.792C125.461 166.059 125.088 166.192 124.619 166.192ZM130.247 174.24L130.311 171.2L134.327 167.392H137.303L133.447 171.312L132.151 172.368L130.247 174.24ZM128.183 176V164.128H130.679V176H128.183ZM134.599 176L131.687 172.384L133.255 170.448L137.623 176H134.599ZM138.746 176V167.392H141.242V176H138.746ZM139.994 166.192C139.535 166.192 139.162 166.059 138.874 165.792C138.586 165.525 138.442 165.195 138.442 164.8C138.442 164.405 138.586 164.075 138.874 163.808C139.162 163.541 139.535 163.408 139.994 163.408C140.452 163.408 140.826 163.536 141.114 163.792C141.402 164.037 141.546 164.357 141.546 164.752C141.546 165.168 141.402 165.515 141.114 165.792C140.836 166.059 140.463 166.192 139.994 166.192ZM143.558 176V167.392H145.942V169.824L145.606 169.12C145.862 168.512 146.273 168.053 146.838 167.744C147.404 167.424 148.092 167.264 148.902 167.264V169.568C148.796 169.557 148.7 169.552 148.614 169.552C148.529 169.541 148.438 169.536 148.342 169.536C147.66 169.536 147.105 169.733 146.678 170.128C146.262 170.512 146.054 171.115 146.054 171.936V176H143.558ZM150.402 176V167.392H152.898V176H150.402ZM151.65 166.192C151.191 166.192 150.818 166.059 150.53 165.792C150.242 165.525 150.098 165.195 150.098 164.8C150.098 164.405 150.242 164.075 150.53 163.808C150.818 163.541 151.191 163.408 151.65 163.408C152.109 163.408 152.482 163.536 152.77 163.792C153.058 164.037 153.202 164.357 153.202 164.752C153.202 165.168 153.058 165.515 152.77 165.792C152.493 166.059 152.119 166.192 151.65 166.192ZM166.239 167.264C166.921 167.264 167.524 167.403 168.047 167.68C168.58 167.947 168.996 168.363 169.295 168.928C169.604 169.483 169.759 170.197 169.759 171.072V176H167.263V171.456C167.263 170.763 167.119 170.251 166.831 169.92C166.543 169.589 166.137 169.424 165.615 169.424C165.252 169.424 164.927 169.509 164.639 169.68C164.351 169.84 164.127 170.085 163.967 170.416C163.807 170.747 163.727 171.168 163.727 171.68V176H161.231V171.456C161.231 170.763 161.087 170.251 160.799 169.92C160.521 169.589 160.121 169.424 159.599 169.424C159.236 169.424 158.911 169.509 158.623 169.68C158.335 169.84 158.111 170.085 157.951 170.416C157.791 170.747 157.711 171.168 157.711 171.68V176H155.215V167.392H157.599V169.744L157.151 169.056C157.449 168.469 157.871 168.027 158.415 167.728C158.969 167.419 159.599 167.264 160.303 167.264C161.092 167.264 161.78 167.467 162.367 167.872C162.964 168.267 163.359 168.875 163.551 169.696L162.671 169.456C162.959 168.784 163.417 168.251 164.047 167.856C164.687 167.461 165.417 167.264 166.239 167.264Z" fill="#171A23"/>
<path d="M110.328 332V320.8H115.416C116.632 320.8 117.704 321.035 118.632 321.504C119.56 321.963 120.285 322.608 120.808 323.44C121.331 324.272 121.592 325.259 121.592 326.4C121.592 327.531 121.331 328.517 120.808 329.36C120.285 330.192 119.56 330.843 118.632 331.312C117.704 331.771 116.632 332 115.416 332H110.328ZM112.92 329.872H115.288C116.035 329.872 116.68 329.733 117.224 329.456C117.779 329.168 118.205 328.763 118.504 328.24C118.813 327.717 118.968 327.104 118.968 326.4C118.968 325.685 118.813 325.072 118.504 324.56C118.205 324.037 117.779 323.637 117.224 323.36C116.68 323.072 116.035 322.928 115.288 322.928H112.92V329.872ZM123.371 332V323.392H125.867V332H123.371ZM124.619 322.192C124.16 322.192 123.787 322.059 123.499 321.792C123.211 321.525 123.067 321.195 123.067 320.8C123.067 320.405 123.211 320.075 123.499 319.808C123.787 319.541 124.16 319.408 124.619 319.408C125.077 319.408 125.451 319.536 125.739 319.792C126.027 320.037 126.171 320.357 126.171 320.752C126.171 321.168 126.027 321.515 125.739 321.792C125.461 322.059 125.088 322.192 124.619 322.192ZM131.703 332.128C130.69 332.128 129.901 331.872 129.335 331.36C128.77 330.837 128.487 330.064 128.487 329.04V321.488H130.983V329.008C130.983 329.371 131.079 329.653 131.271 329.856C131.463 330.048 131.725 330.144 132.055 330.144C132.45 330.144 132.786 330.037 133.063 329.824L133.735 331.584C133.479 331.765 133.17 331.904 132.807 332C132.455 332.085 132.087 332.128 131.703 332.128ZM127.159 325.504V323.584H133.127V325.504H127.159ZM139.143 332.128C138.161 332.128 137.297 331.936 136.551 331.552C135.815 331.168 135.244 330.645 134.839 329.984C134.433 329.312 134.231 328.549 134.231 327.696C134.231 326.832 134.428 326.069 134.823 325.408C135.228 324.736 135.777 324.213 136.471 323.84C137.164 323.456 137.948 323.264 138.823 323.264C139.665 323.264 140.423 323.445 141.095 323.808C141.777 324.16 142.316 324.672 142.711 325.344C143.105 326.005 143.303 326.8 143.303 327.728C143.303 327.824 143.297 327.936 143.287 328.064C143.276 328.181 143.265 328.293 143.255 328.4H136.263V326.944H141.943L140.983 327.376C140.983 326.928 140.892 326.539 140.711 326.208C140.529 325.877 140.279 325.621 139.959 325.44C139.639 325.248 139.265 325.152 138.839 325.152C138.412 325.152 138.033 325.248 137.703 325.44C137.383 325.621 137.132 325.883 136.951 326.224C136.769 326.555 136.679 326.949 136.679 327.408V327.792C136.679 328.261 136.78 328.677 136.983 329.04C137.196 329.392 137.489 329.664 137.863 329.856C138.247 330.037 138.695 330.128 139.207 330.128C139.665 330.128 140.065 330.059 140.407 329.92C140.759 329.781 141.079 329.573 141.367 329.296L142.695 330.736C142.3 331.184 141.804 331.531 141.207 331.776C140.609 332.011 139.921 332.128 139.143 332.128ZM144.965 332V323.392H147.349V325.824L147.013 325.12C147.269 324.512 147.679 324.053 148.245 323.744C148.81 323.424 149.498 323.264 150.309 323.264V325.568C150.202 325.557 150.106 325.552 150.021 325.552C149.935 325.541 149.845 325.536 149.749 325.536C149.066 325.536 148.511 325.733 148.085 326.128C147.669 326.512 147.461 327.115 147.461 327.936V332H144.965ZM151.808 332V323.392H154.304V332H151.808ZM153.056 322.192C152.598 322.192 152.224 322.059 151.936 321.792C151.648 321.525 151.504 321.195 151.504 320.8C151.504 320.405 151.648 320.075 151.936 319.808C152.224 319.541 152.598 319.408 153.056 319.408C153.515 319.408 153.888 319.536 154.176 319.792C154.464 320.037 154.608 320.357 154.608 320.752C154.608 321.168 154.464 321.515 154.176 321.792C153.899 322.059 153.526 322.192 153.056 322.192ZM167.645 323.264C168.327 323.264 168.93 323.403 169.453 323.68C169.986 323.947 170.402 324.363 170.701 324.928C171.01 325.483 171.165 326.197 171.165 327.072V332H168.669V327.456C168.669 326.763 168.525 326.251 168.237 325.92C167.949 325.589 167.543 325.424 167.021 325.424C166.658 325.424 166.333 325.509 166.045 325.68C165.757 325.84 165.533 326.085 165.373 326.416C165.213 326.747 165.133 327.168 165.133 327.68V332H162.637V327.456C162.637 326.763 162.493 326.251 162.205 325.92C161.927 325.589 161.527 325.424 161.005 325.424C160.642 325.424 160.317 325.509 160.029 325.68C159.741 325.84 159.517 326.085 159.357 326.416C159.197 326.747 159.117 327.168 159.117 327.68V332H156.621V323.392H159.005V325.744L158.557 325.056C158.855 324.469 159.277 324.027 159.821 323.728C160.375 323.419 161.005 323.264 161.709 323.264C162.498 323.264 163.186 323.467 163.773 323.872C164.37 324.267 164.765 324.875 164.957 325.696L164.077 325.456C164.365 324.784 164.823 324.251 165.453 323.856C166.093 323.461 166.823 323.264 167.645 323.264ZM178.682 332V330.32L178.522 329.952V326.944C178.522 326.411 178.357 325.995 178.026 325.696C177.706 325.397 177.21 325.248 176.538 325.248C176.079 325.248 175.626 325.323 175.178 325.472C174.741 325.611 174.367 325.803 174.058 326.048L173.162 324.304C173.631 323.973 174.197 323.717 174.858 323.536C175.519 323.355 176.191 323.264 176.874 323.264C178.186 323.264 179.205 323.573 179.93 324.192C180.655 324.811 181.018 325.776 181.018 327.088V332H178.682ZM176.058 332.128C175.386 332.128 174.81 332.016 174.33 331.792C173.85 331.557 173.482 331.243 173.226 330.848C172.97 330.453 172.842 330.011 172.842 329.52C172.842 329.008 172.965 328.56 173.21 328.176C173.466 327.792 173.866 327.493 174.41 327.28C174.954 327.056 175.663 326.944 176.538 326.944H178.826V328.4H176.81C176.223 328.4 175.818 328.496 175.594 328.688C175.381 328.88 175.274 329.12 175.274 329.408C175.274 329.728 175.397 329.984 175.642 330.176C175.898 330.357 176.245 330.448 176.682 330.448C177.098 330.448 177.471 330.352 177.802 330.16C178.133 329.957 178.373 329.664 178.522 329.28L178.906 330.432C178.725 330.987 178.394 331.408 177.914 331.696C177.434 331.984 176.815 332.128 176.058 332.128Z" fill="#171A23"/>
<path d="M42 341L41 81" stroke="#2CBF29" stroke-width="8" stroke-dasharray="6 6"/>
<circle cx="40.5" cy="194.5" r="40.5" fill="#2CBF29"/>
<path d="M45.6883 181.376L52.3263 189.843H38.7218V181.376H45.6883ZM33.1901 179.965V189.843H19.3608C17.8309 189.843 16.595 191.104 16.595 192.665V198.31C15.0651 198.31 13.8291 199.571 13.8291 201.132C13.8291 202.693 15.0651 203.955 16.595 203.955H19.4559C19.3954 204.413 19.3608 204.89 19.3608 205.366C19.3608 210.825 23.6911 215.244 29.0413 215.244C34.3915 215.244 38.7218 210.825 38.7218 205.366C38.7218 204.89 38.6872 204.413 38.6267 203.955H44.3572C44.2967 204.413 44.2621 204.89 44.2621 205.366C44.2621 210.825 48.5924 215.244 53.9426 215.244C59.2928 215.244 63.6231 210.825 63.6231 205.366C63.6231 204.89 63.5885 204.413 63.528 203.955H66.3803C67.9101 203.955 69.1461 202.693 69.1461 201.132C69.1461 199.571 67.9101 198.31 66.3803 198.31V192.665C66.3803 191.104 65.1443 189.843 63.6144 189.843H59.4138L50.0099 177.848C48.9641 176.508 47.3737 175.732 45.6883 175.732H37.3388C35.0484 175.732 33.1901 177.628 33.1901 179.965ZM24.8925 205.366C24.8925 203.029 26.7508 201.132 29.0413 201.132C31.3318 201.132 33.1901 203.029 33.1901 205.366C33.1901 207.703 31.3318 209.599 29.0413 209.599C26.7508 209.599 24.8925 207.703 24.8925 205.366ZM49.7852 205.366C49.7852 203.029 51.6435 201.132 53.9339 201.132C56.2244 201.132 58.0827 203.029 58.0827 205.366C58.0827 207.703 56.2244 209.599 53.9339 209.599C51.6435 209.599 49.7852 207.703 49.7852 205.366Z" fill="white"/>
<path d="M110.336 26V14.8H115.424C116.64 14.8 117.712 15.0347 118.64 15.504C119.568 15.9627 120.293 16.608 120.816 17.44C121.338 18.272 121.6 19.2587 121.6 20.4C121.6 21.5307 121.338 22.5173 120.816 23.36C120.293 24.192 119.568 24.8427 118.64 25.312C117.712 25.7707 116.64 26 115.424 26H110.336ZM112.928 23.872H115.296C116.042 23.872 116.688 23.7333 117.232 23.456C117.786 23.168 118.213 22.7627 118.512 22.24C118.821 21.7173 118.976 21.104 118.976 20.4C118.976 19.6853 118.821 19.072 118.512 18.56C118.213 18.0373 117.786 17.6373 117.232 17.36C116.688 17.072 116.042 16.928 115.296 16.928H112.928V23.872ZM123.379 26V17.392H125.875V26H123.379ZM124.627 16.192C124.168 16.192 123.795 16.0587 123.507 15.792C123.219 15.5253 123.075 15.1947 123.075 14.8C123.075 14.4053 123.219 14.0747 123.507 13.808C123.795 13.5413 124.168 13.408 124.627 13.408C125.085 13.408 125.459 13.536 125.747 13.792C126.035 14.0373 126.179 14.3573 126.179 14.752C126.179 15.168 126.035 15.5147 125.747 15.792C125.469 16.0587 125.096 16.192 124.627 16.192ZM133.279 26.128C132.554 26.128 131.919 25.968 131.375 25.648C130.831 25.328 130.404 24.8427 130.095 24.192C129.796 23.5307 129.647 22.6987 129.647 21.696C129.647 20.6827 129.791 19.8507 130.079 19.2C130.367 18.5493 130.783 18.064 131.327 17.744C131.871 17.424 132.522 17.264 133.279 17.264C134.09 17.264 134.815 17.4507 135.455 17.824C136.106 18.1867 136.618 18.6987 136.991 19.36C137.375 20.0213 137.567 20.8 137.567 21.696C137.567 22.6027 137.375 23.3867 136.991 24.048C136.618 24.7093 136.106 25.2213 135.455 25.584C134.815 25.9467 134.09 26.128 133.279 26.128ZM128.191 29.104V17.392H130.575V19.152L130.527 21.712L130.687 24.256V29.104H128.191ZM132.847 24.08C133.263 24.08 133.631 23.984 133.951 23.792C134.282 23.6 134.543 23.328 134.735 22.976C134.938 22.6133 135.039 22.1867 135.039 21.696C135.039 21.1947 134.938 20.768 134.735 20.416C134.543 20.064 134.282 19.792 133.951 19.6C133.631 19.408 133.263 19.312 132.847 19.312C132.431 19.312 132.058 19.408 131.727 19.6C131.396 19.792 131.135 20.064 130.943 20.416C130.751 20.768 130.655 21.1947 130.655 21.696C130.655 22.1867 130.751 22.6133 130.943 22.976C131.135 23.328 131.396 23.6 131.727 23.792C132.058 23.984 132.431 24.08 132.847 24.08ZM139.238 26V17.392H141.622V19.824L141.286 19.12C141.542 18.512 141.953 18.0533 142.518 17.744C143.083 17.424 143.771 17.264 144.582 17.264V19.568C144.475 19.5573 144.379 19.552 144.294 19.552C144.209 19.5413 144.118 19.536 144.022 19.536C143.339 19.536 142.785 19.7333 142.358 20.128C141.942 20.512 141.734 21.1147 141.734 21.936V26H139.238ZM150.1 26.128C149.182 26.128 148.366 25.936 147.652 25.552C146.948 25.168 146.388 24.6453 145.972 23.984C145.566 23.312 145.364 22.5493 145.364 21.696C145.364 20.832 145.566 20.0693 145.972 19.408C146.388 18.736 146.948 18.2133 147.652 17.84C148.366 17.456 149.182 17.264 150.1 17.264C151.006 17.264 151.817 17.456 152.532 17.84C153.246 18.2133 153.806 18.7307 154.212 19.392C154.617 20.0533 154.82 20.8213 154.82 21.696C154.82 22.5493 154.617 23.312 154.212 23.984C153.806 24.6453 153.246 25.168 152.532 25.552C151.817 25.936 151.006 26.128 150.1 26.128ZM150.1 24.08C150.516 24.08 150.889 23.984 151.22 23.792C151.55 23.6 151.812 23.328 152.004 22.976C152.196 22.6133 152.292 22.1867 152.292 21.696C152.292 21.1947 152.196 20.768 152.004 20.416C151.812 20.064 151.55 19.792 151.22 19.6C150.889 19.408 150.516 19.312 150.1 19.312C149.684 19.312 149.31 19.408 148.98 19.6C148.649 19.792 148.382 20.064 148.18 20.416C147.988 20.768 147.892 21.1947 147.892 21.696C147.892 22.1867 147.988 22.6133 148.18 22.976C148.382 23.328 148.649 23.6 148.98 23.792C149.31 23.984 149.684 24.08 150.1 24.08ZM160.184 26.128C159.373 26.128 158.643 25.9467 157.992 25.584C157.341 25.2107 156.824 24.6933 156.44 24.032C156.067 23.3707 155.88 22.592 155.88 21.696C155.88 20.7893 156.067 20.0053 156.44 19.344C156.824 18.6827 157.341 18.1707 157.992 17.808C158.643 17.4453 159.373 17.264 160.184 17.264C160.909 17.264 161.544 17.424 162.088 17.744C162.632 18.064 163.053 18.5493 163.352 19.2C163.651 19.8507 163.8 20.6827 163.8 21.696C163.8 22.6987 163.656 23.5307 163.368 24.192C163.08 24.8427 162.664 25.328 162.12 25.648C161.587 25.968 160.941 26.128 160.184 26.128ZM160.616 24.08C161.021 24.08 161.389 23.984 161.72 23.792C162.051 23.6 162.312 23.328 162.504 22.976C162.707 22.6133 162.808 22.1867 162.808 21.696C162.808 21.1947 162.707 20.768 162.504 20.416C162.312 20.064 162.051 19.792 161.72 19.6C161.389 19.408 161.021 19.312 160.616 19.312C160.2 19.312 159.827 19.408 159.496 19.6C159.165 19.792 158.899 20.064 158.696 20.416C158.504 20.768 158.408 21.1947 158.408 21.696C158.408 22.1867 158.504 22.6133 158.696 22.976C158.899 23.328 159.165 23.6 159.496 23.792C159.827 23.984 160.2 24.08 160.616 24.08ZM162.872 26V24.24L162.92 21.68L162.76 19.136V14.128H165.256V26H162.872ZM171.198 26.128C170.483 26.128 169.843 25.9893 169.278 25.712C168.723 25.4347 168.291 25.0133 167.982 24.448C167.673 23.872 167.518 23.1413 167.518 22.256V17.392H170.014V21.888C170.014 22.6027 170.163 23.1307 170.462 23.472C170.771 23.8027 171.203 23.968 171.758 23.968C172.142 23.968 172.483 23.888 172.782 23.728C173.081 23.5573 173.315 23.3013 173.486 22.96C173.657 22.608 173.742 22.1707 173.742 21.648V17.392H176.238V26H173.87V23.632L174.302 24.32C174.014 24.9173 173.587 25.3707 173.022 25.68C172.467 25.9787 171.859 26.128 171.198 26.128ZM180.614 24.24L180.678 21.2L184.694 17.392H187.67L183.814 21.312L182.518 22.368L180.614 24.24ZM178.55 26V14.128H181.046V26H178.55ZM184.966 26L182.054 22.384L183.622 20.448L187.99 26H184.966ZM191.728 26.128C190.992 26.128 190.282 26.0427 189.6 25.872C188.928 25.6907 188.394 25.4667 188 25.2L188.832 23.408C189.226 23.6533 189.69 23.856 190.224 24.016C190.768 24.1653 191.301 24.24 191.824 24.24C192.4 24.24 192.805 24.1707 193.04 24.032C193.285 23.8933 193.408 23.7013 193.408 23.456C193.408 23.2533 193.312 23.104 193.12 23.008C192.938 22.9013 192.693 22.8213 192.384 22.768C192.074 22.7147 191.733 22.6613 191.36 22.608C190.997 22.5547 190.629 22.4853 190.256 22.4C189.882 22.304 189.541 22.1653 189.232 21.984C188.922 21.8027 188.672 21.5573 188.48 21.248C188.298 20.9387 188.208 20.5387 188.208 20.048C188.208 19.504 188.362 19.024 188.672 18.608C188.992 18.192 189.45 17.8667 190.048 17.632C190.645 17.3867 191.36 17.264 192.192 17.264C192.778 17.264 193.376 17.328 193.984 17.456C194.592 17.584 195.098 17.7707 195.504 18.016L194.672 19.792C194.256 19.5467 193.834 19.3813 193.408 19.296C192.992 19.2 192.586 19.152 192.192 19.152C191.637 19.152 191.232 19.2267 190.976 19.376C190.72 19.5253 190.592 19.7173 190.592 19.952C190.592 20.1653 190.682 20.3253 190.864 20.432C191.056 20.5387 191.306 20.624 191.616 20.688C191.925 20.752 192.261 20.8107 192.624 20.864C192.997 20.9067 193.37 20.976 193.744 21.072C194.117 21.168 194.453 21.3067 194.752 21.488C195.061 21.6587 195.312 21.8987 195.504 22.208C195.696 22.5067 195.792 22.9013 195.792 23.392C195.792 23.9253 195.632 24.4 195.312 24.816C194.992 25.2213 194.528 25.5413 193.92 25.776C193.322 26.0107 192.592 26.128 191.728 26.128ZM197.332 26V17.392H199.828V26H197.332ZM198.58 16.192C198.121 16.192 197.748 16.0587 197.46 15.792C197.172 15.5253 197.028 15.1947 197.028 14.8C197.028 14.4053 197.172 14.0747 197.46 13.808C197.748 13.5413 198.121 13.408 198.58 13.408C199.038 13.408 199.412 13.536 199.7 13.792C199.988 14.0373 200.132 14.3573 200.132 14.752C200.132 15.168 199.988 15.5147 199.7 15.792C199.422 16.0587 199.049 16.192 198.58 16.192Z" fill="#171A23"/>
<circle cx="41.5" cy="351.5" r="40.5" fill="#2CBF29"/>
<path d="M54.8017 337.462C55.4385 336.847 56.286 336.506 57.1652 336.513C58.0445 336.52 58.8867 336.873 59.5143 337.498C60.1419 338.123 60.5057 338.971 60.5289 339.864C60.5522 340.756 60.233 341.622 59.6389 342.28L41.6013 365.178C41.2911 365.517 40.9168 365.789 40.5006 365.978C40.0845 366.167 39.6351 366.269 39.1793 366.278C38.7235 366.286 38.2707 366.201 37.848 366.028C37.4252 365.855 37.0412 365.597 36.7189 365.27L24.7571 353.128C24.424 352.813 24.1568 352.433 23.9715 352.011C23.7862 351.589 23.6865 351.133 23.6785 350.671C23.6705 350.209 23.7542 349.75 23.9247 349.321C24.0953 348.893 24.3491 348.503 24.671 348.177C24.993 347.85 25.3765 347.592 25.7987 347.419C26.2209 347.246 26.6731 347.161 27.1283 347.169C27.5836 347.177 28.0325 347.278 28.4484 347.466C28.8643 347.655 29.2387 347.926 29.5491 348.264L39.0154 357.868L54.7158 337.563C54.7441 337.528 54.7743 337.494 54.8062 337.462H54.8017Z" fill="white"/>
</svg>
