
<svg width="297" height="235" viewBox="0 0 297 235" fill="none" xmlns="http://www.w3.org/2000/svg">
<circle cx="41.5" cy="40.5" r="40.5" fill="#2CBF29"/>
<path d="M26.155 24.0685C26.2137 23.1898 26.6042 22.3661 27.2475 21.7645C27.8908 21.1629 28.7387 20.8284 29.6194 20.8286H32.2323C33.113 20.8284 33.9609 21.1629 34.6042 21.7645C35.2475 22.3661 35.638 23.1898 35.6968 24.0685L37.7009 54.1542C37.7326 54.6284 37.6666 55.1041 37.507 55.5517C37.3473 55.9993 37.0975 56.4094 36.7729 56.7565C36.4483 57.1037 36.0559 57.3805 35.62 57.5698C35.1841 57.7591 34.714 57.8569 34.2388 57.8571H27.613C27.1377 57.8569 26.6676 57.7591 26.2317 57.5698C25.7958 57.3805 25.4034 57.1037 25.0788 56.7565C24.7542 56.4094 24.5044 55.9993 24.3448 55.5517C24.1851 55.1041 24.1191 54.6284 24.1508 54.1542L26.155 24.0685V24.0685ZM38.8673 57.8571C39.6681 56.7925 40.1078 55.4433 40.0106 54.0015L38.8048 35.9038L47.5089 28.0676C47.6751 27.9176 47.8814 27.819 48.1026 27.7838C48.3238 27.7487 48.5504 27.7785 48.755 27.8697C48.9596 27.9608 49.1334 28.1094 49.2552 28.2973C49.377 28.4853 49.4417 28.7046 49.4413 28.9285V36.7439L59.0803 28.0676C59.2466 27.9176 59.4528 27.819 59.674 27.7838C59.8952 27.7487 60.1219 27.7785 60.3265 27.8697C60.5311 27.9608 60.7048 28.1094 60.8266 28.2973C60.9484 28.4853 61.0131 28.7046 61.0127 28.9285V54.3857C61.0127 55.3063 60.647 56.1893 59.9959 56.8403C59.3449 57.4914 58.462 57.8571 57.5413 57.8571H38.865H38.8673ZM56.3841 55.5428V45.8228C56.3841 45.3318 56.1891 44.8609 55.8419 44.5137C55.4947 44.1665 55.0237 43.9714 54.5327 43.9714H46.6641C46.1731 43.9714 45.7022 44.1665 45.355 44.5137C45.0078 44.8609 44.8127 45.3318 44.8127 45.8228V55.5428H56.3841V55.5428Z" fill="white"/>
<path d="M110.68 41V29.8H115.048C116.029 29.8 116.867 29.9547 117.56 30.264C118.253 30.5733 118.787 31.0213 119.16 31.608C119.533 32.1947 119.72 32.8933 119.72 33.704C119.72 34.5147 119.533 35.2133 119.16 35.8C118.787 36.376 118.253 36.824 117.56 37.144C116.867 37.4533 116.029 37.608 115.048 37.608H111.56L112.28 36.856V41H110.68ZM112.28 37.016L111.56 36.216H115C116.024 36.216 116.797 35.9973 117.32 35.56C117.853 35.1227 118.12 34.504 118.12 33.704C118.12 32.904 117.853 32.2853 117.32 31.848C116.797 31.4107 116.024 31.192 115 31.192H111.56L112.28 30.392V37.016ZM125.591 41.096C124.685 41.096 123.885 40.9093 123.191 40.536C122.509 40.1627 121.975 39.6507 121.591 39C121.218 38.3493 121.031 37.6027 121.031 36.76C121.031 35.9173 121.213 35.1707 121.575 34.52C121.949 33.8693 122.455 33.3627 123.095 33C123.746 32.6267 124.477 32.44 125.287 32.44C126.109 32.44 126.834 32.6213 127.463 32.984C128.093 33.3467 128.583 33.8587 128.935 34.52C129.298 35.1707 129.479 35.9333 129.479 36.808C129.479 36.872 129.474 36.9467 129.463 37.032C129.463 37.1173 129.458 37.1973 129.447 37.272H122.231V36.168H128.647L128.023 36.552C128.034 36.008 127.922 35.5227 127.687 35.096C127.453 34.6693 127.127 34.3387 126.711 34.104C126.306 33.8587 125.831 33.736 125.287 33.736C124.754 33.736 124.279 33.8587 123.863 34.104C123.447 34.3387 123.122 34.6747 122.887 35.112C122.653 35.5387 122.535 36.0293 122.535 36.584V36.84C122.535 37.4053 122.663 37.912 122.919 38.36C123.186 38.7973 123.554 39.1387 124.023 39.384C124.493 39.6293 125.031 39.752 125.639 39.752C126.141 39.752 126.594 39.6667 126.999 39.496C127.415 39.3253 127.778 39.0693 128.087 38.728L128.935 39.72C128.551 40.168 128.071 40.5093 127.495 40.744C126.93 40.9787 126.295 41.096 125.591 41.096ZM134.044 41.096C133.34 41.096 132.668 41 132.028 40.808C131.399 40.616 130.903 40.3813 130.54 40.104L131.18 38.888C131.543 39.1333 131.991 39.3413 132.524 39.512C133.058 39.6827 133.602 39.768 134.156 39.768C134.871 39.768 135.383 39.6667 135.692 39.464C136.012 39.2613 136.172 38.9787 136.172 38.616C136.172 38.3493 136.076 38.1413 135.884 37.992C135.692 37.8427 135.436 37.7307 135.116 37.656C134.807 37.5813 134.46 37.5173 134.076 37.464C133.692 37.4 133.308 37.3253 132.924 37.24C132.54 37.144 132.188 37.016 131.868 36.856C131.548 36.6853 131.292 36.456 131.1 36.168C130.908 35.8693 130.812 35.4747 130.812 34.984C130.812 34.472 130.956 34.024 131.244 33.64C131.532 33.256 131.938 32.9627 132.46 32.76C132.994 32.5467 133.623 32.44 134.348 32.44C134.903 32.44 135.463 32.5093 136.028 32.648C136.604 32.776 137.074 32.9627 137.436 33.208L136.78 34.424C136.396 34.168 135.996 33.992 135.58 33.896C135.164 33.8 134.748 33.752 134.332 33.752C133.66 33.752 133.159 33.864 132.828 34.088C132.498 34.3013 132.332 34.5787 132.332 34.92C132.332 35.208 132.428 35.432 132.62 35.592C132.823 35.7413 133.079 35.8587 133.388 35.944C133.708 36.0293 134.06 36.104 134.444 36.168C134.828 36.2213 135.212 36.296 135.596 36.392C135.98 36.4773 136.327 36.6 136.636 36.76C136.956 36.92 137.212 37.144 137.404 37.432C137.607 37.72 137.708 38.104 137.708 38.584C137.708 39.096 137.559 39.5387 137.26 39.912C136.962 40.2853 136.54 40.5787 135.996 40.792C135.452 40.9947 134.802 41.096 134.044 41.096ZM144.892 41V39.208L144.812 38.872V35.816C144.812 35.1653 144.62 34.664 144.236 34.312C143.863 33.9493 143.297 33.768 142.54 33.768C142.039 33.768 141.548 33.8533 141.068 34.024C140.588 34.184 140.183 34.4027 139.852 34.68L139.212 33.528C139.649 33.176 140.172 32.9093 140.78 32.728C141.399 32.536 142.044 32.44 142.716 32.44C143.879 32.44 144.775 32.7227 145.404 33.288C146.033 33.8533 146.348 34.7173 146.348 35.88V41H144.892ZM142.108 41.096C141.479 41.096 140.924 40.9893 140.444 40.776C139.975 40.5627 139.612 40.2693 139.356 39.896C139.1 39.512 138.972 39.08 138.972 38.6C138.972 38.1413 139.079 37.7253 139.292 37.352C139.516 36.9787 139.873 36.68 140.364 36.456C140.865 36.232 141.537 36.12 142.38 36.12H145.068V37.224H142.444C141.676 37.224 141.159 37.352 140.892 37.608C140.625 37.864 140.492 38.1733 140.492 38.536C140.492 38.952 140.657 39.288 140.988 39.544C141.319 39.7893 141.777 39.912 142.364 39.912C142.94 39.912 143.441 39.784 143.868 39.528C144.305 39.272 144.62 38.8987 144.812 38.408L145.116 39.464C144.913 39.9653 144.556 40.3653 144.044 40.664C143.532 40.952 142.887 41.096 142.108 41.096ZM153.718 32.44C154.412 32.44 155.02 32.5733 155.542 32.84C156.076 33.1067 156.492 33.512 156.79 34.056C157.089 34.6 157.238 35.288 157.238 36.12V41H155.702V36.296C155.702 35.4747 155.5 34.856 155.094 34.44C154.7 34.024 154.14 33.816 153.414 33.816C152.87 33.816 152.396 33.9227 151.99 34.136C151.585 34.3493 151.27 34.664 151.046 35.08C150.833 35.496 150.726 36.0133 150.726 36.632V41H149.19V32.52H150.662V34.808L150.422 34.2C150.7 33.6453 151.126 33.2133 151.702 32.904C152.278 32.5947 152.95 32.44 153.718 32.44ZM165.345 41V39.208L165.265 38.872V35.816C165.265 35.1653 165.073 34.664 164.689 34.312C164.316 33.9493 163.75 33.768 162.993 33.768C162.492 33.768 162.001 33.8533 161.521 34.024C161.041 34.184 160.636 34.4027 160.305 34.68L159.665 33.528C160.102 33.176 160.625 32.9093 161.233 32.728C161.852 32.536 162.497 32.44 163.169 32.44C164.332 32.44 165.228 32.7227 165.857 33.288C166.486 33.8533 166.801 34.7173 166.801 35.88V41H165.345ZM162.561 41.096C161.932 41.096 161.377 40.9893 160.897 40.776C160.428 40.5627 160.065 40.2693 159.809 39.896C159.553 39.512 159.425 39.08 159.425 38.6C159.425 38.1413 159.532 37.7253 159.745 37.352C159.969 36.9787 160.326 36.68 160.817 36.456C161.318 36.232 161.99 36.12 162.833 36.12H165.521V37.224H162.897C162.129 37.224 161.612 37.352 161.345 37.608C161.078 37.864 160.945 38.1733 160.945 38.536C160.945 38.952 161.11 39.288 161.441 39.544C161.772 39.7893 162.23 39.912 162.817 39.912C163.393 39.912 163.894 39.784 164.321 39.528C164.758 39.272 165.073 38.8987 165.265 38.408L165.569 39.464C165.366 39.9653 165.009 40.3653 164.497 40.664C163.985 40.952 163.34 41.096 162.561 41.096ZM174.172 32.44C174.865 32.44 175.473 32.5733 175.996 32.84C176.529 33.1067 176.945 33.512 177.244 34.056C177.542 34.6 177.692 35.288 177.692 36.12V41H176.156V36.296C176.156 35.4747 175.953 34.856 175.548 34.44C175.153 34.024 174.593 33.816 173.868 33.816C173.324 33.816 172.849 33.9227 172.444 34.136C172.038 34.3493 171.724 34.664 171.5 35.08C171.286 35.496 171.18 36.0133 171.18 36.632V41H169.644V32.52H171.116V34.808L170.876 34.2C171.153 33.6453 171.58 33.2133 172.156 32.904C172.732 32.5947 173.404 32.44 174.172 32.44ZM187.263 41.096C186.559 41.096 185.887 41 185.247 40.808C184.618 40.616 184.122 40.3813 183.759 40.104L184.399 38.888C184.762 39.1333 185.21 39.3413 185.743 39.512C186.276 39.6827 186.82 39.768 187.375 39.768C188.09 39.768 188.602 39.6667 188.911 39.464C189.231 39.2613 189.391 38.9787 189.391 38.616C189.391 38.3493 189.295 38.1413 189.103 37.992C188.911 37.8427 188.655 37.7307 188.335 37.656C188.026 37.5813 187.679 37.5173 187.295 37.464C186.911 37.4 186.527 37.3253 186.143 37.24C185.759 37.144 185.407 37.016 185.087 36.856C184.767 36.6853 184.511 36.456 184.319 36.168C184.127 35.8693 184.031 35.4747 184.031 34.984C184.031 34.472 184.175 34.024 184.463 33.64C184.751 33.256 185.156 32.9627 185.679 32.76C186.212 32.5467 186.842 32.44 187.567 32.44C188.122 32.44 188.682 32.5093 189.247 32.648C189.823 32.776 190.292 32.9627 190.655 33.208L189.999 34.424C189.615 34.168 189.215 33.992 188.799 33.896C188.383 33.8 187.967 33.752 187.551 33.752C186.879 33.752 186.378 33.864 186.047 34.088C185.716 34.3013 185.551 34.5787 185.551 34.92C185.551 35.208 185.647 35.432 185.839 35.592C186.042 35.7413 186.298 35.8587 186.607 35.944C186.927 36.0293 187.279 36.104 187.663 36.168C188.047 36.2213 188.431 36.296 188.815 36.392C189.199 36.4773 189.546 36.6 189.855 36.76C190.175 36.92 190.431 37.144 190.623 37.432C190.826 37.72 190.927 38.104 190.927 38.584C190.927 39.096 190.778 39.5387 190.479 39.912C190.18 40.2853 189.759 40.5787 189.215 40.792C188.671 40.9947 188.02 41.096 187.263 41.096ZM196.623 41.096C195.716 41.096 194.916 40.9093 194.223 40.536C193.54 40.1627 193.007 39.6507 192.623 39C192.249 38.3493 192.063 37.6027 192.063 36.76C192.063 35.9173 192.244 35.1707 192.607 34.52C192.98 33.8693 193.487 33.3627 194.127 33C194.777 32.6267 195.508 32.44 196.319 32.44C197.14 32.44 197.865 32.6213 198.495 32.984C199.124 33.3467 199.615 33.8587 199.967 34.52C200.329 35.1707 200.511 35.9333 200.511 36.808C200.511 36.872 200.505 36.9467 200.495 37.032C200.495 37.1173 200.489 37.1973 200.479 37.272H193.263V36.168H199.679L199.055 36.552C199.065 36.008 198.953 35.5227 198.719 35.096C198.484 34.6693 198.159 34.3387 197.743 34.104C197.337 33.8587 196.863 33.736 196.319 33.736C195.785 33.736 195.311 33.8587 194.895 34.104C194.479 34.3387 194.153 34.6747 193.919 35.112C193.684 35.5387 193.567 36.0293 193.567 36.584V36.84C193.567 37.4053 193.695 37.912 193.951 38.36C194.217 38.7973 194.585 39.1387 195.055 39.384C195.524 39.6293 196.063 39.752 196.671 39.752C197.172 39.752 197.625 39.6667 198.031 39.496C198.447 39.3253 198.809 39.0693 199.119 38.728L199.967 39.72C199.583 40.168 199.103 40.5093 198.527 40.744C197.961 40.9787 197.327 41.096 196.623 41.096ZM206.148 41.096C205.326 41.096 204.59 40.9147 203.94 40.552C203.3 40.1893 202.793 39.6827 202.42 39.032C202.046 38.3813 201.86 37.624 201.86 36.76C201.86 35.896 202.046 35.144 202.42 34.504C202.793 33.8533 203.3 33.3467 203.94 32.984C204.59 32.6213 205.326 32.44 206.148 32.44C206.862 32.44 207.508 32.6 208.084 32.92C208.66 33.24 209.118 33.72 209.46 34.36C209.812 35 209.988 35.8 209.988 36.76C209.988 37.72 209.817 38.52 209.476 39.16C209.145 39.8 208.692 40.2853 208.116 40.616C207.54 40.936 206.884 41.096 206.148 41.096ZM206.276 39.752C206.809 39.752 207.289 39.6293 207.716 39.384C208.153 39.1387 208.494 38.792 208.74 38.344C208.996 37.8853 209.124 37.3573 209.124 36.76C209.124 36.152 208.996 35.6293 208.74 35.192C208.494 34.744 208.153 34.3973 207.716 34.152C207.289 33.9067 206.809 33.784 206.276 33.784C205.732 33.784 205.246 33.9067 204.82 34.152C204.393 34.3973 204.052 34.744 203.796 35.192C203.54 35.6293 203.412 36.152 203.412 36.76C203.412 37.3573 203.54 37.8853 203.796 38.344C204.052 38.792 204.393 39.1387 204.82 39.384C205.246 39.6293 205.732 39.752 206.276 39.752ZM209.172 41V38.712L209.267 36.744L209.108 34.776V29.128H210.644V41H209.172ZM218.814 41V39.208L218.734 38.872V35.816C218.734 35.1653 218.542 34.664 218.158 34.312C217.784 33.9493 217.219 33.768 216.462 33.768C215.96 33.768 215.47 33.8533 214.99 34.024C214.51 34.184 214.104 34.4027 213.774 34.68L213.134 33.528C213.571 33.176 214.094 32.9093 214.702 32.728C215.32 32.536 215.966 32.44 216.638 32.44C217.8 32.44 218.696 32.7227 219.326 33.288C219.955 33.8533 220.27 34.7173 220.27 35.88V41H218.814ZM216.03 41.096C215.4 41.096 214.846 40.9893 214.366 40.776C213.896 40.5627 213.534 40.2693 213.278 39.896C213.022 39.512 212.894 39.08 212.894 38.6C212.894 38.1413 213 37.7253 213.214 37.352C213.438 36.9787 213.795 36.68 214.286 36.456C214.787 36.232 215.459 36.12 216.302 36.12H218.99V37.224H216.366C215.598 37.224 215.08 37.352 214.814 37.608C214.547 37.864 214.414 38.1733 214.414 38.536C214.414 38.952 214.579 39.288 214.91 39.544C215.24 39.7893 215.699 39.912 216.286 39.912C216.862 39.912 217.363 39.784 217.79 39.528C218.227 39.272 218.542 38.8987 218.734 38.408L219.038 39.464C218.835 39.9653 218.478 40.3653 217.966 40.664C217.454 40.952 216.808 41.096 216.03 41.096ZM227.64 32.44C228.334 32.44 228.942 32.5733 229.464 32.84C229.998 33.1067 230.414 33.512 230.712 34.056C231.011 34.6 231.16 35.288 231.16 36.12V41H229.624V36.296C229.624 35.4747 229.422 34.856 229.016 34.44C228.622 34.024 228.062 33.816 227.336 33.816C226.792 33.816 226.318 33.9227 225.912 34.136C225.507 34.3493 225.192 34.664 224.968 35.08C224.755 35.496 224.648 36.0133 224.648 36.632V41H223.112V32.52H224.584V34.808L224.344 34.2C224.622 33.6453 225.048 33.2133 225.624 32.904C226.2 32.5947 226.872 32.44 227.64 32.44ZM237.715 44.2C236.936 44.2 236.179 44.088 235.443 43.864C234.718 43.6507 234.126 43.3413 233.667 42.936L234.403 41.752C234.798 42.0933 235.283 42.36 235.859 42.552C236.435 42.7547 237.038 42.856 237.667 42.856C238.67 42.856 239.406 42.6213 239.875 42.152C240.344 41.6827 240.579 40.968 240.579 40.008V38.216L240.739 36.536L240.659 34.84V32.52H242.115V39.848C242.115 41.3413 241.742 42.44 240.995 43.144C240.248 43.848 239.155 44.2 237.715 44.2ZM237.523 40.648C236.702 40.648 235.966 40.4773 235.315 40.136C234.675 39.784 234.163 39.2987 233.779 38.68C233.406 38.0613 233.219 37.3467 233.219 36.536C233.219 35.7147 233.406 35 233.779 34.392C234.163 33.7733 234.675 33.2933 235.315 32.952C235.966 32.6107 236.702 32.44 237.523 32.44C238.248 32.44 238.91 32.5893 239.507 32.888C240.104 33.176 240.579 33.624 240.931 34.232C241.294 34.84 241.475 35.608 241.475 36.536C241.475 37.4533 241.294 38.216 240.931 38.824C240.579 39.432 240.104 39.8907 239.507 40.2C238.91 40.4987 238.248 40.648 237.523 40.648ZM237.699 39.304C238.264 39.304 238.766 39.1867 239.203 38.952C239.64 38.7173 239.982 38.392 240.227 37.976C240.483 37.56 240.611 37.08 240.611 36.536C240.611 35.992 240.483 35.512 240.227 35.096C239.982 34.68 239.64 34.36 239.203 34.136C238.766 33.9013 238.264 33.784 237.699 33.784C237.134 33.784 236.627 33.9013 236.179 34.136C235.742 34.36 235.395 34.68 235.139 35.096C234.894 35.512 234.771 35.992 234.771 36.536C234.771 37.08 234.894 37.56 235.139 37.976C235.395 38.392 235.742 38.7173 236.179 38.952C236.627 39.1867 237.134 39.304 237.699 39.304ZM252.851 41.096C252.029 41.096 251.293 40.9147 250.643 40.552C250.003 40.1893 249.496 39.6827 249.123 39.032C248.749 38.3813 248.563 37.624 248.563 36.76C248.563 35.896 248.749 35.144 249.123 34.504C249.496 33.8533 250.003 33.3467 250.643 32.984C251.293 32.6213 252.029 32.44 252.851 32.44C253.565 32.44 254.211 32.6 254.787 32.92C255.363 33.24 255.821 33.72 256.163 34.36C256.515 35 256.691 35.8 256.691 36.76C256.691 37.72 256.52 38.52 256.179 39.16C255.848 39.8 255.395 40.2853 254.819 40.616C254.243 40.936 253.587 41.096 252.851 41.096ZM252.979 39.752C253.512 39.752 253.992 39.6293 254.419 39.384C254.856 39.1387 255.197 38.792 255.443 38.344C255.699 37.8853 255.827 37.3573 255.827 36.76C255.827 36.152 255.699 35.6293 255.443 35.192C255.197 34.744 254.856 34.3973 254.419 34.152C253.992 33.9067 253.512 33.784 252.979 33.784C252.435 33.784 251.949 33.9067 251.523 34.152C251.096 34.3973 250.755 34.744 250.499 35.192C250.243 35.6293 250.115 36.152 250.115 36.76C250.115 37.3573 250.243 37.8853 250.499 38.344C250.755 38.792 251.096 39.1387 251.523 39.384C251.949 39.6293 252.435 39.752 252.979 39.752ZM255.875 41V38.712L255.971 36.744L255.811 34.776V29.128H257.347V41H255.875ZM260.253 41V32.52H261.789V41H260.253ZM261.021 30.888C260.722 30.888 260.472 30.792 260.269 30.6C260.077 30.408 259.981 30.1733 259.981 29.896C259.981 29.608 260.077 29.368 260.269 29.176C260.472 28.984 260.722 28.888 261.021 28.888C261.32 28.888 261.565 28.984 261.757 29.176C261.96 29.3573 262.061 29.5867 262.061 29.864C262.061 30.152 261.965 30.3973 261.773 30.6C261.581 30.792 261.33 30.888 261.021 30.888ZM114.952 61.096C114.248 61.096 113.603 60.936 113.016 60.616C112.44 60.2853 111.976 59.8 111.624 59.16C111.283 58.52 111.112 57.72 111.112 56.76C111.112 55.8 111.277 55 111.608 54.36C111.949 53.72 112.408 53.24 112.984 52.92C113.571 52.6 114.227 52.44 114.952 52.44C115.784 52.44 116.52 52.6213 117.16 52.984C117.8 53.3467 118.307 53.8533 118.68 54.504C119.053 55.144 119.24 55.896 119.24 56.76C119.24 57.624 119.053 58.3813 118.68 59.032C118.307 59.6827 117.8 60.1893 117.16 60.552C116.52 60.9147 115.784 61.096 114.952 61.096ZM110.456 64.104V52.52H111.928V54.808L111.832 56.776L111.992 58.744V64.104H110.456ZM114.824 59.752C115.368 59.752 115.853 59.6293 116.28 59.384C116.717 59.1387 117.059 58.792 117.304 58.344C117.56 57.8853 117.688 57.3573 117.688 56.76C117.688 56.152 117.56 55.6293 117.304 55.192C117.059 54.744 116.717 54.3973 116.28 54.152C115.853 53.9067 115.368 53.784 114.824 53.784C114.291 53.784 113.805 53.9067 113.368 54.152C112.941 54.3973 112.6 54.744 112.344 55.192C112.099 55.6293 111.976 56.152 111.976 56.76C111.976 57.3573 112.099 57.8853 112.344 58.344C112.6 58.792 112.941 59.1387 113.368 59.384C113.805 59.6293 114.291 59.752 114.824 59.752ZM121.362 61V52.52H122.834V54.824L122.69 54.248C122.925 53.6613 123.32 53.2133 123.874 52.904C124.429 52.5947 125.112 52.44 125.922 52.44V53.928C125.858 53.9173 125.794 53.912 125.73 53.912C125.677 53.912 125.624 53.912 125.57 53.912C124.749 53.912 124.098 54.1573 123.618 54.648C123.138 55.1387 122.898 55.848 122.898 56.776V61H121.362ZM131.369 61.096C130.516 61.096 129.759 60.9093 129.097 60.536C128.436 60.1627 127.913 59.6507 127.529 59C127.145 58.3387 126.953 57.592 126.953 56.76C126.953 55.9173 127.145 55.1707 127.529 54.52C127.913 53.8693 128.436 53.3627 129.097 53C129.759 52.6267 130.516 52.44 131.369 52.44C132.212 52.44 132.964 52.6267 133.625 53C134.297 53.3627 134.82 53.8693 135.193 54.52C135.577 55.16 135.769 55.9067 135.769 56.76C135.769 57.6027 135.577 58.3493 135.193 59C134.82 59.6507 134.297 60.1627 133.625 60.536C132.964 60.9093 132.212 61.096 131.369 61.096ZM131.369 59.752C131.913 59.752 132.399 59.6293 132.825 59.384C133.263 59.1387 133.604 58.792 133.849 58.344C134.095 57.8853 134.217 57.3573 134.217 56.76C134.217 56.152 134.095 55.6293 133.849 55.192C133.604 54.744 133.263 54.3973 132.825 54.152C132.399 53.9067 131.913 53.784 131.369 53.784C130.825 53.784 130.34 53.9067 129.913 54.152C129.487 54.3973 129.145 54.744 128.889 55.192C128.633 55.6293 128.505 56.152 128.505 56.76C128.505 57.3573 128.633 57.8853 128.889 58.344C129.145 58.792 129.487 59.1387 129.913 59.384C130.34 59.6293 130.825 59.752 131.369 59.752ZM141.398 61.096C140.576 61.096 139.84 60.9147 139.19 60.552C138.55 60.1893 138.043 59.6827 137.67 59.032C137.296 58.3813 137.11 57.624 137.11 56.76C137.11 55.896 137.296 55.144 137.67 54.504C138.043 53.8533 138.55 53.3467 139.19 52.984C139.84 52.6213 140.576 52.44 141.398 52.44C142.112 52.44 142.758 52.6 143.334 52.92C143.91 53.24 144.368 53.72 144.71 54.36C145.062 55 145.238 55.8 145.238 56.76C145.238 57.72 145.067 58.52 144.726 59.16C144.395 59.8 143.942 60.2853 143.366 60.616C142.79 60.936 142.134 61.096 141.398 61.096ZM141.526 59.752C142.059 59.752 142.539 59.6293 142.966 59.384C143.403 59.1387 143.744 58.792 143.99 58.344C144.246 57.8853 144.374 57.3573 144.374 56.76C144.374 56.152 144.246 55.6293 143.99 55.192C143.744 54.744 143.403 54.3973 142.966 54.152C142.539 53.9067 142.059 53.784 141.526 53.784C140.982 53.784 140.496 53.9067 140.07 54.152C139.643 54.3973 139.302 54.744 139.046 55.192C138.79 55.6293 138.662 56.152 138.662 56.76C138.662 57.3573 138.79 57.8853 139.046 58.344C139.302 58.792 139.643 59.1387 140.07 59.384C140.496 59.6293 140.982 59.752 141.526 59.752ZM144.422 61V58.712L144.517 56.744L144.358 54.776V49.128H145.894V61H144.422ZM152.368 61.096C151.642 61.096 151.002 60.9627 150.448 60.696C149.904 60.4293 149.477 60.024 149.168 59.48C148.869 58.9253 148.72 58.232 148.72 57.4V52.52H150.256V57.224C150.256 58.056 150.453 58.68 150.848 59.096C151.253 59.512 151.818 59.72 152.544 59.72C153.077 59.72 153.541 59.6133 153.936 59.4C154.33 59.176 154.634 58.856 154.848 58.44C155.061 58.0133 155.168 57.5013 155.168 56.904V52.52H156.704V61H155.248V58.712L155.488 59.32C155.21 59.8853 154.794 60.3227 154.24 60.632C153.685 60.9413 153.061 61.096 152.368 61.096ZM160.876 58.952L160.908 56.984L165.788 52.52H167.644L163.9 56.2L163.068 56.904L160.876 58.952ZM159.628 61V49.128H161.164V61H159.628ZM166.108 61L162.78 56.872L163.772 55.64L167.996 61H166.108ZM171.654 61.096C170.95 61.096 170.278 61 169.638 60.808C169.008 60.616 168.512 60.3813 168.15 60.104L168.79 58.888C169.152 59.1333 169.6 59.3413 170.134 59.512C170.667 59.6827 171.211 59.768 171.766 59.768C172.48 59.768 172.992 59.6667 173.302 59.464C173.622 59.2613 173.782 58.9787 173.782 58.616C173.782 58.3493 173.686 58.1413 173.494 57.992C173.302 57.8427 173.046 57.7307 172.726 57.656C172.416 57.5813 172.07 57.5173 171.686 57.464C171.302 57.4 170.918 57.3253 170.534 57.24C170.15 57.144 169.798 57.016 169.478 56.856C169.158 56.6853 168.902 56.456 168.71 56.168C168.518 55.8693 168.422 55.4747 168.422 54.984C168.422 54.472 168.566 54.024 168.854 53.64C169.142 53.256 169.547 52.9627 170.07 52.76C170.603 52.5467 171.232 52.44 171.958 52.44C172.512 52.44 173.072 52.5093 173.638 52.648C174.214 52.776 174.683 52.9627 175.046 53.208L174.39 54.424C174.006 54.168 173.606 53.992 173.19 53.896C172.774 53.8 172.358 53.752 171.942 53.752C171.27 53.752 170.768 53.864 170.438 54.088C170.107 54.3013 169.942 54.5787 169.942 54.92C169.942 55.208 170.038 55.432 170.23 55.592C170.432 55.7413 170.688 55.8587 170.998 55.944C171.318 56.0293 171.67 56.104 172.054 56.168C172.438 56.2213 172.822 56.296 173.206 56.392C173.59 56.4773 173.936 56.6 174.246 56.76C174.566 56.92 174.822 57.144 175.014 57.432C175.216 57.72 175.318 58.104 175.318 58.584C175.318 59.096 175.168 59.5387 174.87 59.912C174.571 60.2853 174.15 60.5787 173.606 60.792C173.062 60.9947 172.411 61.096 171.654 61.096ZM177.237 61V52.52H178.773V61H177.237ZM178.005 50.888C177.707 50.888 177.456 50.792 177.253 50.6C177.061 50.408 176.965 50.1733 176.965 49.896C176.965 49.608 177.061 49.368 177.253 49.176C177.456 48.984 177.707 48.888 178.005 48.888C178.304 48.888 178.549 48.984 178.741 49.176C178.944 49.3573 179.045 49.5867 179.045 49.864C179.045 50.152 178.949 50.3973 178.757 50.6C178.565 50.792 178.315 50.888 178.005 50.888Z" fill="#171A23"/>
<path d="M110.68 196V184.8H115.048C116.029 184.8 116.867 184.955 117.56 185.264C118.253 185.573 118.787 186.021 119.16 186.608C119.533 187.195 119.72 187.893 119.72 188.704C119.72 189.515 119.533 190.213 119.16 190.8C118.787 191.376 118.253 191.824 117.56 192.144C116.867 192.453 116.029 192.608 115.048 192.608H111.56L112.28 191.856V196H110.68ZM112.28 192.016L111.56 191.216H115C116.024 191.216 116.797 190.997 117.32 190.56C117.853 190.123 118.12 189.504 118.12 188.704C118.12 187.904 117.853 187.285 117.32 186.848C116.797 186.411 116.024 186.192 115 186.192H111.56L112.28 185.392V192.016ZM125.591 196.096C124.685 196.096 123.885 195.909 123.191 195.536C122.509 195.163 121.975 194.651 121.591 194C121.218 193.349 121.031 192.603 121.031 191.76C121.031 190.917 121.213 190.171 121.575 189.52C121.949 188.869 122.455 188.363 123.095 188C123.746 187.627 124.477 187.44 125.287 187.44C126.109 187.44 126.834 187.621 127.463 187.984C128.093 188.347 128.583 188.859 128.935 189.52C129.298 190.171 129.479 190.933 129.479 191.808C129.479 191.872 129.474 191.947 129.463 192.032C129.463 192.117 129.458 192.197 129.447 192.272H122.231V191.168H128.647L128.023 191.552C128.034 191.008 127.922 190.523 127.687 190.096C127.453 189.669 127.127 189.339 126.711 189.104C126.306 188.859 125.831 188.736 125.287 188.736C124.754 188.736 124.279 188.859 123.863 189.104C123.447 189.339 123.122 189.675 122.887 190.112C122.653 190.539 122.535 191.029 122.535 191.584V191.84C122.535 192.405 122.663 192.912 122.919 193.36C123.186 193.797 123.554 194.139 124.023 194.384C124.493 194.629 125.031 194.752 125.639 194.752C126.141 194.752 126.594 194.667 126.999 194.496C127.415 194.325 127.778 194.069 128.087 193.728L128.935 194.72C128.551 195.168 128.071 195.509 127.495 195.744C126.93 195.979 126.295 196.096 125.591 196.096ZM134.044 196.096C133.34 196.096 132.668 196 132.028 195.808C131.399 195.616 130.903 195.381 130.54 195.104L131.18 193.888C131.543 194.133 131.991 194.341 132.524 194.512C133.058 194.683 133.602 194.768 134.156 194.768C134.871 194.768 135.383 194.667 135.692 194.464C136.012 194.261 136.172 193.979 136.172 193.616C136.172 193.349 136.076 193.141 135.884 192.992C135.692 192.843 135.436 192.731 135.116 192.656C134.807 192.581 134.46 192.517 134.076 192.464C133.692 192.4 133.308 192.325 132.924 192.24C132.54 192.144 132.188 192.016 131.868 191.856C131.548 191.685 131.292 191.456 131.1 191.168C130.908 190.869 130.812 190.475 130.812 189.984C130.812 189.472 130.956 189.024 131.244 188.64C131.532 188.256 131.938 187.963 132.46 187.76C132.994 187.547 133.623 187.44 134.348 187.44C134.903 187.44 135.463 187.509 136.028 187.648C136.604 187.776 137.074 187.963 137.436 188.208L136.78 189.424C136.396 189.168 135.996 188.992 135.58 188.896C135.164 188.8 134.748 188.752 134.332 188.752C133.66 188.752 133.159 188.864 132.828 189.088C132.498 189.301 132.332 189.579 132.332 189.92C132.332 190.208 132.428 190.432 132.62 190.592C132.823 190.741 133.079 190.859 133.388 190.944C133.708 191.029 134.06 191.104 134.444 191.168C134.828 191.221 135.212 191.296 135.596 191.392C135.98 191.477 136.327 191.6 136.636 191.76C136.956 191.92 137.212 192.144 137.404 192.432C137.607 192.72 137.708 193.104 137.708 193.584C137.708 194.096 137.559 194.539 137.26 194.912C136.962 195.285 136.54 195.579 135.996 195.792C135.452 195.995 134.802 196.096 134.044 196.096ZM144.892 196V194.208L144.812 193.872V190.816C144.812 190.165 144.62 189.664 144.236 189.312C143.863 188.949 143.297 188.768 142.54 188.768C142.039 188.768 141.548 188.853 141.068 189.024C140.588 189.184 140.183 189.403 139.852 189.68L139.212 188.528C139.649 188.176 140.172 187.909 140.78 187.728C141.399 187.536 142.044 187.44 142.716 187.44C143.879 187.44 144.775 187.723 145.404 188.288C146.033 188.853 146.348 189.717 146.348 190.88V196H144.892ZM142.108 196.096C141.479 196.096 140.924 195.989 140.444 195.776C139.975 195.563 139.612 195.269 139.356 194.896C139.1 194.512 138.972 194.08 138.972 193.6C138.972 193.141 139.079 192.725 139.292 192.352C139.516 191.979 139.873 191.68 140.364 191.456C140.865 191.232 141.537 191.12 142.38 191.12H145.068V192.224H142.444C141.676 192.224 141.159 192.352 140.892 192.608C140.625 192.864 140.492 193.173 140.492 193.536C140.492 193.952 140.657 194.288 140.988 194.544C141.319 194.789 141.777 194.912 142.364 194.912C142.94 194.912 143.441 194.784 143.868 194.528C144.305 194.272 144.62 193.899 144.812 193.408L145.116 194.464C144.913 194.965 144.556 195.365 144.044 195.664C143.532 195.952 142.887 196.096 142.108 196.096ZM153.718 187.44C154.412 187.44 155.02 187.573 155.542 187.84C156.076 188.107 156.492 188.512 156.79 189.056C157.089 189.6 157.238 190.288 157.238 191.12V196H155.702V191.296C155.702 190.475 155.5 189.856 155.094 189.44C154.7 189.024 154.14 188.816 153.414 188.816C152.87 188.816 152.396 188.923 151.99 189.136C151.585 189.349 151.27 189.664 151.046 190.08C150.833 190.496 150.726 191.013 150.726 191.632V196H149.19V187.52H150.662V189.808L150.422 189.2C150.7 188.645 151.126 188.213 151.702 187.904C152.278 187.595 152.95 187.44 153.718 187.44ZM165.345 196V194.208L165.265 193.872V190.816C165.265 190.165 165.073 189.664 164.689 189.312C164.316 188.949 163.75 188.768 162.993 188.768C162.492 188.768 162.001 188.853 161.521 189.024C161.041 189.184 160.636 189.403 160.305 189.68L159.665 188.528C160.102 188.176 160.625 187.909 161.233 187.728C161.852 187.536 162.497 187.44 163.169 187.44C164.332 187.44 165.228 187.723 165.857 188.288C166.486 188.853 166.801 189.717 166.801 190.88V196H165.345ZM162.561 196.096C161.932 196.096 161.377 195.989 160.897 195.776C160.428 195.563 160.065 195.269 159.809 194.896C159.553 194.512 159.425 194.08 159.425 193.6C159.425 193.141 159.532 192.725 159.745 192.352C159.969 191.979 160.326 191.68 160.817 191.456C161.318 191.232 161.99 191.12 162.833 191.12H165.521V192.224H162.897C162.129 192.224 161.612 192.352 161.345 192.608C161.078 192.864 160.945 193.173 160.945 193.536C160.945 193.952 161.11 194.288 161.441 194.544C161.772 194.789 162.23 194.912 162.817 194.912C163.393 194.912 163.894 194.784 164.321 194.528C164.758 194.272 165.073 193.899 165.265 193.408L165.569 194.464C165.366 194.965 165.009 195.365 164.497 195.664C163.985 195.952 163.34 196.096 162.561 196.096ZM174.172 187.44C174.865 187.44 175.473 187.573 175.996 187.84C176.529 188.107 176.945 188.512 177.244 189.056C177.542 189.6 177.692 190.288 177.692 191.12V196H176.156V191.296C176.156 190.475 175.953 189.856 175.548 189.44C175.153 189.024 174.593 188.816 173.868 188.816C173.324 188.816 172.849 188.923 172.444 189.136C172.038 189.349 171.724 189.664 171.5 190.08C171.286 190.496 171.18 191.013 171.18 191.632V196H169.644V187.52H171.116V189.808L170.876 189.2C171.153 188.645 171.58 188.213 172.156 187.904C172.732 187.595 173.404 187.44 174.172 187.44ZM187.263 196.096C186.559 196.096 185.887 196 185.247 195.808C184.618 195.616 184.122 195.381 183.759 195.104L184.399 193.888C184.762 194.133 185.21 194.341 185.743 194.512C186.276 194.683 186.82 194.768 187.375 194.768C188.09 194.768 188.602 194.667 188.911 194.464C189.231 194.261 189.391 193.979 189.391 193.616C189.391 193.349 189.295 193.141 189.103 192.992C188.911 192.843 188.655 192.731 188.335 192.656C188.026 192.581 187.679 192.517 187.295 192.464C186.911 192.4 186.527 192.325 186.143 192.24C185.759 192.144 185.407 192.016 185.087 191.856C184.767 191.685 184.511 191.456 184.319 191.168C184.127 190.869 184.031 190.475 184.031 189.984C184.031 189.472 184.175 189.024 184.463 188.64C184.751 188.256 185.156 187.963 185.679 187.76C186.212 187.547 186.842 187.44 187.567 187.44C188.122 187.44 188.682 187.509 189.247 187.648C189.823 187.776 190.292 187.963 190.655 188.208L189.999 189.424C189.615 189.168 189.215 188.992 188.799 188.896C188.383 188.8 187.967 188.752 187.551 188.752C186.879 188.752 186.378 188.864 186.047 189.088C185.716 189.301 185.551 189.579 185.551 189.92C185.551 190.208 185.647 190.432 185.839 190.592C186.042 190.741 186.298 190.859 186.607 190.944C186.927 191.029 187.279 191.104 187.663 191.168C188.047 191.221 188.431 191.296 188.815 191.392C189.199 191.477 189.546 191.6 189.855 191.76C190.175 191.92 190.431 192.144 190.623 192.432C190.826 192.72 190.927 193.104 190.927 193.584C190.927 194.096 190.778 194.539 190.479 194.912C190.18 195.285 189.759 195.579 189.215 195.792C188.671 195.995 188.02 196.096 187.263 196.096ZM196.623 196.096C195.716 196.096 194.916 195.909 194.223 195.536C193.54 195.163 193.007 194.651 192.623 194C192.249 193.349 192.063 192.603 192.063 191.76C192.063 190.917 192.244 190.171 192.607 189.52C192.98 188.869 193.487 188.363 194.127 188C194.777 187.627 195.508 187.44 196.319 187.44C197.14 187.44 197.865 187.621 198.495 187.984C199.124 188.347 199.615 188.859 199.967 189.52C200.329 190.171 200.511 190.933 200.511 191.808C200.511 191.872 200.505 191.947 200.495 192.032C200.495 192.117 200.489 192.197 200.479 192.272H193.263V191.168H199.679L199.055 191.552C199.065 191.008 198.953 190.523 198.719 190.096C198.484 189.669 198.159 189.339 197.743 189.104C197.337 188.859 196.863 188.736 196.319 188.736C195.785 188.736 195.311 188.859 194.895 189.104C194.479 189.339 194.153 189.675 193.919 190.112C193.684 190.539 193.567 191.029 193.567 191.584V191.84C193.567 192.405 193.695 192.912 193.951 193.36C194.217 193.797 194.585 194.139 195.055 194.384C195.524 194.629 196.063 194.752 196.671 194.752C197.172 194.752 197.625 194.667 198.031 194.496C198.447 194.325 198.809 194.069 199.119 193.728L199.967 194.72C199.583 195.168 199.103 195.509 198.527 195.744C197.961 195.979 197.327 196.096 196.623 196.096ZM206.148 196.096C205.326 196.096 204.59 195.915 203.94 195.552C203.3 195.189 202.793 194.683 202.42 194.032C202.046 193.381 201.86 192.624 201.86 191.76C201.86 190.896 202.046 190.144 202.42 189.504C202.793 188.853 203.3 188.347 203.94 187.984C204.59 187.621 205.326 187.44 206.148 187.44C206.862 187.44 207.508 187.6 208.084 187.92C208.66 188.24 209.118 188.72 209.46 189.36C209.812 190 209.988 190.8 209.988 191.76C209.988 192.72 209.817 193.52 209.476 194.16C209.145 194.8 208.692 195.285 208.116 195.616C207.54 195.936 206.884 196.096 206.148 196.096ZM206.276 194.752C206.809 194.752 207.289 194.629 207.716 194.384C208.153 194.139 208.494 193.792 208.74 193.344C208.996 192.885 209.124 192.357 209.124 191.76C209.124 191.152 208.996 190.629 208.74 190.192C208.494 189.744 208.153 189.397 207.716 189.152C207.289 188.907 206.809 188.784 206.276 188.784C205.732 188.784 205.246 188.907 204.82 189.152C204.393 189.397 204.052 189.744 203.796 190.192C203.54 190.629 203.412 191.152 203.412 191.76C203.412 192.357 203.54 192.885 203.796 193.344C204.052 193.792 204.393 194.139 204.82 194.384C205.246 194.629 205.732 194.752 206.276 194.752ZM209.172 196V193.712L209.267 191.744L209.108 189.776V184.128H210.644V196H209.172ZM218.814 196V194.208L218.734 193.872V190.816C218.734 190.165 218.542 189.664 218.158 189.312C217.784 188.949 217.219 188.768 216.462 188.768C215.96 188.768 215.47 188.853 214.99 189.024C214.51 189.184 214.104 189.403 213.774 189.68L213.134 188.528C213.571 188.176 214.094 187.909 214.702 187.728C215.32 187.536 215.966 187.44 216.638 187.44C217.8 187.44 218.696 187.723 219.326 188.288C219.955 188.853 220.27 189.717 220.27 190.88V196H218.814ZM216.03 196.096C215.4 196.096 214.846 195.989 214.366 195.776C213.896 195.563 213.534 195.269 213.278 194.896C213.022 194.512 212.894 194.08 212.894 193.6C212.894 193.141 213 192.725 213.214 192.352C213.438 191.979 213.795 191.68 214.286 191.456C214.787 191.232 215.459 191.12 216.302 191.12H218.99V192.224H216.366C215.598 192.224 215.08 192.352 214.814 192.608C214.547 192.864 214.414 193.173 214.414 193.536C214.414 193.952 214.579 194.288 214.91 194.544C215.24 194.789 215.699 194.912 216.286 194.912C216.862 194.912 217.363 194.784 217.79 194.528C218.227 194.272 218.542 193.899 218.734 193.408L219.038 194.464C218.835 194.965 218.478 195.365 217.966 195.664C217.454 195.952 216.808 196.096 216.03 196.096ZM227.64 187.44C228.334 187.44 228.942 187.573 229.464 187.84C229.998 188.107 230.414 188.512 230.712 189.056C231.011 189.6 231.16 190.288 231.16 191.12V196H229.624V191.296C229.624 190.475 229.422 189.856 229.016 189.44C228.622 189.024 228.062 188.816 227.336 188.816C226.792 188.816 226.318 188.923 225.912 189.136C225.507 189.349 225.192 189.664 224.968 190.08C224.755 190.496 224.648 191.013 224.648 191.632V196H223.112V187.52H224.584V189.808L224.344 189.2C224.622 188.645 225.048 188.213 225.624 187.904C226.2 187.595 226.872 187.44 227.64 187.44ZM237.715 199.2C236.936 199.2 236.179 199.088 235.443 198.864C234.718 198.651 234.126 198.341 233.667 197.936L234.403 196.752C234.798 197.093 235.283 197.36 235.859 197.552C236.435 197.755 237.038 197.856 237.667 197.856C238.67 197.856 239.406 197.621 239.875 197.152C240.344 196.683 240.579 195.968 240.579 195.008V193.216L240.739 191.536L240.659 189.84V187.52H242.115V194.848C242.115 196.341 241.742 197.44 240.995 198.144C240.248 198.848 239.155 199.2 237.715 199.2ZM237.523 195.648C236.702 195.648 235.966 195.477 235.315 195.136C234.675 194.784 234.163 194.299 233.779 193.68C233.406 193.061 233.219 192.347 233.219 191.536C233.219 190.715 233.406 190 233.779 189.392C234.163 188.773 234.675 188.293 235.315 187.952C235.966 187.611 236.702 187.44 237.523 187.44C238.248 187.44 238.91 187.589 239.507 187.888C240.104 188.176 240.579 188.624 240.931 189.232C241.294 189.84 241.475 190.608 241.475 191.536C241.475 192.453 241.294 193.216 240.931 193.824C240.579 194.432 240.104 194.891 239.507 195.2C238.91 195.499 238.248 195.648 237.523 195.648ZM237.699 194.304C238.264 194.304 238.766 194.187 239.203 193.952C239.64 193.717 239.982 193.392 240.227 192.976C240.483 192.56 240.611 192.08 240.611 191.536C240.611 190.992 240.483 190.512 240.227 190.096C239.982 189.68 239.64 189.36 239.203 189.136C238.766 188.901 238.264 188.784 237.699 188.784C237.134 188.784 236.627 188.901 236.179 189.136C235.742 189.36 235.395 189.68 235.139 190.096C234.894 190.512 234.771 190.992 234.771 191.536C234.771 192.08 234.894 192.56 235.139 192.976C235.395 193.392 235.742 193.717 236.179 193.952C236.627 194.187 237.134 194.304 237.699 194.304ZM113.96 216.096C113.139 216.096 112.403 215.915 111.752 215.552C111.112 215.189 110.605 214.683 110.232 214.032C109.859 213.381 109.672 212.624 109.672 211.76C109.672 210.896 109.859 210.144 110.232 209.504C110.605 208.853 111.112 208.347 111.752 207.984C112.403 207.621 113.139 207.44 113.96 207.44C114.675 207.44 115.32 207.6 115.896 207.92C116.472 208.24 116.931 208.72 117.272 209.36C117.624 210 117.8 210.8 117.8 211.76C117.8 212.72 117.629 213.52 117.288 214.16C116.957 214.8 116.504 215.285 115.928 215.616C115.352 215.936 114.696 216.096 113.96 216.096ZM114.088 214.752C114.621 214.752 115.101 214.629 115.528 214.384C115.965 214.139 116.307 213.792 116.552 213.344C116.808 212.885 116.936 212.357 116.936 211.76C116.936 211.152 116.808 210.629 116.552 210.192C116.307 209.744 115.965 209.397 115.528 209.152C115.101 208.907 114.621 208.784 114.088 208.784C113.544 208.784 113.059 208.907 112.632 209.152C112.205 209.397 111.864 209.744 111.608 210.192C111.352 210.629 111.224 211.152 111.224 211.76C111.224 212.357 111.352 212.885 111.608 213.344C111.864 213.792 112.205 214.139 112.632 214.384C113.059 214.629 113.544 214.752 114.088 214.752ZM116.984 216V213.712L117.08 211.744L116.92 209.776V204.128H118.456V216H116.984ZM121.362 216V207.52H122.898V216H121.362ZM122.13 205.888C121.832 205.888 121.581 205.792 121.378 205.6C121.186 205.408 121.09 205.173 121.09 204.896C121.09 204.608 121.186 204.368 121.378 204.176C121.581 203.984 121.832 203.888 122.13 203.888C122.429 203.888 122.674 203.984 122.866 204.176C123.069 204.357 123.17 204.587 123.17 204.864C123.17 205.152 123.074 205.397 122.882 205.6C122.69 205.792 122.44 205.888 122.13 205.888ZM127.079 213.952L127.111 211.984L131.991 207.52H133.847L130.103 211.2L129.271 211.904L127.079 213.952ZM125.831 216V204.128H127.367V216H125.831ZM132.311 216L128.983 211.872L129.975 210.64L134.199 216H132.311ZM135.69 216V207.52H137.226V216H135.69ZM136.458 205.888C136.16 205.888 135.909 205.792 135.706 205.6C135.514 205.408 135.418 205.173 135.418 204.896C135.418 204.608 135.514 204.368 135.706 204.176C135.909 203.984 136.16 203.888 136.458 203.888C136.757 203.888 137.002 203.984 137.194 204.176C137.397 204.357 137.498 204.587 137.498 204.864C137.498 205.152 137.402 205.397 137.21 205.6C137.018 205.792 136.768 205.888 136.458 205.888ZM140.159 216V207.52H141.631V209.824L141.487 209.248C141.722 208.661 142.116 208.213 142.671 207.904C143.226 207.595 143.908 207.44 144.719 207.44V208.928C144.655 208.917 144.591 208.912 144.527 208.912C144.474 208.912 144.42 208.912 144.367 208.912C143.546 208.912 142.895 209.157 142.415 209.648C141.935 210.139 141.695 210.848 141.695 211.776V216H140.159ZM146.612 216V207.52H148.148V216H146.612ZM147.38 205.888C147.082 205.888 146.831 205.792 146.628 205.6C146.436 205.408 146.34 205.173 146.34 204.896C146.34 204.608 146.436 204.368 146.628 204.176C146.831 203.984 147.082 203.888 147.38 203.888C147.679 203.888 147.924 203.984 148.116 204.176C148.319 204.357 148.42 204.587 148.42 204.864C148.42 205.152 148.324 205.397 148.132 205.6C147.94 205.792 147.69 205.888 147.38 205.888ZM161.689 207.44C162.372 207.44 162.974 207.573 163.497 207.84C164.02 208.107 164.425 208.512 164.713 209.056C165.012 209.6 165.161 210.288 165.161 211.12V216H163.625V211.296C163.625 210.475 163.433 209.856 163.049 209.44C162.665 209.024 162.126 208.816 161.433 208.816C160.921 208.816 160.473 208.923 160.089 209.136C159.705 209.349 159.406 209.664 159.193 210.08C158.99 210.496 158.889 211.013 158.889 211.632V216H157.353V211.296C157.353 210.475 157.161 209.856 156.777 209.44C156.404 209.024 155.865 208.816 155.161 208.816C154.66 208.816 154.217 208.923 153.833 209.136C153.449 209.349 153.15 209.664 152.937 210.08C152.724 210.496 152.617 211.013 152.617 211.632V216H151.081V207.52H152.553V209.776L152.313 209.2C152.58 208.645 152.99 208.213 153.545 207.904C154.1 207.595 154.745 207.44 155.481 207.44C156.292 207.44 156.99 207.643 157.577 208.048C158.164 208.443 158.548 209.045 158.729 209.856L158.105 209.6C158.361 208.949 158.809 208.427 159.449 208.032C160.089 207.637 160.836 207.44 161.689 207.44ZM173.532 213.952L173.564 211.984L178.444 207.52H180.3L176.556 211.2L175.724 211.904L173.532 213.952ZM172.284 216V204.128H173.82V216H172.284ZM178.764 216L175.436 211.872L176.428 210.64L180.652 216H178.764ZM185.576 216.096C184.669 216.096 183.869 215.909 183.176 215.536C182.493 215.163 181.96 214.651 181.576 214C181.202 213.349 181.016 212.603 181.016 211.76C181.016 210.917 181.197 210.171 181.56 209.52C181.933 208.869 182.44 208.363 183.08 208C183.73 207.627 184.461 207.44 185.272 207.44C186.093 207.44 186.818 207.621 187.448 207.984C188.077 208.347 188.568 208.859 188.92 209.52C189.282 210.171 189.464 210.933 189.464 211.808C189.464 211.872 189.458 211.947 189.448 212.032C189.448 212.117 189.442 212.197 189.432 212.272H182.216V211.168H188.632L188.008 211.552C188.018 211.008 187.906 210.523 187.672 210.096C187.437 209.669 187.112 209.339 186.696 209.104C186.29 208.859 185.816 208.736 185.272 208.736C184.738 208.736 184.264 208.859 183.848 209.104C183.432 209.339 183.106 209.675 182.872 210.112C182.637 210.539 182.52 211.029 182.52 211.584V211.84C182.52 212.405 182.648 212.912 182.904 213.36C183.17 213.797 183.538 214.139 184.008 214.384C184.477 214.629 185.016 214.752 185.624 214.752C186.125 214.752 186.578 214.667 186.984 214.496C187.4 214.325 187.762 214.069 188.072 213.728L188.92 214.72C188.536 215.168 188.056 215.509 187.48 215.744C186.914 215.979 186.28 216.096 185.576 216.096ZM198.806 216.096C197.952 216.096 197.291 215.867 196.822 215.408C196.352 214.949 196.118 214.293 196.118 213.44V205.664H197.654V213.376C197.654 213.835 197.766 214.187 197.99 214.432C198.224 214.677 198.555 214.8 198.982 214.8C199.462 214.8 199.862 214.667 200.182 214.4L200.662 215.504C200.427 215.707 200.144 215.856 199.814 215.952C199.494 216.048 199.158 216.096 198.806 216.096ZM194.678 208.784V207.52H200.086V208.784H194.678ZM206.087 216.096C205.361 216.096 204.721 215.963 204.167 215.696C203.623 215.429 203.196 215.024 202.887 214.48C202.588 213.925 202.439 213.232 202.439 212.4V207.52H203.975V212.224C203.975 213.056 204.172 213.68 204.567 214.096C204.972 214.512 205.537 214.72 206.263 214.72C206.796 214.72 207.26 214.613 207.655 214.4C208.049 214.176 208.353 213.856 208.567 213.44C208.78 213.013 208.887 212.501 208.887 211.904V207.52H210.423V216H208.967V213.712L209.207 214.32C208.929 214.885 208.513 215.323 207.959 215.632C207.404 215.941 206.78 216.096 206.087 216.096ZM212.259 219.2C211.907 219.2 211.571 219.157 211.251 219.072C210.92 218.987 210.643 218.859 210.419 218.688L210.915 217.504C211.235 217.771 211.651 217.904 212.163 217.904C212.568 217.904 212.877 217.776 213.091 217.52C213.315 217.275 213.427 216.907 213.427 216.416V207.52H214.963V216.384C214.963 217.248 214.728 217.931 214.259 218.432C213.8 218.944 213.133 219.2 212.259 219.2ZM214.195 205.888C213.896 205.888 213.645 205.792 213.443 205.6C213.251 205.408 213.155 205.173 213.155 204.896C213.155 204.608 213.251 204.368 213.443 204.176C213.645 203.984 213.896 203.888 214.195 203.888C214.493 203.888 214.739 203.984 214.931 204.176C215.133 204.357 215.235 204.587 215.235 204.864C215.235 205.152 215.139 205.397 214.947 205.6C214.755 205.792 214.504 205.888 214.195 205.888ZM221.462 216.096C220.736 216.096 220.096 215.963 219.542 215.696C218.998 215.429 218.571 215.024 218.262 214.48C217.963 213.925 217.814 213.232 217.814 212.4V207.52H219.35V212.224C219.35 213.056 219.547 213.68 219.942 214.096C220.347 214.512 220.912 214.72 221.638 214.72C222.171 214.72 222.635 214.613 223.03 214.4C223.424 214.176 223.728 213.856 223.942 213.44C224.155 213.013 224.262 212.501 224.262 211.904V207.52H225.798V216H224.342V213.712L224.582 214.32C224.304 214.885 223.888 215.323 223.334 215.632C222.779 215.941 222.155 216.096 221.462 216.096ZM233.986 216V214.208L233.906 213.872V210.816C233.906 210.165 233.714 209.664 233.33 209.312C232.956 208.949 232.391 208.768 231.634 208.768C231.132 208.768 230.642 208.853 230.162 209.024C229.682 209.184 229.276 209.403 228.946 209.68L228.306 208.528C228.743 208.176 229.266 207.909 229.874 207.728C230.492 207.536 231.138 207.44 231.81 207.44C232.972 207.44 233.868 207.723 234.498 208.288C235.127 208.853 235.442 209.717 235.442 210.88V216H233.986ZM231.202 216.096C230.572 216.096 230.018 215.989 229.538 215.776C229.068 215.563 228.706 215.269 228.45 214.896C228.194 214.512 228.066 214.08 228.066 213.6C228.066 213.141 228.172 212.725 228.386 212.352C228.61 211.979 228.967 211.68 229.458 211.456C229.959 211.232 230.631 211.12 231.474 211.12H234.162V212.224H231.538C230.77 212.224 230.252 212.352 229.986 212.608C229.719 212.864 229.586 213.173 229.586 213.536C229.586 213.952 229.751 214.288 230.082 214.544C230.412 214.789 230.871 214.912 231.458 214.912C232.034 214.912 232.535 214.784 232.962 214.528C233.399 214.272 233.714 213.899 233.906 213.408L234.21 214.464C234.007 214.965 233.65 215.365 233.138 215.664C232.626 215.952 231.98 216.096 231.202 216.096ZM242.812 207.44C243.505 207.44 244.113 207.573 244.636 207.84C245.169 208.107 245.585 208.512 245.884 209.056C246.183 209.6 246.332 210.288 246.332 211.12V216H244.796V211.296C244.796 210.475 244.593 209.856 244.188 209.44C243.793 209.024 243.233 208.816 242.508 208.816C241.964 208.816 241.489 208.923 241.084 209.136C240.679 209.349 240.364 209.664 240.14 210.08C239.927 210.496 239.82 211.013 239.82 211.632V216H238.284V207.52H239.756V209.808L239.516 209.2C239.793 208.645 240.22 208.213 240.796 207.904C241.372 207.595 242.044 207.44 242.812 207.44Z" fill="#171A23"/>
<path d="M110.328 176V164.8H115.416C116.632 164.8 117.704 165.035 118.632 165.504C119.56 165.963 120.285 166.608 120.808 167.44C121.331 168.272 121.592 169.259 121.592 170.4C121.592 171.531 121.331 172.517 120.808 173.36C120.285 174.192 119.56 174.843 118.632 175.312C117.704 175.771 116.632 176 115.416 176H110.328ZM112.92 173.872H115.288C116.035 173.872 116.68 173.733 117.224 173.456C117.779 173.168 118.205 172.763 118.504 172.24C118.813 171.717 118.968 171.104 118.968 170.4C118.968 169.685 118.813 169.072 118.504 168.56C118.205 168.037 117.779 167.637 117.224 167.36C116.68 167.072 116.035 166.928 115.288 166.928H112.92V173.872ZM123.371 176V167.392H125.867V176H123.371ZM124.619 166.192C124.16 166.192 123.787 166.059 123.499 165.792C123.211 165.525 123.067 165.195 123.067 164.8C123.067 164.405 123.211 164.075 123.499 163.808C123.787 163.541 124.16 163.408 124.619 163.408C125.077 163.408 125.451 163.536 125.739 163.792C126.027 164.037 126.171 164.357 126.171 164.752C126.171 165.168 126.027 165.515 125.739 165.792C125.461 166.059 125.088 166.192 124.619 166.192ZM130.247 174.24L130.311 171.2L134.327 167.392H137.303L133.447 171.312L132.151 172.368L130.247 174.24ZM128.183 176V164.128H130.679V176H128.183ZM134.599 176L131.687 172.384L133.255 170.448L137.623 176H134.599ZM138.746 176V167.392H141.242V176H138.746ZM139.994 166.192C139.535 166.192 139.162 166.059 138.874 165.792C138.586 165.525 138.442 165.195 138.442 164.8C138.442 164.405 138.586 164.075 138.874 163.808C139.162 163.541 139.535 163.408 139.994 163.408C140.452 163.408 140.826 163.536 141.114 163.792C141.402 164.037 141.546 164.357 141.546 164.752C141.546 165.168 141.402 165.515 141.114 165.792C140.836 166.059 140.463 166.192 139.994 166.192ZM143.558 176V167.392H145.942V169.824L145.606 169.12C145.862 168.512 146.273 168.053 146.838 167.744C147.404 167.424 148.092 167.264 148.902 167.264V169.568C148.796 169.557 148.7 169.552 148.614 169.552C148.529 169.541 148.438 169.536 148.342 169.536C147.66 169.536 147.105 169.733 146.678 170.128C146.262 170.512 146.054 171.115 146.054 171.936V176H143.558ZM150.402 176V167.392H152.898V176H150.402ZM151.65 166.192C151.191 166.192 150.818 166.059 150.53 165.792C150.242 165.525 150.098 165.195 150.098 164.8C150.098 164.405 150.242 164.075 150.53 163.808C150.818 163.541 151.191 163.408 151.65 163.408C152.109 163.408 152.482 163.536 152.77 163.792C153.058 164.037 153.202 164.357 153.202 164.752C153.202 165.168 153.058 165.515 152.77 165.792C152.493 166.059 152.119 166.192 151.65 166.192ZM166.239 167.264C166.921 167.264 167.524 167.403 168.047 167.68C168.58 167.947 168.996 168.363 169.295 168.928C169.604 169.483 169.759 170.197 169.759 171.072V176H167.263V171.456C167.263 170.763 167.119 170.251 166.831 169.92C166.543 169.589 166.137 169.424 165.615 169.424C165.252 169.424 164.927 169.509 164.639 169.68C164.351 169.84 164.127 170.085 163.967 170.416C163.807 170.747 163.727 171.168 163.727 171.68V176H161.231V171.456C161.231 170.763 161.087 170.251 160.799 169.92C160.521 169.589 160.121 169.424 159.599 169.424C159.236 169.424 158.911 169.509 158.623 169.68C158.335 169.84 158.111 170.085 157.951 170.416C157.791 170.747 157.711 171.168 157.711 171.68V176H155.215V167.392H157.599V169.744L157.151 169.056C157.449 168.469 157.871 168.027 158.415 167.728C158.969 167.419 159.599 167.264 160.303 167.264C161.092 167.264 161.78 167.467 162.367 167.872C162.964 168.267 163.359 168.875 163.551 169.696L162.671 169.456C162.959 168.784 163.417 168.251 164.047 167.856C164.687 167.461 165.417 167.264 166.239 167.264Z" fill="#171A23"/>
<circle cx="40.5" cy="194.5" r="40.5" fill="#2CBF29"/>
<path d="M45.6883 181.376L52.3263 189.843H38.7218V181.376H45.6883ZM33.1901 179.965V189.843H19.3608C17.8309 189.843 16.595 191.104 16.595 192.665V198.31C15.0651 198.31 13.8291 199.571 13.8291 201.132C13.8291 202.693 15.0651 203.955 16.595 203.955H19.4559C19.3954 204.413 19.3608 204.89 19.3608 205.366C19.3608 210.825 23.6911 215.244 29.0413 215.244C34.3915 215.244 38.7218 210.825 38.7218 205.366C38.7218 204.89 38.6872 204.413 38.6267 203.955H44.3572C44.2967 204.413 44.2621 204.89 44.2621 205.366C44.2621 210.825 48.5924 215.244 53.9426 215.244C59.2928 215.244 63.6231 210.825 63.6231 205.366C63.6231 204.89 63.5885 204.413 63.528 203.955H66.3803C67.9101 203.955 69.1461 202.693 69.1461 201.132C69.1461 199.571 67.9101 198.31 66.3803 198.31V192.665C66.3803 191.104 65.1443 189.843 63.6144 189.843H59.4138L50.0099 177.848C48.9641 176.508 47.3737 175.732 45.6883 175.732H37.3388C35.0484 175.732 33.1901 177.628 33.1901 179.965ZM24.8925 205.366C24.8925 203.029 26.7508 201.132 29.0413 201.132C31.3318 201.132 33.1901 203.029 33.1901 205.366C33.1901 207.703 31.3318 209.599 29.0413 209.599C26.7508 209.599 24.8925 207.703 24.8925 205.366ZM49.7852 205.366C49.7852 203.029 51.6435 201.132 53.9339 201.132C56.2244 201.132 58.0827 203.029 58.0827 205.366C58.0827 207.703 56.2244 209.599 53.9339 209.599C51.6435 209.599 49.7852 207.703 49.7852 205.366Z" fill="white"/>
<path d="M41 164L41 81" stroke="#2CBF29" stroke-width="8" stroke-dasharray="6 6"/>
<path d="M110.336 21V9.8H115.424C116.64 9.8 117.712 10.0347 118.64 10.504C119.568 10.9627 120.293 11.608 120.816 12.44C121.338 13.272 121.6 14.2587 121.6 15.4C121.6 16.5307 121.338 17.5173 120.816 18.36C120.293 19.192 119.568 19.8427 118.64 20.312C117.712 20.7707 116.64 21 115.424 21H110.336ZM112.928 18.872H115.296C116.042 18.872 116.688 18.7333 117.232 18.456C117.786 18.168 118.213 17.7627 118.512 17.24C118.821 16.7173 118.976 16.104 118.976 15.4C118.976 14.6853 118.821 14.072 118.512 13.56C118.213 13.0373 117.786 12.6373 117.232 12.36C116.688 12.072 116.042 11.928 115.296 11.928H112.928V18.872ZM123.379 21V12.392H125.875V21H123.379ZM124.627 11.192C124.168 11.192 123.795 11.0587 123.507 10.792C123.219 10.5253 123.075 10.1947 123.075 9.8C123.075 9.40533 123.219 9.07467 123.507 8.808C123.795 8.54133 124.168 8.408 124.627 8.408C125.085 8.408 125.459 8.536 125.747 8.792C126.035 9.03733 126.179 9.35733 126.179 9.752C126.179 10.168 126.035 10.5147 125.747 10.792C125.469 11.0587 125.096 11.192 124.627 11.192ZM133.279 21.128C132.554 21.128 131.919 20.968 131.375 20.648C130.831 20.328 130.404 19.8427 130.095 19.192C129.796 18.5307 129.647 17.6987 129.647 16.696C129.647 15.6827 129.791 14.8507 130.079 14.2C130.367 13.5493 130.783 13.064 131.327 12.744C131.871 12.424 132.522 12.264 133.279 12.264C134.09 12.264 134.815 12.4507 135.455 12.824C136.106 13.1867 136.618 13.6987 136.991 14.36C137.375 15.0213 137.567 15.8 137.567 16.696C137.567 17.6027 137.375 18.3867 136.991 19.048C136.618 19.7093 136.106 20.2213 135.455 20.584C134.815 20.9467 134.09 21.128 133.279 21.128ZM128.191 24.104V12.392H130.575V14.152L130.527 16.712L130.687 19.256V24.104H128.191ZM132.847 19.08C133.263 19.08 133.631 18.984 133.951 18.792C134.282 18.6 134.543 18.328 134.735 17.976C134.938 17.6133 135.039 17.1867 135.039 16.696C135.039 16.1947 134.938 15.768 134.735 15.416C134.543 15.064 134.282 14.792 133.951 14.6C133.631 14.408 133.263 14.312 132.847 14.312C132.431 14.312 132.058 14.408 131.727 14.6C131.396 14.792 131.135 15.064 130.943 15.416C130.751 15.768 130.655 16.1947 130.655 16.696C130.655 17.1867 130.751 17.6133 130.943 17.976C131.135 18.328 131.396 18.6 131.727 18.792C132.058 18.984 132.431 19.08 132.847 19.08ZM139.238 21V12.392H141.622V14.824L141.286 14.12C141.542 13.512 141.953 13.0533 142.518 12.744C143.083 12.424 143.771 12.264 144.582 12.264V14.568C144.475 14.5573 144.379 14.552 144.294 14.552C144.209 14.5413 144.118 14.536 144.022 14.536C143.339 14.536 142.785 14.7333 142.358 15.128C141.942 15.512 141.734 16.1147 141.734 16.936V21H139.238ZM150.1 21.128C149.182 21.128 148.366 20.936 147.652 20.552C146.948 20.168 146.388 19.6453 145.972 18.984C145.566 18.312 145.364 17.5493 145.364 16.696C145.364 15.832 145.566 15.0693 145.972 14.408C146.388 13.736 146.948 13.2133 147.652 12.84C148.366 12.456 149.182 12.264 150.1 12.264C151.006 12.264 151.817 12.456 152.532 12.84C153.246 13.2133 153.806 13.7307 154.212 14.392C154.617 15.0533 154.82 15.8213 154.82 16.696C154.82 17.5493 154.617 18.312 154.212 18.984C153.806 19.6453 153.246 20.168 152.532 20.552C151.817 20.936 151.006 21.128 150.1 21.128ZM150.1 19.08C150.516 19.08 150.889 18.984 151.22 18.792C151.55 18.6 151.812 18.328 152.004 17.976C152.196 17.6133 152.292 17.1867 152.292 16.696C152.292 16.1947 152.196 15.768 152.004 15.416C151.812 15.064 151.55 14.792 151.22 14.6C150.889 14.408 150.516 14.312 150.1 14.312C149.684 14.312 149.31 14.408 148.98 14.6C148.649 14.792 148.382 15.064 148.18 15.416C147.988 15.768 147.892 16.1947 147.892 16.696C147.892 17.1867 147.988 17.6133 148.18 17.976C148.382 18.328 148.649 18.6 148.98 18.792C149.31 18.984 149.684 19.08 150.1 19.08ZM160.184 21.128C159.373 21.128 158.643 20.9467 157.992 20.584C157.341 20.2107 156.824 19.6933 156.44 19.032C156.067 18.3707 155.88 17.592 155.88 16.696C155.88 15.7893 156.067 15.0053 156.44 14.344C156.824 13.6827 157.341 13.1707 157.992 12.808C158.643 12.4453 159.373 12.264 160.184 12.264C160.909 12.264 161.544 12.424 162.088 12.744C162.632 13.064 163.053 13.5493 163.352 14.2C163.651 14.8507 163.8 15.6827 163.8 16.696C163.8 17.6987 163.656 18.5307 163.368 19.192C163.08 19.8427 162.664 20.328 162.12 20.648C161.587 20.968 160.941 21.128 160.184 21.128ZM160.616 19.08C161.021 19.08 161.389 18.984 161.72 18.792C162.051 18.6 162.312 18.328 162.504 17.976C162.707 17.6133 162.808 17.1867 162.808 16.696C162.808 16.1947 162.707 15.768 162.504 15.416C162.312 15.064 162.051 14.792 161.72 14.6C161.389 14.408 161.021 14.312 160.616 14.312C160.2 14.312 159.827 14.408 159.496 14.6C159.165 14.792 158.899 15.064 158.696 15.416C158.504 15.768 158.408 16.1947 158.408 16.696C158.408 17.1867 158.504 17.6133 158.696 17.976C158.899 18.328 159.165 18.6 159.496 18.792C159.827 18.984 160.2 19.08 160.616 19.08ZM162.872 21V19.24L162.92 16.68L162.76 14.136V9.128H165.256V21H162.872ZM171.198 21.128C170.483 21.128 169.843 20.9893 169.278 20.712C168.723 20.4347 168.291 20.0133 167.982 19.448C167.673 18.872 167.518 18.1413 167.518 17.256V12.392H170.014V16.888C170.014 17.6027 170.163 18.1307 170.462 18.472C170.771 18.8027 171.203 18.968 171.758 18.968C172.142 18.968 172.483 18.888 172.782 18.728C173.081 18.5573 173.315 18.3013 173.486 17.96C173.657 17.608 173.742 17.1707 173.742 16.648V12.392H176.238V21H173.87V18.632L174.302 19.32C174.014 19.9173 173.587 20.3707 173.022 20.68C172.467 20.9787 171.859 21.128 171.198 21.128ZM180.614 19.24L180.678 16.2L184.694 12.392H187.67L183.814 16.312L182.518 17.368L180.614 19.24ZM178.55 21V9.128H181.046V21H178.55ZM184.966 21L182.054 17.384L183.622 15.448L187.99 21H184.966ZM191.728 21.128C190.992 21.128 190.282 21.0427 189.6 20.872C188.928 20.6907 188.394 20.4667 188 20.2L188.832 18.408C189.226 18.6533 189.69 18.856 190.224 19.016C190.768 19.1653 191.301 19.24 191.824 19.24C192.4 19.24 192.805 19.1707 193.04 19.032C193.285 18.8933 193.408 18.7013 193.408 18.456C193.408 18.2533 193.312 18.104 193.12 18.008C192.938 17.9013 192.693 17.8213 192.384 17.768C192.074 17.7147 191.733 17.6613 191.36 17.608C190.997 17.5547 190.629 17.4853 190.256 17.4C189.882 17.304 189.541 17.1653 189.232 16.984C188.922 16.8027 188.672 16.5573 188.48 16.248C188.298 15.9387 188.208 15.5387 188.208 15.048C188.208 14.504 188.362 14.024 188.672 13.608C188.992 13.192 189.45 12.8667 190.048 12.632C190.645 12.3867 191.36 12.264 192.192 12.264C192.778 12.264 193.376 12.328 193.984 12.456C194.592 12.584 195.098 12.7707 195.504 13.016L194.672 14.792C194.256 14.5467 193.834 14.3813 193.408 14.296C192.992 14.2 192.586 14.152 192.192 14.152C191.637 14.152 191.232 14.2267 190.976 14.376C190.72 14.5253 190.592 14.7173 190.592 14.952C190.592 15.1653 190.682 15.3253 190.864 15.432C191.056 15.5387 191.306 15.624 191.616 15.688C191.925 15.752 192.261 15.8107 192.624 15.864C192.997 15.9067 193.37 15.976 193.744 16.072C194.117 16.168 194.453 16.3067 194.752 16.488C195.061 16.6587 195.312 16.8987 195.504 17.208C195.696 17.5067 195.792 17.9013 195.792 18.392C195.792 18.9253 195.632 19.4 195.312 19.816C194.992 20.2213 194.528 20.5413 193.92 20.776C193.322 21.0107 192.592 21.128 191.728 21.128ZM197.332 21V12.392H199.828V21H197.332ZM198.58 11.192C198.121 11.192 197.748 11.0587 197.46 10.792C197.172 10.5253 197.028 10.1947 197.028 9.8C197.028 9.40533 197.172 9.07467 197.46 8.808C197.748 8.54133 198.121 8.408 198.58 8.408C199.038 8.408 199.412 8.536 199.7 8.792C199.988 9.03733 200.132 9.35733 200.132 9.752C200.132 10.168 199.988 10.5147 199.7 10.792C199.422 11.0587 199.049 11.192 198.58 11.192Z" fill="#171A23"/>
</svg>
