<svg width="296" height="81" viewBox="0 0 296 81" fill="none" xmlns="http://www.w3.org/2000/svg">
<circle cx="40.5" cy="40.5" r="40.5" fill="#2CBF29"/>
<path d="M25.155 24.0685C25.2137 23.1898 25.6042 22.3661 26.2475 21.7645C26.8908 21.1629 27.7387 20.8284 28.6194 20.8286H31.2323C32.113 20.8284 32.9609 21.1629 33.6042 21.7645C34.2475 22.3661 34.638 23.1898 34.6968 24.0685L36.7009 54.1542C36.7326 54.6284 36.6666 55.1041 36.507 55.5517C36.3473 55.9993 36.0975 56.4094 35.7729 56.7565C35.4483 57.1037 35.0559 57.3805 34.62 57.5698C34.1841 57.7591 33.714 57.8569 33.2388 57.8571H26.613C26.1377 57.8569 25.6676 57.7591 25.2317 57.5698C24.7958 57.3805 24.4034 57.1037 24.0788 56.7565C23.7542 56.4094 23.5044 55.9993 23.3448 55.5517C23.1851 55.1041 23.1191 54.6284 23.1508 54.1542L25.155 24.0685V24.0685ZM37.8673 57.8571C38.6681 56.7925 39.1078 55.4433 39.0106 54.0015L37.8048 35.9038L46.5089 28.0676C46.6751 27.9176 46.8814 27.819 47.1026 27.7838C47.3238 27.7487 47.5504 27.7785 47.755 27.8697C47.9596 27.9608 48.1334 28.1094 48.2552 28.2973C48.377 28.4853 48.4417 28.7046 48.4413 28.9285V36.7439L58.0803 28.0676C58.2466 27.9176 58.4528 27.819 58.674 27.7838C58.8952 27.7487 59.1219 27.7785 59.3265 27.8697C59.5311 27.9608 59.7048 28.1094 59.8266 28.2973C59.9484 28.4853 60.0131 28.7046 60.0127 28.9285V54.3857C60.0127 55.3063 59.647 56.1893 58.9959 56.8403C58.3449 57.4914 57.462 57.8571 56.5413 57.8571H37.865H37.8673ZM55.3841 55.5428V45.8228C55.3841 45.3318 55.1891 44.8609 54.8419 44.5137C54.4947 44.1665 54.0237 43.9714 53.5327 43.9714H45.6641C45.1731 43.9714 44.7022 44.1665 44.355 44.5137C44.0078 44.8609 43.8127 45.3318 43.8127 45.8228V55.5428H55.3841V55.5428Z" fill="white"/>
<path d="M109.336 27V15.8H114.424C115.64 15.8 116.712 16.0347 117.64 16.504C118.568 16.9627 119.293 17.608 119.816 18.44C120.338 19.272 120.6 20.2587 120.6 21.4C120.6 22.5307 120.338 23.5173 119.816 24.36C119.293 25.192 118.568 25.8427 117.64 26.312C116.712 26.7707 115.64 27 114.424 27H109.336ZM111.928 24.872H114.296C115.042 24.872 115.688 24.7333 116.232 24.456C116.786 24.168 117.213 23.7627 117.512 23.24C117.821 22.7173 117.976 22.104 117.976 21.4C117.976 20.6853 117.821 20.072 117.512 19.56C117.213 19.0373 116.786 18.6373 116.232 18.36C115.688 18.072 115.042 17.928 114.296 17.928H111.928V24.872ZM122.379 27V18.392H124.875V27H122.379ZM123.627 17.192C123.168 17.192 122.795 17.0587 122.507 16.792C122.219 16.5253 122.075 16.1947 122.075 15.8C122.075 15.4053 122.219 15.0747 122.507 14.808C122.795 14.5413 123.168 14.408 123.627 14.408C124.085 14.408 124.459 14.536 124.747 14.792C125.035 15.0373 125.179 15.3573 125.179 15.752C125.179 16.168 125.035 16.5147 124.747 16.792C124.469 17.0587 124.096 17.192 123.627 17.192ZM132.279 27.128C131.554 27.128 130.919 26.968 130.375 26.648C129.831 26.328 129.404 25.8427 129.095 25.192C128.796 24.5307 128.647 23.6987 128.647 22.696C128.647 21.6827 128.791 20.8507 129.079 20.2C129.367 19.5493 129.783 19.064 130.327 18.744C130.871 18.424 131.522 18.264 132.279 18.264C133.09 18.264 133.815 18.4507 134.455 18.824C135.106 19.1867 135.618 19.6987 135.991 20.36C136.375 21.0213 136.567 21.8 136.567 22.696C136.567 23.6027 136.375 24.3867 135.991 25.048C135.618 25.7093 135.106 26.2213 134.455 26.584C133.815 26.9467 133.09 27.128 132.279 27.128ZM127.191 30.104V18.392H129.575V20.152L129.527 22.712L129.687 25.256V30.104H127.191ZM131.847 25.08C132.263 25.08 132.631 24.984 132.951 24.792C133.282 24.6 133.543 24.328 133.735 23.976C133.938 23.6133 134.039 23.1867 134.039 22.696C134.039 22.1947 133.938 21.768 133.735 21.416C133.543 21.064 133.282 20.792 132.951 20.6C132.631 20.408 132.263 20.312 131.847 20.312C131.431 20.312 131.058 20.408 130.727 20.6C130.396 20.792 130.135 21.064 129.943 21.416C129.751 21.768 129.655 22.1947 129.655 22.696C129.655 23.1867 129.751 23.6133 129.943 23.976C130.135 24.328 130.396 24.6 130.727 24.792C131.058 24.984 131.431 25.08 131.847 25.08ZM138.238 27V18.392H140.622V20.824L140.286 20.12C140.542 19.512 140.953 19.0533 141.518 18.744C142.083 18.424 142.771 18.264 143.582 18.264V20.568C143.475 20.5573 143.379 20.552 143.294 20.552C143.209 20.5413 143.118 20.536 143.022 20.536C142.339 20.536 141.785 20.7333 141.358 21.128C140.942 21.512 140.734 22.1147 140.734 22.936V27H138.238ZM149.1 27.128C148.182 27.128 147.366 26.936 146.652 26.552C145.948 26.168 145.388 25.6453 144.972 24.984C144.566 24.312 144.364 23.5493 144.364 22.696C144.364 21.832 144.566 21.0693 144.972 20.408C145.388 19.736 145.948 19.2133 146.652 18.84C147.366 18.456 148.182 18.264 149.1 18.264C150.006 18.264 150.817 18.456 151.532 18.84C152.246 19.2133 152.806 19.7307 153.212 20.392C153.617 21.0533 153.82 21.8213 153.82 22.696C153.82 23.5493 153.617 24.312 153.212 24.984C152.806 25.6453 152.246 26.168 151.532 26.552C150.817 26.936 150.006 27.128 149.1 27.128ZM149.1 25.08C149.516 25.08 149.889 24.984 150.22 24.792C150.55 24.6 150.812 24.328 151.004 23.976C151.196 23.6133 151.292 23.1867 151.292 22.696C151.292 22.1947 151.196 21.768 151.004 21.416C150.812 21.064 150.55 20.792 150.22 20.6C149.889 20.408 149.516 20.312 149.1 20.312C148.684 20.312 148.31 20.408 147.98 20.6C147.649 20.792 147.382 21.064 147.18 21.416C146.988 21.768 146.892 22.1947 146.892 22.696C146.892 23.1867 146.988 23.6133 147.18 23.976C147.382 24.328 147.649 24.6 147.98 24.792C148.31 24.984 148.684 25.08 149.1 25.08ZM159.184 27.128C158.373 27.128 157.643 26.9467 156.992 26.584C156.341 26.2107 155.824 25.6933 155.44 25.032C155.067 24.3707 154.88 23.592 154.88 22.696C154.88 21.7893 155.067 21.0053 155.44 20.344C155.824 19.6827 156.341 19.1707 156.992 18.808C157.643 18.4453 158.373 18.264 159.184 18.264C159.909 18.264 160.544 18.424 161.088 18.744C161.632 19.064 162.053 19.5493 162.352 20.2C162.651 20.8507 162.8 21.6827 162.8 22.696C162.8 23.6987 162.656 24.5307 162.368 25.192C162.08 25.8427 161.664 26.328 161.12 26.648C160.587 26.968 159.941 27.128 159.184 27.128ZM159.616 25.08C160.021 25.08 160.389 24.984 160.72 24.792C161.051 24.6 161.312 24.328 161.504 23.976C161.707 23.6133 161.808 23.1867 161.808 22.696C161.808 22.1947 161.707 21.768 161.504 21.416C161.312 21.064 161.051 20.792 160.72 20.6C160.389 20.408 160.021 20.312 159.616 20.312C159.2 20.312 158.827 20.408 158.496 20.6C158.165 20.792 157.899 21.064 157.696 21.416C157.504 21.768 157.408 22.1947 157.408 22.696C157.408 23.1867 157.504 23.6133 157.696 23.976C157.899 24.328 158.165 24.6 158.496 24.792C158.827 24.984 159.2 25.08 159.616 25.08ZM161.872 27V25.24L161.92 22.68L161.76 20.136V15.128H164.256V27H161.872ZM170.198 27.128C169.483 27.128 168.843 26.9893 168.278 26.712C167.723 26.4347 167.291 26.0133 166.982 25.448C166.673 24.872 166.518 24.1413 166.518 23.256V18.392H169.014V22.888C169.014 23.6027 169.163 24.1307 169.462 24.472C169.771 24.8027 170.203 24.968 170.758 24.968C171.142 24.968 171.483 24.888 171.782 24.728C172.081 24.5573 172.315 24.3013 172.486 23.96C172.657 23.608 172.742 23.1707 172.742 22.648V18.392H175.238V27H172.87V24.632L173.302 25.32C173.014 25.9173 172.587 26.3707 172.022 26.68C171.467 26.9787 170.859 27.128 170.198 27.128ZM179.614 25.24L179.678 22.2L183.694 18.392H186.67L182.814 22.312L181.518 23.368L179.614 25.24ZM177.55 27V15.128H180.046V27H177.55ZM183.966 27L181.054 23.384L182.622 21.448L186.99 27H183.966ZM190.728 27.128C189.992 27.128 189.282 27.0427 188.6 26.872C187.928 26.6907 187.394 26.4667 187 26.2L187.832 24.408C188.226 24.6533 188.69 24.856 189.224 25.016C189.768 25.1653 190.301 25.24 190.824 25.24C191.4 25.24 191.805 25.1707 192.04 25.032C192.285 24.8933 192.408 24.7013 192.408 24.456C192.408 24.2533 192.312 24.104 192.12 24.008C191.938 23.9013 191.693 23.8213 191.384 23.768C191.074 23.7147 190.733 23.6613 190.36 23.608C189.997 23.5547 189.629 23.4853 189.256 23.4C188.882 23.304 188.541 23.1653 188.232 22.984C187.922 22.8027 187.672 22.5573 187.48 22.248C187.298 21.9387 187.208 21.5387 187.208 21.048C187.208 20.504 187.362 20.024 187.672 19.608C187.992 19.192 188.45 18.8667 189.048 18.632C189.645 18.3867 190.36 18.264 191.192 18.264C191.778 18.264 192.376 18.328 192.984 18.456C193.592 18.584 194.098 18.7707 194.504 19.016L193.672 20.792C193.256 20.5467 192.834 20.3813 192.408 20.296C191.992 20.2 191.586 20.152 191.192 20.152C190.637 20.152 190.232 20.2267 189.976 20.376C189.72 20.5253 189.592 20.7173 189.592 20.952C189.592 21.1653 189.682 21.3253 189.864 21.432C190.056 21.5387 190.306 21.624 190.616 21.688C190.925 21.752 191.261 21.8107 191.624 21.864C191.997 21.9067 192.37 21.976 192.744 22.072C193.117 22.168 193.453 22.3067 193.752 22.488C194.061 22.6587 194.312 22.8987 194.504 23.208C194.696 23.5067 194.792 23.9013 194.792 24.392C194.792 24.9253 194.632 25.4 194.312 25.816C193.992 26.2213 193.528 26.5413 192.92 26.776C192.322 27.0107 191.592 27.128 190.728 27.128ZM196.332 27V18.392H198.828V27H196.332ZM197.58 17.192C197.121 17.192 196.748 17.0587 196.46 16.792C196.172 16.5253 196.028 16.1947 196.028 15.8C196.028 15.4053 196.172 15.0747 196.46 14.808C196.748 14.5413 197.121 14.408 197.58 14.408C198.038 14.408 198.412 14.536 198.7 14.792C198.988 15.0373 199.132 15.3573 199.132 15.752C199.132 16.168 198.988 16.5147 198.7 16.792C198.422 17.0587 198.049 17.192 197.58 17.192Z" fill="#171A23"/>
<path d="M109.68 47V35.8H114.048C115.029 35.8 115.867 35.9547 116.56 36.264C117.253 36.5733 117.787 37.0213 118.16 37.608C118.533 38.1947 118.72 38.8933 118.72 39.704C118.72 40.5147 118.533 41.2133 118.16 41.8C117.787 42.376 117.253 42.824 116.56 43.144C115.867 43.4533 115.029 43.608 114.048 43.608H110.56L111.28 42.856V47H109.68ZM111.28 43.016L110.56 42.216H114C115.024 42.216 115.797 41.9973 116.32 41.56C116.853 41.1227 117.12 40.504 117.12 39.704C117.12 38.904 116.853 38.2853 116.32 37.848C115.797 37.4107 115.024 37.192 114 37.192H110.56L111.28 36.392V43.016ZM124.591 47.096C123.685 47.096 122.885 46.9093 122.191 46.536C121.509 46.1627 120.975 45.6507 120.591 45C120.218 44.3493 120.031 43.6027 120.031 42.76C120.031 41.9173 120.213 41.1707 120.575 40.52C120.949 39.8693 121.455 39.3627 122.095 39C122.746 38.6267 123.477 38.44 124.287 38.44C125.109 38.44 125.834 38.6213 126.463 38.984C127.093 39.3467 127.583 39.8587 127.935 40.52C128.298 41.1707 128.479 41.9333 128.479 42.808C128.479 42.872 128.474 42.9467 128.463 43.032C128.463 43.1173 128.458 43.1973 128.447 43.272H121.231V42.168H127.647L127.023 42.552C127.034 42.008 126.922 41.5227 126.687 41.096C126.453 40.6693 126.127 40.3387 125.711 40.104C125.306 39.8587 124.831 39.736 124.287 39.736C123.754 39.736 123.279 39.8587 122.863 40.104C122.447 40.3387 122.122 40.6747 121.887 41.112C121.653 41.5387 121.535 42.0293 121.535 42.584V42.84C121.535 43.4053 121.663 43.912 121.919 44.36C122.186 44.7973 122.554 45.1387 123.023 45.384C123.493 45.6293 124.031 45.752 124.639 45.752C125.141 45.752 125.594 45.6667 125.999 45.496C126.415 45.3253 126.778 45.0693 127.087 44.728L127.935 45.72C127.551 46.168 127.071 46.5093 126.495 46.744C125.93 46.9787 125.295 47.096 124.591 47.096ZM133.044 47.096C132.34 47.096 131.668 47 131.028 46.808C130.399 46.616 129.903 46.3813 129.54 46.104L130.18 44.888C130.543 45.1333 130.991 45.3413 131.524 45.512C132.058 45.6827 132.602 45.768 133.156 45.768C133.871 45.768 134.383 45.6667 134.692 45.464C135.012 45.2613 135.172 44.9787 135.172 44.616C135.172 44.3493 135.076 44.1413 134.884 43.992C134.692 43.8427 134.436 43.7307 134.116 43.656C133.807 43.5813 133.46 43.5173 133.076 43.464C132.692 43.4 132.308 43.3253 131.924 43.24C131.54 43.144 131.188 43.016 130.868 42.856C130.548 42.6853 130.292 42.456 130.1 42.168C129.908 41.8693 129.812 41.4747 129.812 40.984C129.812 40.472 129.956 40.024 130.244 39.64C130.532 39.256 130.938 38.9627 131.46 38.76C131.994 38.5467 132.623 38.44 133.348 38.44C133.903 38.44 134.463 38.5093 135.028 38.648C135.604 38.776 136.074 38.9627 136.436 39.208L135.78 40.424C135.396 40.168 134.996 39.992 134.58 39.896C134.164 39.8 133.748 39.752 133.332 39.752C132.66 39.752 132.159 39.864 131.828 40.088C131.498 40.3013 131.332 40.5787 131.332 40.92C131.332 41.208 131.428 41.432 131.62 41.592C131.823 41.7413 132.079 41.8587 132.388 41.944C132.708 42.0293 133.06 42.104 133.444 42.168C133.828 42.2213 134.212 42.296 134.596 42.392C134.98 42.4773 135.327 42.6 135.636 42.76C135.956 42.92 136.212 43.144 136.404 43.432C136.607 43.72 136.708 44.104 136.708 44.584C136.708 45.096 136.559 45.5387 136.26 45.912C135.962 46.2853 135.54 46.5787 134.996 46.792C134.452 46.9947 133.802 47.096 133.044 47.096ZM143.892 47V45.208L143.812 44.872V41.816C143.812 41.1653 143.62 40.664 143.236 40.312C142.863 39.9493 142.297 39.768 141.54 39.768C141.039 39.768 140.548 39.8533 140.068 40.024C139.588 40.184 139.183 40.4027 138.852 40.68L138.212 39.528C138.649 39.176 139.172 38.9093 139.78 38.728C140.399 38.536 141.044 38.44 141.716 38.44C142.879 38.44 143.775 38.7227 144.404 39.288C145.033 39.8533 145.348 40.7173 145.348 41.88V47H143.892ZM141.108 47.096C140.479 47.096 139.924 46.9893 139.444 46.776C138.975 46.5627 138.612 46.2693 138.356 45.896C138.1 45.512 137.972 45.08 137.972 44.6C137.972 44.1413 138.079 43.7253 138.292 43.352C138.516 42.9787 138.873 42.68 139.364 42.456C139.865 42.232 140.537 42.12 141.38 42.12H144.068V43.224H141.444C140.676 43.224 140.159 43.352 139.892 43.608C139.625 43.864 139.492 44.1733 139.492 44.536C139.492 44.952 139.657 45.288 139.988 45.544C140.319 45.7893 140.777 45.912 141.364 45.912C141.94 45.912 142.441 45.784 142.868 45.528C143.305 45.272 143.62 44.8987 143.812 44.408L144.116 45.464C143.913 45.9653 143.556 46.3653 143.044 46.664C142.532 46.952 141.887 47.096 141.108 47.096ZM152.718 38.44C153.412 38.44 154.02 38.5733 154.542 38.84C155.076 39.1067 155.492 39.512 155.79 40.056C156.089 40.6 156.238 41.288 156.238 42.12V47H154.702V42.296C154.702 41.4747 154.5 40.856 154.094 40.44C153.7 40.024 153.14 39.816 152.414 39.816C151.87 39.816 151.396 39.9227 150.99 40.136C150.585 40.3493 150.27 40.664 150.046 41.08C149.833 41.496 149.726 42.0133 149.726 42.632V47H148.19V38.52H149.662V40.808L149.422 40.2C149.7 39.6453 150.126 39.2133 150.702 38.904C151.278 38.5947 151.95 38.44 152.718 38.44ZM164.345 47V45.208L164.265 44.872V41.816C164.265 41.1653 164.073 40.664 163.689 40.312C163.316 39.9493 162.75 39.768 161.993 39.768C161.492 39.768 161.001 39.8533 160.521 40.024C160.041 40.184 159.636 40.4027 159.305 40.68L158.665 39.528C159.102 39.176 159.625 38.9093 160.233 38.728C160.852 38.536 161.497 38.44 162.169 38.44C163.332 38.44 164.228 38.7227 164.857 39.288C165.486 39.8533 165.801 40.7173 165.801 41.88V47H164.345ZM161.561 47.096C160.932 47.096 160.377 46.9893 159.897 46.776C159.428 46.5627 159.065 46.2693 158.809 45.896C158.553 45.512 158.425 45.08 158.425 44.6C158.425 44.1413 158.532 43.7253 158.745 43.352C158.969 42.9787 159.326 42.68 159.817 42.456C160.318 42.232 160.99 42.12 161.833 42.12H164.521V43.224H161.897C161.129 43.224 160.612 43.352 160.345 43.608C160.078 43.864 159.945 44.1733 159.945 44.536C159.945 44.952 160.11 45.288 160.441 45.544C160.772 45.7893 161.23 45.912 161.817 45.912C162.393 45.912 162.894 45.784 163.321 45.528C163.758 45.272 164.073 44.8987 164.265 44.408L164.569 45.464C164.366 45.9653 164.009 46.3653 163.497 46.664C162.985 46.952 162.34 47.096 161.561 47.096ZM173.172 38.44C173.865 38.44 174.473 38.5733 174.996 38.84C175.529 39.1067 175.945 39.512 176.244 40.056C176.542 40.6 176.692 41.288 176.692 42.12V47H175.156V42.296C175.156 41.4747 174.953 40.856 174.548 40.44C174.153 40.024 173.593 39.816 172.868 39.816C172.324 39.816 171.849 39.9227 171.444 40.136C171.038 40.3493 170.724 40.664 170.5 41.08C170.286 41.496 170.18 42.0133 170.18 42.632V47H168.644V38.52H170.116V40.808L169.876 40.2C170.153 39.6453 170.58 39.2133 171.156 38.904C171.732 38.5947 172.404 38.44 173.172 38.44ZM186.263 47.096C185.559 47.096 184.887 47 184.247 46.808C183.618 46.616 183.122 46.3813 182.759 46.104L183.399 44.888C183.762 45.1333 184.21 45.3413 184.743 45.512C185.276 45.6827 185.82 45.768 186.375 45.768C187.09 45.768 187.602 45.6667 187.911 45.464C188.231 45.2613 188.391 44.9787 188.391 44.616C188.391 44.3493 188.295 44.1413 188.103 43.992C187.911 43.8427 187.655 43.7307 187.335 43.656C187.026 43.5813 186.679 43.5173 186.295 43.464C185.911 43.4 185.527 43.3253 185.143 43.24C184.759 43.144 184.407 43.016 184.087 42.856C183.767 42.6853 183.511 42.456 183.319 42.168C183.127 41.8693 183.031 41.4747 183.031 40.984C183.031 40.472 183.175 40.024 183.463 39.64C183.751 39.256 184.156 38.9627 184.679 38.76C185.212 38.5467 185.842 38.44 186.567 38.44C187.122 38.44 187.682 38.5093 188.247 38.648C188.823 38.776 189.292 38.9627 189.655 39.208L188.999 40.424C188.615 40.168 188.215 39.992 187.799 39.896C187.383 39.8 186.967 39.752 186.551 39.752C185.879 39.752 185.378 39.864 185.047 40.088C184.716 40.3013 184.551 40.5787 184.551 40.92C184.551 41.208 184.647 41.432 184.839 41.592C185.042 41.7413 185.298 41.8587 185.607 41.944C185.927 42.0293 186.279 42.104 186.663 42.168C187.047 42.2213 187.431 42.296 187.815 42.392C188.199 42.4773 188.546 42.6 188.855 42.76C189.175 42.92 189.431 43.144 189.623 43.432C189.826 43.72 189.927 44.104 189.927 44.584C189.927 45.096 189.778 45.5387 189.479 45.912C189.18 46.2853 188.759 46.5787 188.215 46.792C187.671 46.9947 187.02 47.096 186.263 47.096ZM195.623 47.096C194.716 47.096 193.916 46.9093 193.223 46.536C192.54 46.1627 192.007 45.6507 191.623 45C191.249 44.3493 191.063 43.6027 191.063 42.76C191.063 41.9173 191.244 41.1707 191.607 40.52C191.98 39.8693 192.487 39.3627 193.127 39C193.777 38.6267 194.508 38.44 195.319 38.44C196.14 38.44 196.865 38.6213 197.495 38.984C198.124 39.3467 198.615 39.8587 198.967 40.52C199.329 41.1707 199.511 41.9333 199.511 42.808C199.511 42.872 199.505 42.9467 199.495 43.032C199.495 43.1173 199.489 43.1973 199.479 43.272H192.263V42.168H198.679L198.055 42.552C198.065 42.008 197.953 41.5227 197.719 41.096C197.484 40.6693 197.159 40.3387 196.743 40.104C196.337 39.8587 195.863 39.736 195.319 39.736C194.785 39.736 194.311 39.8587 193.895 40.104C193.479 40.3387 193.153 40.6747 192.919 41.112C192.684 41.5387 192.567 42.0293 192.567 42.584V42.84C192.567 43.4053 192.695 43.912 192.951 44.36C193.217 44.7973 193.585 45.1387 194.055 45.384C194.524 45.6293 195.063 45.752 195.671 45.752C196.172 45.752 196.625 45.6667 197.031 45.496C197.447 45.3253 197.809 45.0693 198.119 44.728L198.967 45.72C198.583 46.168 198.103 46.5093 197.527 46.744C196.961 46.9787 196.327 47.096 195.623 47.096ZM205.148 47.096C204.326 47.096 203.59 46.9147 202.94 46.552C202.3 46.1893 201.793 45.6827 201.42 45.032C201.046 44.3813 200.86 43.624 200.86 42.76C200.86 41.896 201.046 41.144 201.42 40.504C201.793 39.8533 202.3 39.3467 202.94 38.984C203.59 38.6213 204.326 38.44 205.148 38.44C205.862 38.44 206.508 38.6 207.084 38.92C207.66 39.24 208.118 39.72 208.46 40.36C208.812 41 208.988 41.8 208.988 42.76C208.988 43.72 208.817 44.52 208.476 45.16C208.145 45.8 207.692 46.2853 207.116 46.616C206.54 46.936 205.884 47.096 205.148 47.096ZM205.276 45.752C205.809 45.752 206.289 45.6293 206.716 45.384C207.153 45.1387 207.494 44.792 207.74 44.344C207.996 43.8853 208.124 43.3573 208.124 42.76C208.124 42.152 207.996 41.6293 207.74 41.192C207.494 40.744 207.153 40.3973 206.716 40.152C206.289 39.9067 205.809 39.784 205.276 39.784C204.732 39.784 204.246 39.9067 203.82 40.152C203.393 40.3973 203.052 40.744 202.796 41.192C202.54 41.6293 202.412 42.152 202.412 42.76C202.412 43.3573 202.54 43.8853 202.796 44.344C203.052 44.792 203.393 45.1387 203.82 45.384C204.246 45.6293 204.732 45.752 205.276 45.752ZM208.172 47V44.712L208.267 42.744L208.108 40.776V35.128H209.644V47H208.172ZM217.814 47V45.208L217.734 44.872V41.816C217.734 41.1653 217.542 40.664 217.158 40.312C216.784 39.9493 216.219 39.768 215.462 39.768C214.96 39.768 214.47 39.8533 213.99 40.024C213.51 40.184 213.104 40.4027 212.774 40.68L212.134 39.528C212.571 39.176 213.094 38.9093 213.702 38.728C214.32 38.536 214.966 38.44 215.638 38.44C216.8 38.44 217.696 38.7227 218.326 39.288C218.955 39.8533 219.27 40.7173 219.27 41.88V47H217.814ZM215.03 47.096C214.4 47.096 213.846 46.9893 213.366 46.776C212.896 46.5627 212.534 46.2693 212.278 45.896C212.022 45.512 211.894 45.08 211.894 44.6C211.894 44.1413 212 43.7253 212.214 43.352C212.438 42.9787 212.795 42.68 213.286 42.456C213.787 42.232 214.459 42.12 215.302 42.12H217.99V43.224H215.366C214.598 43.224 214.08 43.352 213.814 43.608C213.547 43.864 213.414 44.1733 213.414 44.536C213.414 44.952 213.579 45.288 213.91 45.544C214.24 45.7893 214.699 45.912 215.286 45.912C215.862 45.912 216.363 45.784 216.79 45.528C217.227 45.272 217.542 44.8987 217.734 44.408L218.038 45.464C217.835 45.9653 217.478 46.3653 216.966 46.664C216.454 46.952 215.808 47.096 215.03 47.096ZM226.64 38.44C227.334 38.44 227.942 38.5733 228.464 38.84C228.998 39.1067 229.414 39.512 229.712 40.056C230.011 40.6 230.16 41.288 230.16 42.12V47H228.624V42.296C228.624 41.4747 228.422 40.856 228.016 40.44C227.622 40.024 227.062 39.816 226.336 39.816C225.792 39.816 225.318 39.9227 224.912 40.136C224.507 40.3493 224.192 40.664 223.968 41.08C223.755 41.496 223.648 42.0133 223.648 42.632V47H222.112V38.52H223.584V40.808L223.344 40.2C223.622 39.6453 224.048 39.2133 224.624 38.904C225.2 38.5947 225.872 38.44 226.64 38.44ZM236.715 50.2C235.936 50.2 235.179 50.088 234.443 49.864C233.718 49.6507 233.126 49.3413 232.667 48.936L233.403 47.752C233.798 48.0933 234.283 48.36 234.859 48.552C235.435 48.7547 236.038 48.856 236.667 48.856C237.67 48.856 238.406 48.6213 238.875 48.152C239.344 47.6827 239.579 46.968 239.579 46.008V44.216L239.739 42.536L239.659 40.84V38.52H241.115V45.848C241.115 47.3413 240.742 48.44 239.995 49.144C239.248 49.848 238.155 50.2 236.715 50.2ZM236.523 46.648C235.702 46.648 234.966 46.4773 234.315 46.136C233.675 45.784 233.163 45.2987 232.779 44.68C232.406 44.0613 232.219 43.3467 232.219 42.536C232.219 41.7147 232.406 41 232.779 40.392C233.163 39.7733 233.675 39.2933 234.315 38.952C234.966 38.6107 235.702 38.44 236.523 38.44C237.248 38.44 237.91 38.5893 238.507 38.888C239.104 39.176 239.579 39.624 239.931 40.232C240.294 40.84 240.475 41.608 240.475 42.536C240.475 43.4533 240.294 44.216 239.931 44.824C239.579 45.432 239.104 45.8907 238.507 46.2C237.91 46.4987 237.248 46.648 236.523 46.648ZM236.699 45.304C237.264 45.304 237.766 45.1867 238.203 44.952C238.64 44.7173 238.982 44.392 239.227 43.976C239.483 43.56 239.611 43.08 239.611 42.536C239.611 41.992 239.483 41.512 239.227 41.096C238.982 40.68 238.64 40.36 238.203 40.136C237.766 39.9013 237.264 39.784 236.699 39.784C236.134 39.784 235.627 39.9013 235.179 40.136C234.742 40.36 234.395 40.68 234.139 41.096C233.894 41.512 233.771 41.992 233.771 42.536C233.771 43.08 233.894 43.56 234.139 43.976C234.395 44.392 234.742 44.7173 235.179 44.952C235.627 45.1867 236.134 45.304 236.699 45.304ZM251.851 47.096C251.029 47.096 250.293 46.9147 249.643 46.552C249.003 46.1893 248.496 45.6827 248.123 45.032C247.749 44.3813 247.563 43.624 247.563 42.76C247.563 41.896 247.749 41.144 248.123 40.504C248.496 39.8533 249.003 39.3467 249.643 38.984C250.293 38.6213 251.029 38.44 251.851 38.44C252.565 38.44 253.211 38.6 253.787 38.92C254.363 39.24 254.821 39.72 255.163 40.36C255.515 41 255.691 41.8 255.691 42.76C255.691 43.72 255.52 44.52 255.179 45.16C254.848 45.8 254.395 46.2853 253.819 46.616C253.243 46.936 252.587 47.096 251.851 47.096ZM251.979 45.752C252.512 45.752 252.992 45.6293 253.419 45.384C253.856 45.1387 254.197 44.792 254.443 44.344C254.699 43.8853 254.827 43.3573 254.827 42.76C254.827 42.152 254.699 41.6293 254.443 41.192C254.197 40.744 253.856 40.3973 253.419 40.152C252.992 39.9067 252.512 39.784 251.979 39.784C251.435 39.784 250.949 39.9067 250.523 40.152C250.096 40.3973 249.755 40.744 249.499 41.192C249.243 41.6293 249.115 42.152 249.115 42.76C249.115 43.3573 249.243 43.8853 249.499 44.344C249.755 44.792 250.096 45.1387 250.523 45.384C250.949 45.6293 251.435 45.752 251.979 45.752ZM254.875 47V44.712L254.971 42.744L254.811 40.776V35.128H256.347V47H254.875ZM259.253 47V38.52H260.789V47H259.253ZM260.021 36.888C259.722 36.888 259.472 36.792 259.269 36.6C259.077 36.408 258.981 36.1733 258.981 35.896C258.981 35.608 259.077 35.368 259.269 35.176C259.472 34.984 259.722 34.888 260.021 34.888C260.32 34.888 260.565 34.984 260.757 35.176C260.96 35.3573 261.061 35.5867 261.061 35.864C261.061 36.152 260.965 36.3973 260.773 36.6C260.581 36.792 260.33 36.888 260.021 36.888ZM113.952 67.096C113.248 67.096 112.603 66.936 112.016 66.616C111.44 66.2853 110.976 65.8 110.624 65.16C110.283 64.52 110.112 63.72 110.112 62.76C110.112 61.8 110.277 61 110.608 60.36C110.949 59.72 111.408 59.24 111.984 58.92C112.571 58.6 113.227 58.44 113.952 58.44C114.784 58.44 115.52 58.6213 116.16 58.984C116.8 59.3467 117.307 59.8533 117.68 60.504C118.053 61.144 118.24 61.896 118.24 62.76C118.24 63.624 118.053 64.3813 117.68 65.032C117.307 65.6827 116.8 66.1893 116.16 66.552C115.52 66.9147 114.784 67.096 113.952 67.096ZM109.456 70.104V58.52H110.928V60.808L110.832 62.776L110.992 64.744V70.104H109.456ZM113.824 65.752C114.368 65.752 114.853 65.6293 115.28 65.384C115.717 65.1387 116.059 64.792 116.304 64.344C116.56 63.8853 116.688 63.3573 116.688 62.76C116.688 62.152 116.56 61.6293 116.304 61.192C116.059 60.744 115.717 60.3973 115.28 60.152C114.853 59.9067 114.368 59.784 113.824 59.784C113.291 59.784 112.805 59.9067 112.368 60.152C111.941 60.3973 111.6 60.744 111.344 61.192C111.099 61.6293 110.976 62.152 110.976 62.76C110.976 63.3573 111.099 63.8853 111.344 64.344C111.6 64.792 111.941 65.1387 112.368 65.384C112.805 65.6293 113.291 65.752 113.824 65.752ZM120.362 67V58.52H121.834V60.824L121.69 60.248C121.925 59.6613 122.32 59.2133 122.874 58.904C123.429 58.5947 124.112 58.44 124.922 58.44V59.928C124.858 59.9173 124.794 59.912 124.73 59.912C124.677 59.912 124.624 59.912 124.57 59.912C123.749 59.912 123.098 60.1573 122.618 60.648C122.138 61.1387 121.898 61.848 121.898 62.776V67H120.362ZM130.369 67.096C129.516 67.096 128.759 66.9093 128.097 66.536C127.436 66.1627 126.913 65.6507 126.529 65C126.145 64.3387 125.953 63.592 125.953 62.76C125.953 61.9173 126.145 61.1707 126.529 60.52C126.913 59.8693 127.436 59.3627 128.097 59C128.759 58.6267 129.516 58.44 130.369 58.44C131.212 58.44 131.964 58.6267 132.625 59C133.297 59.3627 133.82 59.8693 134.193 60.52C134.577 61.16 134.769 61.9067 134.769 62.76C134.769 63.6027 134.577 64.3493 134.193 65C133.82 65.6507 133.297 66.1627 132.625 66.536C131.964 66.9093 131.212 67.096 130.369 67.096ZM130.369 65.752C130.913 65.752 131.399 65.6293 131.825 65.384C132.263 65.1387 132.604 64.792 132.849 64.344C133.095 63.8853 133.217 63.3573 133.217 62.76C133.217 62.152 133.095 61.6293 132.849 61.192C132.604 60.744 132.263 60.3973 131.825 60.152C131.399 59.9067 130.913 59.784 130.369 59.784C129.825 59.784 129.34 59.9067 128.913 60.152C128.487 60.3973 128.145 60.744 127.889 61.192C127.633 61.6293 127.505 62.152 127.505 62.76C127.505 63.3573 127.633 63.8853 127.889 64.344C128.145 64.792 128.487 65.1387 128.913 65.384C129.34 65.6293 129.825 65.752 130.369 65.752ZM140.398 67.096C139.576 67.096 138.84 66.9147 138.19 66.552C137.55 66.1893 137.043 65.6827 136.67 65.032C136.296 64.3813 136.11 63.624 136.11 62.76C136.11 61.896 136.296 61.144 136.67 60.504C137.043 59.8533 137.55 59.3467 138.19 58.984C138.84 58.6213 139.576 58.44 140.398 58.44C141.112 58.44 141.758 58.6 142.334 58.92C142.91 59.24 143.368 59.72 143.71 60.36C144.062 61 144.238 61.8 144.238 62.76C144.238 63.72 144.067 64.52 143.726 65.16C143.395 65.8 142.942 66.2853 142.366 66.616C141.79 66.936 141.134 67.096 140.398 67.096ZM140.526 65.752C141.059 65.752 141.539 65.6293 141.966 65.384C142.403 65.1387 142.744 64.792 142.99 64.344C143.246 63.8853 143.374 63.3573 143.374 62.76C143.374 62.152 143.246 61.6293 142.99 61.192C142.744 60.744 142.403 60.3973 141.966 60.152C141.539 59.9067 141.059 59.784 140.526 59.784C139.982 59.784 139.496 59.9067 139.07 60.152C138.643 60.3973 138.302 60.744 138.046 61.192C137.79 61.6293 137.662 62.152 137.662 62.76C137.662 63.3573 137.79 63.8853 138.046 64.344C138.302 64.792 138.643 65.1387 139.07 65.384C139.496 65.6293 139.982 65.752 140.526 65.752ZM143.422 67V64.712L143.517 62.744L143.358 60.776V55.128H144.894V67H143.422ZM151.368 67.096C150.642 67.096 150.002 66.9627 149.448 66.696C148.904 66.4293 148.477 66.024 148.168 65.48C147.869 64.9253 147.72 64.232 147.72 63.4V58.52H149.256V63.224C149.256 64.056 149.453 64.68 149.848 65.096C150.253 65.512 150.818 65.72 151.544 65.72C152.077 65.72 152.541 65.6133 152.936 65.4C153.33 65.176 153.634 64.856 153.848 64.44C154.061 64.0133 154.168 63.5013 154.168 62.904V58.52H155.704V67H154.248V64.712L154.488 65.32C154.21 65.8853 153.794 66.3227 153.24 66.632C152.685 66.9413 152.061 67.096 151.368 67.096ZM159.876 64.952L159.908 62.984L164.788 58.52H166.644L162.9 62.2L162.068 62.904L159.876 64.952ZM158.628 67V55.128H160.164V67H158.628ZM165.108 67L161.78 62.872L162.772 61.64L166.996 67H165.108ZM170.654 67.096C169.95 67.096 169.278 67 168.638 66.808C168.008 66.616 167.512 66.3813 167.15 66.104L167.79 64.888C168.152 65.1333 168.6 65.3413 169.134 65.512C169.667 65.6827 170.211 65.768 170.766 65.768C171.48 65.768 171.992 65.6667 172.302 65.464C172.622 65.2613 172.782 64.9787 172.782 64.616C172.782 64.3493 172.686 64.1413 172.494 63.992C172.302 63.8427 172.046 63.7307 171.726 63.656C171.416 63.5813 171.07 63.5173 170.686 63.464C170.302 63.4 169.918 63.3253 169.534 63.24C169.15 63.144 168.798 63.016 168.478 62.856C168.158 62.6853 167.902 62.456 167.71 62.168C167.518 61.8693 167.422 61.4747 167.422 60.984C167.422 60.472 167.566 60.024 167.854 59.64C168.142 59.256 168.547 58.9627 169.07 58.76C169.603 58.5467 170.232 58.44 170.958 58.44C171.512 58.44 172.072 58.5093 172.638 58.648C173.214 58.776 173.683 58.9627 174.046 59.208L173.39 60.424C173.006 60.168 172.606 59.992 172.19 59.896C171.774 59.8 171.358 59.752 170.942 59.752C170.27 59.752 169.768 59.864 169.438 60.088C169.107 60.3013 168.942 60.5787 168.942 60.92C168.942 61.208 169.038 61.432 169.23 61.592C169.432 61.7413 169.688 61.8587 169.998 61.944C170.318 62.0293 170.67 62.104 171.054 62.168C171.438 62.2213 171.822 62.296 172.206 62.392C172.59 62.4773 172.936 62.6 173.246 62.76C173.566 62.92 173.822 63.144 174.014 63.432C174.216 63.72 174.318 64.104 174.318 64.584C174.318 65.096 174.168 65.5387 173.87 65.912C173.571 66.2853 173.15 66.5787 172.606 66.792C172.062 66.9947 171.411 67.096 170.654 67.096ZM176.237 67V58.52H177.773V67H176.237ZM177.005 56.888C176.707 56.888 176.456 56.792 176.253 56.6C176.061 56.408 175.965 56.1733 175.965 55.896C175.965 55.608 176.061 55.368 176.253 55.176C176.456 54.984 176.707 54.888 177.005 54.888C177.304 54.888 177.549 54.984 177.741 55.176C177.944 55.3573 178.045 55.5867 178.045 55.864C178.045 56.152 177.949 56.3973 177.757 56.6C177.565 56.792 177.315 56.888 177.005 56.888Z" fill="#171A23"/>
</svg>
