
<svg width="397" height="193" viewBox="0 0 397 193" fill="none" xmlns="http://www.w3.org/2000/svg">
<circle cx="93.5" cy="86.5" r="40.5" fill="#2CBF29"/>
<path d="M78.155 70.0685C78.2137 69.1897 78.6042 68.3661 79.2475 67.7645C79.8908 67.1629 80.7387 66.8283 81.6194 66.8285H84.2323C85.113 66.8283 85.9609 67.1629 86.6042 67.7645C87.2475 68.3661 87.638 69.1897 87.6968 70.0685L89.7009 100.154C89.7326 100.628 89.6666 101.104 89.507 101.552C89.3473 101.999 89.0975 102.409 88.7729 102.756C88.4483 103.104 88.0559 103.38 87.62 103.57C87.1841 103.759 86.714 103.857 86.2388 103.857H79.613C79.1377 103.857 78.6676 103.759 78.2317 103.57C77.7958 103.38 77.4034 103.104 77.0788 102.756C76.7542 102.409 76.5044 101.999 76.3448 101.552C76.1851 101.104 76.1191 100.628 76.1508 100.154L78.155 70.0685V70.0685ZM90.8673 103.857C91.6681 102.792 92.1078 101.443 92.0106 100.001L90.8048 81.9037L99.5089 74.0676C99.6751 73.9175 99.8814 73.8189 100.103 73.7838C100.324 73.7486 100.55 73.7784 100.755 73.8696C100.96 73.9607 101.133 74.1093 101.255 74.2973C101.377 74.4852 101.442 74.7045 101.441 74.9285V82.7438L111.08 74.0676C111.247 73.9175 111.453 73.8189 111.674 73.7838C111.895 73.7486 112.122 73.7784 112.326 73.8696C112.531 73.9607 112.705 74.1093 112.827 74.2973C112.948 74.4852 113.013 74.7045 113.013 74.9285V100.386C113.013 101.306 112.647 102.189 111.996 102.84C111.345 103.491 110.462 103.857 109.541 103.857H90.865H90.8673ZM108.384 101.543V91.8228C108.384 91.3317 108.189 90.8608 107.842 90.5136C107.495 90.1664 107.024 89.9713 106.533 89.9713H98.6641C98.1731 89.9713 97.7022 90.1664 97.355 90.5136C97.0078 90.8608 96.8127 91.3317 96.8127 91.8228V101.543H108.384V101.543Z" fill="white"/>
<path d="M49.3358 16V4.8H54.4238C55.6398 4.8 56.7118 5.03467 57.6398 5.504C58.5678 5.96267 59.2931 6.608 59.8158 7.44C60.3385 8.272 60.5998 9.25867 60.5998 10.4C60.5998 11.5307 60.3385 12.5173 59.8158 13.36C59.2931 14.192 58.5678 14.8427 57.6398 15.312C56.7118 15.7707 55.6398 16 54.4238 16H49.3358ZM51.9278 13.872H54.2958C55.0425 13.872 55.6878 13.7333 56.2318 13.456C56.7865 13.168 57.2131 12.7627 57.5118 12.24C57.8211 11.7173 57.9758 11.104 57.9758 10.4C57.9758 9.68533 57.8211 9.072 57.5118 8.56C57.2131 8.03733 56.7865 7.63733 56.2318 7.36C55.6878 7.072 55.0425 6.928 54.2958 6.928H51.9278V13.872ZM62.3786 16V7.392H64.8746V16H62.3786ZM63.6266 6.192C63.1679 6.192 62.7946 6.05867 62.5066 5.792C62.2186 5.52533 62.0746 5.19467 62.0746 4.8C62.0746 4.40533 62.2186 4.07467 62.5066 3.808C62.7946 3.54133 63.1679 3.408 63.6266 3.408C64.0852 3.408 64.4586 3.536 64.7466 3.792C65.0346 4.03733 65.1786 4.35733 65.1786 4.752C65.1786 5.168 65.0346 5.51467 64.7466 5.792C64.4692 6.05867 64.0959 6.192 63.6266 6.192ZM72.2791 16.128C71.5537 16.128 70.9191 15.968 70.3751 15.648C69.8311 15.328 69.4044 14.8427 69.0951 14.192C68.7964 13.5307 68.6471 12.6987 68.6471 11.696C68.6471 10.6827 68.7911 9.85067 69.0791 9.2C69.3671 8.54933 69.7831 8.064 70.3271 7.744C70.8711 7.424 71.5217 7.264 72.2791 7.264C73.0897 7.264 73.8151 7.45067 74.4551 7.824C75.1057 8.18667 75.6177 8.69867 75.9911 9.36C76.3751 10.0213 76.5671 10.8 76.5671 11.696C76.5671 12.6027 76.3751 13.3867 75.9911 14.048C75.6177 14.7093 75.1057 15.2213 74.4551 15.584C73.8151 15.9467 73.0897 16.128 72.2791 16.128ZM67.1911 19.104V7.392H69.5751V9.152L69.5271 11.712L69.6871 14.256V19.104H67.1911ZM71.8471 14.08C72.2631 14.08 72.6311 13.984 72.9511 13.792C73.2817 13.6 73.5431 13.328 73.7351 12.976C73.9377 12.6133 74.0391 12.1867 74.0391 11.696C74.0391 11.1947 73.9377 10.768 73.7351 10.416C73.5431 10.064 73.2817 9.792 72.9511 9.6C72.6311 9.408 72.2631 9.312 71.8471 9.312C71.4311 9.312 71.0577 9.408 70.7271 9.6C70.3964 9.792 70.1351 10.064 69.9431 10.416C69.7511 10.768 69.6551 11.1947 69.6551 11.696C69.6551 12.1867 69.7511 12.6133 69.9431 12.976C70.1351 13.328 70.3964 13.6 70.7271 13.792C71.0577 13.984 71.4311 14.08 71.8471 14.08ZM78.2379 16V7.392H80.6219V9.824L80.2859 9.12C80.5419 8.512 80.9526 8.05333 81.5179 7.744C82.0833 7.424 82.7713 7.264 83.5819 7.264V9.568C83.4753 9.55733 83.3793 9.552 83.2939 9.552C83.2086 9.54133 83.1179 9.536 83.0219 9.536C82.3393 9.536 81.7846 9.73333 81.3579 10.128C80.9419 10.512 80.7339 11.1147 80.7339 11.936V16H78.2379ZM89.0996 16.128C88.1822 16.128 87.3662 15.936 86.6516 15.552C85.9476 15.168 85.3876 14.6453 84.9716 13.984C84.5662 13.312 84.3636 12.5493 84.3636 11.696C84.3636 10.832 84.5662 10.0693 84.9716 9.408C85.3876 8.736 85.9476 8.21333 86.6516 7.84C87.3662 7.456 88.1822 7.264 89.0996 7.264C90.0062 7.264 90.8169 7.456 91.5316 7.84C92.2462 8.21333 92.8062 8.73067 93.2116 9.392C93.6169 10.0533 93.8196 10.8213 93.8196 11.696C93.8196 12.5493 93.6169 13.312 93.2116 13.984C92.8062 14.6453 92.2462 15.168 91.5316 15.552C90.8169 15.936 90.0062 16.128 89.0996 16.128ZM89.0996 14.08C89.5156 14.08 89.8889 13.984 90.2196 13.792C90.5502 13.6 90.8116 13.328 91.0036 12.976C91.1956 12.6133 91.2916 12.1867 91.2916 11.696C91.2916 11.1947 91.1956 10.768 91.0036 10.416C90.8116 10.064 90.5502 9.792 90.2196 9.6C89.8889 9.408 89.5156 9.312 89.0996 9.312C88.6836 9.312 88.3102 9.408 87.9796 9.6C87.6489 9.792 87.3822 10.064 87.1796 10.416C86.9876 10.768 86.8916 11.1947 86.8916 11.696C86.8916 12.1867 86.9876 12.6133 87.1796 12.976C87.3822 13.328 87.6489 13.6 87.9796 13.792C88.3102 13.984 88.6836 14.08 89.0996 14.08ZM99.1839 16.128C98.3733 16.128 97.6426 15.9467 96.9919 15.584C96.3413 15.2107 95.8239 14.6933 95.4399 14.032C95.0666 13.3707 94.8799 12.592 94.8799 11.696C94.8799 10.7893 95.0666 10.0053 95.4399 9.344C95.8239 8.68267 96.3413 8.17067 96.9919 7.808C97.6426 7.44533 98.3733 7.264 99.1839 7.264C99.9093 7.264 100.544 7.424 101.088 7.744C101.632 8.064 102.053 8.54933 102.352 9.2C102.651 9.85067 102.8 10.6827 102.8 11.696C102.8 12.6987 102.656 13.5307 102.368 14.192C102.08 14.8427 101.664 15.328 101.12 15.648C100.587 15.968 99.9413 16.128 99.1839 16.128ZM99.6159 14.08C100.021 14.08 100.389 13.984 100.72 13.792C101.051 13.6 101.312 13.328 101.504 12.976C101.707 12.6133 101.808 12.1867 101.808 11.696C101.808 11.1947 101.707 10.768 101.504 10.416C101.312 10.064 101.051 9.792 100.72 9.6C100.389 9.408 100.021 9.312 99.6159 9.312C99.1999 9.312 98.8266 9.408 98.4959 9.6C98.1653 9.792 97.8986 10.064 97.6959 10.416C97.5039 10.768 97.4079 11.1947 97.4079 11.696C97.4079 12.1867 97.5039 12.6133 97.6959 12.976C97.8986 13.328 98.1653 13.6 98.4959 13.792C98.8266 13.984 99.1999 14.08 99.6159 14.08ZM101.872 16V14.24L101.92 11.68L101.76 9.136V4.128H104.256V16H101.872ZM110.198 16.128C109.483 16.128 108.843 15.9893 108.278 15.712C107.723 15.4347 107.291 15.0133 106.982 14.448C106.673 13.872 106.518 13.1413 106.518 12.256V7.392H109.014V11.888C109.014 12.6027 109.163 13.1307 109.462 13.472C109.771 13.8027 110.203 13.968 110.758 13.968C111.142 13.968 111.483 13.888 111.782 13.728C112.081 13.5573 112.315 13.3013 112.486 12.96C112.657 12.608 112.742 12.1707 112.742 11.648V7.392H115.238V16H112.87V13.632L113.302 14.32C113.014 14.9173 112.587 15.3707 112.022 15.68C111.467 15.9787 110.859 16.128 110.198 16.128ZM119.614 14.24L119.678 11.2L123.694 7.392H126.67L122.814 11.312L121.518 12.368L119.614 14.24ZM117.55 16V4.128H120.046V16H117.55ZM123.966 16L121.054 12.384L122.622 10.448L126.99 16H123.966ZM130.728 16.128C129.992 16.128 129.282 16.0427 128.6 15.872C127.928 15.6907 127.394 15.4667 127 15.2L127.832 13.408C128.226 13.6533 128.69 13.856 129.224 14.016C129.768 14.1653 130.301 14.24 130.824 14.24C131.4 14.24 131.805 14.1707 132.04 14.032C132.285 13.8933 132.408 13.7013 132.408 13.456C132.408 13.2533 132.312 13.104 132.12 13.008C131.938 12.9013 131.693 12.8213 131.384 12.768C131.074 12.7147 130.733 12.6613 130.36 12.608C129.997 12.5547 129.629 12.4853 129.256 12.4C128.882 12.304 128.541 12.1653 128.232 11.984C127.922 11.8027 127.672 11.5573 127.48 11.248C127.298 10.9387 127.208 10.5387 127.208 10.048C127.208 9.504 127.362 9.024 127.672 8.608C127.992 8.192 128.45 7.86667 129.048 7.632C129.645 7.38667 130.36 7.264 131.192 7.264C131.778 7.264 132.376 7.328 132.984 7.456C133.592 7.584 134.098 7.77067 134.504 8.016L133.672 9.792C133.256 9.54667 132.834 9.38133 132.408 9.296C131.992 9.2 131.586 9.152 131.192 9.152C130.637 9.152 130.232 9.22667 129.976 9.376C129.72 9.52533 129.592 9.71733 129.592 9.952C129.592 10.1653 129.682 10.3253 129.864 10.432C130.056 10.5387 130.306 10.624 130.616 10.688C130.925 10.752 131.261 10.8107 131.624 10.864C131.997 10.9067 132.37 10.976 132.744 11.072C133.117 11.168 133.453 11.3067 133.752 11.488C134.061 11.6587 134.312 11.8987 134.504 12.208C134.696 12.5067 134.792 12.9013 134.792 13.392C134.792 13.9253 134.632 14.4 134.312 14.816C133.992 15.2213 133.528 15.5413 132.92 15.776C132.322 16.0107 131.592 16.128 130.728 16.128ZM136.332 16V7.392H138.828V16H136.332ZM137.58 6.192C137.121 6.192 136.748 6.05867 136.46 5.792C136.172 5.52533 136.028 5.19467 136.028 4.8C136.028 4.40533 136.172 4.07467 136.46 3.808C136.748 3.54133 137.121 3.408 137.58 3.408C138.038 3.408 138.412 3.536 138.7 3.792C138.988 4.03733 139.132 4.35733 139.132 4.752C139.132 5.168 138.988 5.51467 138.7 5.792C138.422 6.05867 138.049 6.192 137.58 6.192Z" fill="#171A23"/>
<path d="M18.5472 169V157.8H22.9152C23.8965 157.8 24.7339 157.955 25.4272 158.264C26.1205 158.573 26.6539 159.021 27.0272 159.608C27.4005 160.195 27.5872 160.893 27.5872 161.704C27.5872 162.515 27.4005 163.213 27.0272 163.8C26.6539 164.376 26.1205 164.824 25.4272 165.144C24.7339 165.453 23.8965 165.608 22.9152 165.608H19.4272L20.1472 164.856V169H18.5472ZM20.1472 165.016L19.4272 164.216H22.8672C23.8912 164.216 24.6645 163.997 25.1872 163.56C25.7205 163.123 25.9872 162.504 25.9872 161.704C25.9872 160.904 25.7205 160.285 25.1872 159.848C24.6645 159.411 23.8912 159.192 22.8672 159.192H19.4272L20.1472 158.392V165.016ZM33.4586 169.096C32.5519 169.096 31.7519 168.909 31.0586 168.536C30.3759 168.163 29.8426 167.651 29.4586 167C29.0852 166.349 28.8986 165.603 28.8986 164.76C28.8986 163.917 29.0799 163.171 29.4426 162.52C29.8159 161.869 30.3226 161.363 30.9626 161C31.6132 160.627 32.3439 160.44 33.1546 160.44C33.9759 160.44 34.7012 160.621 35.3306 160.984C35.9599 161.347 36.4506 161.859 36.8026 162.52C37.1652 163.171 37.3466 163.933 37.3466 164.808C37.3466 164.872 37.3412 164.947 37.3306 165.032C37.3306 165.117 37.3252 165.197 37.3146 165.272H30.0986V164.168H36.5146L35.8906 164.552C35.9012 164.008 35.7892 163.523 35.5546 163.096C35.3199 162.669 34.9946 162.339 34.5786 162.104C34.1732 161.859 33.6986 161.736 33.1546 161.736C32.6212 161.736 32.1466 161.859 31.7306 162.104C31.3146 162.339 30.9892 162.675 30.7546 163.112C30.5199 163.539 30.4026 164.029 30.4026 164.584V164.84C30.4026 165.405 30.5306 165.912 30.7866 166.36C31.0532 166.797 31.4212 167.139 31.8906 167.384C32.3599 167.629 32.8986 167.752 33.5066 167.752C34.0079 167.752 34.4612 167.667 34.8666 167.496C35.2826 167.325 35.6452 167.069 35.9546 166.728L36.8026 167.72C36.4186 168.168 35.9386 168.509 35.3626 168.744C34.7972 168.979 34.1626 169.096 33.4586 169.096ZM41.9114 169.096C41.2074 169.096 40.5354 169 39.8954 168.808C39.2661 168.616 38.7701 168.381 38.4074 168.104L39.0474 166.888C39.4101 167.133 39.8581 167.341 40.3914 167.512C40.9248 167.683 41.4688 167.768 42.0234 167.768C42.7381 167.768 43.2501 167.667 43.5594 167.464C43.8794 167.261 44.0394 166.979 44.0394 166.616C44.0394 166.349 43.9434 166.141 43.7514 165.992C43.5594 165.843 43.3034 165.731 42.9834 165.656C42.6741 165.581 42.3274 165.517 41.9434 165.464C41.5594 165.4 41.1754 165.325 40.7914 165.24C40.4074 165.144 40.0554 165.016 39.7354 164.856C39.4154 164.685 39.1594 164.456 38.9674 164.168C38.7754 163.869 38.6794 163.475 38.6794 162.984C38.6794 162.472 38.8234 162.024 39.1114 161.64C39.3994 161.256 39.8048 160.963 40.3274 160.76C40.8608 160.547 41.4901 160.44 42.2154 160.44C42.7701 160.44 43.3301 160.509 43.8954 160.648C44.4714 160.776 44.9408 160.963 45.3034 161.208L44.6474 162.424C44.2634 162.168 43.8634 161.992 43.4474 161.896C43.0314 161.8 42.6154 161.752 42.1994 161.752C41.5274 161.752 41.0261 161.864 40.6954 162.088C40.3648 162.301 40.1994 162.579 40.1994 162.92C40.1994 163.208 40.2954 163.432 40.4874 163.592C40.6901 163.741 40.9461 163.859 41.2554 163.944C41.5754 164.029 41.9274 164.104 42.3114 164.168C42.6954 164.221 43.0794 164.296 43.4634 164.392C43.8474 164.477 44.1941 164.6 44.5034 164.76C44.8234 164.92 45.0794 165.144 45.2714 165.432C45.4741 165.72 45.5754 166.104 45.5754 166.584C45.5754 167.096 45.4261 167.539 45.1274 167.912C44.8288 168.285 44.4074 168.579 43.8634 168.792C43.3194 168.995 42.6688 169.096 41.9114 169.096ZM52.7591 169V167.208L52.6791 166.872V163.816C52.6791 163.165 52.4871 162.664 52.1031 162.312C51.7297 161.949 51.1644 161.768 50.4071 161.768C49.9057 161.768 49.4151 161.853 48.9351 162.024C48.4551 162.184 48.0497 162.403 47.7191 162.68L47.0791 161.528C47.5164 161.176 48.0391 160.909 48.6471 160.728C49.2657 160.536 49.9111 160.44 50.5831 160.44C51.7457 160.44 52.6417 160.723 53.2711 161.288C53.9004 161.853 54.2151 162.717 54.2151 163.88V169H52.7591ZM49.9751 169.096C49.3457 169.096 48.7911 168.989 48.3111 168.776C47.8417 168.563 47.4791 168.269 47.2231 167.896C46.9671 167.512 46.8391 167.08 46.8391 166.6C46.8391 166.141 46.9457 165.725 47.1591 165.352C47.3831 164.979 47.7404 164.68 48.2311 164.456C48.7324 164.232 49.4044 164.12 50.2471 164.12H52.9351V165.224H50.3111C49.5431 165.224 49.0257 165.352 48.7591 165.608C48.4924 165.864 48.3591 166.173 48.3591 166.536C48.3591 166.952 48.5244 167.288 48.8551 167.544C49.1857 167.789 49.6444 167.912 50.2311 167.912C50.8071 167.912 51.3084 167.784 51.7351 167.528C52.1724 167.272 52.4871 166.899 52.6791 166.408L52.9831 167.464C52.7804 167.965 52.4231 168.365 51.9111 168.664C51.3991 168.952 50.7537 169.096 49.9751 169.096ZM61.5856 160.44C62.2789 160.44 62.8869 160.573 63.4096 160.84C63.9429 161.107 64.3589 161.512 64.6576 162.056C64.9562 162.6 65.1056 163.288 65.1056 164.12V169H63.5696V164.296C63.5696 163.475 63.3669 162.856 62.9616 162.44C62.5669 162.024 62.0069 161.816 61.2816 161.816C60.7376 161.816 60.2629 161.923 59.8576 162.136C59.4522 162.349 59.1376 162.664 58.9136 163.08C58.7002 163.496 58.5936 164.013 58.5936 164.632V169H57.0576V160.52H58.5296V162.808L58.2896 162.2C58.5669 161.645 58.9936 161.213 59.5696 160.904C60.1456 160.595 60.8176 160.44 61.5856 160.44ZM73.2122 169V167.208L73.1322 166.872V163.816C73.1322 163.165 72.9402 162.664 72.5562 162.312C72.1829 161.949 71.6175 161.768 70.8602 161.768C70.3589 161.768 69.8682 161.853 69.3882 162.024C68.9082 162.184 68.5029 162.403 68.1722 162.68L67.5322 161.528C67.9695 161.176 68.4922 160.909 69.1002 160.728C69.7189 160.536 70.3642 160.44 71.0362 160.44C72.1989 160.44 73.0949 160.723 73.7242 161.288C74.3535 161.853 74.6682 162.717 74.6682 163.88V169H73.2122ZM70.4282 169.096C69.7989 169.096 69.2442 168.989 68.7642 168.776C68.2949 168.563 67.9322 168.269 67.6762 167.896C67.4202 167.512 67.2922 167.08 67.2922 166.6C67.2922 166.141 67.3989 165.725 67.6122 165.352C67.8362 164.979 68.1935 164.68 68.6842 164.456C69.1855 164.232 69.8575 164.12 70.7002 164.12H73.3882V165.224H70.7642C69.9962 165.224 69.4789 165.352 69.2122 165.608C68.9455 165.864 68.8122 166.173 68.8122 166.536C68.8122 166.952 68.9775 167.288 69.3082 167.544C69.6389 167.789 70.0975 167.912 70.6842 167.912C71.2602 167.912 71.7615 167.784 72.1882 167.528C72.6255 167.272 72.9402 166.899 73.1322 166.408L73.4362 167.464C73.2335 167.965 72.8762 168.365 72.3642 168.664C71.8522 168.952 71.2069 169.096 70.4282 169.096ZM82.0387 160.44C82.732 160.44 83.34 160.573 83.8627 160.84C84.396 161.107 84.812 161.512 85.1107 162.056C85.4094 162.6 85.5587 163.288 85.5587 164.12V169H84.0227V164.296C84.0227 163.475 83.82 162.856 83.4147 162.44C83.02 162.024 82.46 161.816 81.7347 161.816C81.1907 161.816 80.716 161.923 80.3107 162.136C79.9054 162.349 79.5907 162.664 79.3667 163.08C79.1534 163.496 79.0467 164.013 79.0467 164.632V169H77.5107V160.52H78.9827V162.808L78.7427 162.2C79.02 161.645 79.4467 161.213 80.0227 160.904C80.5987 160.595 81.2707 160.44 82.0387 160.44ZM95.1302 169.096C94.4262 169.096 93.7542 169 93.1142 168.808C92.4849 168.616 91.9889 168.381 91.6262 168.104L92.2662 166.888C92.6289 167.133 93.0769 167.341 93.6102 167.512C94.1435 167.683 94.6875 167.768 95.2422 167.768C95.9569 167.768 96.4689 167.667 96.7782 167.464C97.0982 167.261 97.2582 166.979 97.2582 166.616C97.2582 166.349 97.1622 166.141 96.9702 165.992C96.7782 165.843 96.5222 165.731 96.2022 165.656C95.8929 165.581 95.5462 165.517 95.1622 165.464C94.7782 165.4 94.3942 165.325 94.0102 165.24C93.6262 165.144 93.2742 165.016 92.9542 164.856C92.6342 164.685 92.3782 164.456 92.1862 164.168C91.9942 163.869 91.8982 163.475 91.8982 162.984C91.8982 162.472 92.0422 162.024 92.3302 161.64C92.6182 161.256 93.0235 160.963 93.5462 160.76C94.0795 160.547 94.7089 160.44 95.4342 160.44C95.9889 160.44 96.5489 160.509 97.1142 160.648C97.6902 160.776 98.1595 160.963 98.5222 161.208L97.8662 162.424C97.4822 162.168 97.0822 161.992 96.6662 161.896C96.2502 161.8 95.8342 161.752 95.4182 161.752C94.7462 161.752 94.2449 161.864 93.9142 162.088C93.5835 162.301 93.4182 162.579 93.4182 162.92C93.4182 163.208 93.5142 163.432 93.7062 163.592C93.9089 163.741 94.1649 163.859 94.4742 163.944C94.7942 164.029 95.1462 164.104 95.5302 164.168C95.9142 164.221 96.2982 164.296 96.6822 164.392C97.0662 164.477 97.4129 164.6 97.7222 164.76C98.0422 164.92 98.2982 165.144 98.4902 165.432C98.6929 165.72 98.7942 166.104 98.7942 166.584C98.7942 167.096 98.6449 167.539 98.3462 167.912C98.0475 168.285 97.6262 168.579 97.0822 168.792C96.5382 168.995 95.8875 169.096 95.1302 169.096ZM104.49 169.096C103.583 169.096 102.783 168.909 102.09 168.536C101.407 168.163 100.874 167.651 100.49 167C100.116 166.349 99.9298 165.603 99.9298 164.76C99.9298 163.917 100.111 163.171 100.474 162.52C100.847 161.869 101.354 161.363 101.994 161C102.644 160.627 103.375 160.44 104.186 160.44C105.007 160.44 105.732 160.621 106.362 160.984C106.991 161.347 107.482 161.859 107.834 162.52C108.196 163.171 108.378 163.933 108.378 164.808C108.378 164.872 108.372 164.947 108.362 165.032C108.362 165.117 108.356 165.197 108.346 165.272H101.13V164.168H107.546L106.922 164.552C106.932 164.008 106.82 163.523 106.586 163.096C106.351 162.669 106.026 162.339 105.61 162.104C105.204 161.859 104.73 161.736 104.186 161.736C103.652 161.736 103.178 161.859 102.762 162.104C102.346 162.339 102.02 162.675 101.786 163.112C101.551 163.539 101.434 164.029 101.434 164.584V164.84C101.434 165.405 101.562 165.912 101.818 166.36C102.084 166.797 102.452 167.139 102.922 167.384C103.391 167.629 103.93 167.752 104.538 167.752C105.039 167.752 105.492 167.667 105.898 167.496C106.314 167.325 106.676 167.069 106.986 166.728L107.834 167.72C107.45 168.168 106.97 168.509 106.394 168.744C105.828 168.979 105.194 169.096 104.49 169.096ZM114.015 169.096C113.193 169.096 112.457 168.915 111.807 168.552C111.167 168.189 110.66 167.683 110.287 167.032C109.913 166.381 109.727 165.624 109.727 164.76C109.727 163.896 109.913 163.144 110.287 162.504C110.66 161.853 111.167 161.347 111.807 160.984C112.457 160.621 113.193 160.44 114.015 160.44C114.729 160.44 115.375 160.6 115.951 160.92C116.527 161.24 116.985 161.72 117.327 162.36C117.679 163 117.855 163.8 117.855 164.76C117.855 165.72 117.684 166.52 117.343 167.16C117.012 167.8 116.559 168.285 115.983 168.616C115.407 168.936 114.751 169.096 114.015 169.096ZM114.143 167.752C114.676 167.752 115.156 167.629 115.583 167.384C116.02 167.139 116.361 166.792 116.607 166.344C116.863 165.885 116.991 165.357 116.991 164.76C116.991 164.152 116.863 163.629 116.607 163.192C116.361 162.744 116.02 162.397 115.583 162.152C115.156 161.907 114.676 161.784 114.143 161.784C113.599 161.784 113.113 161.907 112.687 162.152C112.26 162.397 111.919 162.744 111.663 163.192C111.407 163.629 111.279 164.152 111.279 164.76C111.279 165.357 111.407 165.885 111.663 166.344C111.919 166.792 112.26 167.139 112.687 167.384C113.113 167.629 113.599 167.752 114.143 167.752ZM117.039 169V166.712L117.135 164.744L116.975 162.776V157.128H118.511V169H117.039ZM126.681 169V167.208L126.601 166.872V163.816C126.601 163.165 126.409 162.664 126.025 162.312C125.652 161.949 125.086 161.768 124.329 161.768C123.828 161.768 123.337 161.853 122.857 162.024C122.377 162.184 121.972 162.403 121.641 162.68L121.001 161.528C121.438 161.176 121.961 160.909 122.569 160.728C123.188 160.536 123.833 160.44 124.505 160.44C125.668 160.44 126.564 160.723 127.193 161.288C127.822 161.853 128.137 162.717 128.137 163.88V169H126.681ZM123.897 169.096C123.268 169.096 122.713 168.989 122.233 168.776C121.764 168.563 121.401 168.269 121.145 167.896C120.889 167.512 120.761 167.08 120.761 166.6C120.761 166.141 120.868 165.725 121.081 165.352C121.305 164.979 121.662 164.68 122.153 164.456C122.654 164.232 123.326 164.12 124.169 164.12H126.857V165.224H124.233C123.465 165.224 122.948 165.352 122.681 165.608C122.414 165.864 122.281 166.173 122.281 166.536C122.281 166.952 122.446 167.288 122.777 167.544C123.108 167.789 123.566 167.912 124.153 167.912C124.729 167.912 125.23 167.784 125.657 167.528C126.094 167.272 126.409 166.899 126.601 166.408L126.905 167.464C126.702 167.965 126.345 168.365 125.833 168.664C125.321 168.952 124.676 169.096 123.897 169.096ZM135.507 160.44C136.201 160.44 136.809 160.573 137.331 160.84C137.865 161.107 138.281 161.512 138.579 162.056C138.878 162.6 139.027 163.288 139.027 164.12V169H137.491V164.296C137.491 163.475 137.289 162.856 136.883 162.44C136.489 162.024 135.929 161.816 135.203 161.816C134.659 161.816 134.185 161.923 133.779 162.136C133.374 162.349 133.059 162.664 132.835 163.08C132.622 163.496 132.515 164.013 132.515 164.632V169H130.979V160.52H132.451V162.808L132.211 162.2C132.489 161.645 132.915 161.213 133.491 160.904C134.067 160.595 134.739 160.44 135.507 160.44ZM145.582 172.2C144.803 172.2 144.046 172.088 143.31 171.864C142.585 171.651 141.993 171.341 141.534 170.936L142.27 169.752C142.665 170.093 143.15 170.36 143.726 170.552C144.302 170.755 144.905 170.856 145.534 170.856C146.537 170.856 147.273 170.621 147.742 170.152C148.211 169.683 148.446 168.968 148.446 168.008V166.216L148.606 164.536L148.526 162.84V160.52H149.982V167.848C149.982 169.341 149.609 170.44 148.862 171.144C148.115 171.848 147.022 172.2 145.582 172.2ZM145.39 168.648C144.569 168.648 143.833 168.477 143.182 168.136C142.542 167.784 142.03 167.299 141.646 166.68C141.273 166.061 141.086 165.347 141.086 164.536C141.086 163.715 141.273 163 141.646 162.392C142.03 161.773 142.542 161.293 143.182 160.952C143.833 160.611 144.569 160.44 145.39 160.44C146.115 160.44 146.777 160.589 147.374 160.888C147.971 161.176 148.446 161.624 148.798 162.232C149.161 162.84 149.342 163.608 149.342 164.536C149.342 165.453 149.161 166.216 148.798 166.824C148.446 167.432 147.971 167.891 147.374 168.2C146.777 168.499 146.115 168.648 145.39 168.648ZM145.566 167.304C146.131 167.304 146.633 167.187 147.07 166.952C147.507 166.717 147.849 166.392 148.094 165.976C148.35 165.56 148.478 165.08 148.478 164.536C148.478 163.992 148.35 163.512 148.094 163.096C147.849 162.68 147.507 162.36 147.07 162.136C146.633 161.901 146.131 161.784 145.566 161.784C145.001 161.784 144.494 161.901 144.046 162.136C143.609 162.36 143.262 162.68 143.006 163.096C142.761 163.512 142.638 163.992 142.638 164.536C142.638 165.08 142.761 165.56 143.006 165.976C143.262 166.392 143.609 166.717 144.046 166.952C144.494 167.187 145.001 167.304 145.566 167.304ZM160.718 169.096C159.896 169.096 159.16 168.915 158.51 168.552C157.87 168.189 157.363 167.683 156.99 167.032C156.616 166.381 156.43 165.624 156.43 164.76C156.43 163.896 156.616 163.144 156.99 162.504C157.363 161.853 157.87 161.347 158.51 160.984C159.16 160.621 159.896 160.44 160.718 160.44C161.432 160.44 162.078 160.6 162.654 160.92C163.23 161.24 163.688 161.72 164.03 162.36C164.382 163 164.558 163.8 164.558 164.76C164.558 165.72 164.387 166.52 164.046 167.16C163.715 167.8 163.262 168.285 162.686 168.616C162.11 168.936 161.454 169.096 160.718 169.096ZM160.846 167.752C161.379 167.752 161.859 167.629 162.286 167.384C162.723 167.139 163.064 166.792 163.31 166.344C163.566 165.885 163.694 165.357 163.694 164.76C163.694 164.152 163.566 163.629 163.31 163.192C163.064 162.744 162.723 162.397 162.286 162.152C161.859 161.907 161.379 161.784 160.846 161.784C160.302 161.784 159.816 161.907 159.39 162.152C158.963 162.397 158.622 162.744 158.366 163.192C158.11 163.629 157.982 164.152 157.982 164.76C157.982 165.357 158.11 165.885 158.366 166.344C158.622 166.792 158.963 167.139 159.39 167.384C159.816 167.629 160.302 167.752 160.846 167.752ZM163.742 169V166.712L163.838 164.744L163.678 162.776V157.128H165.214V169H163.742ZM168.12 169V160.52H169.656V169H168.12ZM168.888 158.888C168.589 158.888 168.339 158.792 168.136 158.6C167.944 158.408 167.848 158.173 167.848 157.896C167.848 157.608 167.944 157.368 168.136 157.176C168.339 156.984 168.589 156.888 168.888 156.888C169.187 156.888 169.432 156.984 169.624 157.176C169.827 157.357 169.928 157.587 169.928 157.864C169.928 158.152 169.832 158.397 169.64 158.6C169.448 158.792 169.197 158.888 168.888 158.888ZM64.327 189.096C63.623 189.096 62.9777 188.936 62.391 188.616C61.815 188.285 61.351 187.8 60.999 187.16C60.6577 186.52 60.487 185.72 60.487 184.76C60.487 183.8 60.6523 183 60.983 182.36C61.3243 181.72 61.783 181.24 62.359 180.92C62.9457 180.6 63.6017 180.44 64.327 180.44C65.159 180.44 65.895 180.621 66.535 180.984C67.175 181.347 67.6817 181.853 68.055 182.504C68.4283 183.144 68.615 183.896 68.615 184.76C68.615 185.624 68.4283 186.381 68.055 187.032C67.6817 187.683 67.175 188.189 66.535 188.552C65.895 188.915 65.159 189.096 64.327 189.096ZM59.831 192.104V180.52H61.303V182.808L61.207 184.776L61.367 186.744V192.104H59.831ZM64.199 187.752C64.743 187.752 65.2283 187.629 65.655 187.384C66.0923 187.139 66.4337 186.792 66.679 186.344C66.935 185.885 67.063 185.357 67.063 184.76C67.063 184.152 66.935 183.629 66.679 183.192C66.4337 182.744 66.0923 182.397 65.655 182.152C65.2283 181.907 64.743 181.784 64.199 181.784C63.6657 181.784 63.1803 181.907 62.743 182.152C62.3163 182.397 61.975 182.744 61.719 183.192C61.4737 183.629 61.351 184.152 61.351 184.76C61.351 185.357 61.4737 185.885 61.719 186.344C61.975 186.792 62.3163 187.139 62.743 187.384C63.1803 187.629 63.6657 187.752 64.199 187.752ZM70.7373 189V180.52H72.2093V182.824L72.0653 182.248C72.2999 181.661 72.6946 181.213 73.2493 180.904C73.8039 180.595 74.4866 180.44 75.2973 180.44V181.928C75.2333 181.917 75.1693 181.912 75.1053 181.912C75.0519 181.912 74.9986 181.912 74.9453 181.912C74.1239 181.912 73.4733 182.157 72.9933 182.648C72.5133 183.139 72.2733 183.848 72.2733 184.776V189H70.7373ZM80.7443 189.096C79.8909 189.096 79.1336 188.909 78.4723 188.536C77.8109 188.163 77.2883 187.651 76.9043 187C76.5203 186.339 76.3283 185.592 76.3283 184.76C76.3283 183.917 76.5203 183.171 76.9043 182.52C77.2883 181.869 77.8109 181.363 78.4723 181C79.1336 180.627 79.8909 180.44 80.7443 180.44C81.5869 180.44 82.3389 180.627 83.0003 181C83.6723 181.363 84.1949 181.869 84.5683 182.52C84.9523 183.16 85.1443 183.907 85.1443 184.76C85.1443 185.603 84.9523 186.349 84.5683 187C84.1949 187.651 83.6723 188.163 83.0003 188.536C82.3389 188.909 81.5869 189.096 80.7443 189.096ZM80.7443 187.752C81.2883 187.752 81.7736 187.629 82.2003 187.384C82.6376 187.139 82.9789 186.792 83.2243 186.344C83.4696 185.885 83.5923 185.357 83.5923 184.76C83.5923 184.152 83.4696 183.629 83.2243 183.192C82.9789 182.744 82.6376 182.397 82.2003 182.152C81.7736 181.907 81.2883 181.784 80.7443 181.784C80.2003 181.784 79.7149 181.907 79.2883 182.152C78.8616 182.397 78.5203 182.744 78.2643 183.192C78.0083 183.629 77.8803 184.152 77.8803 184.76C77.8803 185.357 78.0083 185.885 78.2643 186.344C78.5203 186.792 78.8616 187.139 79.2883 187.384C79.7149 187.629 80.2003 187.752 80.7443 187.752ZM90.7725 189.096C89.9512 189.096 89.2152 188.915 88.5645 188.552C87.9245 188.189 87.4178 187.683 87.0445 187.032C86.6712 186.381 86.4845 185.624 86.4845 184.76C86.4845 183.896 86.6712 183.144 87.0445 182.504C87.4178 181.853 87.9245 181.347 88.5645 180.984C89.2152 180.621 89.9512 180.44 90.7725 180.44C91.4872 180.44 92.1325 180.6 92.7085 180.92C93.2845 181.24 93.7432 181.72 94.0845 182.36C94.4365 183 94.6125 183.8 94.6125 184.76C94.6125 185.72 94.4418 186.52 94.1005 187.16C93.7698 187.8 93.3165 188.285 92.7405 188.616C92.1645 188.936 91.5085 189.096 90.7725 189.096ZM90.9005 187.752C91.4338 187.752 91.9138 187.629 92.3405 187.384C92.7778 187.139 93.1192 186.792 93.3645 186.344C93.6205 185.885 93.7485 185.357 93.7485 184.76C93.7485 184.152 93.6205 183.629 93.3645 183.192C93.1192 182.744 92.7778 182.397 92.3405 182.152C91.9138 181.907 91.4338 181.784 90.9005 181.784C90.3565 181.784 89.8712 181.907 89.4445 182.152C89.0178 182.397 88.6765 182.744 88.4205 183.192C88.1645 183.629 88.0365 184.152 88.0365 184.76C88.0365 185.357 88.1645 185.885 88.4205 186.344C88.6765 186.792 89.0178 187.139 89.4445 187.384C89.8712 187.629 90.3565 187.752 90.9005 187.752ZM93.7965 189V186.712L93.8925 184.744L93.7325 182.776V177.128H95.2685V189H93.7965ZM101.743 189.096C101.017 189.096 100.377 188.963 99.8228 188.696C99.2788 188.429 98.8521 188.024 98.5428 187.48C98.2441 186.925 98.0948 186.232 98.0948 185.4V180.52H99.6308V185.224C99.6308 186.056 99.8281 186.68 100.223 187.096C100.628 187.512 101.193 187.72 101.919 187.72C102.452 187.72 102.916 187.613 103.311 187.4C103.705 187.176 104.009 186.856 104.223 186.44C104.436 186.013 104.543 185.501 104.543 184.904V180.52H106.079V189H104.623V186.712L104.863 187.32C104.585 187.885 104.169 188.323 103.615 188.632C103.06 188.941 102.436 189.096 101.743 189.096ZM110.251 186.952L110.283 184.984L115.163 180.52H117.019L113.275 184.2L112.443 184.904L110.251 186.952ZM109.003 189V177.128H110.539V189H109.003ZM115.483 189L112.155 184.872L113.147 183.64L117.371 189H115.483ZM121.029 189.096C120.325 189.096 119.653 189 119.013 188.808C118.383 188.616 117.887 188.381 117.525 188.104L118.165 186.888C118.527 187.133 118.975 187.341 119.509 187.512C120.042 187.683 120.586 187.768 121.141 187.768C121.855 187.768 122.367 187.667 122.677 187.464C122.997 187.261 123.157 186.979 123.157 186.616C123.157 186.349 123.061 186.141 122.869 185.992C122.677 185.843 122.421 185.731 122.101 185.656C121.791 185.581 121.445 185.517 121.061 185.464C120.677 185.4 120.293 185.325 119.909 185.24C119.525 185.144 119.173 185.016 118.853 184.856C118.533 184.685 118.277 184.456 118.085 184.168C117.893 183.869 117.797 183.475 117.797 182.984C117.797 182.472 117.941 182.024 118.229 181.64C118.517 181.256 118.922 180.963 119.445 180.76C119.978 180.547 120.607 180.44 121.333 180.44C121.887 180.44 122.447 180.509 123.013 180.648C123.589 180.776 124.058 180.963 124.421 181.208L123.765 182.424C123.381 182.168 122.981 181.992 122.565 181.896C122.149 181.8 121.733 181.752 121.317 181.752C120.645 181.752 120.143 181.864 119.813 182.088C119.482 182.301 119.317 182.579 119.317 182.92C119.317 183.208 119.413 183.432 119.605 183.592C119.807 183.741 120.063 183.859 120.373 183.944C120.693 184.029 121.045 184.104 121.429 184.168C121.813 184.221 122.197 184.296 122.581 184.392C122.965 184.477 123.311 184.6 123.621 184.76C123.941 184.92 124.197 185.144 124.389 185.432C124.591 185.72 124.693 186.104 124.693 186.584C124.693 187.096 124.543 187.539 124.245 187.912C123.946 188.285 123.525 188.579 122.981 188.792C122.437 188.995 121.786 189.096 121.029 189.096ZM126.612 189V180.52H128.148V189H126.612ZM127.38 178.888C127.082 178.888 126.831 178.792 126.628 178.6C126.436 178.408 126.34 178.173 126.34 177.896C126.34 177.608 126.436 177.368 126.628 177.176C126.831 176.984 127.082 176.888 127.38 176.888C127.679 176.888 127.924 176.984 128.116 177.176C128.319 177.357 128.42 177.587 128.42 177.864C128.42 178.152 128.324 178.397 128.132 178.6C127.94 178.792 127.69 178.888 127.38 178.888Z" fill="#171A23"/>
<path d="M273.406 16V4.8H278.494C279.71 4.8 280.782 5.03467 281.71 5.504C282.638 5.96267 283.363 6.608 283.886 7.44C284.409 8.272 284.67 9.25867 284.67 10.4C284.67 11.5307 284.409 12.5173 283.886 13.36C283.363 14.192 282.638 14.8427 281.71 15.312C280.782 15.7707 279.71 16 278.494 16H273.406ZM275.998 13.872H278.366C279.113 13.872 279.758 13.7333 280.302 13.456C280.857 13.168 281.283 12.7627 281.582 12.24C281.891 11.7173 282.046 11.104 282.046 10.4C282.046 9.68533 281.891 9.072 281.582 8.56C281.283 8.03733 280.857 7.63733 280.302 7.36C279.758 7.072 279.113 6.928 278.366 6.928H275.998V13.872ZM286.449 16V7.392H288.945V16H286.449ZM287.697 6.192C287.238 6.192 286.865 6.05867 286.577 5.792C286.289 5.52533 286.145 5.19467 286.145 4.8C286.145 4.40533 286.289 4.07467 286.577 3.808C286.865 3.54133 287.238 3.408 287.697 3.408C288.156 3.408 288.529 3.536 288.817 3.792C289.105 4.03733 289.249 4.35733 289.249 4.752C289.249 5.168 289.105 5.51467 288.817 5.792C288.54 6.05867 288.166 6.192 287.697 6.192ZM293.325 14.24L293.389 11.2L297.405 7.392H300.381L296.525 11.312L295.229 12.368L293.325 14.24ZM291.261 16V4.128H293.757V16H291.261ZM297.677 16L294.765 12.384L296.333 10.448L300.701 16H297.677ZM301.824 16V7.392H304.32V16H301.824ZM303.072 6.192C302.613 6.192 302.24 6.05867 301.952 5.792C301.664 5.52533 301.52 5.19467 301.52 4.8C301.52 4.40533 301.664 4.07467 301.952 3.808C302.24 3.54133 302.613 3.408 303.072 3.408C303.531 3.408 303.904 3.536 304.192 3.792C304.48 4.03733 304.624 4.35733 304.624 4.752C304.624 5.168 304.48 5.51467 304.192 5.792C303.915 6.05867 303.541 6.192 303.072 6.192ZM306.636 16V7.392H309.02V9.824L308.684 9.12C308.94 8.512 309.351 8.05333 309.916 7.744C310.482 7.424 311.17 7.264 311.98 7.264V9.568C311.874 9.55733 311.778 9.552 311.692 9.552C311.607 9.54133 311.516 9.536 311.42 9.536C310.738 9.536 310.183 9.73333 309.756 10.128C309.34 10.512 309.132 11.1147 309.132 11.936V16H306.636ZM313.48 16V7.392H315.976V16H313.48ZM314.728 6.192C314.269 6.192 313.896 6.05867 313.608 5.792C313.32 5.52533 313.176 5.19467 313.176 4.8C313.176 4.40533 313.32 4.07467 313.608 3.808C313.896 3.54133 314.269 3.408 314.728 3.408C315.187 3.408 315.56 3.536 315.848 3.792C316.136 4.03733 316.28 4.35733 316.28 4.752C316.28 5.168 316.136 5.51467 315.848 5.792C315.571 6.05867 315.197 6.192 314.728 6.192ZM329.317 7.264C329.999 7.264 330.602 7.40267 331.125 7.68C331.658 7.94667 332.074 8.36267 332.373 8.928C332.682 9.48267 332.837 10.1973 332.837 11.072V16H330.341V11.456C330.341 10.7627 330.197 10.2507 329.909 9.92C329.621 9.58933 329.215 9.424 328.693 9.424C328.33 9.424 328.005 9.50933 327.717 9.68C327.429 9.84 327.205 10.0853 327.045 10.416C326.885 10.7467 326.805 11.168 326.805 11.68V16H324.309V11.456C324.309 10.7627 324.165 10.2507 323.877 9.92C323.599 9.58933 323.199 9.424 322.677 9.424C322.314 9.424 321.989 9.50933 321.701 9.68C321.413 9.84 321.189 10.0853 321.029 10.416C320.869 10.7467 320.789 11.168 320.789 11.68V16H318.293V7.392H320.677V9.744L320.229 9.056C320.527 8.46933 320.949 8.02667 321.493 7.728C322.047 7.41867 322.677 7.264 323.381 7.264C324.17 7.264 324.858 7.46667 325.445 7.872C326.042 8.26667 326.437 8.87467 326.629 9.696L325.749 9.456C326.037 8.784 326.495 8.25067 327.125 7.856C327.765 7.46133 328.495 7.264 329.317 7.264Z" fill="#171A23"/>
<path d="M237.383 169V157.8H241.751C242.732 157.8 243.57 157.955 244.263 158.264C244.956 158.573 245.49 159.021 245.863 159.608C246.236 160.195 246.423 160.893 246.423 161.704C246.423 162.515 246.236 163.213 245.863 163.8C245.49 164.376 244.956 164.824 244.263 165.144C243.57 165.453 242.732 165.608 241.751 165.608H238.263L238.983 164.856V169H237.383ZM238.983 165.016L238.263 164.216H241.703C242.727 164.216 243.5 163.997 244.023 163.56C244.556 163.123 244.823 162.504 244.823 161.704C244.823 160.904 244.556 160.285 244.023 159.848C243.5 159.411 242.727 159.192 241.703 159.192H238.263L238.983 158.392V165.016ZM252.295 169.096C251.388 169.096 250.588 168.909 249.895 168.536C249.212 168.163 248.679 167.651 248.295 167C247.921 166.349 247.735 165.603 247.735 164.76C247.735 163.917 247.916 163.171 248.279 162.52C248.652 161.869 249.159 161.363 249.799 161C250.449 160.627 251.18 160.44 251.991 160.44C252.812 160.44 253.537 160.621 254.167 160.984C254.796 161.347 255.287 161.859 255.639 162.52C256.001 163.171 256.183 163.933 256.183 164.808C256.183 164.872 256.177 164.947 256.167 165.032C256.167 165.117 256.161 165.197 256.151 165.272H248.935V164.168H255.351L254.727 164.552C254.737 164.008 254.625 163.523 254.391 163.096C254.156 162.669 253.831 162.339 253.415 162.104C253.009 161.859 252.535 161.736 251.991 161.736C251.457 161.736 250.983 161.859 250.567 162.104C250.151 162.339 249.825 162.675 249.591 163.112C249.356 163.539 249.239 164.029 249.239 164.584V164.84C249.239 165.405 249.367 165.912 249.623 166.36C249.889 166.797 250.257 167.139 250.727 167.384C251.196 167.629 251.735 167.752 252.343 167.752C252.844 167.752 253.297 167.667 253.703 167.496C254.119 167.325 254.481 167.069 254.791 166.728L255.639 167.72C255.255 168.168 254.775 168.509 254.199 168.744C253.633 168.979 252.999 169.096 252.295 169.096ZM260.747 169.096C260.043 169.096 259.371 169 258.731 168.808C258.102 168.616 257.606 168.381 257.243 168.104L257.883 166.888C258.246 167.133 258.694 167.341 259.227 167.512C259.761 167.683 260.305 167.768 260.859 167.768C261.574 167.768 262.086 167.667 262.395 167.464C262.715 167.261 262.875 166.979 262.875 166.616C262.875 166.349 262.779 166.141 262.587 165.992C262.395 165.843 262.139 165.731 261.819 165.656C261.51 165.581 261.163 165.517 260.779 165.464C260.395 165.4 260.011 165.325 259.627 165.24C259.243 165.144 258.891 165.016 258.571 164.856C258.251 164.685 257.995 164.456 257.803 164.168C257.611 163.869 257.515 163.475 257.515 162.984C257.515 162.472 257.659 162.024 257.947 161.64C258.235 161.256 258.641 160.963 259.163 160.76C259.697 160.547 260.326 160.44 261.051 160.44C261.606 160.44 262.166 160.509 262.731 160.648C263.307 160.776 263.777 160.963 264.139 161.208L263.483 162.424C263.099 162.168 262.699 161.992 262.283 161.896C261.867 161.8 261.451 161.752 261.035 161.752C260.363 161.752 259.862 161.864 259.531 162.088C259.201 162.301 259.035 162.579 259.035 162.92C259.035 163.208 259.131 163.432 259.323 163.592C259.526 163.741 259.782 163.859 260.091 163.944C260.411 164.029 260.763 164.104 261.147 164.168C261.531 164.221 261.915 164.296 262.299 164.392C262.683 164.477 263.03 164.6 263.339 164.76C263.659 164.92 263.915 165.144 264.107 165.432C264.31 165.72 264.411 166.104 264.411 166.584C264.411 167.096 264.262 167.539 263.963 167.912C263.665 168.285 263.243 168.579 262.699 168.792C262.155 168.995 261.505 169.096 260.747 169.096ZM271.595 169V167.208L271.515 166.872V163.816C271.515 163.165 271.323 162.664 270.939 162.312C270.566 161.949 270 161.768 269.243 161.768C268.742 161.768 268.251 161.853 267.771 162.024C267.291 162.184 266.886 162.403 266.555 162.68L265.915 161.528C266.352 161.176 266.875 160.909 267.483 160.728C268.102 160.536 268.747 160.44 269.419 160.44C270.582 160.44 271.478 160.723 272.107 161.288C272.736 161.853 273.051 162.717 273.051 163.88V169H271.595ZM268.811 169.096C268.182 169.096 267.627 168.989 267.147 168.776C266.678 168.563 266.315 168.269 266.059 167.896C265.803 167.512 265.675 167.08 265.675 166.6C265.675 166.141 265.782 165.725 265.995 165.352C266.219 164.979 266.576 164.68 267.067 164.456C267.568 164.232 268.24 164.12 269.083 164.12H271.771V165.224H269.147C268.379 165.224 267.862 165.352 267.595 165.608C267.328 165.864 267.195 166.173 267.195 166.536C267.195 166.952 267.36 167.288 267.691 167.544C268.022 167.789 268.48 167.912 269.067 167.912C269.643 167.912 270.144 167.784 270.571 167.528C271.008 167.272 271.323 166.899 271.515 166.408L271.819 167.464C271.616 167.965 271.259 168.365 270.747 168.664C270.235 168.952 269.59 169.096 268.811 169.096ZM280.422 160.44C281.115 160.44 281.723 160.573 282.246 160.84C282.779 161.107 283.195 161.512 283.494 162.056C283.792 162.6 283.942 163.288 283.942 164.12V169H282.406V164.296C282.406 163.475 282.203 162.856 281.798 162.44C281.403 162.024 280.843 161.816 280.118 161.816C279.574 161.816 279.099 161.923 278.694 162.136C278.288 162.349 277.974 162.664 277.75 163.08C277.536 163.496 277.43 164.013 277.43 164.632V169H275.894V160.52H277.366V162.808L277.126 162.2C277.403 161.645 277.83 161.213 278.406 160.904C278.982 160.595 279.654 160.44 280.422 160.44ZM292.048 169V167.208L291.968 166.872V163.816C291.968 163.165 291.776 162.664 291.392 162.312C291.019 161.949 290.453 161.768 289.696 161.768C289.195 161.768 288.704 161.853 288.224 162.024C287.744 162.184 287.339 162.403 287.008 162.68L286.368 161.528C286.805 161.176 287.328 160.909 287.936 160.728C288.555 160.536 289.2 160.44 289.872 160.44C291.035 160.44 291.931 160.723 292.56 161.288C293.189 161.853 293.504 162.717 293.504 163.88V169H292.048ZM289.264 169.096C288.635 169.096 288.08 168.989 287.6 168.776C287.131 168.563 286.768 168.269 286.512 167.896C286.256 167.512 286.128 167.08 286.128 166.6C286.128 166.141 286.235 165.725 286.448 165.352C286.672 164.979 287.029 164.68 287.52 164.456C288.021 164.232 288.693 164.12 289.536 164.12H292.224V165.224H289.6C288.832 165.224 288.315 165.352 288.048 165.608C287.781 165.864 287.648 166.173 287.648 166.536C287.648 166.952 287.813 167.288 288.144 167.544C288.475 167.789 288.933 167.912 289.52 167.912C290.096 167.912 290.597 167.784 291.024 167.528C291.461 167.272 291.776 166.899 291.968 166.408L292.272 167.464C292.069 167.965 291.712 168.365 291.2 168.664C290.688 168.952 290.043 169.096 289.264 169.096ZM300.875 160.44C301.568 160.44 302.176 160.573 302.699 160.84C303.232 161.107 303.648 161.512 303.947 162.056C304.245 162.6 304.395 163.288 304.395 164.12V169H302.859V164.296C302.859 163.475 302.656 162.856 302.251 162.44C301.856 162.024 301.296 161.816 300.571 161.816C300.027 161.816 299.552 161.923 299.147 162.136C298.741 162.349 298.427 162.664 298.203 163.08C297.989 163.496 297.883 164.013 297.883 164.632V169H296.347V160.52H297.819V162.808L297.579 162.2C297.856 161.645 298.283 161.213 298.859 160.904C299.435 160.595 300.107 160.44 300.875 160.44ZM313.966 169.096C313.262 169.096 312.59 169 311.95 168.808C311.321 168.616 310.825 168.381 310.462 168.104L311.102 166.888C311.465 167.133 311.913 167.341 312.446 167.512C312.979 167.683 313.523 167.768 314.078 167.768C314.793 167.768 315.305 167.667 315.614 167.464C315.934 167.261 316.094 166.979 316.094 166.616C316.094 166.349 315.998 166.141 315.806 165.992C315.614 165.843 315.358 165.731 315.038 165.656C314.729 165.581 314.382 165.517 313.998 165.464C313.614 165.4 313.23 165.325 312.846 165.24C312.462 165.144 312.11 165.016 311.79 164.856C311.47 164.685 311.214 164.456 311.022 164.168C310.83 163.869 310.734 163.475 310.734 162.984C310.734 162.472 310.878 162.024 311.166 161.64C311.454 161.256 311.859 160.963 312.382 160.76C312.915 160.547 313.545 160.44 314.27 160.44C314.825 160.44 315.385 160.509 315.95 160.648C316.526 160.776 316.995 160.963 317.358 161.208L316.702 162.424C316.318 162.168 315.918 161.992 315.502 161.896C315.086 161.8 314.67 161.752 314.254 161.752C313.582 161.752 313.081 161.864 312.75 162.088C312.419 162.301 312.254 162.579 312.254 162.92C312.254 163.208 312.35 163.432 312.542 163.592C312.745 163.741 313.001 163.859 313.31 163.944C313.63 164.029 313.982 164.104 314.366 164.168C314.75 164.221 315.134 164.296 315.518 164.392C315.902 164.477 316.249 164.6 316.558 164.76C316.878 164.92 317.134 165.144 317.326 165.432C317.529 165.72 317.63 166.104 317.63 166.584C317.63 167.096 317.481 167.539 317.182 167.912C316.883 168.285 316.462 168.579 315.918 168.792C315.374 168.995 314.723 169.096 313.966 169.096ZM323.326 169.096C322.419 169.096 321.619 168.909 320.926 168.536C320.243 168.163 319.71 167.651 319.326 167C318.952 166.349 318.766 165.603 318.766 164.76C318.766 163.917 318.947 163.171 319.31 162.52C319.683 161.869 320.19 161.363 320.83 161C321.48 160.627 322.211 160.44 323.022 160.44C323.843 160.44 324.568 160.621 325.198 160.984C325.827 161.347 326.318 161.859 326.67 162.52C327.032 163.171 327.214 163.933 327.214 164.808C327.214 164.872 327.208 164.947 327.198 165.032C327.198 165.117 327.192 165.197 327.182 165.272H319.966V164.168H326.382L325.758 164.552C325.768 164.008 325.656 163.523 325.422 163.096C325.187 162.669 324.862 162.339 324.446 162.104C324.04 161.859 323.566 161.736 323.022 161.736C322.488 161.736 322.014 161.859 321.598 162.104C321.182 162.339 320.856 162.675 320.622 163.112C320.387 163.539 320.27 164.029 320.27 164.584V164.84C320.27 165.405 320.398 165.912 320.654 166.36C320.92 166.797 321.288 167.139 321.758 167.384C322.227 167.629 322.766 167.752 323.374 167.752C323.875 167.752 324.328 167.667 324.734 167.496C325.15 167.325 325.512 167.069 325.822 166.728L326.67 167.72C326.286 168.168 325.806 168.509 325.23 168.744C324.664 168.979 324.03 169.096 323.326 169.096ZM332.851 169.096C332.029 169.096 331.293 168.915 330.643 168.552C330.003 168.189 329.496 167.683 329.123 167.032C328.749 166.381 328.563 165.624 328.563 164.76C328.563 163.896 328.749 163.144 329.123 162.504C329.496 161.853 330.003 161.347 330.643 160.984C331.293 160.621 332.029 160.44 332.851 160.44C333.565 160.44 334.211 160.6 334.787 160.92C335.363 161.24 335.821 161.72 336.163 162.36C336.515 163 336.691 163.8 336.691 164.76C336.691 165.72 336.52 166.52 336.179 167.16C335.848 167.8 335.395 168.285 334.819 168.616C334.243 168.936 333.587 169.096 332.851 169.096ZM332.979 167.752C333.512 167.752 333.992 167.629 334.419 167.384C334.856 167.139 335.197 166.792 335.443 166.344C335.699 165.885 335.827 165.357 335.827 164.76C335.827 164.152 335.699 163.629 335.443 163.192C335.197 162.744 334.856 162.397 334.419 162.152C333.992 161.907 333.512 161.784 332.979 161.784C332.435 161.784 331.949 161.907 331.523 162.152C331.096 162.397 330.755 162.744 330.499 163.192C330.243 163.629 330.115 164.152 330.115 164.76C330.115 165.357 330.243 165.885 330.499 166.344C330.755 166.792 331.096 167.139 331.523 167.384C331.949 167.629 332.435 167.752 332.979 167.752ZM335.875 169V166.712L335.971 164.744L335.811 162.776V157.128H337.347V169H335.875ZM345.517 169V167.208L345.437 166.872V163.816C345.437 163.165 345.245 162.664 344.861 162.312C344.488 161.949 343.922 161.768 343.165 161.768C342.664 161.768 342.173 161.853 341.693 162.024C341.213 162.184 340.808 162.403 340.477 162.68L339.837 161.528C340.274 161.176 340.797 160.909 341.405 160.728C342.024 160.536 342.669 160.44 343.341 160.44C344.504 160.44 345.4 160.723 346.029 161.288C346.658 161.853 346.973 162.717 346.973 163.88V169H345.517ZM342.733 169.096C342.104 169.096 341.549 168.989 341.069 168.776C340.6 168.563 340.237 168.269 339.981 167.896C339.725 167.512 339.597 167.08 339.597 166.6C339.597 166.141 339.704 165.725 339.917 165.352C340.141 164.979 340.498 164.68 340.989 164.456C341.49 164.232 342.162 164.12 343.005 164.12H345.693V165.224H343.069C342.301 165.224 341.784 165.352 341.517 165.608C341.25 165.864 341.117 166.173 341.117 166.536C341.117 166.952 341.282 167.288 341.613 167.544C341.944 167.789 342.402 167.912 342.989 167.912C343.565 167.912 344.066 167.784 344.493 167.528C344.93 167.272 345.245 166.899 345.437 166.408L345.741 167.464C345.538 167.965 345.181 168.365 344.669 168.664C344.157 168.952 343.512 169.096 342.733 169.096ZM354.343 160.44C355.037 160.44 355.645 160.573 356.167 160.84C356.701 161.107 357.117 161.512 357.415 162.056C357.714 162.6 357.863 163.288 357.863 164.12V169H356.327V164.296C356.327 163.475 356.125 162.856 355.719 162.44C355.325 162.024 354.765 161.816 354.039 161.816C353.495 161.816 353.021 161.923 352.615 162.136C352.21 162.349 351.895 162.664 351.671 163.08C351.458 163.496 351.351 164.013 351.351 164.632V169H349.815V160.52H351.287V162.808L351.047 162.2C351.325 161.645 351.751 161.213 352.327 160.904C352.903 160.595 353.575 160.44 354.343 160.44ZM364.418 172.2C363.639 172.2 362.882 172.088 362.146 171.864C361.421 171.651 360.829 171.341 360.37 170.936L361.106 169.752C361.501 170.093 361.986 170.36 362.562 170.552C363.138 170.755 363.741 170.856 364.37 170.856C365.373 170.856 366.109 170.621 366.578 170.152C367.047 169.683 367.282 168.968 367.282 168.008V166.216L367.442 164.536L367.362 162.84V160.52H368.818V167.848C368.818 169.341 368.445 170.44 367.698 171.144C366.951 171.848 365.858 172.2 364.418 172.2ZM364.226 168.648C363.405 168.648 362.669 168.477 362.018 168.136C361.378 167.784 360.866 167.299 360.482 166.68C360.109 166.061 359.922 165.347 359.922 164.536C359.922 163.715 360.109 163 360.482 162.392C360.866 161.773 361.378 161.293 362.018 160.952C362.669 160.611 363.405 160.44 364.226 160.44C364.951 160.44 365.613 160.589 366.21 160.888C366.807 161.176 367.282 161.624 367.634 162.232C367.997 162.84 368.178 163.608 368.178 164.536C368.178 165.453 367.997 166.216 367.634 166.824C367.282 167.432 366.807 167.891 366.21 168.2C365.613 168.499 364.951 168.648 364.226 168.648ZM364.402 167.304C364.967 167.304 365.469 167.187 365.906 166.952C366.343 166.717 366.685 166.392 366.93 165.976C367.186 165.56 367.314 165.08 367.314 164.536C367.314 163.992 367.186 163.512 366.93 163.096C366.685 162.68 366.343 162.36 365.906 162.136C365.469 161.901 364.967 161.784 364.402 161.784C363.837 161.784 363.33 161.901 362.882 162.136C362.445 162.36 362.098 162.68 361.842 163.096C361.597 163.512 361.474 163.992 361.474 164.536C361.474 165.08 361.597 165.56 361.842 165.976C362.098 166.392 362.445 166.717 362.882 166.952C363.33 167.187 363.837 167.304 364.402 167.304ZM238.601 189.096C237.779 189.096 237.043 188.915 236.393 188.552C235.753 188.189 235.246 187.683 234.873 187.032C234.499 186.381 234.313 185.624 234.313 184.76C234.313 183.896 234.499 183.144 234.873 182.504C235.246 181.853 235.753 181.347 236.393 180.984C237.043 180.621 237.779 180.44 238.601 180.44C239.315 180.44 239.961 180.6 240.537 180.92C241.113 181.24 241.571 181.72 241.913 182.36C242.265 183 242.441 183.8 242.441 184.76C242.441 185.72 242.27 186.52 241.929 187.16C241.598 187.8 241.145 188.285 240.569 188.616C239.993 188.936 239.337 189.096 238.601 189.096ZM238.729 187.752C239.262 187.752 239.742 187.629 240.169 187.384C240.606 187.139 240.947 186.792 241.193 186.344C241.449 185.885 241.577 185.357 241.577 184.76C241.577 184.152 241.449 183.629 241.193 183.192C240.947 182.744 240.606 182.397 240.169 182.152C239.742 181.907 239.262 181.784 238.729 181.784C238.185 181.784 237.699 181.907 237.273 182.152C236.846 182.397 236.505 182.744 236.249 183.192C235.993 183.629 235.865 184.152 235.865 184.76C235.865 185.357 235.993 185.885 236.249 186.344C236.505 186.792 236.846 187.139 237.273 187.384C237.699 187.629 238.185 187.752 238.729 187.752ZM241.625 189V186.712L241.721 184.744L241.561 182.776V177.128H243.097V189H241.625ZM246.003 189V180.52H247.539V189H246.003ZM246.771 178.888C246.472 178.888 246.222 178.792 246.019 178.6C245.827 178.408 245.731 178.173 245.731 177.896C245.731 177.608 245.827 177.368 246.019 177.176C246.222 176.984 246.472 176.888 246.771 176.888C247.07 176.888 247.315 176.984 247.507 177.176C247.71 177.357 247.811 177.587 247.811 177.864C247.811 178.152 247.715 178.397 247.523 178.6C247.331 178.792 247.08 178.888 246.771 178.888ZM251.72 186.952L251.752 184.984L256.632 180.52H258.488L254.744 184.2L253.912 184.904L251.72 186.952ZM250.472 189V177.128H252.008V189H250.472ZM256.952 189L253.624 184.872L254.616 183.64L258.84 189H256.952ZM260.331 189V180.52H261.867V189H260.331ZM261.099 178.888C260.8 178.888 260.55 178.792 260.347 178.6C260.155 178.408 260.059 178.173 260.059 177.896C260.059 177.608 260.155 177.368 260.347 177.176C260.55 176.984 260.8 176.888 261.099 176.888C261.398 176.888 261.643 176.984 261.835 177.176C262.038 177.357 262.139 177.587 262.139 177.864C262.139 178.152 262.043 178.397 261.851 178.6C261.659 178.792 261.408 178.888 261.099 178.888ZM264.8 189V180.52H266.272V182.824L266.128 182.248C266.362 181.661 266.757 181.213 267.312 180.904C267.866 180.595 268.549 180.44 269.36 180.44V181.928C269.296 181.917 269.232 181.912 269.168 181.912C269.114 181.912 269.061 181.912 269.008 181.912C268.186 181.912 267.536 182.157 267.056 182.648C266.576 183.139 266.336 183.848 266.336 184.776V189H264.8ZM271.253 189V180.52H272.789V189H271.253ZM272.021 178.888C271.722 178.888 271.472 178.792 271.269 178.6C271.077 178.408 270.981 178.173 270.981 177.896C270.981 177.608 271.077 177.368 271.269 177.176C271.472 176.984 271.722 176.888 272.021 176.888C272.32 176.888 272.565 176.984 272.757 177.176C272.96 177.357 273.061 177.587 273.061 177.864C273.061 178.152 272.965 178.397 272.773 178.6C272.581 178.792 272.33 178.888 272.021 178.888ZM286.33 180.44C287.012 180.44 287.615 180.573 288.138 180.84C288.66 181.107 289.066 181.512 289.354 182.056C289.652 182.6 289.802 183.288 289.802 184.12V189H288.266V184.296C288.266 183.475 288.074 182.856 287.69 182.44C287.306 182.024 286.767 181.816 286.074 181.816C285.562 181.816 285.114 181.923 284.73 182.136C284.346 182.349 284.047 182.664 283.834 183.08C283.631 183.496 283.53 184.013 283.53 184.632V189H281.994V184.296C281.994 183.475 281.802 182.856 281.418 182.44C281.044 182.024 280.506 181.816 279.802 181.816C279.3 181.816 278.858 181.923 278.474 182.136C278.09 182.349 277.791 182.664 277.578 183.08C277.364 183.496 277.258 184.013 277.258 184.632V189H275.722V180.52H277.194V182.776L276.954 182.2C277.22 181.645 277.631 181.213 278.186 180.904C278.74 180.595 279.386 180.44 280.122 180.44C280.932 180.44 281.631 180.643 282.218 181.048C282.804 181.443 283.188 182.045 283.37 182.856L282.746 182.6C283.002 181.949 283.45 181.427 284.09 181.032C284.73 180.637 285.476 180.44 286.33 180.44ZM298.173 186.952L298.205 184.984L303.085 180.52H304.941L301.197 184.2L300.365 184.904L298.173 186.952ZM296.925 189V177.128H298.461V189H296.925ZM303.405 189L300.077 184.872L301.069 183.64L305.293 189H303.405ZM310.216 189.096C309.31 189.096 308.51 188.909 307.816 188.536C307.134 188.163 306.6 187.651 306.216 187C305.843 186.349 305.656 185.603 305.656 184.76C305.656 183.917 305.838 183.171 306.2 182.52C306.574 181.869 307.08 181.363 307.72 181C308.371 180.627 309.102 180.44 309.912 180.44C310.734 180.44 311.459 180.621 312.088 180.984C312.718 181.347 313.208 181.859 313.56 182.52C313.923 183.171 314.104 183.933 314.104 184.808C314.104 184.872 314.099 184.947 314.088 185.032C314.088 185.117 314.083 185.197 314.072 185.272H306.856V184.168H313.272L312.648 184.552C312.659 184.008 312.547 183.523 312.312 183.096C312.078 182.669 311.752 182.339 311.336 182.104C310.931 181.859 310.456 181.736 309.912 181.736C309.379 181.736 308.904 181.859 308.488 182.104C308.072 182.339 307.747 182.675 307.512 183.112C307.278 183.539 307.16 184.029 307.16 184.584V184.84C307.16 185.405 307.288 185.912 307.544 186.36C307.811 186.797 308.179 187.139 308.648 187.384C309.118 187.629 309.656 187.752 310.264 187.752C310.766 187.752 311.219 187.667 311.624 187.496C312.04 187.325 312.403 187.069 312.712 186.728L313.56 187.72C313.176 188.168 312.696 188.509 312.12 188.744C311.555 188.979 310.92 189.096 310.216 189.096ZM323.446 189.096C322.593 189.096 321.931 188.867 321.462 188.408C320.993 187.949 320.758 187.293 320.758 186.44V178.664H322.294V186.376C322.294 186.835 322.406 187.187 322.63 187.432C322.865 187.677 323.195 187.8 323.622 187.8C324.102 187.8 324.502 187.667 324.822 187.4L325.302 188.504C325.067 188.707 324.785 188.856 324.454 188.952C324.134 189.048 323.798 189.096 323.446 189.096ZM319.318 181.784V180.52H324.726V181.784H319.318ZM330.727 189.096C330.002 189.096 329.362 188.963 328.807 188.696C328.263 188.429 327.836 188.024 327.527 187.48C327.228 186.925 327.079 186.232 327.079 185.4V180.52H328.615V185.224C328.615 186.056 328.812 186.68 329.207 187.096C329.612 187.512 330.178 187.72 330.903 187.72C331.436 187.72 331.9 187.613 332.295 187.4C332.69 187.176 332.994 186.856 333.207 186.44C333.42 186.013 333.527 185.501 333.527 184.904V180.52H335.063V189H333.607V186.712L333.847 187.32C333.57 187.885 333.154 188.323 332.599 188.632C332.044 188.941 331.42 189.096 330.727 189.096ZM336.899 192.2C336.547 192.2 336.211 192.157 335.891 192.072C335.561 191.987 335.283 191.859 335.059 191.688L335.555 190.504C335.875 190.771 336.291 190.904 336.803 190.904C337.209 190.904 337.518 190.776 337.731 190.52C337.955 190.275 338.067 189.907 338.067 189.416V180.52H339.603V189.384C339.603 190.248 339.369 190.931 338.899 191.432C338.441 191.944 337.774 192.2 336.899 192.2ZM338.835 178.888C338.537 178.888 338.286 178.792 338.083 178.6C337.891 178.408 337.795 178.173 337.795 177.896C337.795 177.608 337.891 177.368 338.083 177.176C338.286 176.984 338.537 176.888 338.835 176.888C339.134 176.888 339.379 176.984 339.571 177.176C339.774 177.357 339.875 177.587 339.875 177.864C339.875 178.152 339.779 178.397 339.587 178.6C339.395 178.792 339.145 178.888 338.835 178.888ZM346.102 189.096C345.377 189.096 344.737 188.963 344.182 188.696C343.638 188.429 343.211 188.024 342.902 187.48C342.603 186.925 342.454 186.232 342.454 185.4V180.52H343.99V185.224C343.99 186.056 344.187 186.68 344.582 187.096C344.987 187.512 345.553 187.72 346.278 187.72C346.811 187.72 347.275 187.613 347.67 187.4C348.065 187.176 348.369 186.856 348.582 186.44C348.795 186.013 348.902 185.501 348.902 184.904V180.52H350.438V189H348.982V186.712L349.222 187.32C348.945 187.885 348.529 188.323 347.974 188.632C347.419 188.941 346.795 189.096 346.102 189.096ZM358.626 189V187.208L358.546 186.872V183.816C358.546 183.165 358.354 182.664 357.97 182.312C357.597 181.949 357.032 181.768 356.274 181.768C355.773 181.768 355.282 181.853 354.802 182.024C354.322 182.184 353.917 182.403 353.586 182.68L352.946 181.528C353.384 181.176 353.906 180.909 354.514 180.728C355.133 180.536 355.778 180.44 356.45 180.44C357.613 180.44 358.509 180.723 359.138 181.288C359.768 181.853 360.082 182.717 360.082 183.88V189H358.626ZM355.842 189.096C355.213 189.096 354.658 188.989 354.178 188.776C353.709 188.563 353.346 188.269 353.09 187.896C352.834 187.512 352.706 187.08 352.706 186.6C352.706 186.141 352.813 185.725 353.026 185.352C353.25 184.979 353.608 184.68 354.098 184.456C354.6 184.232 355.272 184.12 356.114 184.12H358.802V185.224H356.178C355.41 185.224 354.893 185.352 354.626 185.608C354.36 185.864 354.226 186.173 354.226 186.536C354.226 186.952 354.392 187.288 354.722 187.544C355.053 187.789 355.512 187.912 356.098 187.912C356.674 187.912 357.176 187.784 357.602 187.528C358.04 187.272 358.354 186.899 358.546 186.408L358.85 187.464C358.648 187.965 358.29 188.365 357.778 188.664C357.266 188.952 356.621 189.096 355.842 189.096ZM367.453 180.44C368.146 180.44 368.754 180.573 369.277 180.84C369.81 181.107 370.226 181.512 370.525 182.056C370.823 182.6 370.973 183.288 370.973 184.12V189H369.437V184.296C369.437 183.475 369.234 182.856 368.829 182.44C368.434 182.024 367.874 181.816 367.149 181.816C366.605 181.816 366.13 181.923 365.725 182.136C365.319 182.349 365.005 182.664 364.781 183.08C364.567 183.496 364.461 184.013 364.461 184.632V189H362.925V180.52H364.397V182.808L364.157 182.2C364.434 181.645 364.861 181.213 365.437 180.904C366.013 180.595 366.685 180.44 367.453 180.44Z" fill="#171A23"/>
<path d="M94 86L277 86" stroke="#2CBF29" stroke-width="8" stroke-dasharray="6 6"/>
<circle cx="302.5" cy="86.5" r="40.5" fill="#2CBF29"/>
<path d="M307.688 73.3763L314.326 81.8432H300.722V73.3763H307.688ZM295.19 71.9651V81.8432H281.361C279.831 81.8432 278.595 83.1044 278.595 84.6655V90.3101C277.065 90.3101 275.829 91.5713 275.829 93.1324C275.829 94.6935 277.065 95.9547 278.595 95.9547H281.456C281.395 96.4133 281.361 96.8896 281.361 97.3658C281.361 102.825 285.691 107.244 291.041 107.244C296.391 107.244 300.722 102.825 300.722 97.3658C300.722 96.8896 300.687 96.4133 300.627 95.9547H306.357C306.297 96.4133 306.262 96.8896 306.262 97.3658C306.262 102.825 310.592 107.244 315.943 107.244C321.293 107.244 325.623 102.825 325.623 97.3658C325.623 96.8896 325.588 96.4133 325.528 95.9547H328.38C329.91 95.9547 331.146 94.6935 331.146 93.1324C331.146 91.5713 329.91 90.3101 328.38 90.3101V84.6655C328.38 83.1044 327.144 81.8432 325.614 81.8432H321.414L312.01 69.8484C310.964 68.5078 309.374 67.7317 307.688 67.7317H299.339C297.048 67.7317 295.19 69.6279 295.19 71.9651ZM286.893 97.3658C286.893 95.0286 288.751 93.1324 291.041 93.1324C293.332 93.1324 295.19 95.0286 295.19 97.3658C295.19 99.703 293.332 101.599 291.041 101.599C288.751 101.599 286.893 99.703 286.893 97.3658ZM311.785 97.3658C311.785 95.0286 313.643 93.1324 315.934 93.1324C318.224 93.1324 320.083 95.0286 320.083 97.3658C320.083 99.703 318.224 101.599 315.934 101.599C313.643 101.599 311.785 99.703 311.785 97.3658Z" fill="white"/>
</svg>
