
<svg width="662" height="213" viewBox="0 0 662 213" fill="none" xmlns="http://www.w3.org/2000/svg">
<path d="M76 86L555 86" stroke="#2CBF29" stroke-width="8" stroke-dasharray="6 6"/>
<circle cx="93.5" cy="86.5" r="40.5" fill="#2CBF29"/>
<path d="M78.155 70.0685C78.2137 69.1897 78.6042 68.3661 79.2475 67.7645C79.8908 67.1629 80.7387 66.8283 81.6194 66.8285H84.2323C85.113 66.8283 85.9609 67.1629 86.6042 67.7645C87.2475 68.3661 87.638 69.1897 87.6968 70.0685L89.7009 100.154C89.7326 100.628 89.6666 101.104 89.507 101.552C89.3473 101.999 89.0975 102.409 88.7729 102.756C88.4483 103.104 88.0559 103.38 87.62 103.57C87.1841 103.759 86.714 103.857 86.2388 103.857H79.613C79.1377 103.857 78.6676 103.759 78.2317 103.57C77.7958 103.38 77.4034 103.104 77.0788 102.756C76.7542 102.409 76.5044 101.999 76.3448 101.552C76.1851 101.104 76.1191 100.628 76.1508 100.154L78.155 70.0685ZM90.8673 103.857C91.6681 102.792 92.1078 101.443 92.0106 100.001L90.8048 81.9037L99.5089 74.0676C99.6751 73.9175 99.8814 73.8189 100.103 73.7838C100.324 73.7486 100.55 73.7784 100.755 73.8696C100.96 73.9607 101.133 74.1093 101.255 74.2973C101.377 74.4852 101.442 74.7045 101.441 74.9285V82.7438L111.08 74.0676C111.247 73.9175 111.453 73.8189 111.674 73.7838C111.895 73.7486 112.122 73.7784 112.326 73.8696C112.531 73.9607 112.705 74.1093 112.827 74.2973C112.948 74.4852 113.013 74.7045 113.013 74.9285V100.386C113.013 101.306 112.647 102.189 111.996 102.84C111.345 103.491 110.462 103.857 109.541 103.857H90.865H90.8673ZM108.384 101.543V91.8228C108.384 91.3317 108.189 90.8608 107.842 90.5136C107.495 90.1664 107.024 89.9713 106.533 89.9713H98.6641C98.1731 89.9713 97.7022 90.1664 97.355 90.5136C97.0078 90.8608 96.8127 91.3317 96.8127 91.8228V101.543H108.384Z" fill="white"/>
<path d="M49.3358 16V4.8H54.4238C55.6398 4.8 56.7118 5.03467 57.6398 5.504C58.5678 5.96267 59.2931 6.608 59.8158 7.44C60.3385 8.272 60.5998 9.25867 60.5998 10.4C60.5998 11.5307 60.3385 12.5173 59.8158 13.36C59.2931 14.192 58.5678 14.8427 57.6398 15.312C56.7118 15.7707 55.6398 16 54.4238 16H49.3358ZM51.9278 13.872H54.2958C55.0425 13.872 55.6878 13.7333 56.2318 13.456C56.7865 13.168 57.2131 12.7627 57.5118 12.24C57.8211 11.7173 57.9758 11.104 57.9758 10.4C57.9758 9.68533 57.8211 9.072 57.5118 8.56C57.2131 8.03733 56.7865 7.63733 56.2318 7.36C55.6878 7.072 55.0425 6.928 54.2958 6.928H51.9278V13.872ZM62.3786 16V7.392H64.8746V16H62.3786ZM63.6266 6.192C63.1679 6.192 62.7946 6.05867 62.5066 5.792C62.2186 5.52533 62.0746 5.19467 62.0746 4.8C62.0746 4.40533 62.2186 4.07467 62.5066 3.808C62.7946 3.54133 63.1679 3.408 63.6266 3.408C64.0852 3.408 64.4586 3.536 64.7466 3.792C65.0346 4.03733 65.1786 4.35733 65.1786 4.752C65.1786 5.168 65.0346 5.51467 64.7466 5.792C64.4692 6.05867 64.0959 6.192 63.6266 6.192ZM72.2791 16.128C71.5537 16.128 70.9191 15.968 70.3751 15.648C69.8311 15.328 69.4044 14.8427 69.0951 14.192C68.7964 13.5307 68.6471 12.6987 68.6471 11.696C68.6471 10.6827 68.7911 9.85067 69.0791 9.2C69.3671 8.54933 69.7831 8.064 70.3271 7.744C70.8711 7.424 71.5217 7.264 72.2791 7.264C73.0897 7.264 73.8151 7.45067 74.4551 7.824C75.1057 8.18667 75.6177 8.69867 75.9911 9.36C76.3751 10.0213 76.5671 10.8 76.5671 11.696C76.5671 12.6027 76.3751 13.3867 75.9911 14.048C75.6177 14.7093 75.1057 15.2213 74.4551 15.584C73.8151 15.9467 73.0897 16.128 72.2791 16.128ZM67.1911 19.104V7.392H69.5751V9.152L69.5271 11.712L69.6871 14.256V19.104H67.1911ZM71.8471 14.08C72.2631 14.08 72.6311 13.984 72.9511 13.792C73.2817 13.6 73.5431 13.328 73.7351 12.976C73.9377 12.6133 74.0391 12.1867 74.0391 11.696C74.0391 11.1947 73.9377 10.768 73.7351 10.416C73.5431 10.064 73.2817 9.792 72.9511 9.6C72.6311 9.408 72.2631 9.312 71.8471 9.312C71.4311 9.312 71.0577 9.408 70.7271 9.6C70.3964 9.792 70.1351 10.064 69.9431 10.416C69.7511 10.768 69.6551 11.1947 69.6551 11.696C69.6551 12.1867 69.7511 12.6133 69.9431 12.976C70.1351 13.328 70.3964 13.6 70.7271 13.792C71.0577 13.984 71.4311 14.08 71.8471 14.08ZM78.2379 16V7.392H80.6219V9.824L80.2859 9.12C80.5419 8.512 80.9526 8.05333 81.5179 7.744C82.0833 7.424 82.7713 7.264 83.5819 7.264V9.568C83.4753 9.55733 83.3793 9.552 83.2939 9.552C83.2086 9.54133 83.1179 9.536 83.0219 9.536C82.3393 9.536 81.7846 9.73333 81.3579 10.128C80.9419 10.512 80.7339 11.1147 80.7339 11.936V16H78.2379ZM89.0996 16.128C88.1822 16.128 87.3662 15.936 86.6516 15.552C85.9476 15.168 85.3876 14.6453 84.9716 13.984C84.5662 13.312 84.3636 12.5493 84.3636 11.696C84.3636 10.832 84.5662 10.0693 84.9716 9.408C85.3876 8.736 85.9476 8.21333 86.6516 7.84C87.3662 7.456 88.1822 7.264 89.0996 7.264C90.0062 7.264 90.8169 7.456 91.5316 7.84C92.2462 8.21333 92.8062 8.73067 93.2116 9.392C93.6169 10.0533 93.8196 10.8213 93.8196 11.696C93.8196 12.5493 93.6169 13.312 93.2116 13.984C92.8062 14.6453 92.2462 15.168 91.5316 15.552C90.8169 15.936 90.0062 16.128 89.0996 16.128ZM89.0996 14.08C89.5156 14.08 89.8889 13.984 90.2196 13.792C90.5502 13.6 90.8116 13.328 91.0036 12.976C91.1956 12.6133 91.2916 12.1867 91.2916 11.696C91.2916 11.1947 91.1956 10.768 91.0036 10.416C90.8116 10.064 90.5502 9.792 90.2196 9.6C89.8889 9.408 89.5156 9.312 89.0996 9.312C88.6836 9.312 88.3102 9.408 87.9796 9.6C87.6489 9.792 87.3822 10.064 87.1796 10.416C86.9876 10.768 86.8916 11.1947 86.8916 11.696C86.8916 12.1867 86.9876 12.6133 87.1796 12.976C87.3822 13.328 87.6489 13.6 87.9796 13.792C88.3102 13.984 88.6836 14.08 89.0996 14.08ZM99.1839 16.128C98.3733 16.128 97.6426 15.9467 96.9919 15.584C96.3413 15.2107 95.8239 14.6933 95.4399 14.032C95.0666 13.3707 94.8799 12.592 94.8799 11.696C94.8799 10.7893 95.0666 10.0053 95.4399 9.344C95.8239 8.68267 96.3413 8.17067 96.9919 7.808C97.6426 7.44533 98.3733 7.264 99.1839 7.264C99.9093 7.264 100.544 7.424 101.088 7.744C101.632 8.064 102.053 8.54933 102.352 9.2C102.651 9.85067 102.8 10.6827 102.8 11.696C102.8 12.6987 102.656 13.5307 102.368 14.192C102.08 14.8427 101.664 15.328 101.12 15.648C100.587 15.968 99.9413 16.128 99.1839 16.128ZM99.6159 14.08C100.021 14.08 100.389 13.984 100.72 13.792C101.051 13.6 101.312 13.328 101.504 12.976C101.707 12.6133 101.808 12.1867 101.808 11.696C101.808 11.1947 101.707 10.768 101.504 10.416C101.312 10.064 101.051 9.792 100.72 9.6C100.389 9.408 100.021 9.312 99.6159 9.312C99.1999 9.312 98.8266 9.408 98.4959 9.6C98.1653 9.792 97.8986 10.064 97.6959 10.416C97.5039 10.768 97.4079 11.1947 97.4079 11.696C97.4079 12.1867 97.5039 12.6133 97.6959 12.976C97.8986 13.328 98.1653 13.6 98.4959 13.792C98.8266 13.984 99.1999 14.08 99.6159 14.08ZM101.872 16V14.24L101.92 11.68L101.76 9.136V4.128H104.256V16H101.872ZM110.198 16.128C109.483 16.128 108.843 15.9893 108.278 15.712C107.723 15.4347 107.291 15.0133 106.982 14.448C106.673 13.872 106.518 13.1413 106.518 12.256V7.392H109.014V11.888C109.014 12.6027 109.163 13.1307 109.462 13.472C109.771 13.8027 110.203 13.968 110.758 13.968C111.142 13.968 111.483 13.888 111.782 13.728C112.081 13.5573 112.315 13.3013 112.486 12.96C112.657 12.608 112.742 12.1707 112.742 11.648V7.392H115.238V16H112.87V13.632L113.302 14.32C113.014 14.9173 112.587 15.3707 112.022 15.68C111.467 15.9787 110.859 16.128 110.198 16.128ZM119.614 14.24L119.678 11.2L123.694 7.392H126.67L122.814 11.312L121.518 12.368L119.614 14.24ZM117.55 16V4.128H120.046V16H117.55ZM123.966 16L121.054 12.384L122.622 10.448L126.99 16H123.966ZM130.728 16.128C129.992 16.128 129.282 16.0427 128.6 15.872C127.928 15.6907 127.394 15.4667 127 15.2L127.832 13.408C128.226 13.6533 128.69 13.856 129.224 14.016C129.768 14.1653 130.301 14.24 130.824 14.24C131.4 14.24 131.805 14.1707 132.04 14.032C132.285 13.8933 132.408 13.7013 132.408 13.456C132.408 13.2533 132.312 13.104 132.12 13.008C131.938 12.9013 131.693 12.8213 131.384 12.768C131.074 12.7147 130.733 12.6613 130.36 12.608C129.997 12.5547 129.629 12.4853 129.256 12.4C128.882 12.304 128.541 12.1653 128.232 11.984C127.922 11.8027 127.672 11.5573 127.48 11.248C127.298 10.9387 127.208 10.5387 127.208 10.048C127.208 9.504 127.362 9.024 127.672 8.608C127.992 8.192 128.45 7.86667 129.048 7.632C129.645 7.38667 130.36 7.264 131.192 7.264C131.778 7.264 132.376 7.328 132.984 7.456C133.592 7.584 134.098 7.77067 134.504 8.016L133.672 9.792C133.256 9.54667 132.834 9.38133 132.408 9.296C131.992 9.2 131.586 9.152 131.192 9.152C130.637 9.152 130.232 9.22667 129.976 9.376C129.72 9.52533 129.592 9.71733 129.592 9.952C129.592 10.1653 129.682 10.3253 129.864 10.432C130.056 10.5387 130.306 10.624 130.616 10.688C130.925 10.752 131.261 10.8107 131.624 10.864C131.997 10.9067 132.37 10.976 132.744 11.072C133.117 11.168 133.453 11.3067 133.752 11.488C134.061 11.6587 134.312 11.8987 134.504 12.208C134.696 12.5067 134.792 12.9013 134.792 13.392C134.792 13.9253 134.632 14.4 134.312 14.816C133.992 15.2213 133.528 15.5413 132.92 15.776C132.322 16.0107 131.592 16.128 130.728 16.128ZM136.332 16V7.392H138.828V16H136.332ZM137.58 6.192C137.121 6.192 136.748 6.05867 136.46 5.792C136.172 5.52533 136.028 5.19467 136.028 4.8C136.028 4.40533 136.172 4.07467 136.46 3.808C136.748 3.54133 137.121 3.408 137.58 3.408C138.038 3.408 138.412 3.536 138.7 3.792C138.988 4.03733 139.132 4.35733 139.132 4.752C139.132 5.168 138.988 5.51467 138.7 5.792C138.422 6.05867 138.049 6.192 137.58 6.192Z" fill="#171A23"/>
<path d="M18.5472 169V157.8H22.9152C23.8965 157.8 24.7339 157.955 25.4272 158.264C26.1205 158.573 26.6539 159.021 27.0272 159.608C27.4005 160.195 27.5872 160.893 27.5872 161.704C27.5872 162.515 27.4005 163.213 27.0272 163.8C26.6539 164.376 26.1205 164.824 25.4272 165.144C24.7339 165.453 23.8965 165.608 22.9152 165.608H19.4272L20.1472 164.856V169H18.5472ZM20.1472 165.016L19.4272 164.216H22.8672C23.8912 164.216 24.6645 163.997 25.1872 163.56C25.7205 163.123 25.9872 162.504 25.9872 161.704C25.9872 160.904 25.7205 160.285 25.1872 159.848C24.6645 159.411 23.8912 159.192 22.8672 159.192H19.4272L20.1472 158.392V165.016ZM33.4586 169.096C32.5519 169.096 31.7519 168.909 31.0586 168.536C30.3759 168.163 29.8426 167.651 29.4586 167C29.0852 166.349 28.8986 165.603 28.8986 164.76C28.8986 163.917 29.0799 163.171 29.4426 162.52C29.8159 161.869 30.3226 161.363 30.9626 161C31.6132 160.627 32.3439 160.44 33.1546 160.44C33.9759 160.44 34.7012 160.621 35.3306 160.984C35.9599 161.347 36.4506 161.859 36.8026 162.52C37.1652 163.171 37.3466 163.933 37.3466 164.808C37.3466 164.872 37.3412 164.947 37.3306 165.032C37.3306 165.117 37.3252 165.197 37.3146 165.272H30.0986V164.168H36.5146L35.8906 164.552C35.9012 164.008 35.7892 163.523 35.5546 163.096C35.3199 162.669 34.9946 162.339 34.5786 162.104C34.1732 161.859 33.6986 161.736 33.1546 161.736C32.6212 161.736 32.1466 161.859 31.7306 162.104C31.3146 162.339 30.9892 162.675 30.7546 163.112C30.5199 163.539 30.4026 164.029 30.4026 164.584V164.84C30.4026 165.405 30.5306 165.912 30.7866 166.36C31.0532 166.797 31.4212 167.139 31.8906 167.384C32.3599 167.629 32.8986 167.752 33.5066 167.752C34.0079 167.752 34.4612 167.667 34.8666 167.496C35.2826 167.325 35.6452 167.069 35.9546 166.728L36.8026 167.72C36.4186 168.168 35.9386 168.509 35.3626 168.744C34.7972 168.979 34.1626 169.096 33.4586 169.096ZM41.9114 169.096C41.2074 169.096 40.5354 169 39.8954 168.808C39.2661 168.616 38.7701 168.381 38.4074 168.104L39.0474 166.888C39.4101 167.133 39.8581 167.341 40.3914 167.512C40.9248 167.683 41.4688 167.768 42.0234 167.768C42.7381 167.768 43.2501 167.667 43.5594 167.464C43.8794 167.261 44.0394 166.979 44.0394 166.616C44.0394 166.349 43.9434 166.141 43.7514 165.992C43.5594 165.843 43.3034 165.731 42.9834 165.656C42.6741 165.581 42.3274 165.517 41.9434 165.464C41.5594 165.4 41.1754 165.325 40.7914 165.24C40.4074 165.144 40.0554 165.016 39.7354 164.856C39.4154 164.685 39.1594 164.456 38.9674 164.168C38.7754 163.869 38.6794 163.475 38.6794 162.984C38.6794 162.472 38.8234 162.024 39.1114 161.64C39.3994 161.256 39.8048 160.963 40.3274 160.76C40.8608 160.547 41.4901 160.44 42.2154 160.44C42.7701 160.44 43.3301 160.509 43.8954 160.648C44.4714 160.776 44.9408 160.963 45.3034 161.208L44.6474 162.424C44.2634 162.168 43.8634 161.992 43.4474 161.896C43.0314 161.8 42.6154 161.752 42.1994 161.752C41.5274 161.752 41.0261 161.864 40.6954 162.088C40.3648 162.301 40.1994 162.579 40.1994 162.92C40.1994 163.208 40.2954 163.432 40.4874 163.592C40.6901 163.741 40.9461 163.859 41.2554 163.944C41.5754 164.029 41.9274 164.104 42.3114 164.168C42.6954 164.221 43.0794 164.296 43.4634 164.392C43.8474 164.477 44.1941 164.6 44.5034 164.76C44.8234 164.92 45.0794 165.144 45.2714 165.432C45.4741 165.72 45.5754 166.104 45.5754 166.584C45.5754 167.096 45.4261 167.539 45.1274 167.912C44.8288 168.285 44.4074 168.579 43.8634 168.792C43.3194 168.995 42.6688 169.096 41.9114 169.096ZM52.7591 169V167.208L52.6791 166.872V163.816C52.6791 163.165 52.4871 162.664 52.1031 162.312C51.7297 161.949 51.1644 161.768 50.4071 161.768C49.9057 161.768 49.4151 161.853 48.9351 162.024C48.4551 162.184 48.0497 162.403 47.7191 162.68L47.0791 161.528C47.5164 161.176 48.0391 160.909 48.6471 160.728C49.2657 160.536 49.9111 160.44 50.5831 160.44C51.7457 160.44 52.6417 160.723 53.2711 161.288C53.9004 161.853 54.2151 162.717 54.2151 163.88V169H52.7591ZM49.9751 169.096C49.3457 169.096 48.7911 168.989 48.3111 168.776C47.8417 168.563 47.4791 168.269 47.2231 167.896C46.9671 167.512 46.8391 167.08 46.8391 166.6C46.8391 166.141 46.9457 165.725 47.1591 165.352C47.3831 164.979 47.7404 164.68 48.2311 164.456C48.7324 164.232 49.4044 164.12 50.2471 164.12H52.9351V165.224H50.3111C49.5431 165.224 49.0257 165.352 48.7591 165.608C48.4924 165.864 48.3591 166.173 48.3591 166.536C48.3591 166.952 48.5244 167.288 48.8551 167.544C49.1857 167.789 49.6444 167.912 50.2311 167.912C50.8071 167.912 51.3084 167.784 51.7351 167.528C52.1724 167.272 52.4871 166.899 52.6791 166.408L52.9831 167.464C52.7804 167.965 52.4231 168.365 51.9111 168.664C51.3991 168.952 50.7537 169.096 49.9751 169.096ZM61.5856 160.44C62.2789 160.44 62.8869 160.573 63.4096 160.84C63.9429 161.107 64.3589 161.512 64.6576 162.056C64.9562 162.6 65.1056 163.288 65.1056 164.12V169H63.5696V164.296C63.5696 163.475 63.3669 162.856 62.9616 162.44C62.5669 162.024 62.0069 161.816 61.2816 161.816C60.7376 161.816 60.2629 161.923 59.8576 162.136C59.4522 162.349 59.1376 162.664 58.9136 163.08C58.7002 163.496 58.5936 164.013 58.5936 164.632V169H57.0576V160.52H58.5296V162.808L58.2896 162.2C58.5669 161.645 58.9936 161.213 59.5696 160.904C60.1456 160.595 60.8176 160.44 61.5856 160.44ZM73.2122 169V167.208L73.1322 166.872V163.816C73.1322 163.165 72.9402 162.664 72.5562 162.312C72.1829 161.949 71.6175 161.768 70.8602 161.768C70.3589 161.768 69.8682 161.853 69.3882 162.024C68.9082 162.184 68.5029 162.403 68.1722 162.68L67.5322 161.528C67.9695 161.176 68.4922 160.909 69.1002 160.728C69.7189 160.536 70.3642 160.44 71.0362 160.44C72.1989 160.44 73.0949 160.723 73.7242 161.288C74.3535 161.853 74.6682 162.717 74.6682 163.88V169H73.2122ZM70.4282 169.096C69.7989 169.096 69.2442 168.989 68.7642 168.776C68.2949 168.563 67.9322 168.269 67.6762 167.896C67.4202 167.512 67.2922 167.08 67.2922 166.6C67.2922 166.141 67.3989 165.725 67.6122 165.352C67.8362 164.979 68.1935 164.68 68.6842 164.456C69.1855 164.232 69.8575 164.12 70.7002 164.12H73.3882V165.224H70.7642C69.9962 165.224 69.4789 165.352 69.2122 165.608C68.9455 165.864 68.8122 166.173 68.8122 166.536C68.8122 166.952 68.9775 167.288 69.3082 167.544C69.6389 167.789 70.0975 167.912 70.6842 167.912C71.2602 167.912 71.7615 167.784 72.1882 167.528C72.6255 167.272 72.9402 166.899 73.1322 166.408L73.4362 167.464C73.2335 167.965 72.8762 168.365 72.3642 168.664C71.8522 168.952 71.2069 169.096 70.4282 169.096ZM82.0387 160.44C82.732 160.44 83.34 160.573 83.8627 160.84C84.396 161.107 84.812 161.512 85.1107 162.056C85.4094 162.6 85.5587 163.288 85.5587 164.12V169H84.0227V164.296C84.0227 163.475 83.82 162.856 83.4147 162.44C83.02 162.024 82.46 161.816 81.7347 161.816C81.1907 161.816 80.716 161.923 80.3107 162.136C79.9054 162.349 79.5907 162.664 79.3667 163.08C79.1534 163.496 79.0467 164.013 79.0467 164.632V169H77.5107V160.52H78.9827V162.808L78.7427 162.2C79.02 161.645 79.4467 161.213 80.0227 160.904C80.5987 160.595 81.2707 160.44 82.0387 160.44ZM95.1302 169.096C94.4262 169.096 93.7542 169 93.1142 168.808C92.4849 168.616 91.9889 168.381 91.6262 168.104L92.2662 166.888C92.6289 167.133 93.0769 167.341 93.6102 167.512C94.1435 167.683 94.6875 167.768 95.2422 167.768C95.9569 167.768 96.4689 167.667 96.7782 167.464C97.0982 167.261 97.2582 166.979 97.2582 166.616C97.2582 166.349 97.1622 166.141 96.9702 165.992C96.7782 165.843 96.5222 165.731 96.2022 165.656C95.8929 165.581 95.5462 165.517 95.1622 165.464C94.7782 165.4 94.3942 165.325 94.0102 165.24C93.6262 165.144 93.2742 165.016 92.9542 164.856C92.6342 164.685 92.3782 164.456 92.1862 164.168C91.9942 163.869 91.8982 163.475 91.8982 162.984C91.8982 162.472 92.0422 162.024 92.3302 161.64C92.6182 161.256 93.0235 160.963 93.5462 160.76C94.0795 160.547 94.7089 160.44 95.4342 160.44C95.9889 160.44 96.5489 160.509 97.1142 160.648C97.6902 160.776 98.1595 160.963 98.5222 161.208L97.8662 162.424C97.4822 162.168 97.0822 161.992 96.6662 161.896C96.2502 161.8 95.8342 161.752 95.4182 161.752C94.7462 161.752 94.2449 161.864 93.9142 162.088C93.5835 162.301 93.4182 162.579 93.4182 162.92C93.4182 163.208 93.5142 163.432 93.7062 163.592C93.9089 163.741 94.1649 163.859 94.4742 163.944C94.7942 164.029 95.1462 164.104 95.5302 164.168C95.9142 164.221 96.2982 164.296 96.6822 164.392C97.0662 164.477 97.4129 164.6 97.7222 164.76C98.0422 164.92 98.2982 165.144 98.4902 165.432C98.6929 165.72 98.7942 166.104 98.7942 166.584C98.7942 167.096 98.6449 167.539 98.3462 167.912C98.0475 168.285 97.6262 168.579 97.0822 168.792C96.5382 168.995 95.8875 169.096 95.1302 169.096ZM104.49 169.096C103.583 169.096 102.783 168.909 102.09 168.536C101.407 168.163 100.874 167.651 100.49 167C100.116 166.349 99.9298 165.603 99.9298 164.76C99.9298 163.917 100.111 163.171 100.474 162.52C100.847 161.869 101.354 161.363 101.994 161C102.644 160.627 103.375 160.44 104.186 160.44C105.007 160.44 105.732 160.621 106.362 160.984C106.991 161.347 107.482 161.859 107.834 162.52C108.196 163.171 108.378 163.933 108.378 164.808C108.378 164.872 108.372 164.947 108.362 165.032C108.362 165.117 108.356 165.197 108.346 165.272H101.13V164.168H107.546L106.922 164.552C106.932 164.008 106.82 163.523 106.586 163.096C106.351 162.669 106.026 162.339 105.61 162.104C105.204 161.859 104.73 161.736 104.186 161.736C103.652 161.736 103.178 161.859 102.762 162.104C102.346 162.339 102.02 162.675 101.786 163.112C101.551 163.539 101.434 164.029 101.434 164.584V164.84C101.434 165.405 101.562 165.912 101.818 166.36C102.084 166.797 102.452 167.139 102.922 167.384C103.391 167.629 103.93 167.752 104.538 167.752C105.039 167.752 105.492 167.667 105.898 167.496C106.314 167.325 106.676 167.069 106.986 166.728L107.834 167.72C107.45 168.168 106.97 168.509 106.394 168.744C105.828 168.979 105.194 169.096 104.49 169.096ZM114.015 169.096C113.193 169.096 112.457 168.915 111.807 168.552C111.167 168.189 110.66 167.683 110.287 167.032C109.913 166.381 109.727 165.624 109.727 164.76C109.727 163.896 109.913 163.144 110.287 162.504C110.66 161.853 111.167 161.347 111.807 160.984C112.457 160.621 113.193 160.44 114.015 160.44C114.729 160.44 115.375 160.6 115.951 160.92C116.527 161.24 116.985 161.72 117.327 162.36C117.679 163 117.855 163.8 117.855 164.76C117.855 165.72 117.684 166.52 117.343 167.16C117.012 167.8 116.559 168.285 115.983 168.616C115.407 168.936 114.751 169.096 114.015 169.096ZM114.143 167.752C114.676 167.752 115.156 167.629 115.583 167.384C116.02 167.139 116.361 166.792 116.607 166.344C116.863 165.885 116.991 165.357 116.991 164.76C116.991 164.152 116.863 163.629 116.607 163.192C116.361 162.744 116.02 162.397 115.583 162.152C115.156 161.907 114.676 161.784 114.143 161.784C113.599 161.784 113.113 161.907 112.687 162.152C112.26 162.397 111.919 162.744 111.663 163.192C111.407 163.629 111.279 164.152 111.279 164.76C111.279 165.357 111.407 165.885 111.663 166.344C111.919 166.792 112.26 167.139 112.687 167.384C113.113 167.629 113.599 167.752 114.143 167.752ZM117.039 169V166.712L117.135 164.744L116.975 162.776V157.128H118.511V169H117.039ZM126.681 169V167.208L126.601 166.872V163.816C126.601 163.165 126.409 162.664 126.025 162.312C125.652 161.949 125.086 161.768 124.329 161.768C123.828 161.768 123.337 161.853 122.857 162.024C122.377 162.184 121.972 162.403 121.641 162.68L121.001 161.528C121.438 161.176 121.961 160.909 122.569 160.728C123.188 160.536 123.833 160.44 124.505 160.44C125.668 160.44 126.564 160.723 127.193 161.288C127.822 161.853 128.137 162.717 128.137 163.88V169H126.681ZM123.897 169.096C123.268 169.096 122.713 168.989 122.233 168.776C121.764 168.563 121.401 168.269 121.145 167.896C120.889 167.512 120.761 167.08 120.761 166.6C120.761 166.141 120.868 165.725 121.081 165.352C121.305 164.979 121.662 164.68 122.153 164.456C122.654 164.232 123.326 164.12 124.169 164.12H126.857V165.224H124.233C123.465 165.224 122.948 165.352 122.681 165.608C122.414 165.864 122.281 166.173 122.281 166.536C122.281 166.952 122.446 167.288 122.777 167.544C123.108 167.789 123.566 167.912 124.153 167.912C124.729 167.912 125.23 167.784 125.657 167.528C126.094 167.272 126.409 166.899 126.601 166.408L126.905 167.464C126.702 167.965 126.345 168.365 125.833 168.664C125.321 168.952 124.676 169.096 123.897 169.096ZM135.507 160.44C136.201 160.44 136.809 160.573 137.331 160.84C137.865 161.107 138.281 161.512 138.579 162.056C138.878 162.6 139.027 163.288 139.027 164.12V169H137.491V164.296C137.491 163.475 137.289 162.856 136.883 162.44C136.489 162.024 135.929 161.816 135.203 161.816C134.659 161.816 134.185 161.923 133.779 162.136C133.374 162.349 133.059 162.664 132.835 163.08C132.622 163.496 132.515 164.013 132.515 164.632V169H130.979V160.52H132.451V162.808L132.211 162.2C132.489 161.645 132.915 161.213 133.491 160.904C134.067 160.595 134.739 160.44 135.507 160.44ZM145.582 172.2C144.803 172.2 144.046 172.088 143.31 171.864C142.585 171.651 141.993 171.341 141.534 170.936L142.27 169.752C142.665 170.093 143.15 170.36 143.726 170.552C144.302 170.755 144.905 170.856 145.534 170.856C146.537 170.856 147.273 170.621 147.742 170.152C148.211 169.683 148.446 168.968 148.446 168.008V166.216L148.606 164.536L148.526 162.84V160.52H149.982V167.848C149.982 169.341 149.609 170.44 148.862 171.144C148.115 171.848 147.022 172.2 145.582 172.2ZM145.39 168.648C144.569 168.648 143.833 168.477 143.182 168.136C142.542 167.784 142.03 167.299 141.646 166.68C141.273 166.061 141.086 165.347 141.086 164.536C141.086 163.715 141.273 163 141.646 162.392C142.03 161.773 142.542 161.293 143.182 160.952C143.833 160.611 144.569 160.44 145.39 160.44C146.115 160.44 146.777 160.589 147.374 160.888C147.971 161.176 148.446 161.624 148.798 162.232C149.161 162.84 149.342 163.608 149.342 164.536C149.342 165.453 149.161 166.216 148.798 166.824C148.446 167.432 147.971 167.891 147.374 168.2C146.777 168.499 146.115 168.648 145.39 168.648ZM145.566 167.304C146.131 167.304 146.633 167.187 147.07 166.952C147.507 166.717 147.849 166.392 148.094 165.976C148.35 165.56 148.478 165.08 148.478 164.536C148.478 163.992 148.35 163.512 148.094 163.096C147.849 162.68 147.507 162.36 147.07 162.136C146.633 161.901 146.131 161.784 145.566 161.784C145.001 161.784 144.494 161.901 144.046 162.136C143.609 162.36 143.262 162.68 143.006 163.096C142.761 163.512 142.638 163.992 142.638 164.536C142.638 165.08 142.761 165.56 143.006 165.976C143.262 166.392 143.609 166.717 144.046 166.952C144.494 167.187 145.001 167.304 145.566 167.304ZM160.718 169.096C159.896 169.096 159.16 168.915 158.51 168.552C157.87 168.189 157.363 167.683 156.99 167.032C156.616 166.381 156.43 165.624 156.43 164.76C156.43 163.896 156.616 163.144 156.99 162.504C157.363 161.853 157.87 161.347 158.51 160.984C159.16 160.621 159.896 160.44 160.718 160.44C161.432 160.44 162.078 160.6 162.654 160.92C163.23 161.24 163.688 161.72 164.03 162.36C164.382 163 164.558 163.8 164.558 164.76C164.558 165.72 164.387 166.52 164.046 167.16C163.715 167.8 163.262 168.285 162.686 168.616C162.11 168.936 161.454 169.096 160.718 169.096ZM160.846 167.752C161.379 167.752 161.859 167.629 162.286 167.384C162.723 167.139 163.064 166.792 163.31 166.344C163.566 165.885 163.694 165.357 163.694 164.76C163.694 164.152 163.566 163.629 163.31 163.192C163.064 162.744 162.723 162.397 162.286 162.152C161.859 161.907 161.379 161.784 160.846 161.784C160.302 161.784 159.816 161.907 159.39 162.152C158.963 162.397 158.622 162.744 158.366 163.192C158.11 163.629 157.982 164.152 157.982 164.76C157.982 165.357 158.11 165.885 158.366 166.344C158.622 166.792 158.963 167.139 159.39 167.384C159.816 167.629 160.302 167.752 160.846 167.752ZM163.742 169V166.712L163.838 164.744L163.678 162.776V157.128H165.214V169H163.742ZM168.12 169V160.52H169.656V169H168.12ZM168.888 158.888C168.589 158.888 168.339 158.792 168.136 158.6C167.944 158.408 167.848 158.173 167.848 157.896C167.848 157.608 167.944 157.368 168.136 157.176C168.339 156.984 168.589 156.888 168.888 156.888C169.187 156.888 169.432 156.984 169.624 157.176C169.827 157.357 169.928 157.587 169.928 157.864C169.928 158.152 169.832 158.397 169.64 158.6C169.448 158.792 169.197 158.888 168.888 158.888ZM64.327 189.096C63.623 189.096 62.9777 188.936 62.391 188.616C61.815 188.285 61.351 187.8 60.999 187.16C60.6577 186.52 60.487 185.72 60.487 184.76C60.487 183.8 60.6523 183 60.983 182.36C61.3243 181.72 61.783 181.24 62.359 180.92C62.9457 180.6 63.6017 180.44 64.327 180.44C65.159 180.44 65.895 180.621 66.535 180.984C67.175 181.347 67.6817 181.853 68.055 182.504C68.4283 183.144 68.615 183.896 68.615 184.76C68.615 185.624 68.4283 186.381 68.055 187.032C67.6817 187.683 67.175 188.189 66.535 188.552C65.895 188.915 65.159 189.096 64.327 189.096ZM59.831 192.104V180.52H61.303V182.808L61.207 184.776L61.367 186.744V192.104H59.831ZM64.199 187.752C64.743 187.752 65.2283 187.629 65.655 187.384C66.0923 187.139 66.4337 186.792 66.679 186.344C66.935 185.885 67.063 185.357 67.063 184.76C67.063 184.152 66.935 183.629 66.679 183.192C66.4337 182.744 66.0923 182.397 65.655 182.152C65.2283 181.907 64.743 181.784 64.199 181.784C63.6657 181.784 63.1803 181.907 62.743 182.152C62.3163 182.397 61.975 182.744 61.719 183.192C61.4737 183.629 61.351 184.152 61.351 184.76C61.351 185.357 61.4737 185.885 61.719 186.344C61.975 186.792 62.3163 187.139 62.743 187.384C63.1803 187.629 63.6657 187.752 64.199 187.752ZM70.7373 189V180.52H72.2093V182.824L72.0653 182.248C72.2999 181.661 72.6946 181.213 73.2493 180.904C73.8039 180.595 74.4866 180.44 75.2973 180.44V181.928C75.2333 181.917 75.1693 181.912 75.1053 181.912C75.0519 181.912 74.9986 181.912 74.9453 181.912C74.1239 181.912 73.4733 182.157 72.9933 182.648C72.5133 183.139 72.2733 183.848 72.2733 184.776V189H70.7373ZM80.7443 189.096C79.8909 189.096 79.1336 188.909 78.4723 188.536C77.8109 188.163 77.2883 187.651 76.9043 187C76.5203 186.339 76.3283 185.592 76.3283 184.76C76.3283 183.917 76.5203 183.171 76.9043 182.52C77.2883 181.869 77.8109 181.363 78.4723 181C79.1336 180.627 79.8909 180.44 80.7443 180.44C81.5869 180.44 82.3389 180.627 83.0003 181C83.6723 181.363 84.1949 181.869 84.5683 182.52C84.9523 183.16 85.1443 183.907 85.1443 184.76C85.1443 185.603 84.9523 186.349 84.5683 187C84.1949 187.651 83.6723 188.163 83.0003 188.536C82.3389 188.909 81.5869 189.096 80.7443 189.096ZM80.7443 187.752C81.2883 187.752 81.7736 187.629 82.2003 187.384C82.6376 187.139 82.9789 186.792 83.2243 186.344C83.4696 185.885 83.5923 185.357 83.5923 184.76C83.5923 184.152 83.4696 183.629 83.2243 183.192C82.9789 182.744 82.6376 182.397 82.2003 182.152C81.7736 181.907 81.2883 181.784 80.7443 181.784C80.2003 181.784 79.7149 181.907 79.2883 182.152C78.8616 182.397 78.5203 182.744 78.2643 183.192C78.0083 183.629 77.8803 184.152 77.8803 184.76C77.8803 185.357 78.0083 185.885 78.2643 186.344C78.5203 186.792 78.8616 187.139 79.2883 187.384C79.7149 187.629 80.2003 187.752 80.7443 187.752ZM90.7725 189.096C89.9512 189.096 89.2152 188.915 88.5645 188.552C87.9245 188.189 87.4178 187.683 87.0445 187.032C86.6712 186.381 86.4845 185.624 86.4845 184.76C86.4845 183.896 86.6712 183.144 87.0445 182.504C87.4178 181.853 87.9245 181.347 88.5645 180.984C89.2152 180.621 89.9512 180.44 90.7725 180.44C91.4872 180.44 92.1325 180.6 92.7085 180.92C93.2845 181.24 93.7432 181.72 94.0845 182.36C94.4365 183 94.6125 183.8 94.6125 184.76C94.6125 185.72 94.4418 186.52 94.1005 187.16C93.7698 187.8 93.3165 188.285 92.7405 188.616C92.1645 188.936 91.5085 189.096 90.7725 189.096ZM90.9005 187.752C91.4338 187.752 91.9138 187.629 92.3405 187.384C92.7778 187.139 93.1192 186.792 93.3645 186.344C93.6205 185.885 93.7485 185.357 93.7485 184.76C93.7485 184.152 93.6205 183.629 93.3645 183.192C93.1192 182.744 92.7778 182.397 92.3405 182.152C91.9138 181.907 91.4338 181.784 90.9005 181.784C90.3565 181.784 89.8712 181.907 89.4445 182.152C89.0178 182.397 88.6765 182.744 88.4205 183.192C88.1645 183.629 88.0365 184.152 88.0365 184.76C88.0365 185.357 88.1645 185.885 88.4205 186.344C88.6765 186.792 89.0178 187.139 89.4445 187.384C89.8712 187.629 90.3565 187.752 90.9005 187.752ZM93.7965 189V186.712L93.8925 184.744L93.7325 182.776V177.128H95.2685V189H93.7965ZM101.743 189.096C101.017 189.096 100.377 188.963 99.8228 188.696C99.2788 188.429 98.8521 188.024 98.5428 187.48C98.2441 186.925 98.0948 186.232 98.0948 185.4V180.52H99.6308V185.224C99.6308 186.056 99.8281 186.68 100.223 187.096C100.628 187.512 101.193 187.72 101.919 187.72C102.452 187.72 102.916 187.613 103.311 187.4C103.705 187.176 104.009 186.856 104.223 186.44C104.436 186.013 104.543 185.501 104.543 184.904V180.52H106.079V189H104.623V186.712L104.863 187.32C104.585 187.885 104.169 188.323 103.615 188.632C103.06 188.941 102.436 189.096 101.743 189.096ZM110.251 186.952L110.283 184.984L115.163 180.52H117.019L113.275 184.2L112.443 184.904L110.251 186.952ZM109.003 189V177.128H110.539V189H109.003ZM115.483 189L112.155 184.872L113.147 183.64L117.371 189H115.483ZM121.029 189.096C120.325 189.096 119.653 189 119.013 188.808C118.383 188.616 117.887 188.381 117.525 188.104L118.165 186.888C118.527 187.133 118.975 187.341 119.509 187.512C120.042 187.683 120.586 187.768 121.141 187.768C121.855 187.768 122.367 187.667 122.677 187.464C122.997 187.261 123.157 186.979 123.157 186.616C123.157 186.349 123.061 186.141 122.869 185.992C122.677 185.843 122.421 185.731 122.101 185.656C121.791 185.581 121.445 185.517 121.061 185.464C120.677 185.4 120.293 185.325 119.909 185.24C119.525 185.144 119.173 185.016 118.853 184.856C118.533 184.685 118.277 184.456 118.085 184.168C117.893 183.869 117.797 183.475 117.797 182.984C117.797 182.472 117.941 182.024 118.229 181.64C118.517 181.256 118.922 180.963 119.445 180.76C119.978 180.547 120.607 180.44 121.333 180.44C121.887 180.44 122.447 180.509 123.013 180.648C123.589 180.776 124.058 180.963 124.421 181.208L123.765 182.424C123.381 182.168 122.981 181.992 122.565 181.896C122.149 181.8 121.733 181.752 121.317 181.752C120.645 181.752 120.143 181.864 119.813 182.088C119.482 182.301 119.317 182.579 119.317 182.92C119.317 183.208 119.413 183.432 119.605 183.592C119.807 183.741 120.063 183.859 120.373 183.944C120.693 184.029 121.045 184.104 121.429 184.168C121.813 184.221 122.197 184.296 122.581 184.392C122.965 184.477 123.311 184.6 123.621 184.76C123.941 184.92 124.197 185.144 124.389 185.432C124.591 185.72 124.693 186.104 124.693 186.584C124.693 187.096 124.543 187.539 124.245 187.912C123.946 188.285 123.525 188.579 122.981 188.792C122.437 188.995 121.786 189.096 121.029 189.096ZM126.612 189V180.52H128.148V189H126.612ZM127.38 178.888C127.082 178.888 126.831 178.792 126.628 178.6C126.436 178.408 126.34 178.173 126.34 177.896C126.34 177.608 126.436 177.368 126.628 177.176C126.831 176.984 127.082 176.888 127.38 176.888C127.679 176.888 127.924 176.984 128.116 177.176C128.319 177.357 128.42 177.587 128.42 177.864C128.42 178.152 128.324 178.397 128.132 178.6C127.94 178.792 127.69 178.888 127.38 178.888Z" fill="#171A23"/>
<path d="M305.406 16V4.8H310.494C311.71 4.8 312.782 5.03467 313.71 5.504C314.638 5.96267 315.363 6.608 315.886 7.44C316.409 8.272 316.67 9.25867 316.67 10.4C316.67 11.5307 316.409 12.5173 315.886 13.36C315.363 14.192 314.638 14.8427 313.71 15.312C312.782 15.7707 311.71 16 310.494 16H305.406ZM307.998 13.872H310.366C311.113 13.872 311.758 13.7333 312.302 13.456C312.857 13.168 313.283 12.7627 313.582 12.24C313.891 11.7173 314.046 11.104 314.046 10.4C314.046 9.68533 313.891 9.072 313.582 8.56C313.283 8.03733 312.857 7.63733 312.302 7.36C311.758 7.072 311.113 6.928 310.366 6.928H307.998V13.872ZM318.449 16V7.392H320.945V16H318.449ZM319.697 6.192C319.238 6.192 318.865 6.05867 318.577 5.792C318.289 5.52533 318.145 5.19467 318.145 4.8C318.145 4.40533 318.289 4.07467 318.577 3.808C318.865 3.54133 319.238 3.408 319.697 3.408C320.156 3.408 320.529 3.536 320.817 3.792C321.105 4.03733 321.249 4.35733 321.249 4.752C321.249 5.168 321.105 5.51467 320.817 5.792C320.54 6.05867 320.166 6.192 319.697 6.192ZM325.325 14.24L325.389 11.2L329.405 7.392H332.381L328.525 11.312L327.229 12.368L325.325 14.24ZM323.261 16V4.128H325.757V16H323.261ZM329.677 16L326.765 12.384L328.333 10.448L332.701 16H329.677ZM333.824 16V7.392H336.32V16H333.824ZM335.072 6.192C334.613 6.192 334.24 6.05867 333.952 5.792C333.664 5.52533 333.52 5.19467 333.52 4.8C333.52 4.40533 333.664 4.07467 333.952 3.808C334.24 3.54133 334.613 3.408 335.072 3.408C335.531 3.408 335.904 3.536 336.192 3.792C336.48 4.03733 336.624 4.35733 336.624 4.752C336.624 5.168 336.48 5.51467 336.192 5.792C335.915 6.05867 335.541 6.192 335.072 6.192ZM338.636 16V7.392H341.02V9.824L340.684 9.12C340.94 8.512 341.351 8.05333 341.916 7.744C342.482 7.424 343.17 7.264 343.98 7.264V9.568C343.874 9.55733 343.778 9.552 343.692 9.552C343.607 9.54133 343.516 9.536 343.42 9.536C342.738 9.536 342.183 9.73333 341.756 10.128C341.34 10.512 341.132 11.1147 341.132 11.936V16H338.636ZM345.48 16V7.392H347.976V16H345.48ZM346.728 6.192C346.269 6.192 345.896 6.05867 345.608 5.792C345.32 5.52533 345.176 5.19467 345.176 4.8C345.176 4.40533 345.32 4.07467 345.608 3.808C345.896 3.54133 346.269 3.408 346.728 3.408C347.187 3.408 347.56 3.536 347.848 3.792C348.136 4.03733 348.28 4.35733 348.28 4.752C348.28 5.168 348.136 5.51467 347.848 5.792C347.571 6.05867 347.197 6.192 346.728 6.192ZM361.317 7.264C361.999 7.264 362.602 7.40267 363.125 7.68C363.658 7.94667 364.074 8.36267 364.373 8.928C364.682 9.48267 364.837 10.1973 364.837 11.072V16H362.341V11.456C362.341 10.7627 362.197 10.2507 361.909 9.92C361.621 9.58933 361.215 9.424 360.693 9.424C360.33 9.424 360.005 9.50933 359.717 9.68C359.429 9.84 359.205 10.0853 359.045 10.416C358.885 10.7467 358.805 11.168 358.805 11.68V16H356.309V11.456C356.309 10.7627 356.165 10.2507 355.877 9.92C355.599 9.58933 355.199 9.424 354.677 9.424C354.314 9.424 353.989 9.50933 353.701 9.68C353.413 9.84 353.189 10.0853 353.029 10.416C352.869 10.7467 352.789 11.168 352.789 11.68V16H350.293V7.392H352.677V9.744L352.229 9.056C352.527 8.46933 352.949 8.02667 353.493 7.728C354.047 7.41867 354.677 7.264 355.381 7.264C356.17 7.264 356.858 7.46667 357.445 7.872C358.042 8.26667 358.437 8.87467 358.629 9.696L357.749 9.456C358.037 8.784 358.495 8.25067 359.125 7.856C359.765 7.46133 360.495 7.264 361.317 7.264Z" fill="#171A23"/>
<path d="M269.383 169V157.8H273.751C274.732 157.8 275.57 157.955 276.263 158.264C276.956 158.573 277.49 159.021 277.863 159.608C278.236 160.195 278.423 160.893 278.423 161.704C278.423 162.515 278.236 163.213 277.863 163.8C277.49 164.376 276.956 164.824 276.263 165.144C275.57 165.453 274.732 165.608 273.751 165.608H270.263L270.983 164.856V169H269.383ZM270.983 165.016L270.263 164.216H273.703C274.727 164.216 275.5 163.997 276.023 163.56C276.556 163.123 276.823 162.504 276.823 161.704C276.823 160.904 276.556 160.285 276.023 159.848C275.5 159.411 274.727 159.192 273.703 159.192H270.263L270.983 158.392V165.016ZM284.295 169.096C283.388 169.096 282.588 168.909 281.895 168.536C281.212 168.163 280.679 167.651 280.295 167C279.921 166.349 279.735 165.603 279.735 164.76C279.735 163.917 279.916 163.171 280.279 162.52C280.652 161.869 281.159 161.363 281.799 161C282.449 160.627 283.18 160.44 283.991 160.44C284.812 160.44 285.537 160.621 286.167 160.984C286.796 161.347 287.287 161.859 287.639 162.52C288.001 163.171 288.183 163.933 288.183 164.808C288.183 164.872 288.177 164.947 288.167 165.032C288.167 165.117 288.161 165.197 288.151 165.272H280.935V164.168H287.351L286.727 164.552C286.737 164.008 286.625 163.523 286.391 163.096C286.156 162.669 285.831 162.339 285.415 162.104C285.009 161.859 284.535 161.736 283.991 161.736C283.457 161.736 282.983 161.859 282.567 162.104C282.151 162.339 281.825 162.675 281.591 163.112C281.356 163.539 281.239 164.029 281.239 164.584V164.84C281.239 165.405 281.367 165.912 281.623 166.36C281.889 166.797 282.257 167.139 282.727 167.384C283.196 167.629 283.735 167.752 284.343 167.752C284.844 167.752 285.297 167.667 285.703 167.496C286.119 167.325 286.481 167.069 286.791 166.728L287.639 167.72C287.255 168.168 286.775 168.509 286.199 168.744C285.633 168.979 284.999 169.096 284.295 169.096ZM292.747 169.096C292.043 169.096 291.371 169 290.731 168.808C290.102 168.616 289.606 168.381 289.243 168.104L289.883 166.888C290.246 167.133 290.694 167.341 291.227 167.512C291.761 167.683 292.305 167.768 292.859 167.768C293.574 167.768 294.086 167.667 294.395 167.464C294.715 167.261 294.875 166.979 294.875 166.616C294.875 166.349 294.779 166.141 294.587 165.992C294.395 165.843 294.139 165.731 293.819 165.656C293.51 165.581 293.163 165.517 292.779 165.464C292.395 165.4 292.011 165.325 291.627 165.24C291.243 165.144 290.891 165.016 290.571 164.856C290.251 164.685 289.995 164.456 289.803 164.168C289.611 163.869 289.515 163.475 289.515 162.984C289.515 162.472 289.659 162.024 289.947 161.64C290.235 161.256 290.641 160.963 291.163 160.76C291.697 160.547 292.326 160.44 293.051 160.44C293.606 160.44 294.166 160.509 294.731 160.648C295.307 160.776 295.777 160.963 296.139 161.208L295.483 162.424C295.099 162.168 294.699 161.992 294.283 161.896C293.867 161.8 293.451 161.752 293.035 161.752C292.363 161.752 291.862 161.864 291.531 162.088C291.201 162.301 291.035 162.579 291.035 162.92C291.035 163.208 291.131 163.432 291.323 163.592C291.526 163.741 291.782 163.859 292.091 163.944C292.411 164.029 292.763 164.104 293.147 164.168C293.531 164.221 293.915 164.296 294.299 164.392C294.683 164.477 295.03 164.6 295.339 164.76C295.659 164.92 295.915 165.144 296.107 165.432C296.31 165.72 296.411 166.104 296.411 166.584C296.411 167.096 296.262 167.539 295.963 167.912C295.665 168.285 295.243 168.579 294.699 168.792C294.155 168.995 293.505 169.096 292.747 169.096ZM303.595 169V167.208L303.515 166.872V163.816C303.515 163.165 303.323 162.664 302.939 162.312C302.566 161.949 302 161.768 301.243 161.768C300.742 161.768 300.251 161.853 299.771 162.024C299.291 162.184 298.886 162.403 298.555 162.68L297.915 161.528C298.352 161.176 298.875 160.909 299.483 160.728C300.102 160.536 300.747 160.44 301.419 160.44C302.582 160.44 303.478 160.723 304.107 161.288C304.736 161.853 305.051 162.717 305.051 163.88V169H303.595ZM300.811 169.096C300.182 169.096 299.627 168.989 299.147 168.776C298.678 168.563 298.315 168.269 298.059 167.896C297.803 167.512 297.675 167.08 297.675 166.6C297.675 166.141 297.782 165.725 297.995 165.352C298.219 164.979 298.576 164.68 299.067 164.456C299.568 164.232 300.24 164.12 301.083 164.12H303.771V165.224H301.147C300.379 165.224 299.862 165.352 299.595 165.608C299.328 165.864 299.195 166.173 299.195 166.536C299.195 166.952 299.36 167.288 299.691 167.544C300.022 167.789 300.48 167.912 301.067 167.912C301.643 167.912 302.144 167.784 302.571 167.528C303.008 167.272 303.323 166.899 303.515 166.408L303.819 167.464C303.616 167.965 303.259 168.365 302.747 168.664C302.235 168.952 301.59 169.096 300.811 169.096ZM312.422 160.44C313.115 160.44 313.723 160.573 314.246 160.84C314.779 161.107 315.195 161.512 315.494 162.056C315.792 162.6 315.942 163.288 315.942 164.12V169H314.406V164.296C314.406 163.475 314.203 162.856 313.798 162.44C313.403 162.024 312.843 161.816 312.118 161.816C311.574 161.816 311.099 161.923 310.694 162.136C310.288 162.349 309.974 162.664 309.75 163.08C309.536 163.496 309.43 164.013 309.43 164.632V169H307.894V160.52H309.366V162.808L309.126 162.2C309.403 161.645 309.83 161.213 310.406 160.904C310.982 160.595 311.654 160.44 312.422 160.44ZM324.048 169V167.208L323.968 166.872V163.816C323.968 163.165 323.776 162.664 323.392 162.312C323.019 161.949 322.453 161.768 321.696 161.768C321.195 161.768 320.704 161.853 320.224 162.024C319.744 162.184 319.339 162.403 319.008 162.68L318.368 161.528C318.805 161.176 319.328 160.909 319.936 160.728C320.555 160.536 321.2 160.44 321.872 160.44C323.035 160.44 323.931 160.723 324.56 161.288C325.189 161.853 325.504 162.717 325.504 163.88V169H324.048ZM321.264 169.096C320.635 169.096 320.08 168.989 319.6 168.776C319.131 168.563 318.768 168.269 318.512 167.896C318.256 167.512 318.128 167.08 318.128 166.6C318.128 166.141 318.235 165.725 318.448 165.352C318.672 164.979 319.029 164.68 319.52 164.456C320.021 164.232 320.693 164.12 321.536 164.12H324.224V165.224H321.6C320.832 165.224 320.315 165.352 320.048 165.608C319.781 165.864 319.648 166.173 319.648 166.536C319.648 166.952 319.813 167.288 320.144 167.544C320.475 167.789 320.933 167.912 321.52 167.912C322.096 167.912 322.597 167.784 323.024 167.528C323.461 167.272 323.776 166.899 323.968 166.408L324.272 167.464C324.069 167.965 323.712 168.365 323.2 168.664C322.688 168.952 322.043 169.096 321.264 169.096ZM332.875 160.44C333.568 160.44 334.176 160.573 334.699 160.84C335.232 161.107 335.648 161.512 335.947 162.056C336.245 162.6 336.395 163.288 336.395 164.12V169H334.859V164.296C334.859 163.475 334.656 162.856 334.251 162.44C333.856 162.024 333.296 161.816 332.571 161.816C332.027 161.816 331.552 161.923 331.147 162.136C330.741 162.349 330.427 162.664 330.203 163.08C329.989 163.496 329.883 164.013 329.883 164.632V169H328.347V160.52H329.819V162.808L329.579 162.2C329.856 161.645 330.283 161.213 330.859 160.904C331.435 160.595 332.107 160.44 332.875 160.44ZM345.966 169.096C345.262 169.096 344.59 169 343.95 168.808C343.321 168.616 342.825 168.381 342.462 168.104L343.102 166.888C343.465 167.133 343.913 167.341 344.446 167.512C344.979 167.683 345.523 167.768 346.078 167.768C346.793 167.768 347.305 167.667 347.614 167.464C347.934 167.261 348.094 166.979 348.094 166.616C348.094 166.349 347.998 166.141 347.806 165.992C347.614 165.843 347.358 165.731 347.038 165.656C346.729 165.581 346.382 165.517 345.998 165.464C345.614 165.4 345.23 165.325 344.846 165.24C344.462 165.144 344.11 165.016 343.79 164.856C343.47 164.685 343.214 164.456 343.022 164.168C342.83 163.869 342.734 163.475 342.734 162.984C342.734 162.472 342.878 162.024 343.166 161.64C343.454 161.256 343.859 160.963 344.382 160.76C344.915 160.547 345.545 160.44 346.27 160.44C346.825 160.44 347.385 160.509 347.95 160.648C348.526 160.776 348.995 160.963 349.358 161.208L348.702 162.424C348.318 162.168 347.918 161.992 347.502 161.896C347.086 161.8 346.67 161.752 346.254 161.752C345.582 161.752 345.081 161.864 344.75 162.088C344.419 162.301 344.254 162.579 344.254 162.92C344.254 163.208 344.35 163.432 344.542 163.592C344.745 163.741 345.001 163.859 345.31 163.944C345.63 164.029 345.982 164.104 346.366 164.168C346.75 164.221 347.134 164.296 347.518 164.392C347.902 164.477 348.249 164.6 348.558 164.76C348.878 164.92 349.134 165.144 349.326 165.432C349.529 165.72 349.63 166.104 349.63 166.584C349.63 167.096 349.481 167.539 349.182 167.912C348.883 168.285 348.462 168.579 347.918 168.792C347.374 168.995 346.723 169.096 345.966 169.096ZM355.326 169.096C354.419 169.096 353.619 168.909 352.926 168.536C352.243 168.163 351.71 167.651 351.326 167C350.952 166.349 350.766 165.603 350.766 164.76C350.766 163.917 350.947 163.171 351.31 162.52C351.683 161.869 352.19 161.363 352.83 161C353.48 160.627 354.211 160.44 355.022 160.44C355.843 160.44 356.568 160.621 357.198 160.984C357.827 161.347 358.318 161.859 358.67 162.52C359.032 163.171 359.214 163.933 359.214 164.808C359.214 164.872 359.208 164.947 359.198 165.032C359.198 165.117 359.192 165.197 359.182 165.272H351.966V164.168H358.382L357.758 164.552C357.768 164.008 357.656 163.523 357.422 163.096C357.187 162.669 356.862 162.339 356.446 162.104C356.04 161.859 355.566 161.736 355.022 161.736C354.488 161.736 354.014 161.859 353.598 162.104C353.182 162.339 352.856 162.675 352.622 163.112C352.387 163.539 352.27 164.029 352.27 164.584V164.84C352.27 165.405 352.398 165.912 352.654 166.36C352.92 166.797 353.288 167.139 353.758 167.384C354.227 167.629 354.766 167.752 355.374 167.752C355.875 167.752 356.328 167.667 356.734 167.496C357.15 167.325 357.512 167.069 357.822 166.728L358.67 167.72C358.286 168.168 357.806 168.509 357.23 168.744C356.664 168.979 356.03 169.096 355.326 169.096ZM364.851 169.096C364.029 169.096 363.293 168.915 362.643 168.552C362.003 168.189 361.496 167.683 361.123 167.032C360.749 166.381 360.563 165.624 360.563 164.76C360.563 163.896 360.749 163.144 361.123 162.504C361.496 161.853 362.003 161.347 362.643 160.984C363.293 160.621 364.029 160.44 364.851 160.44C365.565 160.44 366.211 160.6 366.787 160.92C367.363 161.24 367.821 161.72 368.163 162.36C368.515 163 368.691 163.8 368.691 164.76C368.691 165.72 368.52 166.52 368.179 167.16C367.848 167.8 367.395 168.285 366.819 168.616C366.243 168.936 365.587 169.096 364.851 169.096ZM364.979 167.752C365.512 167.752 365.992 167.629 366.419 167.384C366.856 167.139 367.197 166.792 367.443 166.344C367.699 165.885 367.827 165.357 367.827 164.76C367.827 164.152 367.699 163.629 367.443 163.192C367.197 162.744 366.856 162.397 366.419 162.152C365.992 161.907 365.512 161.784 364.979 161.784C364.435 161.784 363.949 161.907 363.523 162.152C363.096 162.397 362.755 162.744 362.499 163.192C362.243 163.629 362.115 164.152 362.115 164.76C362.115 165.357 362.243 165.885 362.499 166.344C362.755 166.792 363.096 167.139 363.523 167.384C363.949 167.629 364.435 167.752 364.979 167.752ZM367.875 169V166.712L367.971 164.744L367.811 162.776V157.128H369.347V169H367.875ZM377.517 169V167.208L377.437 166.872V163.816C377.437 163.165 377.245 162.664 376.861 162.312C376.488 161.949 375.922 161.768 375.165 161.768C374.664 161.768 374.173 161.853 373.693 162.024C373.213 162.184 372.808 162.403 372.477 162.68L371.837 161.528C372.274 161.176 372.797 160.909 373.405 160.728C374.024 160.536 374.669 160.44 375.341 160.44C376.504 160.44 377.4 160.723 378.029 161.288C378.658 161.853 378.973 162.717 378.973 163.88V169H377.517ZM374.733 169.096C374.104 169.096 373.549 168.989 373.069 168.776C372.6 168.563 372.237 168.269 371.981 167.896C371.725 167.512 371.597 167.08 371.597 166.6C371.597 166.141 371.704 165.725 371.917 165.352C372.141 164.979 372.498 164.68 372.989 164.456C373.49 164.232 374.162 164.12 375.005 164.12H377.693V165.224H375.069C374.301 165.224 373.784 165.352 373.517 165.608C373.25 165.864 373.117 166.173 373.117 166.536C373.117 166.952 373.282 167.288 373.613 167.544C373.944 167.789 374.402 167.912 374.989 167.912C375.565 167.912 376.066 167.784 376.493 167.528C376.93 167.272 377.245 166.899 377.437 166.408L377.741 167.464C377.538 167.965 377.181 168.365 376.669 168.664C376.157 168.952 375.512 169.096 374.733 169.096ZM386.343 160.44C387.037 160.44 387.645 160.573 388.167 160.84C388.701 161.107 389.117 161.512 389.415 162.056C389.714 162.6 389.863 163.288 389.863 164.12V169H388.327V164.296C388.327 163.475 388.125 162.856 387.719 162.44C387.325 162.024 386.765 161.816 386.039 161.816C385.495 161.816 385.021 161.923 384.615 162.136C384.21 162.349 383.895 162.664 383.671 163.08C383.458 163.496 383.351 164.013 383.351 164.632V169H381.815V160.52H383.287V162.808L383.047 162.2C383.325 161.645 383.751 161.213 384.327 160.904C384.903 160.595 385.575 160.44 386.343 160.44ZM396.418 172.2C395.639 172.2 394.882 172.088 394.146 171.864C393.421 171.651 392.829 171.341 392.37 170.936L393.106 169.752C393.501 170.093 393.986 170.36 394.562 170.552C395.138 170.755 395.741 170.856 396.37 170.856C397.373 170.856 398.109 170.621 398.578 170.152C399.047 169.683 399.282 168.968 399.282 168.008V166.216L399.442 164.536L399.362 162.84V160.52H400.818V167.848C400.818 169.341 400.445 170.44 399.698 171.144C398.951 171.848 397.858 172.2 396.418 172.2ZM396.226 168.648C395.405 168.648 394.669 168.477 394.018 168.136C393.378 167.784 392.866 167.299 392.482 166.68C392.109 166.061 391.922 165.347 391.922 164.536C391.922 163.715 392.109 163 392.482 162.392C392.866 161.773 393.378 161.293 394.018 160.952C394.669 160.611 395.405 160.44 396.226 160.44C396.951 160.44 397.613 160.589 398.21 160.888C398.807 161.176 399.282 161.624 399.634 162.232C399.997 162.84 400.178 163.608 400.178 164.536C400.178 165.453 399.997 166.216 399.634 166.824C399.282 167.432 398.807 167.891 398.21 168.2C397.613 168.499 396.951 168.648 396.226 168.648ZM396.402 167.304C396.967 167.304 397.469 167.187 397.906 166.952C398.343 166.717 398.685 166.392 398.93 165.976C399.186 165.56 399.314 165.08 399.314 164.536C399.314 163.992 399.186 163.512 398.93 163.096C398.685 162.68 398.343 162.36 397.906 162.136C397.469 161.901 396.967 161.784 396.402 161.784C395.837 161.784 395.33 161.901 394.882 162.136C394.445 162.36 394.098 162.68 393.842 163.096C393.597 163.512 393.474 163.992 393.474 164.536C393.474 165.08 393.597 165.56 393.842 165.976C394.098 166.392 394.445 166.717 394.882 166.952C395.33 167.187 395.837 167.304 396.402 167.304ZM270.601 189.096C269.779 189.096 269.043 188.915 268.393 188.552C267.753 188.189 267.246 187.683 266.873 187.032C266.499 186.381 266.313 185.624 266.313 184.76C266.313 183.896 266.499 183.144 266.873 182.504C267.246 181.853 267.753 181.347 268.393 180.984C269.043 180.621 269.779 180.44 270.601 180.44C271.315 180.44 271.961 180.6 272.537 180.92C273.113 181.24 273.571 181.72 273.913 182.36C274.265 183 274.441 183.8 274.441 184.76C274.441 185.72 274.27 186.52 273.929 187.16C273.598 187.8 273.145 188.285 272.569 188.616C271.993 188.936 271.337 189.096 270.601 189.096ZM270.729 187.752C271.262 187.752 271.742 187.629 272.169 187.384C272.606 187.139 272.947 186.792 273.193 186.344C273.449 185.885 273.577 185.357 273.577 184.76C273.577 184.152 273.449 183.629 273.193 183.192C272.947 182.744 272.606 182.397 272.169 182.152C271.742 181.907 271.262 181.784 270.729 181.784C270.185 181.784 269.699 181.907 269.273 182.152C268.846 182.397 268.505 182.744 268.249 183.192C267.993 183.629 267.865 184.152 267.865 184.76C267.865 185.357 267.993 185.885 268.249 186.344C268.505 186.792 268.846 187.139 269.273 187.384C269.699 187.629 270.185 187.752 270.729 187.752ZM273.625 189V186.712L273.721 184.744L273.561 182.776V177.128H275.097V189H273.625ZM278.003 189V180.52H279.539V189H278.003ZM278.771 178.888C278.472 178.888 278.222 178.792 278.019 178.6C277.827 178.408 277.731 178.173 277.731 177.896C277.731 177.608 277.827 177.368 278.019 177.176C278.222 176.984 278.472 176.888 278.771 176.888C279.07 176.888 279.315 176.984 279.507 177.176C279.71 177.357 279.811 177.587 279.811 177.864C279.811 178.152 279.715 178.397 279.523 178.6C279.331 178.792 279.08 178.888 278.771 178.888ZM283.72 186.952L283.752 184.984L288.632 180.52H290.488L286.744 184.2L285.912 184.904L283.72 186.952ZM282.472 189V177.128H284.008V189H282.472ZM288.952 189L285.624 184.872L286.616 183.64L290.84 189H288.952ZM292.331 189V180.52H293.867V189H292.331ZM293.099 178.888C292.8 178.888 292.55 178.792 292.347 178.6C292.155 178.408 292.059 178.173 292.059 177.896C292.059 177.608 292.155 177.368 292.347 177.176C292.55 176.984 292.8 176.888 293.099 176.888C293.398 176.888 293.643 176.984 293.835 177.176C294.038 177.357 294.139 177.587 294.139 177.864C294.139 178.152 294.043 178.397 293.851 178.6C293.659 178.792 293.408 178.888 293.099 178.888ZM296.8 189V180.52H298.272V182.824L298.128 182.248C298.362 181.661 298.757 181.213 299.312 180.904C299.866 180.595 300.549 180.44 301.36 180.44V181.928C301.296 181.917 301.232 181.912 301.168 181.912C301.114 181.912 301.061 181.912 301.008 181.912C300.186 181.912 299.536 182.157 299.056 182.648C298.576 183.139 298.336 183.848 298.336 184.776V189H296.8ZM303.253 189V180.52H304.789V189H303.253ZM304.021 178.888C303.722 178.888 303.472 178.792 303.269 178.6C303.077 178.408 302.981 178.173 302.981 177.896C302.981 177.608 303.077 177.368 303.269 177.176C303.472 176.984 303.722 176.888 304.021 176.888C304.32 176.888 304.565 176.984 304.757 177.176C304.96 177.357 305.061 177.587 305.061 177.864C305.061 178.152 304.965 178.397 304.773 178.6C304.581 178.792 304.33 178.888 304.021 178.888ZM318.33 180.44C319.012 180.44 319.615 180.573 320.138 180.84C320.66 181.107 321.066 181.512 321.354 182.056C321.652 182.6 321.802 183.288 321.802 184.12V189H320.266V184.296C320.266 183.475 320.074 182.856 319.69 182.44C319.306 182.024 318.767 181.816 318.074 181.816C317.562 181.816 317.114 181.923 316.73 182.136C316.346 182.349 316.047 182.664 315.834 183.08C315.631 183.496 315.53 184.013 315.53 184.632V189H313.994V184.296C313.994 183.475 313.802 182.856 313.418 182.44C313.044 182.024 312.506 181.816 311.802 181.816C311.3 181.816 310.858 181.923 310.474 182.136C310.09 182.349 309.791 182.664 309.578 183.08C309.364 183.496 309.258 184.013 309.258 184.632V189H307.722V180.52H309.194V182.776L308.954 182.2C309.22 181.645 309.631 181.213 310.186 180.904C310.74 180.595 311.386 180.44 312.122 180.44C312.932 180.44 313.631 180.643 314.218 181.048C314.804 181.443 315.188 182.045 315.37 182.856L314.746 182.6C315.002 181.949 315.45 181.427 316.09 181.032C316.73 180.637 317.476 180.44 318.33 180.44ZM330.173 186.952L330.205 184.984L335.085 180.52H336.941L333.197 184.2L332.365 184.904L330.173 186.952ZM328.925 189V177.128H330.461V189H328.925ZM335.405 189L332.077 184.872L333.069 183.64L337.293 189H335.405ZM342.216 189.096C341.31 189.096 340.51 188.909 339.816 188.536C339.134 188.163 338.6 187.651 338.216 187C337.843 186.349 337.656 185.603 337.656 184.76C337.656 183.917 337.838 183.171 338.2 182.52C338.574 181.869 339.08 181.363 339.72 181C340.371 180.627 341.102 180.44 341.912 180.44C342.734 180.44 343.459 180.621 344.088 180.984C344.718 181.347 345.208 181.859 345.56 182.52C345.923 183.171 346.104 183.933 346.104 184.808C346.104 184.872 346.099 184.947 346.088 185.032C346.088 185.117 346.083 185.197 346.072 185.272H338.856V184.168H345.272L344.648 184.552C344.659 184.008 344.547 183.523 344.312 183.096C344.078 182.669 343.752 182.339 343.336 182.104C342.931 181.859 342.456 181.736 341.912 181.736C341.379 181.736 340.904 181.859 340.488 182.104C340.072 182.339 339.747 182.675 339.512 183.112C339.278 183.539 339.16 184.029 339.16 184.584V184.84C339.16 185.405 339.288 185.912 339.544 186.36C339.811 186.797 340.179 187.139 340.648 187.384C341.118 187.629 341.656 187.752 342.264 187.752C342.766 187.752 343.219 187.667 343.624 187.496C344.04 187.325 344.403 187.069 344.712 186.728L345.56 187.72C345.176 188.168 344.696 188.509 344.12 188.744C343.555 188.979 342.92 189.096 342.216 189.096ZM355.446 189.096C354.593 189.096 353.931 188.867 353.462 188.408C352.993 187.949 352.758 187.293 352.758 186.44V178.664H354.294V186.376C354.294 186.835 354.406 187.187 354.63 187.432C354.865 187.677 355.195 187.8 355.622 187.8C356.102 187.8 356.502 187.667 356.822 187.4L357.302 188.504C357.067 188.707 356.785 188.856 356.454 188.952C356.134 189.048 355.798 189.096 355.446 189.096ZM351.318 181.784V180.52H356.726V181.784H351.318ZM362.727 189.096C362.002 189.096 361.362 188.963 360.807 188.696C360.263 188.429 359.836 188.024 359.527 187.48C359.228 186.925 359.079 186.232 359.079 185.4V180.52H360.615V185.224C360.615 186.056 360.812 186.68 361.207 187.096C361.612 187.512 362.178 187.72 362.903 187.72C363.436 187.72 363.9 187.613 364.295 187.4C364.69 187.176 364.994 186.856 365.207 186.44C365.42 186.013 365.527 185.501 365.527 184.904V180.52H367.063V189H365.607V186.712L365.847 187.32C365.57 187.885 365.154 188.323 364.599 188.632C364.044 188.941 363.42 189.096 362.727 189.096ZM368.899 192.2C368.547 192.2 368.211 192.157 367.891 192.072C367.561 191.987 367.283 191.859 367.059 191.688L367.555 190.504C367.875 190.771 368.291 190.904 368.803 190.904C369.209 190.904 369.518 190.776 369.731 190.52C369.955 190.275 370.067 189.907 370.067 189.416V180.52H371.603V189.384C371.603 190.248 371.369 190.931 370.899 191.432C370.441 191.944 369.774 192.2 368.899 192.2ZM370.835 178.888C370.537 178.888 370.286 178.792 370.083 178.6C369.891 178.408 369.795 178.173 369.795 177.896C369.795 177.608 369.891 177.368 370.083 177.176C370.286 176.984 370.537 176.888 370.835 176.888C371.134 176.888 371.379 176.984 371.571 177.176C371.774 177.357 371.875 177.587 371.875 177.864C371.875 178.152 371.779 178.397 371.587 178.6C371.395 178.792 371.145 178.888 370.835 178.888ZM378.102 189.096C377.377 189.096 376.737 188.963 376.182 188.696C375.638 188.429 375.211 188.024 374.902 187.48C374.603 186.925 374.454 186.232 374.454 185.4V180.52H375.99V185.224C375.99 186.056 376.187 186.68 376.582 187.096C376.987 187.512 377.553 187.72 378.278 187.72C378.811 187.72 379.275 187.613 379.67 187.4C380.065 187.176 380.369 186.856 380.582 186.44C380.795 186.013 380.902 185.501 380.902 184.904V180.52H382.438V189H380.982V186.712L381.222 187.32C380.945 187.885 380.529 188.323 379.974 188.632C379.419 188.941 378.795 189.096 378.102 189.096ZM390.626 189V187.208L390.546 186.872V183.816C390.546 183.165 390.354 182.664 389.97 182.312C389.597 181.949 389.032 181.768 388.274 181.768C387.773 181.768 387.282 181.853 386.802 182.024C386.322 182.184 385.917 182.403 385.586 182.68L384.946 181.528C385.384 181.176 385.906 180.909 386.514 180.728C387.133 180.536 387.778 180.44 388.45 180.44C389.613 180.44 390.509 180.723 391.138 181.288C391.768 181.853 392.082 182.717 392.082 183.88V189H390.626ZM387.842 189.096C387.213 189.096 386.658 188.989 386.178 188.776C385.709 188.563 385.346 188.269 385.09 187.896C384.834 187.512 384.706 187.08 384.706 186.6C384.706 186.141 384.813 185.725 385.026 185.352C385.25 184.979 385.608 184.68 386.098 184.456C386.6 184.232 387.272 184.12 388.114 184.12H390.802V185.224H388.178C387.41 185.224 386.893 185.352 386.626 185.608C386.36 185.864 386.226 186.173 386.226 186.536C386.226 186.952 386.392 187.288 386.722 187.544C387.053 187.789 387.512 187.912 388.098 187.912C388.674 187.912 389.176 187.784 389.602 187.528C390.04 187.272 390.354 186.899 390.546 186.408L390.85 187.464C390.648 187.965 390.29 188.365 389.778 188.664C389.266 188.952 388.621 189.096 387.842 189.096ZM399.453 180.44C400.146 180.44 400.754 180.573 401.277 180.84C401.81 181.107 402.226 181.512 402.525 182.056C402.823 182.6 402.973 183.288 402.973 184.12V189H401.437V184.296C401.437 183.475 401.234 182.856 400.829 182.44C400.434 182.024 399.874 181.816 399.149 181.816C398.605 181.816 398.13 181.923 397.725 182.136C397.319 182.349 397.005 182.664 396.781 183.08C396.567 183.496 396.461 184.013 396.461 184.632V189H394.925V180.52H396.397V182.808L396.157 182.2C396.434 181.645 396.861 181.213 397.437 180.904C398.013 180.595 398.685 180.44 399.453 180.44Z" fill="#171A23"/>
<circle cx="334.5" cy="86.5" r="40.5" fill="#2CBF29"/>
<path d="M339.688 73.3763L346.326 81.8432H332.722V73.3763H339.688ZM327.19 71.9651V81.8432H313.361C311.831 81.8432 310.595 83.1044 310.595 84.6655V90.3101C309.065 90.3101 307.829 91.5713 307.829 93.1324C307.829 94.6935 309.065 95.9547 310.595 95.9547H313.456C313.395 96.4133 313.361 96.8896 313.361 97.3658C313.361 102.825 317.691 107.244 323.041 107.244C328.391 107.244 332.722 102.825 332.722 97.3658C332.722 96.8896 332.687 96.4133 332.627 95.9547H338.357C338.297 96.4133 338.262 96.8896 338.262 97.3658C338.262 102.825 342.592 107.244 347.943 107.244C353.293 107.244 357.623 102.825 357.623 97.3658C357.623 96.8896 357.588 96.4133 357.528 95.9547H360.38C361.91 95.9547 363.146 94.6935 363.146 93.1324C363.146 91.5713 361.91 90.3101 360.38 90.3101V84.6655C360.38 83.1044 359.144 81.8432 357.614 81.8432H353.414L344.01 69.8484C342.964 68.5078 341.374 67.7317 339.688 67.7317H331.339C329.048 67.7317 327.19 69.6279 327.19 71.9651ZM318.893 97.3658C318.893 95.0286 320.751 93.1324 323.041 93.1324C325.332 93.1324 327.19 95.0286 327.19 97.3658C327.19 99.703 325.332 101.599 323.041 101.599C320.751 101.599 318.893 99.703 318.893 97.3658ZM343.785 97.3658C343.785 95.0286 345.643 93.1324 347.934 93.1324C350.224 93.1324 352.083 95.0286 352.083 97.3658C352.083 99.703 350.224 101.599 347.934 101.599C345.643 101.599 343.785 99.703 343.785 97.3658Z" fill="white"/>
<path d="M532.766 16V4.8H537.854C539.07 4.8 540.142 5.03467 541.07 5.504C541.998 5.96267 542.723 6.608 543.246 7.44C543.768 8.272 544.03 9.25867 544.03 10.4C544.03 11.5307 543.768 12.5173 543.246 13.36C542.723 14.192 541.998 14.8427 541.07 15.312C540.142 15.7707 539.07 16 537.854 16H532.766ZM535.358 13.872H537.726C538.472 13.872 539.118 13.7333 539.661 13.456C540.216 13.168 540.643 12.7627 540.942 12.24C541.251 11.7173 541.406 11.104 541.406 10.4C541.406 9.68533 541.251 9.072 540.942 8.56C540.643 8.03733 540.216 7.63733 539.661 7.36C539.118 7.072 538.472 6.928 537.726 6.928H535.358V13.872ZM545.808 16V7.392H548.304V16H545.808ZM547.056 6.192C546.598 6.192 546.224 6.05867 545.936 5.792C545.648 5.52533 545.504 5.19467 545.504 4.8C545.504 4.40533 545.648 4.07467 545.936 3.808C546.224 3.54133 546.598 3.408 547.056 3.408C547.515 3.408 547.888 3.536 548.176 3.792C548.464 4.03733 548.608 4.35733 548.608 4.752C548.608 5.168 548.464 5.51467 548.176 5.792C547.899 6.05867 547.526 6.192 547.056 6.192ZM554.141 16.128C553.127 16.128 552.338 15.872 551.773 15.36C551.207 14.8373 550.925 14.064 550.925 13.04V5.488H553.421V13.008C553.421 13.3707 553.517 13.6533 553.709 13.856C553.901 14.048 554.162 14.144 554.493 14.144C554.887 14.144 555.223 14.0373 555.501 13.824L556.173 15.584C555.917 15.7653 555.607 15.904 555.245 16C554.893 16.0853 554.525 16.128 554.141 16.128ZM549.597 9.504V7.584H555.565V9.504H549.597ZM561.58 16.128C560.599 16.128 559.735 15.936 558.988 15.552C558.252 15.168 557.682 14.6453 557.276 13.984C556.871 13.312 556.668 12.5493 556.668 11.696C556.668 10.832 556.866 10.0693 557.26 9.408C557.666 8.736 558.215 8.21333 558.908 7.84C559.602 7.456 560.386 7.264 561.26 7.264C562.103 7.264 562.86 7.44533 563.532 7.808C564.215 8.16 564.754 8.672 565.148 9.344C565.543 10.0053 565.74 10.8 565.74 11.728C565.74 11.824 565.735 11.936 565.724 12.064C565.714 12.1813 565.703 12.2933 565.692 12.4H558.7V10.944H564.38L563.42 11.376C563.42 10.928 563.33 10.5387 563.148 10.208C562.967 9.87733 562.716 9.62133 562.396 9.44C562.076 9.248 561.703 9.152 561.276 9.152C560.85 9.152 560.471 9.248 560.14 9.44C559.82 9.62133 559.57 9.88267 559.388 10.224C559.207 10.5547 559.116 10.9493 559.116 11.408V11.792C559.116 12.2613 559.218 12.6773 559.42 13.04C559.634 13.392 559.927 13.664 560.3 13.856C560.684 14.0373 561.132 14.128 561.644 14.128C562.103 14.128 562.503 14.0587 562.844 13.92C563.196 13.7813 563.516 13.5733 563.804 13.296L565.132 14.736C564.738 15.184 564.242 15.5307 563.644 15.776C563.047 16.0107 562.359 16.128 561.58 16.128ZM567.402 16V7.392H569.786V9.824L569.45 9.12C569.706 8.512 570.117 8.05333 570.682 7.744C571.247 7.424 571.935 7.264 572.746 7.264V9.568C572.639 9.55733 572.543 9.552 572.458 9.552C572.373 9.54133 572.282 9.536 572.186 9.536C571.503 9.536 570.949 9.73333 570.522 10.128C570.106 10.512 569.898 11.1147 569.898 11.936V16H567.402ZM574.246 16V7.392H576.742V16H574.246ZM575.494 6.192C575.035 6.192 574.662 6.05867 574.374 5.792C574.086 5.52533 573.942 5.19467 573.942 4.8C573.942 4.40533 574.086 4.07467 574.374 3.808C574.662 3.54133 575.035 3.408 575.494 3.408C575.952 3.408 576.326 3.536 576.614 3.792C576.902 4.03733 577.046 4.35733 577.046 4.752C577.046 5.168 576.902 5.51467 576.614 5.792C576.336 6.05867 575.963 6.192 575.494 6.192ZM590.082 7.264C590.765 7.264 591.368 7.40267 591.89 7.68C592.424 7.94667 592.84 8.36267 593.138 8.928C593.448 9.48267 593.602 10.1973 593.602 11.072V16H591.106V11.456C591.106 10.7627 590.962 10.2507 590.674 9.92C590.386 9.58933 589.981 9.424 589.458 9.424C589.096 9.424 588.77 9.50933 588.482 9.68C588.194 9.84 587.97 10.0853 587.81 10.416C587.65 10.7467 587.57 11.168 587.57 11.68V16H585.074V11.456C585.074 10.7627 584.93 10.2507 584.642 9.92C584.365 9.58933 583.965 9.424 583.442 9.424C583.08 9.424 582.754 9.50933 582.466 9.68C582.178 9.84 581.954 10.0853 581.794 10.416C581.634 10.7467 581.554 11.168 581.554 11.68V16H579.058V7.392H581.442V9.744L580.994 9.056C581.293 8.46933 581.714 8.02667 582.258 7.728C582.813 7.41867 583.442 7.264 584.146 7.264C584.936 7.264 585.624 7.46667 586.21 7.872C586.808 8.26667 587.202 8.87467 587.394 9.696L586.514 9.456C586.802 8.784 587.261 8.25067 587.89 7.856C588.53 7.46133 589.261 7.264 590.082 7.264ZM601.12 16V14.32L600.96 13.952V10.944C600.96 10.4107 600.794 9.99467 600.464 9.696C600.144 9.39733 599.648 9.248 598.976 9.248C598.517 9.248 598.064 9.32267 597.616 9.472C597.178 9.61067 596.805 9.80267 596.496 10.048L595.6 8.304C596.069 7.97333 596.634 7.71733 597.296 7.536C597.957 7.35467 598.629 7.264 599.312 7.264C600.624 7.264 601.642 7.57333 602.368 8.192C603.093 8.81067 603.456 9.776 603.456 11.088V16H601.12ZM598.496 16.128C597.824 16.128 597.248 16.016 596.768 15.792C596.288 15.5573 595.92 15.2427 595.664 14.848C595.408 14.4533 595.28 14.0107 595.28 13.52C595.28 13.008 595.402 12.56 595.648 12.176C595.904 11.792 596.304 11.4933 596.848 11.28C597.392 11.056 598.101 10.944 598.976 10.944H601.264V12.4H599.248C598.661 12.4 598.256 12.496 598.032 12.688C597.818 12.88 597.712 13.12 597.712 13.408C597.712 13.728 597.834 13.984 598.08 14.176C598.336 14.3573 598.682 14.448 599.12 14.448C599.536 14.448 599.909 14.352 600.24 14.16C600.57 13.9573 600.81 13.664 600.96 13.28L601.344 14.432C601.162 14.9867 600.832 15.408 600.352 15.696C599.872 15.984 599.253 16.128 598.496 16.128Z" fill="#171A23"/>
<path d="M511.961 169V157.8H516.329C517.311 157.8 518.148 157.955 518.841 158.264C519.535 158.573 520.068 159.021 520.441 159.608C520.815 160.195 521.001 160.893 521.001 161.704C521.001 162.515 520.815 163.213 520.441 163.8C520.068 164.376 519.535 164.824 518.841 165.144C518.148 165.453 517.311 165.608 516.329 165.608H512.841L513.561 164.856V169H511.961ZM513.561 165.016L512.841 164.216H516.281C517.305 164.216 518.079 163.997 518.601 163.56C519.135 163.123 519.401 162.504 519.401 161.704C519.401 160.904 519.135 160.285 518.601 159.848C518.079 159.411 517.305 159.192 516.281 159.192H512.841L513.561 158.392V165.016ZM526.873 169.096C525.966 169.096 525.166 168.909 524.473 168.536C523.79 168.163 523.257 167.651 522.873 167C522.499 166.349 522.313 165.603 522.313 164.76C522.313 163.917 522.494 163.171 522.857 162.52C523.23 161.869 523.737 161.363 524.377 161C525.027 160.627 525.758 160.44 526.569 160.44C527.39 160.44 528.115 160.621 528.745 160.984C529.374 161.347 529.865 161.859 530.217 162.52C530.579 163.171 530.761 163.933 530.761 164.808C530.761 164.872 530.755 164.947 530.745 165.032C530.745 165.117 530.739 165.197 530.729 165.272H523.513V164.168H529.929L529.305 164.552C529.315 164.008 529.203 163.523 528.969 163.096C528.734 162.669 528.409 162.339 527.993 162.104C527.587 161.859 527.113 161.736 526.569 161.736C526.035 161.736 525.561 161.859 525.145 162.104C524.729 162.339 524.403 162.675 524.169 163.112C523.934 163.539 523.817 164.029 523.817 164.584V164.84C523.817 165.405 523.945 165.912 524.201 166.36C524.467 166.797 524.835 167.139 525.305 167.384C525.774 167.629 526.313 167.752 526.921 167.752C527.422 167.752 527.875 167.667 528.281 167.496C528.697 167.325 529.059 167.069 529.369 166.728L530.217 167.72C529.833 168.168 529.353 168.509 528.777 168.744C528.211 168.979 527.577 169.096 526.873 169.096ZM535.326 169.096C534.622 169.096 533.95 169 533.31 168.808C532.68 168.616 532.184 168.381 531.822 168.104L532.462 166.888C532.824 167.133 533.272 167.341 533.806 167.512C534.339 167.683 534.883 167.768 535.438 167.768C536.152 167.768 536.664 167.667 536.974 167.464C537.294 167.261 537.454 166.979 537.454 166.616C537.454 166.349 537.358 166.141 537.166 165.992C536.974 165.843 536.718 165.731 536.398 165.656C536.088 165.581 535.742 165.517 535.358 165.464C534.974 165.4 534.59 165.325 534.206 165.24C533.822 165.144 533.47 165.016 533.15 164.856C532.83 164.685 532.574 164.456 532.382 164.168C532.19 163.869 532.094 163.475 532.094 162.984C532.094 162.472 532.238 162.024 532.526 161.64C532.814 161.256 533.219 160.963 533.742 160.76C534.275 160.547 534.904 160.44 535.63 160.44C536.184 160.44 536.744 160.509 537.31 160.648C537.886 160.776 538.355 160.963 538.718 161.208L538.062 162.424C537.678 162.168 537.278 161.992 536.862 161.896C536.446 161.8 536.03 161.752 535.614 161.752C534.942 161.752 534.44 161.864 534.11 162.088C533.779 162.301 533.614 162.579 533.614 162.92C533.614 163.208 533.71 163.432 533.902 163.592C534.104 163.741 534.36 163.859 534.67 163.944C534.99 164.029 535.342 164.104 535.726 164.168C536.11 164.221 536.494 164.296 536.878 164.392C537.262 164.477 537.608 164.6 537.918 164.76C538.238 164.92 538.494 165.144 538.686 165.432C538.888 165.72 538.99 166.104 538.99 166.584C538.99 167.096 538.84 167.539 538.542 167.912C538.243 168.285 537.822 168.579 537.278 168.792C536.734 168.995 536.083 169.096 535.326 169.096ZM546.173 169V167.208L546.093 166.872V163.816C546.093 163.165 545.901 162.664 545.517 162.312C545.144 161.949 544.578 161.768 543.821 161.768C543.32 161.768 542.829 161.853 542.349 162.024C541.869 162.184 541.464 162.403 541.133 162.68L540.493 161.528C540.93 161.176 541.453 160.909 542.061 160.728C542.68 160.536 543.325 160.44 543.997 160.44C545.16 160.44 546.056 160.723 546.685 161.288C547.314 161.853 547.629 162.717 547.629 163.88V169H546.173ZM543.389 169.096C542.76 169.096 542.205 168.989 541.725 168.776C541.256 168.563 540.893 168.269 540.637 167.896C540.381 167.512 540.253 167.08 540.253 166.6C540.253 166.141 540.36 165.725 540.573 165.352C540.797 164.979 541.154 164.68 541.645 164.456C542.146 164.232 542.818 164.12 543.661 164.12H546.349V165.224H543.725C542.957 165.224 542.44 165.352 542.173 165.608C541.906 165.864 541.773 166.173 541.773 166.536C541.773 166.952 541.938 167.288 542.269 167.544C542.6 167.789 543.058 167.912 543.645 167.912C544.221 167.912 544.722 167.784 545.149 167.528C545.586 167.272 545.901 166.899 546.093 166.408L546.397 167.464C546.194 167.965 545.837 168.365 545.325 168.664C544.813 168.952 544.168 169.096 543.389 169.096ZM555 160.44C555.693 160.44 556.301 160.573 556.824 160.84C557.357 161.107 557.773 161.512 558.072 162.056C558.37 162.6 558.52 163.288 558.52 164.12V169H556.984V164.296C556.984 163.475 556.781 162.856 556.376 162.44C555.981 162.024 555.421 161.816 554.696 161.816C554.152 161.816 553.677 161.923 553.272 162.136C552.866 162.349 552.552 162.664 552.328 163.08C552.114 163.496 552.008 164.013 552.008 164.632V169H550.472V160.52H551.944V162.808L551.704 162.2C551.981 161.645 552.408 161.213 552.984 160.904C553.56 160.595 554.232 160.44 555 160.44ZM566.626 169V167.208L566.546 166.872V163.816C566.546 163.165 566.354 162.664 565.97 162.312C565.597 161.949 565.032 161.768 564.274 161.768C563.773 161.768 563.282 161.853 562.802 162.024C562.322 162.184 561.917 162.403 561.586 162.68L560.946 161.528C561.384 161.176 561.906 160.909 562.514 160.728C563.133 160.536 563.778 160.44 564.45 160.44C565.613 160.44 566.509 160.723 567.138 161.288C567.768 161.853 568.082 162.717 568.082 163.88V169H566.626ZM563.842 169.096C563.213 169.096 562.658 168.989 562.178 168.776C561.709 168.563 561.346 168.269 561.09 167.896C560.834 167.512 560.706 167.08 560.706 166.6C560.706 166.141 560.813 165.725 561.026 165.352C561.25 164.979 561.608 164.68 562.098 164.456C562.6 164.232 563.272 164.12 564.114 164.12H566.802V165.224H564.178C563.41 165.224 562.893 165.352 562.626 165.608C562.36 165.864 562.226 166.173 562.226 166.536C562.226 166.952 562.392 167.288 562.722 167.544C563.053 167.789 563.512 167.912 564.098 167.912C564.674 167.912 565.176 167.784 565.602 167.528C566.04 167.272 566.354 166.899 566.546 166.408L566.85 167.464C566.648 167.965 566.29 168.365 565.778 168.664C565.266 168.952 564.621 169.096 563.842 169.096ZM575.453 160.44C576.146 160.44 576.754 160.573 577.277 160.84C577.81 161.107 578.226 161.512 578.525 162.056C578.823 162.6 578.973 163.288 578.973 164.12V169H577.437V164.296C577.437 163.475 577.234 162.856 576.829 162.44C576.434 162.024 575.874 161.816 575.149 161.816C574.605 161.816 574.13 161.923 573.725 162.136C573.319 162.349 573.005 162.664 572.781 163.08C572.567 163.496 572.461 164.013 572.461 164.632V169H570.925V160.52H572.397V162.808L572.157 162.2C572.434 161.645 572.861 161.213 573.437 160.904C574.013 160.595 574.685 160.44 575.453 160.44ZM589.024 169.096C588.171 169.096 587.51 168.867 587.04 168.408C586.571 167.949 586.336 167.293 586.336 166.44V158.664H587.872V166.376C587.872 166.835 587.984 167.187 588.208 167.432C588.443 167.677 588.774 167.8 589.2 167.8C589.68 167.8 590.08 167.667 590.4 167.4L590.88 168.504C590.646 168.707 590.363 168.856 590.032 168.952C589.712 169.048 589.376 169.096 589.024 169.096ZM584.896 161.784V160.52H590.304V161.784H584.896ZM596.232 169.096C595.325 169.096 594.525 168.909 593.832 168.536C593.149 168.163 592.616 167.651 592.232 167C591.859 166.349 591.672 165.603 591.672 164.76C591.672 163.917 591.853 163.171 592.216 162.52C592.589 161.869 593.096 161.363 593.736 161C594.387 160.627 595.117 160.44 595.928 160.44C596.749 160.44 597.475 160.621 598.104 160.984C598.733 161.347 599.224 161.859 599.576 162.52C599.939 163.171 600.12 163.933 600.12 164.808C600.12 164.872 600.115 164.947 600.104 165.032C600.104 165.117 600.099 165.197 600.088 165.272H592.872V164.168H599.288L598.664 164.552C598.675 164.008 598.563 163.523 598.328 163.096C598.093 162.669 597.768 162.339 597.352 162.104C596.947 161.859 596.472 161.736 595.928 161.736C595.395 161.736 594.92 161.859 594.504 162.104C594.088 162.339 593.763 162.675 593.528 163.112C593.293 163.539 593.176 164.029 593.176 164.584V164.84C593.176 165.405 593.304 165.912 593.56 166.36C593.827 166.797 594.195 167.139 594.664 167.384C595.133 167.629 595.672 167.752 596.28 167.752C596.781 167.752 597.235 167.667 597.64 167.496C598.056 167.325 598.419 167.069 598.728 166.728L599.576 167.72C599.192 168.168 598.712 168.509 598.136 168.744C597.571 168.979 596.936 169.096 596.232 169.096ZM602.253 169V157.128H603.789V169H602.253ZM611.986 169V167.208L611.906 166.872V163.816C611.906 163.165 611.714 162.664 611.33 162.312C610.956 161.949 610.391 161.768 609.634 161.768C609.132 161.768 608.642 161.853 608.162 162.024C607.682 162.184 607.276 162.403 606.946 162.68L606.306 161.528C606.743 161.176 607.266 160.909 607.874 160.728C608.492 160.536 609.138 160.44 609.81 160.44C610.972 160.44 611.868 160.723 612.498 161.288C613.127 161.853 613.442 162.717 613.442 163.88V169H611.986ZM609.202 169.096C608.572 169.096 608.018 168.989 607.538 168.776C607.068 168.563 606.706 168.269 606.45 167.896C606.194 167.512 606.066 167.08 606.066 166.6C606.066 166.141 606.172 165.725 606.386 165.352C606.61 164.979 606.967 164.68 607.458 164.456C607.959 164.232 608.631 164.12 609.474 164.12H612.162V165.224H609.538C608.77 165.224 608.252 165.352 607.986 165.608C607.719 165.864 607.586 166.173 607.586 166.536C607.586 166.952 607.751 167.288 608.082 167.544C608.412 167.789 608.871 167.912 609.458 167.912C610.034 167.912 610.535 167.784 610.962 167.528C611.399 167.272 611.714 166.899 611.906 166.408L612.21 167.464C612.007 167.965 611.65 168.365 611.138 168.664C610.626 168.952 609.98 169.096 609.202 169.096ZM620.812 160.44C621.505 160.44 622.113 160.573 622.636 160.84C623.169 161.107 623.585 161.512 623.884 162.056C624.183 162.6 624.332 163.288 624.332 164.12V169H622.796V164.296C622.796 163.475 622.593 162.856 622.188 162.44C621.793 162.024 621.233 161.816 620.508 161.816C619.964 161.816 619.489 161.923 619.084 162.136C618.679 162.349 618.364 162.664 618.14 163.08C617.927 163.496 617.82 164.013 617.82 164.632V169H616.284V157.128H617.82V162.808L617.516 162.2C617.793 161.645 618.22 161.213 618.796 160.904C619.372 160.595 620.044 160.44 620.812 160.44ZM518.702 189.096C517.881 189.096 517.145 188.915 516.494 188.552C515.854 188.189 515.348 187.683 514.974 187.032C514.601 186.381 514.414 185.624 514.414 184.76C514.414 183.896 514.601 183.144 514.974 182.504C515.348 181.853 515.854 181.347 516.494 180.984C517.145 180.621 517.881 180.44 518.702 180.44C519.417 180.44 520.062 180.6 520.638 180.92C521.214 181.24 521.673 181.72 522.014 182.36C522.366 183 522.542 183.8 522.542 184.76C522.542 185.72 522.372 186.52 522.03 187.16C521.7 187.8 521.246 188.285 520.67 188.616C520.094 188.936 519.438 189.096 518.702 189.096ZM518.83 187.752C519.364 187.752 519.844 187.629 520.27 187.384C520.708 187.139 521.049 186.792 521.294 186.344C521.55 185.885 521.678 185.357 521.678 184.76C521.678 184.152 521.55 183.629 521.294 183.192C521.049 182.744 520.708 182.397 520.27 182.152C519.844 181.907 519.364 181.784 518.83 181.784C518.286 181.784 517.801 181.907 517.374 182.152C516.948 182.397 516.606 182.744 516.35 183.192C516.094 183.629 515.966 184.152 515.966 184.76C515.966 185.357 516.094 185.885 516.35 186.344C516.606 186.792 516.948 187.139 517.374 187.384C517.801 187.629 518.286 187.752 518.83 187.752ZM521.726 189V186.712L521.822 184.744L521.662 182.776V177.128H523.198V189H521.726ZM526.104 189V180.52H527.64V189H526.104ZM526.872 178.888C526.574 178.888 526.323 178.792 526.12 178.6C525.928 178.408 525.832 178.173 525.832 177.896C525.832 177.608 525.928 177.368 526.12 177.176C526.323 176.984 526.574 176.888 526.872 176.888C527.171 176.888 527.416 176.984 527.608 177.176C527.811 177.357 527.912 177.587 527.912 177.864C527.912 178.152 527.816 178.397 527.624 178.6C527.432 178.792 527.182 178.888 526.872 178.888ZM533.485 189.096C532.632 189.096 531.971 188.867 531.501 188.408C531.032 187.949 530.797 187.293 530.797 186.44V178.664H532.333V186.376C532.333 186.835 532.445 187.187 532.669 187.432C532.904 187.677 533.235 187.8 533.661 187.8C534.141 187.8 534.541 187.667 534.861 187.4L535.341 188.504C535.107 188.707 534.824 188.856 534.493 188.952C534.173 189.048 533.837 189.096 533.485 189.096ZM529.357 181.784V180.52H534.765V181.784H529.357ZM540.693 189.096C539.786 189.096 538.986 188.909 538.293 188.536C537.61 188.163 537.077 187.651 536.693 187C536.32 186.349 536.133 185.603 536.133 184.76C536.133 183.917 536.314 183.171 536.677 182.52C537.05 181.869 537.557 181.363 538.197 181C538.848 180.627 539.578 180.44 540.389 180.44C541.21 180.44 541.936 180.621 542.565 180.984C543.194 181.347 543.685 181.859 544.037 182.52C544.4 183.171 544.581 183.933 544.581 184.808C544.581 184.872 544.576 184.947 544.565 185.032C544.565 185.117 544.56 185.197 544.549 185.272H537.333V184.168H543.749L543.125 184.552C543.136 184.008 543.024 183.523 542.789 183.096C542.554 182.669 542.229 182.339 541.813 182.104C541.408 181.859 540.933 181.736 540.389 181.736C539.856 181.736 539.381 181.859 538.965 182.104C538.549 182.339 538.224 182.675 537.989 183.112C537.754 183.539 537.637 184.029 537.637 184.584V184.84C537.637 185.405 537.765 185.912 538.021 186.36C538.288 186.797 538.656 187.139 539.125 187.384C539.594 187.629 540.133 187.752 540.741 187.752C541.242 187.752 541.696 187.667 542.101 187.496C542.517 187.325 542.88 187.069 543.189 186.728L544.037 187.72C543.653 188.168 543.173 188.509 542.597 188.744C542.032 188.979 541.397 189.096 540.693 189.096ZM546.714 189V180.52H548.186V182.824L548.042 182.248C548.276 181.661 548.671 181.213 549.226 180.904C549.78 180.595 550.463 180.44 551.274 180.44V181.928C551.21 181.917 551.146 181.912 551.082 181.912C551.028 181.912 550.975 181.912 550.922 181.912C550.1 181.912 549.45 182.157 548.97 182.648C548.49 183.139 548.25 183.848 548.25 184.776V189H546.714ZM553.167 189V180.52H554.703V189H553.167ZM553.935 178.888C553.636 178.888 553.386 178.792 553.183 178.6C552.991 178.408 552.895 178.173 552.895 177.896C552.895 177.608 552.991 177.368 553.183 177.176C553.386 176.984 553.636 176.888 553.935 176.888C554.234 176.888 554.479 176.984 554.671 177.176C554.874 177.357 554.975 177.587 554.975 177.864C554.975 178.152 554.879 178.397 554.687 178.6C554.495 178.792 554.244 178.888 553.935 178.888ZM568.244 180.44C568.926 180.44 569.529 180.573 570.052 180.84C570.574 181.107 570.98 181.512 571.268 182.056C571.566 182.6 571.716 183.288 571.716 184.12V189H570.18V184.296C570.18 183.475 569.988 182.856 569.604 182.44C569.22 182.024 568.681 181.816 567.988 181.816C567.476 181.816 567.028 181.923 566.644 182.136C566.26 182.349 565.961 182.664 565.748 183.08C565.545 183.496 565.444 184.013 565.444 184.632V189H563.908V184.296C563.908 183.475 563.716 182.856 563.332 182.44C562.958 182.024 562.42 181.816 561.716 181.816C561.214 181.816 560.772 181.923 560.388 182.136C560.004 182.349 559.705 182.664 559.492 183.08C559.278 183.496 559.172 184.013 559.172 184.632V189H557.636V180.52H559.108V182.776L558.868 182.2C559.134 181.645 559.545 181.213 560.1 180.904C560.654 180.595 561.3 180.44 562.036 180.44C562.846 180.44 563.545 180.643 564.132 181.048C564.718 181.443 565.102 182.045 565.284 182.856L564.66 182.6C564.916 181.949 565.364 181.427 566.004 181.032C566.644 180.637 567.39 180.44 568.244 180.44ZM579.806 189V187.208L579.726 186.872V183.816C579.726 183.165 579.534 182.664 579.15 182.312C578.777 181.949 578.211 181.768 577.454 181.768C576.953 181.768 576.462 181.853 575.982 182.024C575.502 182.184 575.097 182.403 574.766 182.68L574.126 181.528C574.563 181.176 575.086 180.909 575.694 180.728C576.313 180.536 576.958 180.44 577.63 180.44C578.793 180.44 579.689 180.723 580.318 181.288C580.947 181.853 581.262 182.717 581.262 183.88V189H579.806ZM577.022 189.096C576.393 189.096 575.838 188.989 575.358 188.776C574.889 188.563 574.526 188.269 574.27 187.896C574.014 187.512 573.886 187.08 573.886 186.6C573.886 186.141 573.993 185.725 574.206 185.352C574.43 184.979 574.787 184.68 575.278 184.456C575.779 184.232 576.451 184.12 577.294 184.12H579.982V185.224H577.358C576.59 185.224 576.073 185.352 575.806 185.608C575.539 185.864 575.406 186.173 575.406 186.536C575.406 186.952 575.571 187.288 575.902 187.544C576.233 187.789 576.691 187.912 577.278 187.912C577.854 187.912 578.355 187.784 578.782 187.528C579.219 187.272 579.534 186.899 579.726 186.408L580.03 187.464C579.827 187.965 579.47 188.365 578.958 188.664C578.446 188.952 577.801 189.096 577.022 189.096ZM592.033 189.096C591.18 189.096 590.423 188.909 589.761 188.536C589.1 188.163 588.577 187.651 588.193 187C587.809 186.339 587.617 185.592 587.617 184.76C587.617 183.917 587.809 183.171 588.193 182.52C588.577 181.869 589.1 181.363 589.761 181C590.423 180.627 591.18 180.44 592.033 180.44C592.876 180.44 593.628 180.627 594.289 181C594.961 181.363 595.484 181.869 595.857 182.52C596.241 183.16 596.433 183.907 596.433 184.76C596.433 185.603 596.241 186.349 595.857 187C595.484 187.651 594.961 188.163 594.289 188.536C593.628 188.909 592.876 189.096 592.033 189.096ZM592.033 187.752C592.577 187.752 593.063 187.629 593.489 187.384C593.927 187.139 594.268 186.792 594.513 186.344C594.759 185.885 594.881 185.357 594.881 184.76C594.881 184.152 594.759 183.629 594.513 183.192C594.268 182.744 593.927 182.397 593.489 182.152C593.063 181.907 592.577 181.784 592.033 181.784C591.489 181.784 591.004 181.907 590.577 182.152C590.151 182.397 589.809 182.744 589.553 183.192C589.297 183.629 589.169 184.152 589.169 184.76C589.169 185.357 589.297 185.885 589.553 186.344C589.809 186.792 590.151 187.139 590.577 187.384C591.004 187.629 591.489 187.752 592.033 187.752ZM598.558 189V177.128H600.094V189H598.558ZM606.802 189.096C605.896 189.096 605.096 188.909 604.402 188.536C603.72 188.163 603.186 187.651 602.802 187C602.429 186.349 602.242 185.603 602.242 184.76C602.242 183.917 602.424 183.171 602.786 182.52C603.16 181.869 603.666 181.363 604.306 181C604.957 180.627 605.688 180.44 606.498 180.44C607.32 180.44 608.045 180.621 608.674 180.984C609.304 181.347 609.794 181.859 610.146 182.52C610.509 183.171 610.69 183.933 610.69 184.808C610.69 184.872 610.685 184.947 610.674 185.032C610.674 185.117 610.669 185.197 610.658 185.272H603.442V184.168H609.858L609.234 184.552C609.245 184.008 609.133 183.523 608.898 183.096C608.664 182.669 608.338 182.339 607.922 182.104C607.517 181.859 607.042 181.736 606.498 181.736C605.965 181.736 605.49 181.859 605.074 182.104C604.658 182.339 604.333 182.675 604.098 183.112C603.864 183.539 603.746 184.029 603.746 184.584V184.84C603.746 185.405 603.874 185.912 604.13 186.36C604.397 186.797 604.765 187.139 605.234 187.384C605.704 187.629 606.242 187.752 606.85 187.752C607.352 187.752 607.805 187.667 608.21 187.496C608.626 187.325 608.989 187.069 609.298 186.728L610.146 187.72C609.762 188.168 609.282 188.509 608.706 188.744C608.141 188.979 607.506 189.096 606.802 189.096ZM617.351 180.44C618.045 180.44 618.653 180.573 619.175 180.84C619.709 181.107 620.125 181.512 620.423 182.056C620.722 182.6 620.871 183.288 620.871 184.12V189H619.335V184.296C619.335 183.475 619.133 182.856 618.727 182.44C618.333 182.024 617.773 181.816 617.047 181.816C616.503 181.816 616.029 181.923 615.623 182.136C615.218 182.349 614.903 182.664 614.679 183.08C614.466 183.496 614.359 184.013 614.359 184.632V189H612.823V177.128H614.359V182.808L614.055 182.2C614.333 181.645 614.759 181.213 615.335 180.904C615.911 180.595 616.583 180.44 617.351 180.44ZM534.277 209.096C533.413 209.096 532.64 208.909 531.957 208.536C531.285 208.163 530.757 207.651 530.373 207C529.989 206.349 529.797 205.603 529.797 204.76C529.797 203.917 529.989 203.171 530.373 202.52C530.757 201.869 531.285 201.363 531.957 201C532.64 200.627 533.413 200.44 534.277 200.44C535.045 200.44 535.728 200.595 536.325 200.904C536.933 201.203 537.402 201.651 537.733 202.248L536.565 203C536.288 202.584 535.946 202.28 535.541 202.088C535.146 201.885 534.72 201.784 534.261 201.784C533.706 201.784 533.21 201.907 532.773 202.152C532.336 202.397 531.989 202.744 531.733 203.192C531.477 203.629 531.349 204.152 531.349 204.76C531.349 205.368 531.477 205.896 531.733 206.344C531.989 206.792 532.336 207.139 532.773 207.384C533.21 207.629 533.706 207.752 534.261 207.752C534.72 207.752 535.146 207.656 535.541 207.464C535.946 207.261 536.288 206.952 536.565 206.536L537.733 207.272C537.402 207.859 536.933 208.312 536.325 208.632C535.728 208.941 535.045 209.096 534.277 209.096ZM543.29 209.096C542.564 209.096 541.924 208.963 541.37 208.696C540.826 208.429 540.399 208.024 540.09 207.48C539.791 206.925 539.642 206.232 539.642 205.4V200.52H541.178V205.224C541.178 206.056 541.375 206.68 541.77 207.096C542.175 207.512 542.74 207.72 543.466 207.72C543.999 207.72 544.463 207.613 544.858 207.4C545.252 207.176 545.556 206.856 545.77 206.44C545.983 206.013 546.09 205.501 546.09 204.904V200.52H547.626V209H546.17V206.712L546.41 207.32C546.132 207.885 545.716 208.323 545.162 208.632C544.607 208.941 543.983 209.096 543.29 209.096ZM552.982 209.096C552.278 209.096 551.606 209 550.966 208.808C550.336 208.616 549.84 208.381 549.478 208.104L550.118 206.888C550.48 207.133 550.928 207.341 551.462 207.512C551.995 207.683 552.539 207.768 553.094 207.768C553.808 207.768 554.32 207.667 554.63 207.464C554.95 207.261 555.11 206.979 555.11 206.616C555.11 206.349 555.014 206.141 554.822 205.992C554.63 205.843 554.374 205.731 554.054 205.656C553.744 205.581 553.398 205.517 553.014 205.464C552.63 205.4 552.246 205.325 551.862 205.24C551.478 205.144 551.126 205.016 550.806 204.856C550.486 204.685 550.23 204.456 550.038 204.168C549.846 203.869 549.75 203.475 549.75 202.984C549.75 202.472 549.894 202.024 550.182 201.64C550.47 201.256 550.875 200.963 551.398 200.76C551.931 200.547 552.56 200.44 553.286 200.44C553.84 200.44 554.4 200.509 554.966 200.648C555.542 200.776 556.011 200.963 556.374 201.208L555.718 202.424C555.334 202.168 554.934 201.992 554.518 201.896C554.102 201.8 553.686 201.752 553.27 201.752C552.598 201.752 552.096 201.864 551.766 202.088C551.435 202.301 551.27 202.579 551.27 202.92C551.27 203.208 551.366 203.432 551.558 203.592C551.76 203.741 552.016 203.859 552.326 203.944C552.646 204.029 552.998 204.104 553.382 204.168C553.766 204.221 554.15 204.296 554.534 204.392C554.918 204.477 555.264 204.6 555.574 204.76C555.894 204.92 556.15 205.144 556.342 205.432C556.544 205.72 556.646 206.104 556.646 206.584C556.646 207.096 556.496 207.539 556.198 207.912C555.899 208.285 555.478 208.579 554.934 208.792C554.39 208.995 553.739 209.096 552.982 209.096ZM561.477 209.096C560.624 209.096 559.963 208.867 559.493 208.408C559.024 207.949 558.789 207.293 558.789 206.44V198.664H560.325V206.376C560.325 206.835 560.437 207.187 560.661 207.432C560.896 207.677 561.227 207.8 561.653 207.8C562.133 207.8 562.533 207.667 562.853 207.4L563.333 208.504C563.099 208.707 562.816 208.856 562.485 208.952C562.165 209.048 561.829 209.096 561.477 209.096ZM557.349 201.784V200.52H562.757V201.784H557.349ZM568.541 209.096C567.688 209.096 566.93 208.909 566.269 208.536C565.608 208.163 565.085 207.651 564.701 207C564.317 206.339 564.125 205.592 564.125 204.76C564.125 203.917 564.317 203.171 564.701 202.52C565.085 201.869 565.608 201.363 566.269 201C566.93 200.627 567.688 200.44 568.541 200.44C569.384 200.44 570.136 200.627 570.797 201C571.469 201.363 571.992 201.869 572.365 202.52C572.749 203.16 572.941 203.907 572.941 204.76C572.941 205.603 572.749 206.349 572.365 207C571.992 207.651 571.469 208.163 570.797 208.536C570.136 208.909 569.384 209.096 568.541 209.096ZM568.541 207.752C569.085 207.752 569.57 207.629 569.997 207.384C570.434 207.139 570.776 206.792 571.021 206.344C571.266 205.885 571.389 205.357 571.389 204.76C571.389 204.152 571.266 203.629 571.021 203.192C570.776 202.744 570.434 202.397 569.997 202.152C569.57 201.907 569.085 201.784 568.541 201.784C567.997 201.784 567.512 201.907 567.085 202.152C566.658 202.397 566.317 202.744 566.061 203.192C565.805 203.629 565.677 204.152 565.677 204.76C565.677 205.357 565.805 205.885 566.061 206.344C566.317 206.792 566.658 207.139 567.085 207.384C567.512 207.629 567.997 207.752 568.541 207.752ZM585.673 200.44C586.356 200.44 586.959 200.573 587.481 200.84C588.004 201.107 588.409 201.512 588.697 202.056C588.996 202.6 589.145 203.288 589.145 204.12V209H587.609V204.296C587.609 203.475 587.417 202.856 587.033 202.44C586.649 202.024 586.111 201.816 585.417 201.816C584.905 201.816 584.457 201.923 584.073 202.136C583.689 202.349 583.391 202.664 583.177 203.08C582.975 203.496 582.873 204.013 582.873 204.632V209H581.337V204.296C581.337 203.475 581.145 202.856 580.761 202.44C580.388 202.024 579.849 201.816 579.145 201.816C578.644 201.816 578.201 201.923 577.817 202.136C577.433 202.349 577.135 202.664 576.921 203.08C576.708 203.496 576.601 204.013 576.601 204.632V209H575.065V200.52H576.537V202.776L576.297 202.2C576.564 201.645 576.975 201.213 577.529 200.904C578.084 200.595 578.729 200.44 579.465 200.44C580.276 200.44 580.975 200.643 581.561 201.048C582.148 201.443 582.532 202.045 582.713 202.856L582.089 202.6C582.345 201.949 582.793 201.427 583.433 201.032C584.073 200.637 584.82 200.44 585.673 200.44ZM595.748 209.096C594.841 209.096 594.041 208.909 593.348 208.536C592.665 208.163 592.132 207.651 591.748 207C591.374 206.349 591.188 205.603 591.188 204.76C591.188 203.917 591.369 203.171 591.732 202.52C592.105 201.869 592.612 201.363 593.252 201C593.902 200.627 594.633 200.44 595.444 200.44C596.265 200.44 596.99 200.621 597.62 200.984C598.249 201.347 598.74 201.859 599.092 202.52C599.454 203.171 599.636 203.933 599.636 204.808C599.636 204.872 599.63 204.947 599.62 205.032C599.62 205.117 599.614 205.197 599.604 205.272H592.388V204.168H598.804L598.18 204.552C598.19 204.008 598.078 203.523 597.844 203.096C597.609 202.669 597.284 202.339 596.868 202.104C596.462 201.859 595.988 201.736 595.444 201.736C594.91 201.736 594.436 201.859 594.02 202.104C593.604 202.339 593.278 202.675 593.044 203.112C592.809 203.539 592.692 204.029 592.692 204.584V204.84C592.692 205.405 592.82 205.912 593.076 206.36C593.342 206.797 593.71 207.139 594.18 207.384C594.649 207.629 595.188 207.752 595.796 207.752C596.297 207.752 596.75 207.667 597.156 207.496C597.572 207.325 597.934 207.069 598.244 206.728L599.092 207.72C598.708 208.168 598.228 208.509 597.652 208.744C597.086 208.979 596.452 209.096 595.748 209.096ZM601.769 209V200.52H603.241V202.824L603.097 202.248C603.331 201.661 603.726 201.213 604.281 200.904C604.835 200.595 605.518 200.44 606.329 200.44V201.928C606.265 201.917 606.201 201.912 606.137 201.912C606.083 201.912 606.03 201.912 605.977 201.912C605.155 201.912 604.505 202.157 604.025 202.648C603.545 203.139 603.305 203.848 603.305 204.776V209H601.769Z" fill="#171A23"/>
<circle cx="567.5" cy="84.5" r="40.5" fill="#2CBF29"/>
<path d="M580.802 70.4619C581.439 69.8465 582.286 69.5063 583.165 69.513C584.044 69.5198 584.887 69.873 585.514 70.4981C586.142 71.1232 586.506 71.9714 586.529 72.8636C586.552 73.7558 586.233 74.6222 585.639 75.2801L567.601 98.1782C567.291 98.5173 566.917 98.7894 566.501 98.9783C566.084 99.1672 565.635 99.269 565.179 99.2775C564.724 99.2861 564.271 99.2013 563.848 99.0282C563.425 98.855 563.041 98.5972 562.719 98.2699L550.757 86.128C550.424 85.8129 550.157 85.433 549.971 85.0108C549.786 84.5887 549.687 84.1329 549.679 83.6708C549.67 83.2087 549.754 82.7497 549.925 82.3212C550.095 81.8926 550.349 81.5034 550.671 81.1765C550.993 80.8497 551.377 80.5921 551.799 80.419C552.221 80.2459 552.673 80.1609 553.128 80.1691C553.584 80.1772 554.033 80.2784 554.448 80.4665C554.864 80.6546 555.239 80.9258 555.549 81.2639L565.015 90.8682L580.716 70.5629C580.744 70.5275 580.774 70.4938 580.806 70.4619H580.802Z" fill="white"/>
</svg>
