
<svg width="188" height="193" viewBox="0 0 188 193" fill="none" xmlns="http://www.w3.org/2000/svg">
<circle cx="93.5" cy="86.5" r="40.5" fill="#2CBF29"/>
<path d="M78.155 70.0685C78.2137 69.1897 78.6042 68.3661 79.2475 67.7645C79.8908 67.1629 80.7387 66.8283 81.6194 66.8285H84.2323C85.113 66.8283 85.9609 67.1629 86.6042 67.7645C87.2475 68.3661 87.638 69.1897 87.6968 70.0685L89.7009 100.154C89.7326 100.628 89.6666 101.104 89.507 101.552C89.3473 101.999 89.0975 102.409 88.7729 102.756C88.4483 103.104 88.0559 103.38 87.62 103.57C87.1841 103.759 86.714 103.857 86.2388 103.857H79.613C79.1377 103.857 78.6676 103.759 78.2317 103.57C77.7958 103.38 77.4034 103.104 77.0788 102.756C76.7542 102.409 76.5044 101.999 76.3448 101.552C76.1851 101.104 76.1191 100.628 76.1508 100.154L78.155 70.0685ZM90.8673 103.857C91.6681 102.792 92.1078 101.443 92.0106 100.001L90.8048 81.9037L99.5089 74.0676C99.6751 73.9175 99.8814 73.8189 100.103 73.7838C100.324 73.7486 100.55 73.7784 100.755 73.8696C100.96 73.9607 101.133 74.1093 101.255 74.2973C101.377 74.4852 101.442 74.7045 101.441 74.9285V82.7438L111.08 74.0676C111.247 73.9175 111.453 73.8189 111.674 73.7838C111.895 73.7486 112.122 73.7784 112.326 73.8696C112.531 73.9607 112.705 74.1093 112.827 74.2973C112.948 74.4852 113.013 74.7045 113.013 74.9285V100.386C113.013 101.306 112.647 102.189 111.996 102.84C111.345 103.491 110.462 103.857 109.541 103.857H90.865H90.8673ZM108.384 101.543V91.8228C108.384 91.3317 108.189 90.8608 107.842 90.5136C107.495 90.1664 107.024 89.9713 106.533 89.9713H98.6641C98.1731 89.9713 97.7022 90.1664 97.355 90.5136C97.0078 90.8608 96.8127 91.3317 96.8127 91.8228V101.543H108.384Z" fill="white"/>
<path d="M49.3358 16V4.8H54.4238C55.6398 4.8 56.7118 5.03467 57.6398 5.504C58.5678 5.96267 59.2931 6.608 59.8158 7.44C60.3385 8.272 60.5998 9.25867 60.5998 10.4C60.5998 11.5307 60.3385 12.5173 59.8158 13.36C59.2931 14.192 58.5678 14.8427 57.6398 15.312C56.7118 15.7707 55.6398 16 54.4238 16H49.3358ZM51.9278 13.872H54.2958C55.0425 13.872 55.6878 13.7333 56.2318 13.456C56.7865 13.168 57.2131 12.7627 57.5118 12.24C57.8211 11.7173 57.9758 11.104 57.9758 10.4C57.9758 9.68533 57.8211 9.072 57.5118 8.56C57.2131 8.03733 56.7865 7.63733 56.2318 7.36C55.6878 7.072 55.0425 6.928 54.2958 6.928H51.9278V13.872ZM62.3786 16V7.392H64.8746V16H62.3786ZM63.6266 6.192C63.1679 6.192 62.7946 6.05867 62.5066 5.792C62.2186 5.52533 62.0746 5.19467 62.0746 4.8C62.0746 4.40533 62.2186 4.07467 62.5066 3.808C62.7946 3.54133 63.1679 3.408 63.6266 3.408C64.0852 3.408 64.4586 3.536 64.7466 3.792C65.0346 4.03733 65.1786 4.35733 65.1786 4.752C65.1786 5.168 65.0346 5.51467 64.7466 5.792C64.4692 6.05867 64.0959 6.192 63.6266 6.192ZM72.2791 16.128C71.5537 16.128 70.9191 15.968 70.3751 15.648C69.8311 15.328 69.4044 14.8427 69.0951 14.192C68.7964 13.5307 68.6471 12.6987 68.6471 11.696C68.6471 10.6827 68.7911 9.85067 69.0791 9.2C69.3671 8.54933 69.7831 8.064 70.3271 7.744C70.8711 7.424 71.5217 7.264 72.2791 7.264C73.0897 7.264 73.8151 7.45067 74.4551 7.824C75.1057 8.18667 75.6177 8.69867 75.9911 9.36C76.3751 10.0213 76.5671 10.8 76.5671 11.696C76.5671 12.6027 76.3751 13.3867 75.9911 14.048C75.6177 14.7093 75.1057 15.2213 74.4551 15.584C73.8151 15.9467 73.0897 16.128 72.2791 16.128ZM67.1911 19.104V7.392H69.5751V9.152L69.5271 11.712L69.6871 14.256V19.104H67.1911ZM71.8471 14.08C72.2631 14.08 72.6311 13.984 72.9511 13.792C73.2817 13.6 73.5431 13.328 73.7351 12.976C73.9377 12.6133 74.0391 12.1867 74.0391 11.696C74.0391 11.1947 73.9377 10.768 73.7351 10.416C73.5431 10.064 73.2817 9.792 72.9511 9.6C72.6311 9.408 72.2631 9.312 71.8471 9.312C71.4311 9.312 71.0577 9.408 70.7271 9.6C70.3964 9.792 70.1351 10.064 69.9431 10.416C69.7511 10.768 69.6551 11.1947 69.6551 11.696C69.6551 12.1867 69.7511 12.6133 69.9431 12.976C70.1351 13.328 70.3964 13.6 70.7271 13.792C71.0577 13.984 71.4311 14.08 71.8471 14.08ZM78.2379 16V7.392H80.6219V9.824L80.2859 9.12C80.5419 8.512 80.9526 8.05333 81.5179 7.744C82.0833 7.424 82.7713 7.264 83.5819 7.264V9.568C83.4753 9.55733 83.3793 9.552 83.2939 9.552C83.2086 9.54133 83.1179 9.536 83.0219 9.536C82.3393 9.536 81.7846 9.73333 81.3579 10.128C80.9419 10.512 80.7339 11.1147 80.7339 11.936V16H78.2379ZM89.0996 16.128C88.1822 16.128 87.3662 15.936 86.6516 15.552C85.9476 15.168 85.3876 14.6453 84.9716 13.984C84.5662 13.312 84.3636 12.5493 84.3636 11.696C84.3636 10.832 84.5662 10.0693 84.9716 9.408C85.3876 8.736 85.9476 8.21333 86.6516 7.84C87.3662 7.456 88.1822 7.264 89.0996 7.264C90.0062 7.264 90.8169 7.456 91.5316 7.84C92.2462 8.21333 92.8062 8.73067 93.2116 9.392C93.6169 10.0533 93.8196 10.8213 93.8196 11.696C93.8196 12.5493 93.6169 13.312 93.2116 13.984C92.8062 14.6453 92.2462 15.168 91.5316 15.552C90.8169 15.936 90.0062 16.128 89.0996 16.128ZM89.0996 14.08C89.5156 14.08 89.8889 13.984 90.2196 13.792C90.5502 13.6 90.8116 13.328 91.0036 12.976C91.1956 12.6133 91.2916 12.1867 91.2916 11.696C91.2916 11.1947 91.1956 10.768 91.0036 10.416C90.8116 10.064 90.5502 9.792 90.2196 9.6C89.8889 9.408 89.5156 9.312 89.0996 9.312C88.6836 9.312 88.3102 9.408 87.9796 9.6C87.6489 9.792 87.3822 10.064 87.1796 10.416C86.9876 10.768 86.8916 11.1947 86.8916 11.696C86.8916 12.1867 86.9876 12.6133 87.1796 12.976C87.3822 13.328 87.6489 13.6 87.9796 13.792C88.3102 13.984 88.6836 14.08 89.0996 14.08ZM99.1839 16.128C98.3733 16.128 97.6426 15.9467 96.9919 15.584C96.3413 15.2107 95.8239 14.6933 95.4399 14.032C95.0666 13.3707 94.8799 12.592 94.8799 11.696C94.8799 10.7893 95.0666 10.0053 95.4399 9.344C95.8239 8.68267 96.3413 8.17067 96.9919 7.808C97.6426 7.44533 98.3733 7.264 99.1839 7.264C99.9093 7.264 100.544 7.424 101.088 7.744C101.632 8.064 102.053 8.54933 102.352 9.2C102.651 9.85067 102.8 10.6827 102.8 11.696C102.8 12.6987 102.656 13.5307 102.368 14.192C102.08 14.8427 101.664 15.328 101.12 15.648C100.587 15.968 99.9413 16.128 99.1839 16.128ZM99.6159 14.08C100.021 14.08 100.389 13.984 100.72 13.792C101.051 13.6 101.312 13.328 101.504 12.976C101.707 12.6133 101.808 12.1867 101.808 11.696C101.808 11.1947 101.707 10.768 101.504 10.416C101.312 10.064 101.051 9.792 100.72 9.6C100.389 9.408 100.021 9.312 99.6159 9.312C99.1999 9.312 98.8266 9.408 98.4959 9.6C98.1653 9.792 97.8986 10.064 97.6959 10.416C97.5039 10.768 97.4079 11.1947 97.4079 11.696C97.4079 12.1867 97.5039 12.6133 97.6959 12.976C97.8986 13.328 98.1653 13.6 98.4959 13.792C98.8266 13.984 99.1999 14.08 99.6159 14.08ZM101.872 16V14.24L101.92 11.68L101.76 9.136V4.128H104.256V16H101.872ZM110.198 16.128C109.483 16.128 108.843 15.9893 108.278 15.712C107.723 15.4347 107.291 15.0133 106.982 14.448C106.673 13.872 106.518 13.1413 106.518 12.256V7.392H109.014V11.888C109.014 12.6027 109.163 13.1307 109.462 13.472C109.771 13.8027 110.203 13.968 110.758 13.968C111.142 13.968 111.483 13.888 111.782 13.728C112.081 13.5573 112.315 13.3013 112.486 12.96C112.657 12.608 112.742 12.1707 112.742 11.648V7.392H115.238V16H112.87V13.632L113.302 14.32C113.014 14.9173 112.587 15.3707 112.022 15.68C111.467 15.9787 110.859 16.128 110.198 16.128ZM119.614 14.24L119.678 11.2L123.694 7.392H126.67L122.814 11.312L121.518 12.368L119.614 14.24ZM117.55 16V4.128H120.046V16H117.55ZM123.966 16L121.054 12.384L122.622 10.448L126.99 16H123.966ZM130.728 16.128C129.992 16.128 129.282 16.0427 128.6 15.872C127.928 15.6907 127.394 15.4667 127 15.2L127.832 13.408C128.226 13.6533 128.69 13.856 129.224 14.016C129.768 14.1653 130.301 14.24 130.824 14.24C131.4 14.24 131.805 14.1707 132.04 14.032C132.285 13.8933 132.408 13.7013 132.408 13.456C132.408 13.2533 132.312 13.104 132.12 13.008C131.938 12.9013 131.693 12.8213 131.384 12.768C131.074 12.7147 130.733 12.6613 130.36 12.608C129.997 12.5547 129.629 12.4853 129.256 12.4C128.882 12.304 128.541 12.1653 128.232 11.984C127.922 11.8027 127.672 11.5573 127.48 11.248C127.298 10.9387 127.208 10.5387 127.208 10.048C127.208 9.504 127.362 9.024 127.672 8.608C127.992 8.192 128.45 7.86667 129.048 7.632C129.645 7.38667 130.36 7.264 131.192 7.264C131.778 7.264 132.376 7.328 132.984 7.456C133.592 7.584 134.098 7.77067 134.504 8.016L133.672 9.792C133.256 9.54667 132.834 9.38133 132.408 9.296C131.992 9.2 131.586 9.152 131.192 9.152C130.637 9.152 130.232 9.22667 129.976 9.376C129.72 9.52533 129.592 9.71733 129.592 9.952C129.592 10.1653 129.682 10.3253 129.864 10.432C130.056 10.5387 130.306 10.624 130.616 10.688C130.925 10.752 131.261 10.8107 131.624 10.864C131.997 10.9067 132.37 10.976 132.744 11.072C133.117 11.168 133.453 11.3067 133.752 11.488C134.061 11.6587 134.312 11.8987 134.504 12.208C134.696 12.5067 134.792 12.9013 134.792 13.392C134.792 13.9253 134.632 14.4 134.312 14.816C133.992 15.2213 133.528 15.5413 132.92 15.776C132.322 16.0107 131.592 16.128 130.728 16.128ZM136.332 16V7.392H138.828V16H136.332ZM137.58 6.192C137.121 6.192 136.748 6.05867 136.46 5.792C136.172 5.52533 136.028 5.19467 136.028 4.8C136.028 4.40533 136.172 4.07467 136.46 3.808C136.748 3.54133 137.121 3.408 137.58 3.408C138.038 3.408 138.412 3.536 138.7 3.792C138.988 4.03733 139.132 4.35733 139.132 4.752C139.132 5.168 138.988 5.51467 138.7 5.792C138.422 6.05867 138.049 6.192 137.58 6.192Z" fill="#171A23"/>
<path d="M18.5472 169V157.8H22.9152C23.8965 157.8 24.7339 157.955 25.4272 158.264C26.1205 158.573 26.6539 159.021 27.0272 159.608C27.4005 160.195 27.5872 160.893 27.5872 161.704C27.5872 162.515 27.4005 163.213 27.0272 163.8C26.6539 164.376 26.1205 164.824 25.4272 165.144C24.7339 165.453 23.8965 165.608 22.9152 165.608H19.4272L20.1472 164.856V169H18.5472ZM20.1472 165.016L19.4272 164.216H22.8672C23.8912 164.216 24.6645 163.997 25.1872 163.56C25.7205 163.123 25.9872 162.504 25.9872 161.704C25.9872 160.904 25.7205 160.285 25.1872 159.848C24.6645 159.411 23.8912 159.192 22.8672 159.192H19.4272L20.1472 158.392V165.016ZM33.4586 169.096C32.5519 169.096 31.7519 168.909 31.0586 168.536C30.3759 168.163 29.8426 167.651 29.4586 167C29.0852 166.349 28.8986 165.603 28.8986 164.76C28.8986 163.917 29.0799 163.171 29.4426 162.52C29.8159 161.869 30.3226 161.363 30.9626 161C31.6132 160.627 32.3439 160.44 33.1546 160.44C33.9759 160.44 34.7012 160.621 35.3306 160.984C35.9599 161.347 36.4506 161.859 36.8026 162.52C37.1652 163.171 37.3466 163.933 37.3466 164.808C37.3466 164.872 37.3412 164.947 37.3306 165.032C37.3306 165.117 37.3252 165.197 37.3146 165.272H30.0986V164.168H36.5146L35.8906 164.552C35.9012 164.008 35.7892 163.523 35.5546 163.096C35.3199 162.669 34.9946 162.339 34.5786 162.104C34.1732 161.859 33.6986 161.736 33.1546 161.736C32.6212 161.736 32.1466 161.859 31.7306 162.104C31.3146 162.339 30.9892 162.675 30.7546 163.112C30.5199 163.539 30.4026 164.029 30.4026 164.584V164.84C30.4026 165.405 30.5306 165.912 30.7866 166.36C31.0532 166.797 31.4212 167.139 31.8906 167.384C32.3599 167.629 32.8986 167.752 33.5066 167.752C34.0079 167.752 34.4612 167.667 34.8666 167.496C35.2826 167.325 35.6452 167.069 35.9546 166.728L36.8026 167.72C36.4186 168.168 35.9386 168.509 35.3626 168.744C34.7972 168.979 34.1626 169.096 33.4586 169.096ZM41.9114 169.096C41.2074 169.096 40.5354 169 39.8954 168.808C39.2661 168.616 38.7701 168.381 38.4074 168.104L39.0474 166.888C39.4101 167.133 39.8581 167.341 40.3914 167.512C40.9248 167.683 41.4688 167.768 42.0234 167.768C42.7381 167.768 43.2501 167.667 43.5594 167.464C43.8794 167.261 44.0394 166.979 44.0394 166.616C44.0394 166.349 43.9434 166.141 43.7514 165.992C43.5594 165.843 43.3034 165.731 42.9834 165.656C42.6741 165.581 42.3274 165.517 41.9434 165.464C41.5594 165.4 41.1754 165.325 40.7914 165.24C40.4074 165.144 40.0554 165.016 39.7354 164.856C39.4154 164.685 39.1594 164.456 38.9674 164.168C38.7754 163.869 38.6794 163.475 38.6794 162.984C38.6794 162.472 38.8234 162.024 39.1114 161.64C39.3994 161.256 39.8048 160.963 40.3274 160.76C40.8608 160.547 41.4901 160.44 42.2154 160.44C42.7701 160.44 43.3301 160.509 43.8954 160.648C44.4714 160.776 44.9408 160.963 45.3034 161.208L44.6474 162.424C44.2634 162.168 43.8634 161.992 43.4474 161.896C43.0314 161.8 42.6154 161.752 42.1994 161.752C41.5274 161.752 41.0261 161.864 40.6954 162.088C40.3648 162.301 40.1994 162.579 40.1994 162.92C40.1994 163.208 40.2954 163.432 40.4874 163.592C40.6901 163.741 40.9461 163.859 41.2554 163.944C41.5754 164.029 41.9274 164.104 42.3114 164.168C42.6954 164.221 43.0794 164.296 43.4634 164.392C43.8474 164.477 44.1941 164.6 44.5034 164.76C44.8234 164.92 45.0794 165.144 45.2714 165.432C45.4741 165.72 45.5754 166.104 45.5754 166.584C45.5754 167.096 45.4261 167.539 45.1274 167.912C44.8288 168.285 44.4074 168.579 43.8634 168.792C43.3194 168.995 42.6688 169.096 41.9114 169.096ZM52.7591 169V167.208L52.6791 166.872V163.816C52.6791 163.165 52.4871 162.664 52.1031 162.312C51.7297 161.949 51.1644 161.768 50.4071 161.768C49.9057 161.768 49.4151 161.853 48.9351 162.024C48.4551 162.184 48.0497 162.403 47.7191 162.68L47.0791 161.528C47.5164 161.176 48.0391 160.909 48.6471 160.728C49.2657 160.536 49.9111 160.44 50.5831 160.44C51.7457 160.44 52.6417 160.723 53.2711 161.288C53.9004 161.853 54.2151 162.717 54.2151 163.88V169H52.7591ZM49.9751 169.096C49.3457 169.096 48.7911 168.989 48.3111 168.776C47.8417 168.563 47.4791 168.269 47.2231 167.896C46.9671 167.512 46.8391 167.08 46.8391 166.6C46.8391 166.141 46.9457 165.725 47.1591 165.352C47.3831 164.979 47.7404 164.68 48.2311 164.456C48.7324 164.232 49.4044 164.12 50.2471 164.12H52.9351V165.224H50.3111C49.5431 165.224 49.0257 165.352 48.7591 165.608C48.4924 165.864 48.3591 166.173 48.3591 166.536C48.3591 166.952 48.5244 167.288 48.8551 167.544C49.1857 167.789 49.6444 167.912 50.2311 167.912C50.8071 167.912 51.3084 167.784 51.7351 167.528C52.1724 167.272 52.4871 166.899 52.6791 166.408L52.9831 167.464C52.7804 167.965 52.4231 168.365 51.9111 168.664C51.3991 168.952 50.7537 169.096 49.9751 169.096ZM61.5856 160.44C62.2789 160.44 62.8869 160.573 63.4096 160.84C63.9429 161.107 64.3589 161.512 64.6576 162.056C64.9562 162.6 65.1056 163.288 65.1056 164.12V169H63.5696V164.296C63.5696 163.475 63.3669 162.856 62.9616 162.44C62.5669 162.024 62.0069 161.816 61.2816 161.816C60.7376 161.816 60.2629 161.923 59.8576 162.136C59.4522 162.349 59.1376 162.664 58.9136 163.08C58.7002 163.496 58.5936 164.013 58.5936 164.632V169H57.0576V160.52H58.5296V162.808L58.2896 162.2C58.5669 161.645 58.9936 161.213 59.5696 160.904C60.1456 160.595 60.8176 160.44 61.5856 160.44ZM73.2122 169V167.208L73.1322 166.872V163.816C73.1322 163.165 72.9402 162.664 72.5562 162.312C72.1829 161.949 71.6175 161.768 70.8602 161.768C70.3589 161.768 69.8682 161.853 69.3882 162.024C68.9082 162.184 68.5029 162.403 68.1722 162.68L67.5322 161.528C67.9695 161.176 68.4922 160.909 69.1002 160.728C69.7189 160.536 70.3642 160.44 71.0362 160.44C72.1989 160.44 73.0949 160.723 73.7242 161.288C74.3535 161.853 74.6682 162.717 74.6682 163.88V169H73.2122ZM70.4282 169.096C69.7989 169.096 69.2442 168.989 68.7642 168.776C68.2949 168.563 67.9322 168.269 67.6762 167.896C67.4202 167.512 67.2922 167.08 67.2922 166.6C67.2922 166.141 67.3989 165.725 67.6122 165.352C67.8362 164.979 68.1935 164.68 68.6842 164.456C69.1855 164.232 69.8575 164.12 70.7002 164.12H73.3882V165.224H70.7642C69.9962 165.224 69.4789 165.352 69.2122 165.608C68.9455 165.864 68.8122 166.173 68.8122 166.536C68.8122 166.952 68.9775 167.288 69.3082 167.544C69.6389 167.789 70.0975 167.912 70.6842 167.912C71.2602 167.912 71.7615 167.784 72.1882 167.528C72.6255 167.272 72.9402 166.899 73.1322 166.408L73.4362 167.464C73.2335 167.965 72.8762 168.365 72.3642 168.664C71.8522 168.952 71.2069 169.096 70.4282 169.096ZM82.0387 160.44C82.732 160.44 83.34 160.573 83.8627 160.84C84.396 161.107 84.812 161.512 85.1107 162.056C85.4094 162.6 85.5587 163.288 85.5587 164.12V169H84.0227V164.296C84.0227 163.475 83.82 162.856 83.4147 162.44C83.02 162.024 82.46 161.816 81.7347 161.816C81.1907 161.816 80.716 161.923 80.3107 162.136C79.9054 162.349 79.5907 162.664 79.3667 163.08C79.1534 163.496 79.0467 164.013 79.0467 164.632V169H77.5107V160.52H78.9827V162.808L78.7427 162.2C79.02 161.645 79.4467 161.213 80.0227 160.904C80.5987 160.595 81.2707 160.44 82.0387 160.44ZM95.1302 169.096C94.4262 169.096 93.7542 169 93.1142 168.808C92.4849 168.616 91.9889 168.381 91.6262 168.104L92.2662 166.888C92.6289 167.133 93.0769 167.341 93.6102 167.512C94.1435 167.683 94.6875 167.768 95.2422 167.768C95.9569 167.768 96.4689 167.667 96.7782 167.464C97.0982 167.261 97.2582 166.979 97.2582 166.616C97.2582 166.349 97.1622 166.141 96.9702 165.992C96.7782 165.843 96.5222 165.731 96.2022 165.656C95.8929 165.581 95.5462 165.517 95.1622 165.464C94.7782 165.4 94.3942 165.325 94.0102 165.24C93.6262 165.144 93.2742 165.016 92.9542 164.856C92.6342 164.685 92.3782 164.456 92.1862 164.168C91.9942 163.869 91.8982 163.475 91.8982 162.984C91.8982 162.472 92.0422 162.024 92.3302 161.64C92.6182 161.256 93.0235 160.963 93.5462 160.76C94.0795 160.547 94.7089 160.44 95.4342 160.44C95.9889 160.44 96.5489 160.509 97.1142 160.648C97.6902 160.776 98.1595 160.963 98.5222 161.208L97.8662 162.424C97.4822 162.168 97.0822 161.992 96.6662 161.896C96.2502 161.8 95.8342 161.752 95.4182 161.752C94.7462 161.752 94.2449 161.864 93.9142 162.088C93.5835 162.301 93.4182 162.579 93.4182 162.92C93.4182 163.208 93.5142 163.432 93.7062 163.592C93.9089 163.741 94.1649 163.859 94.4742 163.944C94.7942 164.029 95.1462 164.104 95.5302 164.168C95.9142 164.221 96.2982 164.296 96.6822 164.392C97.0662 164.477 97.4129 164.6 97.7222 164.76C98.0422 164.92 98.2982 165.144 98.4902 165.432C98.6929 165.72 98.7942 166.104 98.7942 166.584C98.7942 167.096 98.6449 167.539 98.3462 167.912C98.0475 168.285 97.6262 168.579 97.0822 168.792C96.5382 168.995 95.8875 169.096 95.1302 169.096ZM104.49 169.096C103.583 169.096 102.783 168.909 102.09 168.536C101.407 168.163 100.874 167.651 100.49 167C100.116 166.349 99.9298 165.603 99.9298 164.76C99.9298 163.917 100.111 163.171 100.474 162.52C100.847 161.869 101.354 161.363 101.994 161C102.644 160.627 103.375 160.44 104.186 160.44C105.007 160.44 105.732 160.621 106.362 160.984C106.991 161.347 107.482 161.859 107.834 162.52C108.196 163.171 108.378 163.933 108.378 164.808C108.378 164.872 108.372 164.947 108.362 165.032C108.362 165.117 108.356 165.197 108.346 165.272H101.13V164.168H107.546L106.922 164.552C106.932 164.008 106.82 163.523 106.586 163.096C106.351 162.669 106.026 162.339 105.61 162.104C105.204 161.859 104.73 161.736 104.186 161.736C103.652 161.736 103.178 161.859 102.762 162.104C102.346 162.339 102.02 162.675 101.786 163.112C101.551 163.539 101.434 164.029 101.434 164.584V164.84C101.434 165.405 101.562 165.912 101.818 166.36C102.084 166.797 102.452 167.139 102.922 167.384C103.391 167.629 103.93 167.752 104.538 167.752C105.039 167.752 105.492 167.667 105.898 167.496C106.314 167.325 106.676 167.069 106.986 166.728L107.834 167.72C107.45 168.168 106.97 168.509 106.394 168.744C105.828 168.979 105.194 169.096 104.49 169.096ZM114.015 169.096C113.193 169.096 112.457 168.915 111.807 168.552C111.167 168.189 110.66 167.683 110.287 167.032C109.913 166.381 109.727 165.624 109.727 164.76C109.727 163.896 109.913 163.144 110.287 162.504C110.66 161.853 111.167 161.347 111.807 160.984C112.457 160.621 113.193 160.44 114.015 160.44C114.729 160.44 115.375 160.6 115.951 160.92C116.527 161.24 116.985 161.72 117.327 162.36C117.679 163 117.855 163.8 117.855 164.76C117.855 165.72 117.684 166.52 117.343 167.16C117.012 167.8 116.559 168.285 115.983 168.616C115.407 168.936 114.751 169.096 114.015 169.096ZM114.143 167.752C114.676 167.752 115.156 167.629 115.583 167.384C116.02 167.139 116.361 166.792 116.607 166.344C116.863 165.885 116.991 165.357 116.991 164.76C116.991 164.152 116.863 163.629 116.607 163.192C116.361 162.744 116.02 162.397 115.583 162.152C115.156 161.907 114.676 161.784 114.143 161.784C113.599 161.784 113.113 161.907 112.687 162.152C112.26 162.397 111.919 162.744 111.663 163.192C111.407 163.629 111.279 164.152 111.279 164.76C111.279 165.357 111.407 165.885 111.663 166.344C111.919 166.792 112.26 167.139 112.687 167.384C113.113 167.629 113.599 167.752 114.143 167.752ZM117.039 169V166.712L117.135 164.744L116.975 162.776V157.128H118.511V169H117.039ZM126.681 169V167.208L126.601 166.872V163.816C126.601 163.165 126.409 162.664 126.025 162.312C125.652 161.949 125.086 161.768 124.329 161.768C123.828 161.768 123.337 161.853 122.857 162.024C122.377 162.184 121.972 162.403 121.641 162.68L121.001 161.528C121.438 161.176 121.961 160.909 122.569 160.728C123.188 160.536 123.833 160.44 124.505 160.44C125.668 160.44 126.564 160.723 127.193 161.288C127.822 161.853 128.137 162.717 128.137 163.88V169H126.681ZM123.897 169.096C123.268 169.096 122.713 168.989 122.233 168.776C121.764 168.563 121.401 168.269 121.145 167.896C120.889 167.512 120.761 167.08 120.761 166.6C120.761 166.141 120.868 165.725 121.081 165.352C121.305 164.979 121.662 164.68 122.153 164.456C122.654 164.232 123.326 164.12 124.169 164.12H126.857V165.224H124.233C123.465 165.224 122.948 165.352 122.681 165.608C122.414 165.864 122.281 166.173 122.281 166.536C122.281 166.952 122.446 167.288 122.777 167.544C123.108 167.789 123.566 167.912 124.153 167.912C124.729 167.912 125.23 167.784 125.657 167.528C126.094 167.272 126.409 166.899 126.601 166.408L126.905 167.464C126.702 167.965 126.345 168.365 125.833 168.664C125.321 168.952 124.676 169.096 123.897 169.096ZM135.507 160.44C136.201 160.44 136.809 160.573 137.331 160.84C137.865 161.107 138.281 161.512 138.579 162.056C138.878 162.6 139.027 163.288 139.027 164.12V169H137.491V164.296C137.491 163.475 137.289 162.856 136.883 162.44C136.489 162.024 135.929 161.816 135.203 161.816C134.659 161.816 134.185 161.923 133.779 162.136C133.374 162.349 133.059 162.664 132.835 163.08C132.622 163.496 132.515 164.013 132.515 164.632V169H130.979V160.52H132.451V162.808L132.211 162.2C132.489 161.645 132.915 161.213 133.491 160.904C134.067 160.595 134.739 160.44 135.507 160.44ZM145.582 172.2C144.803 172.2 144.046 172.088 143.31 171.864C142.585 171.651 141.993 171.341 141.534 170.936L142.27 169.752C142.665 170.093 143.15 170.36 143.726 170.552C144.302 170.755 144.905 170.856 145.534 170.856C146.537 170.856 147.273 170.621 147.742 170.152C148.211 169.683 148.446 168.968 148.446 168.008V166.216L148.606 164.536L148.526 162.84V160.52H149.982V167.848C149.982 169.341 149.609 170.44 148.862 171.144C148.115 171.848 147.022 172.2 145.582 172.2ZM145.39 168.648C144.569 168.648 143.833 168.477 143.182 168.136C142.542 167.784 142.03 167.299 141.646 166.68C141.273 166.061 141.086 165.347 141.086 164.536C141.086 163.715 141.273 163 141.646 162.392C142.03 161.773 142.542 161.293 143.182 160.952C143.833 160.611 144.569 160.44 145.39 160.44C146.115 160.44 146.777 160.589 147.374 160.888C147.971 161.176 148.446 161.624 148.798 162.232C149.161 162.84 149.342 163.608 149.342 164.536C149.342 165.453 149.161 166.216 148.798 166.824C148.446 167.432 147.971 167.891 147.374 168.2C146.777 168.499 146.115 168.648 145.39 168.648ZM145.566 167.304C146.131 167.304 146.633 167.187 147.07 166.952C147.507 166.717 147.849 166.392 148.094 165.976C148.35 165.56 148.478 165.08 148.478 164.536C148.478 163.992 148.35 163.512 148.094 163.096C147.849 162.68 147.507 162.36 147.07 162.136C146.633 161.901 146.131 161.784 145.566 161.784C145.001 161.784 144.494 161.901 144.046 162.136C143.609 162.36 143.262 162.68 143.006 163.096C142.761 163.512 142.638 163.992 142.638 164.536C142.638 165.08 142.761 165.56 143.006 165.976C143.262 166.392 143.609 166.717 144.046 166.952C144.494 167.187 145.001 167.304 145.566 167.304ZM160.718 169.096C159.896 169.096 159.16 168.915 158.51 168.552C157.87 168.189 157.363 167.683 156.99 167.032C156.616 166.381 156.43 165.624 156.43 164.76C156.43 163.896 156.616 163.144 156.99 162.504C157.363 161.853 157.87 161.347 158.51 160.984C159.16 160.621 159.896 160.44 160.718 160.44C161.432 160.44 162.078 160.6 162.654 160.92C163.23 161.24 163.688 161.72 164.03 162.36C164.382 163 164.558 163.8 164.558 164.76C164.558 165.72 164.387 166.52 164.046 167.16C163.715 167.8 163.262 168.285 162.686 168.616C162.11 168.936 161.454 169.096 160.718 169.096ZM160.846 167.752C161.379 167.752 161.859 167.629 162.286 167.384C162.723 167.139 163.064 166.792 163.31 166.344C163.566 165.885 163.694 165.357 163.694 164.76C163.694 164.152 163.566 163.629 163.31 163.192C163.064 162.744 162.723 162.397 162.286 162.152C161.859 161.907 161.379 161.784 160.846 161.784C160.302 161.784 159.816 161.907 159.39 162.152C158.963 162.397 158.622 162.744 158.366 163.192C158.11 163.629 157.982 164.152 157.982 164.76C157.982 165.357 158.11 165.885 158.366 166.344C158.622 166.792 158.963 167.139 159.39 167.384C159.816 167.629 160.302 167.752 160.846 167.752ZM163.742 169V166.712L163.838 164.744L163.678 162.776V157.128H165.214V169H163.742ZM168.12 169V160.52H169.656V169H168.12ZM168.888 158.888C168.589 158.888 168.339 158.792 168.136 158.6C167.944 158.408 167.848 158.173 167.848 157.896C167.848 157.608 167.944 157.368 168.136 157.176C168.339 156.984 168.589 156.888 168.888 156.888C169.187 156.888 169.432 156.984 169.624 157.176C169.827 157.357 169.928 157.587 169.928 157.864C169.928 158.152 169.832 158.397 169.64 158.6C169.448 158.792 169.197 158.888 168.888 158.888ZM64.327 189.096C63.623 189.096 62.9777 188.936 62.391 188.616C61.815 188.285 61.351 187.8 60.999 187.16C60.6577 186.52 60.487 185.72 60.487 184.76C60.487 183.8 60.6523 183 60.983 182.36C61.3243 181.72 61.783 181.24 62.359 180.92C62.9457 180.6 63.6017 180.44 64.327 180.44C65.159 180.44 65.895 180.621 66.535 180.984C67.175 181.347 67.6817 181.853 68.055 182.504C68.4283 183.144 68.615 183.896 68.615 184.76C68.615 185.624 68.4283 186.381 68.055 187.032C67.6817 187.683 67.175 188.189 66.535 188.552C65.895 188.915 65.159 189.096 64.327 189.096ZM59.831 192.104V180.52H61.303V182.808L61.207 184.776L61.367 186.744V192.104H59.831ZM64.199 187.752C64.743 187.752 65.2283 187.629 65.655 187.384C66.0923 187.139 66.4337 186.792 66.679 186.344C66.935 185.885 67.063 185.357 67.063 184.76C67.063 184.152 66.935 183.629 66.679 183.192C66.4337 182.744 66.0923 182.397 65.655 182.152C65.2283 181.907 64.743 181.784 64.199 181.784C63.6657 181.784 63.1803 181.907 62.743 182.152C62.3163 182.397 61.975 182.744 61.719 183.192C61.4737 183.629 61.351 184.152 61.351 184.76C61.351 185.357 61.4737 185.885 61.719 186.344C61.975 186.792 62.3163 187.139 62.743 187.384C63.1803 187.629 63.6657 187.752 64.199 187.752ZM70.7373 189V180.52H72.2093V182.824L72.0653 182.248C72.2999 181.661 72.6946 181.213 73.2493 180.904C73.8039 180.595 74.4866 180.44 75.2973 180.44V181.928C75.2333 181.917 75.1693 181.912 75.1053 181.912C75.0519 181.912 74.9986 181.912 74.9453 181.912C74.1239 181.912 73.4733 182.157 72.9933 182.648C72.5133 183.139 72.2733 183.848 72.2733 184.776V189H70.7373ZM80.7443 189.096C79.8909 189.096 79.1336 188.909 78.4723 188.536C77.8109 188.163 77.2883 187.651 76.9043 187C76.5203 186.339 76.3283 185.592 76.3283 184.76C76.3283 183.917 76.5203 183.171 76.9043 182.52C77.2883 181.869 77.8109 181.363 78.4723 181C79.1336 180.627 79.8909 180.44 80.7443 180.44C81.5869 180.44 82.3389 180.627 83.0003 181C83.6723 181.363 84.1949 181.869 84.5683 182.52C84.9523 183.16 85.1443 183.907 85.1443 184.76C85.1443 185.603 84.9523 186.349 84.5683 187C84.1949 187.651 83.6723 188.163 83.0003 188.536C82.3389 188.909 81.5869 189.096 80.7443 189.096ZM80.7443 187.752C81.2883 187.752 81.7736 187.629 82.2003 187.384C82.6376 187.139 82.9789 186.792 83.2243 186.344C83.4696 185.885 83.5923 185.357 83.5923 184.76C83.5923 184.152 83.4696 183.629 83.2243 183.192C82.9789 182.744 82.6376 182.397 82.2003 182.152C81.7736 181.907 81.2883 181.784 80.7443 181.784C80.2003 181.784 79.7149 181.907 79.2883 182.152C78.8616 182.397 78.5203 182.744 78.2643 183.192C78.0083 183.629 77.8803 184.152 77.8803 184.76C77.8803 185.357 78.0083 185.885 78.2643 186.344C78.5203 186.792 78.8616 187.139 79.2883 187.384C79.7149 187.629 80.2003 187.752 80.7443 187.752ZM90.7725 189.096C89.9512 189.096 89.2152 188.915 88.5645 188.552C87.9245 188.189 87.4178 187.683 87.0445 187.032C86.6712 186.381 86.4845 185.624 86.4845 184.76C86.4845 183.896 86.6712 183.144 87.0445 182.504C87.4178 181.853 87.9245 181.347 88.5645 180.984C89.2152 180.621 89.9512 180.44 90.7725 180.44C91.4872 180.44 92.1325 180.6 92.7085 180.92C93.2845 181.24 93.7432 181.72 94.0845 182.36C94.4365 183 94.6125 183.8 94.6125 184.76C94.6125 185.72 94.4418 186.52 94.1005 187.16C93.7698 187.8 93.3165 188.285 92.7405 188.616C92.1645 188.936 91.5085 189.096 90.7725 189.096ZM90.9005 187.752C91.4338 187.752 91.9138 187.629 92.3405 187.384C92.7778 187.139 93.1192 186.792 93.3645 186.344C93.6205 185.885 93.7485 185.357 93.7485 184.76C93.7485 184.152 93.6205 183.629 93.3645 183.192C93.1192 182.744 92.7778 182.397 92.3405 182.152C91.9138 181.907 91.4338 181.784 90.9005 181.784C90.3565 181.784 89.8712 181.907 89.4445 182.152C89.0178 182.397 88.6765 182.744 88.4205 183.192C88.1645 183.629 88.0365 184.152 88.0365 184.76C88.0365 185.357 88.1645 185.885 88.4205 186.344C88.6765 186.792 89.0178 187.139 89.4445 187.384C89.8712 187.629 90.3565 187.752 90.9005 187.752ZM93.7965 189V186.712L93.8925 184.744L93.7325 182.776V177.128H95.2685V189H93.7965ZM101.743 189.096C101.017 189.096 100.377 188.963 99.8228 188.696C99.2788 188.429 98.8521 188.024 98.5428 187.48C98.2441 186.925 98.0948 186.232 98.0948 185.4V180.52H99.6308V185.224C99.6308 186.056 99.8281 186.68 100.223 187.096C100.628 187.512 101.193 187.72 101.919 187.72C102.452 187.72 102.916 187.613 103.311 187.4C103.705 187.176 104.009 186.856 104.223 186.44C104.436 186.013 104.543 185.501 104.543 184.904V180.52H106.079V189H104.623V186.712L104.863 187.32C104.585 187.885 104.169 188.323 103.615 188.632C103.06 188.941 102.436 189.096 101.743 189.096ZM110.251 186.952L110.283 184.984L115.163 180.52H117.019L113.275 184.2L112.443 184.904L110.251 186.952ZM109.003 189V177.128H110.539V189H109.003ZM115.483 189L112.155 184.872L113.147 183.64L117.371 189H115.483ZM121.029 189.096C120.325 189.096 119.653 189 119.013 188.808C118.383 188.616 117.887 188.381 117.525 188.104L118.165 186.888C118.527 187.133 118.975 187.341 119.509 187.512C120.042 187.683 120.586 187.768 121.141 187.768C121.855 187.768 122.367 187.667 122.677 187.464C122.997 187.261 123.157 186.979 123.157 186.616C123.157 186.349 123.061 186.141 122.869 185.992C122.677 185.843 122.421 185.731 122.101 185.656C121.791 185.581 121.445 185.517 121.061 185.464C120.677 185.4 120.293 185.325 119.909 185.24C119.525 185.144 119.173 185.016 118.853 184.856C118.533 184.685 118.277 184.456 118.085 184.168C117.893 183.869 117.797 183.475 117.797 182.984C117.797 182.472 117.941 182.024 118.229 181.64C118.517 181.256 118.922 180.963 119.445 180.76C119.978 180.547 120.607 180.44 121.333 180.44C121.887 180.44 122.447 180.509 123.013 180.648C123.589 180.776 124.058 180.963 124.421 181.208L123.765 182.424C123.381 182.168 122.981 181.992 122.565 181.896C122.149 181.8 121.733 181.752 121.317 181.752C120.645 181.752 120.143 181.864 119.813 182.088C119.482 182.301 119.317 182.579 119.317 182.92C119.317 183.208 119.413 183.432 119.605 183.592C119.807 183.741 120.063 183.859 120.373 183.944C120.693 184.029 121.045 184.104 121.429 184.168C121.813 184.221 122.197 184.296 122.581 184.392C122.965 184.477 123.311 184.6 123.621 184.76C123.941 184.92 124.197 185.144 124.389 185.432C124.591 185.72 124.693 186.104 124.693 186.584C124.693 187.096 124.543 187.539 124.245 187.912C123.946 188.285 123.525 188.579 122.981 188.792C122.437 188.995 121.786 189.096 121.029 189.096ZM126.612 189V180.52H128.148V189H126.612ZM127.38 178.888C127.082 178.888 126.831 178.792 126.628 178.6C126.436 178.408 126.34 178.173 126.34 177.896C126.34 177.608 126.436 177.368 126.628 177.176C126.831 176.984 127.082 176.888 127.38 176.888C127.679 176.888 127.924 176.984 128.116 177.176C128.319 177.357 128.42 177.587 128.42 177.864C128.42 178.152 128.324 178.397 128.132 178.6C127.94 178.792 127.69 178.888 127.38 178.888Z" fill="#171A23"/>
</svg>
